%TF.GenerationSoftware,KiCad,Pcbnew,10.0.3-2.fc44*%
%TF.CreationDate,2026-07-02T16:12:44+05:30*%
%TF.ProjectId,walkietalkie,77616c6b-6965-4746-916c-6b69652e6b69,rev?*%
%TF.SameCoordinates,Original*%
%TF.FileFunction,Legend,Top*%
%TF.FilePolarity,Positive*%
%FSLAX46Y46*%
G04 Gerber Fmt 4.6, Leading zero omitted, Abs format (unit mm)*
G04 Created by KiCad (PCBNEW 10.0.3-2.fc44) date 2026-07-02 16:12:44*
%MOMM*%
%LPD*%
G01*
G04 APERTURE LIST*
%ADD10C,0.200000*%
%ADD11C,0.100000*%
%ADD12C,0.160000*%
%ADD13C,0.000000*%
%ADD14C,0.120000*%
%ADD15C,0.050000*%
G04 APERTURE END LIST*
D10*
G36*
X152026626Y-148277023D02*
G01*
X152090805Y-148341202D01*
X152128720Y-148492861D01*
X152128720Y-148801575D01*
X152090804Y-148953235D01*
X152026628Y-149017413D01*
X151967018Y-149047219D01*
X151823756Y-149047219D01*
X151764146Y-149017414D01*
X151699969Y-148953236D01*
X151662054Y-148801575D01*
X151662054Y-148492862D01*
X151699969Y-148341202D01*
X151764148Y-148277023D01*
X151823756Y-148247219D01*
X151967018Y-148247219D01*
X152026626Y-148277023D01*
G37*
G36*
X153439831Y-149358330D02*
G01*
X151350943Y-149358330D01*
X151350943Y-148480552D01*
X151462054Y-148480552D01*
X151462054Y-148813885D01*
X151462389Y-148817287D01*
X151462172Y-148818746D01*
X151463251Y-148826043D01*
X151463975Y-148833394D01*
X151464539Y-148834757D01*
X151465040Y-148838139D01*
X151512659Y-149028614D01*
X151519254Y-149047075D01*
X151523679Y-149053047D01*
X151526525Y-149059918D01*
X151538962Y-149075071D01*
X151634200Y-149170311D01*
X151641868Y-149176604D01*
X151643599Y-149178600D01*
X151646606Y-149180493D01*
X151649353Y-149182747D01*
X151651793Y-149183757D01*
X151660190Y-149189043D01*
X151755427Y-149236662D01*
X151773736Y-149243668D01*
X151777319Y-149243922D01*
X151780640Y-149245298D01*
X151800149Y-149247219D01*
X151990625Y-149247219D01*
X152010134Y-149245298D01*
X152013454Y-149243922D01*
X152017038Y-149243668D01*
X152035346Y-149236662D01*
X152130584Y-149189043D01*
X152138979Y-149183758D01*
X152141421Y-149182747D01*
X152144168Y-149180491D01*
X152147174Y-149178600D01*
X152148904Y-149176605D01*
X152156574Y-149170310D01*
X152251812Y-149075071D01*
X152264249Y-149059918D01*
X152267094Y-149053047D01*
X152271520Y-149047075D01*
X152278115Y-149028615D01*
X152325734Y-148838139D01*
X152326234Y-148834757D01*
X152326799Y-148833394D01*
X152327522Y-148826043D01*
X152328602Y-148818746D01*
X152328384Y-148817287D01*
X152328720Y-148813885D01*
X152328720Y-148480552D01*
X152328384Y-148477149D01*
X152328602Y-148475691D01*
X152327522Y-148468393D01*
X152326799Y-148461043D01*
X152326234Y-148459679D01*
X152325734Y-148456298D01*
X152278115Y-148265822D01*
X152271520Y-148247362D01*
X152267093Y-148241387D01*
X152264248Y-148234519D01*
X152251812Y-148219365D01*
X152179666Y-148147219D01*
X152557292Y-148147219D01*
X152557292Y-149147219D01*
X152559213Y-149166728D01*
X152574145Y-149202776D01*
X152601735Y-149230366D01*
X152637783Y-149245298D01*
X152676801Y-149245298D01*
X152712849Y-149230366D01*
X152740439Y-149202776D01*
X152755371Y-149166728D01*
X152757292Y-149147219D01*
X152757292Y-148523775D01*
X153141896Y-149196833D01*
X153144814Y-149200943D01*
X153145573Y-149202776D01*
X153147439Y-149204642D01*
X153153243Y-149212818D01*
X153163759Y-149220962D01*
X153173163Y-149230366D01*
X153179050Y-149232804D01*
X153184092Y-149236709D01*
X153196924Y-149240208D01*
X153209211Y-149245298D01*
X153215587Y-149245298D01*
X153221736Y-149246975D01*
X153234929Y-149245298D01*
X153248229Y-149245298D01*
X153254117Y-149242858D01*
X153260442Y-149242055D01*
X153271991Y-149235454D01*
X153284277Y-149230366D01*
X153288784Y-149225858D01*
X153294319Y-149222696D01*
X153302463Y-149212179D01*
X153311867Y-149202776D01*
X153314305Y-149196888D01*
X153318210Y-149191847D01*
X153321709Y-149179014D01*
X153326799Y-149166728D01*
X153327781Y-149156750D01*
X153328476Y-149154204D01*
X153328225Y-149152236D01*
X153328720Y-149147219D01*
X153328720Y-148147219D01*
X153326799Y-148127710D01*
X153311867Y-148091662D01*
X153284277Y-148064072D01*
X153248229Y-148049140D01*
X153209211Y-148049140D01*
X153173163Y-148064072D01*
X153145573Y-148091662D01*
X153130641Y-148127710D01*
X153128720Y-148147219D01*
X153128720Y-148770662D01*
X152744116Y-148097605D01*
X152741197Y-148093494D01*
X152740439Y-148091662D01*
X152738572Y-148089795D01*
X152732769Y-148081620D01*
X152722254Y-148073477D01*
X152712849Y-148064072D01*
X152706958Y-148061632D01*
X152701920Y-148057730D01*
X152689091Y-148054231D01*
X152676801Y-148049140D01*
X152670426Y-148049140D01*
X152664277Y-148047463D01*
X152651084Y-148049140D01*
X152637783Y-148049140D01*
X152631894Y-148051579D01*
X152625570Y-148052383D01*
X152614020Y-148058983D01*
X152601735Y-148064072D01*
X152597227Y-148068579D01*
X152591693Y-148071742D01*
X152583550Y-148082256D01*
X152574145Y-148091662D01*
X152571705Y-148097552D01*
X152567803Y-148102591D01*
X152564304Y-148115419D01*
X152559213Y-148127710D01*
X152558230Y-148137687D01*
X152557536Y-148140234D01*
X152557786Y-148142201D01*
X152557292Y-148147219D01*
X152179666Y-148147219D01*
X152156574Y-148124127D01*
X152148903Y-148117832D01*
X152147174Y-148115838D01*
X152144166Y-148113944D01*
X152141420Y-148111691D01*
X152138980Y-148110680D01*
X152130584Y-148105395D01*
X152035346Y-148057776D01*
X152017038Y-148050770D01*
X152013454Y-148050515D01*
X152010134Y-148049140D01*
X151990625Y-148047219D01*
X151800149Y-148047219D01*
X151780640Y-148049140D01*
X151777319Y-148050515D01*
X151773736Y-148050770D01*
X151755427Y-148057776D01*
X151660190Y-148105395D01*
X151651791Y-148110681D01*
X151649354Y-148111691D01*
X151646610Y-148113942D01*
X151643599Y-148115838D01*
X151641866Y-148117835D01*
X151634200Y-148124127D01*
X151538962Y-148219365D01*
X151526526Y-148234519D01*
X151523680Y-148241387D01*
X151519254Y-148247362D01*
X151512659Y-148265823D01*
X151465040Y-148456298D01*
X151464539Y-148459679D01*
X151463975Y-148461043D01*
X151463251Y-148468393D01*
X151462172Y-148475691D01*
X151462389Y-148477149D01*
X151462054Y-148480552D01*
X151350943Y-148480552D01*
X151350943Y-147936108D01*
X153439831Y-147936108D01*
X153439831Y-149358330D01*
G37*
D11*
G36*
X137312299Y-143165000D02*
G01*
X137553123Y-143165000D01*
X137553123Y-142456085D01*
X137814890Y-142456085D01*
X137814890Y-142254462D01*
X137050532Y-142254462D01*
X137050532Y-142456085D01*
X137312299Y-142456085D01*
X137312299Y-143165000D01*
G37*
G36*
X138308398Y-142450264D02*
G01*
X138348780Y-142453848D01*
X138386398Y-142460969D01*
X138421329Y-142471467D01*
X138453474Y-142485138D01*
X138483290Y-142502088D01*
X138510219Y-142521916D01*
X138534947Y-142545152D01*
X138556597Y-142571011D01*
X138575845Y-142600456D01*
X138591750Y-142632252D01*
X138604756Y-142667595D01*
X138614123Y-142704939D01*
X138619977Y-142745344D01*
X138621929Y-142787278D01*
X138618067Y-142847087D01*
X138612099Y-142888028D01*
X138162692Y-142888028D01*
X138165960Y-142898762D01*
X138187386Y-142939746D01*
X138202661Y-142956349D01*
X138220844Y-142970078D01*
X138244255Y-142981982D01*
X138271199Y-142990613D01*
X138306972Y-142996686D01*
X138347523Y-142998670D01*
X138417547Y-142991085D01*
X138464948Y-142977535D01*
X138515501Y-142957210D01*
X138593903Y-143099481D01*
X138577259Y-143109511D01*
X138535450Y-143130836D01*
X138491517Y-143148454D01*
X138444895Y-143162730D01*
X138398311Y-143172893D01*
X138313939Y-143180631D01*
X138241387Y-143175586D01*
X138161122Y-143156625D01*
X138091291Y-143125121D01*
X138032727Y-143082544D01*
X137985893Y-143029942D01*
X137951241Y-142967846D01*
X137938697Y-142933267D01*
X137929519Y-142896341D01*
X137923855Y-142856924D01*
X137921929Y-142815244D01*
X137924307Y-142770471D01*
X137930520Y-142731528D01*
X137930601Y-142731224D01*
X138164096Y-142731224D01*
X138409133Y-142731224D01*
X138398325Y-142691862D01*
X138376959Y-142659917D01*
X138362200Y-142648208D01*
X138344767Y-142639608D01*
X138322599Y-142633822D01*
X138297148Y-142631878D01*
X138255472Y-142636496D01*
X138216383Y-142653291D01*
X138200022Y-142666665D01*
X138186058Y-142683362D01*
X138173648Y-142705278D01*
X138164096Y-142731224D01*
X137930601Y-142731224D01*
X137940341Y-142694811D01*
X137953940Y-142659458D01*
X137970831Y-142626597D01*
X137991451Y-142595352D01*
X138015011Y-142566918D01*
X138042069Y-142540634D01*
X138071625Y-142517508D01*
X138104060Y-142497238D01*
X138138431Y-142480443D01*
X138174630Y-142467144D01*
X138212101Y-142457551D01*
X138288721Y-142449856D01*
X138308398Y-142450264D01*
G37*
G36*
X139238521Y-143180631D02*
G01*
X139292447Y-143178733D01*
X139338981Y-143173262D01*
X139427765Y-143152372D01*
X139455530Y-143144239D01*
X139403751Y-142967957D01*
X139362218Y-142980129D01*
X139326198Y-142986268D01*
X139302940Y-142987435D01*
X139277498Y-142985300D01*
X139252723Y-142978170D01*
X139235294Y-142968596D01*
X139220239Y-142954924D01*
X139209979Y-142939763D01*
X139202563Y-142921003D01*
X139197915Y-142884303D01*
X139197915Y-142191936D01*
X138747165Y-142191936D01*
X138747165Y-142379576D01*
X138957153Y-142379576D01*
X138957153Y-142875938D01*
X138959104Y-142919751D01*
X138964950Y-142960947D01*
X138974069Y-142997372D01*
X138986660Y-143031064D01*
X139001792Y-143060312D01*
X139020024Y-143086774D01*
X139040409Y-143109384D01*
X139063625Y-143129146D01*
X139089069Y-143145587D01*
X139117205Y-143159035D01*
X139181566Y-143176430D01*
X139238521Y-143180631D01*
G37*
G36*
X139986834Y-142450264D02*
G01*
X140027217Y-142453848D01*
X140064835Y-142460969D01*
X140099766Y-142471467D01*
X140131910Y-142485138D01*
X140161727Y-142502088D01*
X140188656Y-142521916D01*
X140213384Y-142545152D01*
X140235033Y-142571011D01*
X140254281Y-142600456D01*
X140270187Y-142632252D01*
X140283192Y-142667595D01*
X140292560Y-142704939D01*
X140298414Y-142745344D01*
X140300366Y-142787278D01*
X140296504Y-142847087D01*
X140290536Y-142888028D01*
X139841129Y-142888028D01*
X139844397Y-142898762D01*
X139865823Y-142939746D01*
X139881098Y-142956349D01*
X139899280Y-142970078D01*
X139922691Y-142981982D01*
X139949635Y-142990613D01*
X139985409Y-142996686D01*
X140025960Y-142998670D01*
X140095984Y-142991085D01*
X140143384Y-142977535D01*
X140193938Y-142957210D01*
X140272339Y-143099481D01*
X140255696Y-143109511D01*
X140213887Y-143130836D01*
X140169954Y-143148454D01*
X140123332Y-143162730D01*
X140076747Y-143172893D01*
X139992376Y-143180631D01*
X139919824Y-143175586D01*
X139839559Y-143156625D01*
X139769728Y-143125121D01*
X139711164Y-143082544D01*
X139664330Y-143029942D01*
X139629678Y-142967846D01*
X139617134Y-142933267D01*
X139607955Y-142896341D01*
X139602292Y-142856924D01*
X139600366Y-142815244D01*
X139602744Y-142770471D01*
X139608957Y-142731528D01*
X139609038Y-142731224D01*
X139842533Y-142731224D01*
X140087570Y-142731224D01*
X140076761Y-142691862D01*
X140055395Y-142659917D01*
X140040637Y-142648208D01*
X140023204Y-142639608D01*
X140001036Y-142633822D01*
X139975584Y-142631878D01*
X139933909Y-142636496D01*
X139894820Y-142653291D01*
X139878459Y-142666665D01*
X139864495Y-142683362D01*
X139852084Y-142705278D01*
X139842533Y-142731224D01*
X139609038Y-142731224D01*
X139618777Y-142694811D01*
X139632377Y-142659458D01*
X139649268Y-142626597D01*
X139669888Y-142595352D01*
X139693448Y-142566918D01*
X139720506Y-142540634D01*
X139750062Y-142517508D01*
X139782497Y-142497238D01*
X139816868Y-142480443D01*
X139853067Y-142467144D01*
X139890538Y-142457551D01*
X139967158Y-142449856D01*
X139986834Y-142450264D01*
G37*
G36*
X140643955Y-143165000D02*
G01*
X140935154Y-143165000D01*
X141203943Y-142254462D01*
X140957563Y-142254462D01*
X140865178Y-142652334D01*
X140835279Y-142781884D01*
X140797950Y-142941029D01*
X140792394Y-142941029D01*
X140759413Y-142799070D01*
X140725166Y-142652395D01*
X140629972Y-142254462D01*
X140375166Y-142254462D01*
X140643955Y-143165000D01*
G37*
G36*
X141679708Y-142453275D02*
G01*
X141753839Y-142471053D01*
X141821231Y-142502719D01*
X141879216Y-142546451D01*
X141926099Y-142600541D01*
X141960812Y-142663749D01*
X141982463Y-142735394D01*
X141988061Y-142774224D01*
X141989977Y-142815244D01*
X141987841Y-142858524D01*
X141981880Y-142898037D01*
X141972334Y-142935208D01*
X141959076Y-142970828D01*
X141942562Y-143003871D01*
X141922395Y-143035188D01*
X141899325Y-143063637D01*
X141872790Y-143089908D01*
X141843783Y-143112991D01*
X141811846Y-143133249D01*
X141777979Y-143150013D01*
X141742150Y-143163325D01*
X141705040Y-143172917D01*
X141628803Y-143180631D01*
X141577838Y-143177208D01*
X141503692Y-143159428D01*
X141436298Y-143127765D01*
X141378318Y-143084041D01*
X141331442Y-143029962D01*
X141296732Y-142966760D01*
X141275082Y-142895111D01*
X141269484Y-142856273D01*
X141267568Y-142815244D01*
X141514009Y-142815244D01*
X141518402Y-142875254D01*
X141532826Y-142925611D01*
X141555231Y-142959237D01*
X141569509Y-142971092D01*
X141586102Y-142979833D01*
X141606097Y-142985508D01*
X141628803Y-142987435D01*
X141650719Y-142985647D01*
X141669967Y-142980435D01*
X141686808Y-142971939D01*
X141702308Y-142959306D01*
X141715198Y-142943214D01*
X141726951Y-142920560D01*
X141735478Y-142893795D01*
X141741605Y-142857010D01*
X141743597Y-142815244D01*
X141739207Y-142755281D01*
X141724784Y-142704934D01*
X141702378Y-142671310D01*
X141688099Y-142659456D01*
X141671504Y-142650715D01*
X141651510Y-142645041D01*
X141628803Y-142643114D01*
X141606900Y-142644900D01*
X141587649Y-142650110D01*
X141570804Y-142658604D01*
X141555302Y-142671235D01*
X141542410Y-142687324D01*
X141530656Y-142709973D01*
X141522128Y-142736731D01*
X141516001Y-142773500D01*
X141514009Y-142815244D01*
X141267568Y-142815244D01*
X141269708Y-142771939D01*
X141275672Y-142732434D01*
X141285222Y-142695269D01*
X141298485Y-142659652D01*
X141315004Y-142626611D01*
X141335176Y-142595296D01*
X141358252Y-142566847D01*
X141384792Y-142540576D01*
X141413804Y-142517494D01*
X141445746Y-142497237D01*
X141479617Y-142480473D01*
X141515449Y-142467162D01*
X141552561Y-142457570D01*
X141628803Y-142449856D01*
X141679708Y-142453275D01*
G37*
G36*
X142085843Y-143165000D02*
G01*
X142336436Y-143165000D01*
X142388215Y-143067119D01*
X142420947Y-142998146D01*
X142445612Y-142946769D01*
X142451230Y-142946769D01*
X142489480Y-143007690D01*
X142526823Y-143067119D01*
X142591181Y-143165000D01*
X142848796Y-143165000D01*
X142614995Y-142829288D01*
X142836218Y-142465488D01*
X142585625Y-142465488D01*
X142539402Y-142563429D01*
X142489026Y-142683780D01*
X142483409Y-142683780D01*
X142452819Y-142630696D01*
X142414838Y-142563429D01*
X142357441Y-142465488D01*
X142099826Y-142465488D01*
X142319583Y-142801261D01*
X142085843Y-143165000D01*
G37*
D12*
G36*
X132555686Y-144190941D02*
G01*
X132604286Y-144202126D01*
X132645240Y-144219728D01*
X132679777Y-144243476D01*
X132708615Y-144273971D01*
X132729179Y-144309267D01*
X132741894Y-144350319D01*
X132746357Y-144398521D01*
X132741912Y-144440419D01*
X132728908Y-144477951D01*
X132707181Y-144512143D01*
X132678405Y-144540452D01*
X132644793Y-144560237D01*
X132605332Y-144571983D01*
X132605332Y-144575353D01*
X132649829Y-144586590D01*
X132688716Y-144608912D01*
X132720956Y-144640434D01*
X132745234Y-144679450D01*
X132760225Y-144723820D01*
X132765408Y-144774558D01*
X132760823Y-144826193D01*
X132747747Y-144870434D01*
X132726624Y-144908678D01*
X132697118Y-144941913D01*
X132661404Y-144968273D01*
X132619716Y-144987570D01*
X132570916Y-144999708D01*
X132513545Y-145004000D01*
X132257286Y-145004000D01*
X132257286Y-144899903D01*
X132374766Y-144899903D01*
X132503482Y-144899903D01*
X132546177Y-144895612D01*
X132580250Y-144883673D01*
X132607579Y-144864683D01*
X132628375Y-144838958D01*
X132641120Y-144807600D01*
X132645632Y-144768940D01*
X132641128Y-144728731D01*
X132628371Y-144695688D01*
X132607579Y-144668214D01*
X132580033Y-144647579D01*
X132545959Y-144634746D01*
X132503482Y-144630161D01*
X132374766Y-144630161D01*
X132374766Y-144899903D01*
X132257286Y-144899903D01*
X132257286Y-144529436D01*
X132374766Y-144529436D01*
X132496790Y-144529436D01*
X132535124Y-144525578D01*
X132566106Y-144514787D01*
X132591312Y-144497538D01*
X132610564Y-144474177D01*
X132622384Y-144445437D01*
X132626581Y-144409708D01*
X132622469Y-144374655D01*
X132610857Y-144346244D01*
X132591898Y-144322953D01*
X132567023Y-144305724D01*
X132536238Y-144294925D01*
X132497914Y-144291055D01*
X132374766Y-144291055D01*
X132374766Y-144529436D01*
X132257286Y-144529436D01*
X132257286Y-144186958D01*
X132497914Y-144186958D01*
X132555686Y-144190941D01*
G37*
G36*
X133169288Y-145015186D02*
G01*
X133110724Y-145010660D01*
X133062111Y-144997985D01*
X133021649Y-144978007D01*
X132987962Y-144950852D01*
X132960754Y-144916868D01*
X132940960Y-144877151D01*
X132928551Y-144830582D01*
X132924166Y-144775681D01*
X132924166Y-144186958D01*
X133045018Y-144186958D01*
X133045018Y-144774558D01*
X133048873Y-144815233D01*
X133059536Y-144847452D01*
X133076329Y-144873036D01*
X133099539Y-144892311D01*
X133129792Y-144904436D01*
X133169288Y-144908842D01*
X133208750Y-144904436D01*
X133238971Y-144892311D01*
X133262149Y-144873036D01*
X133278971Y-144847448D01*
X133289650Y-144815229D01*
X133293510Y-144774558D01*
X133293510Y-144186958D01*
X133414362Y-144186958D01*
X133414362Y-144775681D01*
X133409951Y-144831207D01*
X133397503Y-144878026D01*
X133377706Y-144917695D01*
X133350565Y-144951390D01*
X133316914Y-144978297D01*
X133276472Y-144998113D01*
X133227863Y-145010693D01*
X133169288Y-145015186D01*
G37*
G36*
X133614543Y-145004000D02*
G01*
X133614543Y-144894334D01*
X133779065Y-144894334D01*
X133779065Y-144296672D01*
X133614543Y-144296672D01*
X133614543Y-144186958D01*
X134067858Y-144186958D01*
X134067858Y-144296672D01*
X133902212Y-144296672D01*
X133902212Y-144894334D01*
X134067858Y-144894334D01*
X134067858Y-145004000D01*
X133614543Y-145004000D01*
G37*
G36*
X134317279Y-145004000D02*
G01*
X134317279Y-144186958D01*
X134438130Y-144186958D01*
X134438130Y-144894334D01*
X134795164Y-144894334D01*
X134795164Y-145004000D01*
X134317279Y-145004000D01*
G37*
G36*
X135122938Y-145004000D02*
G01*
X135122938Y-144296672D01*
X134904731Y-144296672D01*
X134904731Y-144186958D01*
X135463217Y-144186958D01*
X135463217Y-144296672D01*
X135243838Y-144296672D01*
X135243838Y-145004000D01*
X135122938Y-145004000D01*
G37*
G36*
X136288856Y-145004000D02*
G01*
X136288856Y-144186958D01*
X136783545Y-144186958D01*
X136783545Y-144297796D01*
X136407509Y-144297796D01*
X136407509Y-144541745D01*
X136754480Y-144541745D01*
X136754480Y-144653706D01*
X136409756Y-144653706D01*
X136409756Y-145004000D01*
X136288856Y-145004000D01*
G37*
G36*
X137254130Y-144180282D02*
G01*
X137302054Y-144193036D01*
X137342853Y-144213361D01*
X137377690Y-144241278D01*
X137405696Y-144275866D01*
X137426195Y-144316960D01*
X137439133Y-144365855D01*
X137443734Y-144424265D01*
X137443734Y-144765618D01*
X137439118Y-144824615D01*
X137426155Y-144873865D01*
X137405653Y-144915125D01*
X137377690Y-144949729D01*
X137342856Y-144977622D01*
X137302059Y-144997933D01*
X137254133Y-145010679D01*
X137197537Y-145015186D01*
X137140941Y-145010679D01*
X137093007Y-144997935D01*
X137052192Y-144977624D01*
X137017334Y-144949729D01*
X136989372Y-144915125D01*
X136968870Y-144873865D01*
X136955906Y-144824615D01*
X136951291Y-144765618D01*
X136951291Y-144425339D01*
X136952166Y-144414153D01*
X137072142Y-144414153D01*
X137072142Y-144776805D01*
X137076194Y-144818127D01*
X137087271Y-144849864D01*
X137104578Y-144874209D01*
X137128262Y-144892266D01*
X137158590Y-144903647D01*
X137197537Y-144907768D01*
X137236450Y-144903647D01*
X137266744Y-144892266D01*
X137290398Y-144874209D01*
X137307733Y-144849860D01*
X137318826Y-144818122D01*
X137322882Y-144776805D01*
X137322882Y-144414153D01*
X137318887Y-144372787D01*
X137307980Y-144341070D01*
X137290984Y-144316798D01*
X137267633Y-144298812D01*
X137237203Y-144287399D01*
X137197537Y-144283239D01*
X137157837Y-144287400D01*
X137127393Y-144298814D01*
X137104041Y-144316798D01*
X137087044Y-144341070D01*
X137076137Y-144372787D01*
X137072142Y-144414153D01*
X136952166Y-144414153D01*
X136955907Y-144366342D01*
X136968871Y-144317101D01*
X136989374Y-144275858D01*
X137017334Y-144241278D01*
X137052195Y-144213360D01*
X137093011Y-144193034D01*
X137140944Y-144180281D01*
X137197537Y-144175772D01*
X137254130Y-144180282D01*
G37*
G36*
X137933444Y-144190451D02*
G01*
X137977730Y-144200484D01*
X138017167Y-144216658D01*
X138053024Y-144239325D01*
X138082667Y-144266994D01*
X138106706Y-144300043D01*
X138124103Y-144337040D01*
X138134858Y-144378848D01*
X138138604Y-144426463D01*
X138133801Y-144479650D01*
X138119918Y-144526633D01*
X138097181Y-144568612D01*
X138066394Y-144605008D01*
X138029736Y-144633176D01*
X137986392Y-144653706D01*
X138149840Y-145004000D01*
X138017753Y-145004000D01*
X137865541Y-144668214D01*
X137748011Y-144668214D01*
X137748011Y-145004000D01*
X137628283Y-145004000D01*
X137628283Y-144560796D01*
X137748011Y-144560796D01*
X137883419Y-144560796D01*
X137922263Y-144556522D01*
X137953817Y-144544484D01*
X137979700Y-144524990D01*
X137999198Y-144499078D01*
X138011234Y-144467522D01*
X138015506Y-144428710D01*
X138011159Y-144389174D01*
X137998921Y-144357096D01*
X137979114Y-144330817D01*
X137952882Y-144310906D01*
X137921479Y-144298719D01*
X137883419Y-144294425D01*
X137748011Y-144294425D01*
X137748011Y-144560796D01*
X137628283Y-144560796D01*
X137628283Y-144186958D01*
X137883419Y-144186958D01*
X137933444Y-144190451D01*
G37*
G36*
X139289648Y-144190543D02*
G01*
X139335375Y-144200784D01*
X139375597Y-144217196D01*
X139412065Y-144240342D01*
X139442073Y-144268745D01*
X139466260Y-144302827D01*
X139483638Y-144340941D01*
X139494404Y-144384064D01*
X139498158Y-144433204D01*
X139494340Y-144482312D01*
X139483383Y-144525432D01*
X139465674Y-144563581D01*
X139441204Y-144597692D01*
X139411177Y-144626092D01*
X139375011Y-144649212D01*
X139335165Y-144665605D01*
X139289647Y-144675855D01*
X139237404Y-144679450D01*
X139090761Y-144679450D01*
X139090761Y-145004000D01*
X138969909Y-145004000D01*
X138969909Y-144571983D01*
X139090761Y-144571983D01*
X139237404Y-144571983D01*
X139277598Y-144567466D01*
X139310429Y-144554701D01*
X139337544Y-144533930D01*
X139358021Y-144506496D01*
X139370610Y-144473452D01*
X139375059Y-144433204D01*
X139370610Y-144392956D01*
X139358021Y-144359912D01*
X139337544Y-144332478D01*
X139310429Y-144311707D01*
X139277598Y-144298942D01*
X139237404Y-144294425D01*
X139090761Y-144294425D01*
X139090761Y-144571983D01*
X138969909Y-144571983D01*
X138969909Y-144186958D01*
X139237404Y-144186958D01*
X139289648Y-144190543D01*
G37*
G36*
X139939629Y-144180282D02*
G01*
X139987553Y-144193036D01*
X140028352Y-144213361D01*
X140063189Y-144241278D01*
X140091195Y-144275866D01*
X140111694Y-144316960D01*
X140124632Y-144365855D01*
X140129232Y-144424265D01*
X140129232Y-144765618D01*
X140124617Y-144824615D01*
X140111654Y-144873865D01*
X140091152Y-144915125D01*
X140063189Y-144949729D01*
X140028355Y-144977622D01*
X139987558Y-144997933D01*
X139939632Y-145010679D01*
X139883036Y-145015186D01*
X139826440Y-145010679D01*
X139778506Y-144997935D01*
X139737691Y-144977624D01*
X139702833Y-144949729D01*
X139674871Y-144915125D01*
X139654369Y-144873865D01*
X139641405Y-144824615D01*
X139636790Y-144765618D01*
X139636790Y-144425339D01*
X139637665Y-144414153D01*
X139757641Y-144414153D01*
X139757641Y-144776805D01*
X139761692Y-144818127D01*
X139772770Y-144849864D01*
X139790077Y-144874209D01*
X139813761Y-144892266D01*
X139844089Y-144903647D01*
X139883036Y-144907768D01*
X139921949Y-144903647D01*
X139952243Y-144892266D01*
X139975897Y-144874209D01*
X139993232Y-144849860D01*
X140004325Y-144818122D01*
X140008381Y-144776805D01*
X140008381Y-144414153D01*
X140004386Y-144372787D01*
X139993479Y-144341070D01*
X139976483Y-144316798D01*
X139953132Y-144298812D01*
X139922702Y-144287399D01*
X139883036Y-144283239D01*
X139843336Y-144287400D01*
X139812892Y-144298814D01*
X139789540Y-144316798D01*
X139772543Y-144341070D01*
X139761636Y-144372787D01*
X139757641Y-144414153D01*
X139637665Y-144414153D01*
X139641406Y-144366342D01*
X139654370Y-144317101D01*
X139674873Y-144275858D01*
X139702833Y-144241278D01*
X139737694Y-144213360D01*
X139778510Y-144193034D01*
X139826443Y-144180281D01*
X139883036Y-144175772D01*
X139939629Y-144180282D01*
G37*
G36*
X140557732Y-145015186D02*
G01*
X140497539Y-145010781D01*
X140446128Y-144998308D01*
X140402032Y-144978469D01*
X140364096Y-144951390D01*
X140332683Y-144917119D01*
X140310198Y-144877396D01*
X140296259Y-144831141D01*
X140291361Y-144776805D01*
X140410014Y-144776805D01*
X140414775Y-144816012D01*
X140428239Y-144847701D01*
X140450314Y-144873623D01*
X140479047Y-144892652D01*
X140514273Y-144904579D01*
X140557732Y-144908842D01*
X140600382Y-144904490D01*
X140634455Y-144892365D01*
X140661828Y-144873036D01*
X140682703Y-144847010D01*
X140695412Y-144815818D01*
X140699881Y-144777928D01*
X140697058Y-144748878D01*
X140688845Y-144722982D01*
X140675262Y-144699575D01*
X140656869Y-144679883D01*
X140633676Y-144664619D01*
X140604773Y-144653706D01*
X140487244Y-144622346D01*
X140434796Y-144602770D01*
X140391799Y-144575580D01*
X140356818Y-144540671D01*
X140330627Y-144498952D01*
X140314767Y-144452041D01*
X140309288Y-144398521D01*
X140312765Y-144354561D01*
X140322757Y-144315883D01*
X140338939Y-144281578D01*
X140361328Y-144250988D01*
X140389280Y-144225151D01*
X140423447Y-144203762D01*
X140460967Y-144188533D01*
X140503211Y-144179070D01*
X140551040Y-144175772D01*
X140598870Y-144179061D01*
X140641304Y-144188517D01*
X140679170Y-144203762D01*
X140713751Y-144225138D01*
X140742264Y-144250981D01*
X140765339Y-144281578D01*
X140782226Y-144315938D01*
X140792579Y-144354254D01*
X140796162Y-144397398D01*
X140677509Y-144397398D01*
X140673399Y-144363892D01*
X140661661Y-144336173D01*
X140642240Y-144312890D01*
X140617069Y-144295492D01*
X140587103Y-144284773D01*
X140551040Y-144280992D01*
X140514968Y-144284799D01*
X140485394Y-144295536D01*
X140460914Y-144312890D01*
X140442133Y-144336060D01*
X140430784Y-144363432D01*
X140426818Y-144396274D01*
X140429505Y-144423070D01*
X140437190Y-144445938D01*
X140449728Y-144465688D01*
X140476608Y-144489015D01*
X140514110Y-144504816D01*
X140634962Y-144537300D01*
X140688534Y-144557358D01*
X140732845Y-144586340D01*
X140769295Y-144624593D01*
X140796435Y-144670007D01*
X140812870Y-144720652D01*
X140818535Y-144777928D01*
X140814716Y-144825507D01*
X140803764Y-144867138D01*
X140786050Y-144903860D01*
X140761684Y-144936485D01*
X140731677Y-144963789D01*
X140695387Y-144986121D01*
X140655609Y-145001856D01*
X140610070Y-145011722D01*
X140557732Y-145015186D01*
G37*
G36*
X141229107Y-145015186D02*
G01*
X141168914Y-145010781D01*
X141117503Y-144998308D01*
X141073407Y-144978469D01*
X141035471Y-144951390D01*
X141004058Y-144917119D01*
X140981573Y-144877396D01*
X140967634Y-144831141D01*
X140962736Y-144776805D01*
X141081389Y-144776805D01*
X141086150Y-144816012D01*
X141099613Y-144847701D01*
X141121689Y-144873623D01*
X141150422Y-144892652D01*
X141185648Y-144904579D01*
X141229107Y-144908842D01*
X141271757Y-144904490D01*
X141305830Y-144892365D01*
X141333203Y-144873036D01*
X141354078Y-144847010D01*
X141366786Y-144815818D01*
X141371256Y-144777928D01*
X141368433Y-144748878D01*
X141360220Y-144722982D01*
X141346637Y-144699575D01*
X141328244Y-144679883D01*
X141305051Y-144664619D01*
X141276148Y-144653706D01*
X141158618Y-144622346D01*
X141106171Y-144602770D01*
X141063173Y-144575580D01*
X141028193Y-144540671D01*
X141002002Y-144498952D01*
X140986142Y-144452041D01*
X140980663Y-144398521D01*
X140984140Y-144354561D01*
X140994132Y-144315883D01*
X141010314Y-144281578D01*
X141032702Y-144250988D01*
X141060654Y-144225151D01*
X141094822Y-144203762D01*
X141132342Y-144188533D01*
X141174586Y-144179070D01*
X141222415Y-144175772D01*
X141270245Y-144179061D01*
X141312679Y-144188517D01*
X141350544Y-144203762D01*
X141385125Y-144225138D01*
X141413639Y-144250981D01*
X141436713Y-144281578D01*
X141453601Y-144315938D01*
X141463954Y-144354254D01*
X141467537Y-144397398D01*
X141348884Y-144397398D01*
X141344773Y-144363892D01*
X141333036Y-144336173D01*
X141313615Y-144312890D01*
X141288444Y-144295492D01*
X141258478Y-144284773D01*
X141222415Y-144280992D01*
X141186342Y-144284799D01*
X141156769Y-144295536D01*
X141132289Y-144312890D01*
X141113508Y-144336060D01*
X141102159Y-144363432D01*
X141098193Y-144396274D01*
X141100879Y-144423070D01*
X141108565Y-144445938D01*
X141121103Y-144465688D01*
X141147983Y-144489015D01*
X141185485Y-144504816D01*
X141306336Y-144537300D01*
X141359908Y-144557358D01*
X141404220Y-144586340D01*
X141440670Y-144624593D01*
X141467810Y-144670007D01*
X141484245Y-144720652D01*
X141489909Y-144777928D01*
X141486091Y-144825507D01*
X141475138Y-144867138D01*
X141457425Y-144903860D01*
X141433059Y-144936485D01*
X141403051Y-144963789D01*
X141366762Y-144986121D01*
X141326984Y-145001856D01*
X141281445Y-145011722D01*
X141229107Y-145015186D01*
G37*
G36*
X141671040Y-145004000D02*
G01*
X141671040Y-144894334D01*
X141835562Y-144894334D01*
X141835562Y-144296672D01*
X141671040Y-144296672D01*
X141671040Y-144186958D01*
X142124355Y-144186958D01*
X142124355Y-144296672D01*
X141958709Y-144296672D01*
X141958709Y-144894334D01*
X142124355Y-144894334D01*
X142124355Y-145004000D01*
X141671040Y-145004000D01*
G37*
G36*
X142626307Y-144190941D02*
G01*
X142674907Y-144202126D01*
X142715861Y-144219728D01*
X142750398Y-144243476D01*
X142779236Y-144273971D01*
X142799800Y-144309267D01*
X142812515Y-144350319D01*
X142816978Y-144398521D01*
X142812533Y-144440419D01*
X142799529Y-144477951D01*
X142777802Y-144512143D01*
X142749026Y-144540452D01*
X142715414Y-144560237D01*
X142675953Y-144571983D01*
X142675953Y-144575353D01*
X142720451Y-144586590D01*
X142759337Y-144608912D01*
X142791577Y-144640434D01*
X142815855Y-144679450D01*
X142830846Y-144723820D01*
X142836029Y-144774558D01*
X142831444Y-144826193D01*
X142818368Y-144870434D01*
X142797245Y-144908678D01*
X142767739Y-144941913D01*
X142732025Y-144968273D01*
X142690337Y-144987570D01*
X142641537Y-144999708D01*
X142584166Y-145004000D01*
X142327907Y-145004000D01*
X142327907Y-144899903D01*
X142445387Y-144899903D01*
X142574103Y-144899903D01*
X142616798Y-144895612D01*
X142650871Y-144883673D01*
X142678200Y-144864683D01*
X142698997Y-144838958D01*
X142711741Y-144807600D01*
X142716253Y-144768940D01*
X142711749Y-144728731D01*
X142698992Y-144695688D01*
X142678200Y-144668214D01*
X142650655Y-144647579D01*
X142616580Y-144634746D01*
X142574103Y-144630161D01*
X142445387Y-144630161D01*
X142445387Y-144899903D01*
X142327907Y-144899903D01*
X142327907Y-144529436D01*
X142445387Y-144529436D01*
X142567411Y-144529436D01*
X142605745Y-144525578D01*
X142636727Y-144514787D01*
X142661933Y-144497538D01*
X142681185Y-144474177D01*
X142693005Y-144445437D01*
X142697202Y-144409708D01*
X142693090Y-144374655D01*
X142681478Y-144346244D01*
X142662519Y-144322953D01*
X142637644Y-144305724D01*
X142606859Y-144294925D01*
X142568535Y-144291055D01*
X142445387Y-144291055D01*
X142445387Y-144529436D01*
X142327907Y-144529436D01*
X142327907Y-144186958D01*
X142568535Y-144186958D01*
X142626307Y-144190941D01*
G37*
G36*
X143013789Y-145004000D02*
G01*
X143013789Y-144894334D01*
X143178311Y-144894334D01*
X143178311Y-144296672D01*
X143013789Y-144296672D01*
X143013789Y-144186958D01*
X143467104Y-144186958D01*
X143467104Y-144296672D01*
X143301459Y-144296672D01*
X143301459Y-144894334D01*
X143467104Y-144894334D01*
X143467104Y-145004000D01*
X143013789Y-145004000D01*
G37*
G36*
X143716525Y-145004000D02*
G01*
X143716525Y-144186958D01*
X143837376Y-144186958D01*
X143837376Y-144894334D01*
X144194410Y-144894334D01*
X144194410Y-145004000D01*
X143716525Y-145004000D01*
G37*
G36*
X144356539Y-145004000D02*
G01*
X144356539Y-144894334D01*
X144521061Y-144894334D01*
X144521061Y-144296672D01*
X144356539Y-144296672D01*
X144356539Y-144186958D01*
X144809854Y-144186958D01*
X144809854Y-144296672D01*
X144644208Y-144296672D01*
X144644208Y-144894334D01*
X144809854Y-144894334D01*
X144809854Y-145004000D01*
X144356539Y-145004000D01*
G37*
G36*
X145193559Y-145004000D02*
G01*
X145193559Y-144296672D01*
X144975353Y-144296672D01*
X144975353Y-144186958D01*
X145533838Y-144186958D01*
X145533838Y-144296672D01*
X145314459Y-144296672D01*
X145314459Y-145004000D01*
X145193559Y-145004000D01*
G37*
G36*
X145699288Y-145004000D02*
G01*
X145699288Y-144894334D01*
X145863810Y-144894334D01*
X145863810Y-144296672D01*
X145699288Y-144296672D01*
X145699288Y-144186958D01*
X146152603Y-144186958D01*
X146152603Y-144296672D01*
X145986958Y-144296672D01*
X145986958Y-144894334D01*
X146152603Y-144894334D01*
X146152603Y-145004000D01*
X145699288Y-145004000D01*
G37*
G36*
X146366218Y-145004000D02*
G01*
X146366218Y-144186958D01*
X146846350Y-144186958D01*
X146846350Y-144294425D01*
X146484822Y-144294425D01*
X146484822Y-144527189D01*
X146807174Y-144527189D01*
X146807174Y-144631285D01*
X146484822Y-144631285D01*
X146484822Y-144896533D01*
X146846350Y-144896533D01*
X146846350Y-145004000D01*
X146366218Y-145004000D01*
G37*
G36*
X147271480Y-145015186D02*
G01*
X147211287Y-145010781D01*
X147159876Y-144998308D01*
X147115779Y-144978469D01*
X147077844Y-144951390D01*
X147046431Y-144917119D01*
X147023945Y-144877396D01*
X147010006Y-144831141D01*
X147005108Y-144776805D01*
X147123761Y-144776805D01*
X147128523Y-144816012D01*
X147141986Y-144847701D01*
X147164062Y-144873623D01*
X147192794Y-144892652D01*
X147228020Y-144904579D01*
X147271480Y-144908842D01*
X147314129Y-144904490D01*
X147348202Y-144892365D01*
X147375576Y-144873036D01*
X147396450Y-144847010D01*
X147409159Y-144815818D01*
X147413629Y-144777928D01*
X147410805Y-144748878D01*
X147402592Y-144722982D01*
X147389009Y-144699575D01*
X147370616Y-144679883D01*
X147347424Y-144664619D01*
X147318521Y-144653706D01*
X147200991Y-144622346D01*
X147148544Y-144602770D01*
X147105546Y-144575580D01*
X147070565Y-144540671D01*
X147044375Y-144498952D01*
X147028514Y-144452041D01*
X147023036Y-144398521D01*
X147026513Y-144354561D01*
X147036505Y-144315883D01*
X147052687Y-144281578D01*
X147075075Y-144250988D01*
X147103027Y-144225151D01*
X147137195Y-144203762D01*
X147174715Y-144188533D01*
X147216959Y-144179070D01*
X147264787Y-144175772D01*
X147312617Y-144179061D01*
X147355052Y-144188517D01*
X147392917Y-144203762D01*
X147427498Y-144225138D01*
X147456011Y-144250981D01*
X147479086Y-144281578D01*
X147495974Y-144315938D01*
X147506326Y-144354254D01*
X147509909Y-144397398D01*
X147391256Y-144397398D01*
X147387146Y-144363892D01*
X147375409Y-144336173D01*
X147355988Y-144312890D01*
X147330816Y-144295492D01*
X147300851Y-144284773D01*
X147264787Y-144280992D01*
X147228715Y-144284799D01*
X147199142Y-144295536D01*
X147174662Y-144312890D01*
X147155881Y-144336060D01*
X147144532Y-144363432D01*
X147140565Y-144396274D01*
X147143252Y-144423070D01*
X147150938Y-144445938D01*
X147163475Y-144465688D01*
X147190355Y-144489015D01*
X147227858Y-144504816D01*
X147348709Y-144537300D01*
X147402281Y-144557358D01*
X147446593Y-144586340D01*
X147483043Y-144624593D01*
X147510182Y-144670007D01*
X147526617Y-144720652D01*
X147532282Y-144777928D01*
X147528464Y-144825507D01*
X147517511Y-144867138D01*
X147499798Y-144903860D01*
X147475432Y-144936485D01*
X147445424Y-144963789D01*
X147409135Y-144986121D01*
X147369357Y-145001856D01*
X147323818Y-145011722D01*
X147271480Y-145015186D01*
G37*
G36*
X148610907Y-144554055D02*
G01*
X148580434Y-144551079D01*
X148556672Y-144542888D01*
X148538123Y-144530022D01*
X148524015Y-144512496D01*
X148515411Y-144491389D01*
X148512380Y-144465639D01*
X148515413Y-144439891D01*
X148524017Y-144418801D01*
X148538123Y-144401306D01*
X148556676Y-144388411D01*
X148580438Y-144380205D01*
X148610907Y-144377224D01*
X148641343Y-144380204D01*
X148665091Y-144388409D01*
X148683643Y-144401306D01*
X148697749Y-144418801D01*
X148706353Y-144439891D01*
X148709386Y-144465639D01*
X148706354Y-144491389D01*
X148697751Y-144512496D01*
X148683643Y-144530022D01*
X148665095Y-144542890D01*
X148641347Y-144551080D01*
X148610907Y-144554055D01*
G37*
G36*
X148610907Y-145015186D02*
G01*
X148580434Y-145012209D01*
X148556672Y-145004019D01*
X148538123Y-144991152D01*
X148524015Y-144973627D01*
X148515411Y-144952520D01*
X148512380Y-144926770D01*
X148515413Y-144901021D01*
X148524017Y-144879932D01*
X148538123Y-144862436D01*
X148556676Y-144849542D01*
X148580438Y-144841336D01*
X148610907Y-144838354D01*
X148641343Y-144841335D01*
X148665091Y-144849540D01*
X148683643Y-144862436D01*
X148697749Y-144879932D01*
X148706353Y-144901021D01*
X148709386Y-144926770D01*
X148706354Y-144952520D01*
X148697751Y-144973627D01*
X148683643Y-144991152D01*
X148665095Y-145004021D01*
X148641347Y-145012210D01*
X148610907Y-145015186D01*
G37*
G36*
X149075213Y-145138284D02*
G01*
X149075213Y-145018556D01*
X149125082Y-145002693D01*
X149168581Y-144979400D01*
X149206616Y-144948535D01*
X149239735Y-144909429D01*
X149265615Y-144865431D01*
X149284433Y-144816549D01*
X149296105Y-144761968D01*
X149300161Y-144700699D01*
X149300161Y-144500371D01*
X149296104Y-144439074D01*
X149284430Y-144384485D01*
X149265611Y-144335613D01*
X149239735Y-144291641D01*
X149206616Y-144252535D01*
X149168581Y-144221669D01*
X149125082Y-144198376D01*
X149075213Y-144182513D01*
X149075213Y-144063860D01*
X149140898Y-144082999D01*
X149198462Y-144107920D01*
X149248848Y-144138369D01*
X149292821Y-144174339D01*
X149330935Y-144216072D01*
X149362723Y-144262836D01*
X149387671Y-144313992D01*
X149405876Y-144370128D01*
X149417157Y-144431972D01*
X149421061Y-144500371D01*
X149421061Y-144700699D01*
X149417147Y-144769582D01*
X149405847Y-144831759D01*
X149387628Y-144888094D01*
X149362686Y-144939331D01*
X149330935Y-144986072D01*
X149292821Y-145027805D01*
X149248848Y-145063775D01*
X149198462Y-145094224D01*
X149140898Y-145119145D01*
X149075213Y-145138284D01*
G37*
G36*
X116246041Y-72682763D02*
G01*
X116268500Y-72692743D01*
X116287636Y-72708311D01*
X116302645Y-72728452D01*
X116312193Y-72752205D01*
X116315541Y-72780817D01*
X116312221Y-72809679D01*
X116302645Y-72834404D01*
X116287587Y-72855553D01*
X116268500Y-72871773D01*
X116246007Y-72882165D01*
X116220335Y-72885695D01*
X116072568Y-72885695D01*
X116072568Y-72679359D01*
X116220335Y-72679359D01*
X116246041Y-72682763D01*
G37*
G36*
X118030110Y-73402889D02*
G01*
X115817106Y-73402889D01*
X115817106Y-72885695D01*
X115905995Y-72885695D01*
X115905995Y-73314000D01*
X116074815Y-73314000D01*
X116074815Y-73038884D01*
X116239191Y-73038884D01*
X116285198Y-73034951D01*
X116327051Y-73023461D01*
X116365562Y-73004495D01*
X116400250Y-72978925D01*
X116429767Y-72948102D01*
X116454466Y-72911536D01*
X116472639Y-72871353D01*
X116483697Y-72827663D01*
X116487488Y-72779694D01*
X116483693Y-72732524D01*
X116472622Y-72689601D01*
X116467896Y-72679359D01*
X116571117Y-72679359D01*
X116799337Y-72679359D01*
X116799337Y-73314000D01*
X116968158Y-73314000D01*
X116968158Y-72679359D01*
X117202631Y-72679359D01*
X117309707Y-72679359D01*
X117537928Y-72679359D01*
X117537928Y-73314000D01*
X117706748Y-73314000D01*
X117706748Y-72679359D01*
X117941221Y-72679359D01*
X117941221Y-72526170D01*
X117309707Y-72526170D01*
X117309707Y-72679359D01*
X117202631Y-72679359D01*
X117202631Y-72526170D01*
X116571117Y-72526170D01*
X116571117Y-72679359D01*
X116467896Y-72679359D01*
X116454418Y-72650147D01*
X116429703Y-72614341D01*
X116400146Y-72584263D01*
X116365367Y-72559436D01*
X116326856Y-72541115D01*
X116284915Y-72529985D01*
X116238751Y-72526170D01*
X115905995Y-72526170D01*
X115905995Y-72885695D01*
X115817106Y-72885695D01*
X115817106Y-72437281D01*
X118030110Y-72437281D01*
X118030110Y-73402889D01*
G37*
G36*
X164156573Y-71682494D02*
G01*
X164208862Y-71690963D01*
X164251147Y-71703854D01*
X164285088Y-71720494D01*
X164315270Y-71743847D01*
X164335948Y-71770700D01*
X164348381Y-71801689D01*
X164352695Y-71838072D01*
X164348379Y-71874508D01*
X164335942Y-71905529D01*
X164315264Y-71932396D01*
X164285088Y-71955749D01*
X164251147Y-71972388D01*
X164208862Y-71985279D01*
X164156573Y-71993749D01*
X164092381Y-71996830D01*
X164026924Y-71993741D01*
X163973675Y-71985258D01*
X163930688Y-71972363D01*
X163896254Y-71955749D01*
X163865482Y-71932324D01*
X163844458Y-71905426D01*
X163831845Y-71874431D01*
X163827475Y-71838072D01*
X163831843Y-71801766D01*
X163844452Y-71770802D01*
X163865475Y-71743919D01*
X163896254Y-71720494D01*
X163930688Y-71703879D01*
X163973675Y-71690985D01*
X164026924Y-71682501D01*
X164092381Y-71679412D01*
X164156573Y-71682494D01*
G37*
G36*
X164142408Y-70456071D02*
G01*
X164188905Y-70468994D01*
X164231185Y-70489774D01*
X164266916Y-70516621D01*
X164296316Y-70549654D01*
X164318549Y-70588428D01*
X164332313Y-70631559D01*
X164337063Y-70680410D01*
X164332340Y-70728241D01*
X164318549Y-70771220D01*
X164296372Y-70810160D01*
X164266916Y-70844102D01*
X164231068Y-70871595D01*
X164188905Y-70891778D01*
X164142460Y-70903857D01*
X164090085Y-70908045D01*
X164037716Y-70903856D01*
X163991313Y-70891778D01*
X163949118Y-70871590D01*
X163913302Y-70844102D01*
X163883818Y-70810154D01*
X163861669Y-70771220D01*
X163847841Y-70728239D01*
X163843106Y-70680410D01*
X163847868Y-70631562D01*
X163861669Y-70588428D01*
X163883874Y-70549660D01*
X163913302Y-70516621D01*
X163949000Y-70489779D01*
X163991313Y-70468994D01*
X164037768Y-70456072D01*
X164090085Y-70451604D01*
X164142408Y-70456071D01*
G37*
G36*
X164585394Y-73480541D02*
G01*
X163591649Y-73480541D01*
X163591649Y-73107793D01*
X163680538Y-73107793D01*
X163683578Y-73150428D01*
X163692578Y-73190903D01*
X163707551Y-73229671D01*
X163727942Y-73265876D01*
X163753134Y-73298556D01*
X163783413Y-73328003D01*
X163835836Y-73364289D01*
X163897475Y-73391652D01*
X163967084Y-73266258D01*
X163927761Y-73247553D01*
X163896400Y-73227033D01*
X163870120Y-73203141D01*
X163852046Y-73178868D01*
X163840627Y-73152193D01*
X163836854Y-73124011D01*
X163839868Y-73094282D01*
X163848138Y-73071352D01*
X163861613Y-73052462D01*
X163879108Y-73038868D01*
X163899965Y-73030572D01*
X163924683Y-73027682D01*
X163948394Y-73030582D01*
X163975290Y-73039992D01*
X164002090Y-73054034D01*
X164031027Y-73073062D01*
X164086714Y-73115609D01*
X164133951Y-73156495D01*
X164391725Y-73388331D01*
X164484000Y-73351352D01*
X164484000Y-72833851D01*
X164330810Y-72833851D01*
X164330810Y-73138120D01*
X164205514Y-73023774D01*
X164134146Y-72964081D01*
X164068933Y-72919433D01*
X164009924Y-72889294D01*
X163955946Y-72872539D01*
X163905388Y-72867507D01*
X163862065Y-72871134D01*
X163823383Y-72881638D01*
X163788494Y-72898819D01*
X163757300Y-72922175D01*
X163730979Y-72950668D01*
X163709212Y-72984842D01*
X163693462Y-73022287D01*
X163683842Y-73063049D01*
X163680538Y-73107793D01*
X163591649Y-73107793D01*
X163591649Y-72494255D01*
X163680538Y-72494255D01*
X163683578Y-72536890D01*
X163692578Y-72577365D01*
X163707551Y-72616133D01*
X163727942Y-72652338D01*
X163753134Y-72685018D01*
X163783413Y-72714465D01*
X163835836Y-72750751D01*
X163897475Y-72778114D01*
X163967084Y-72652720D01*
X163927761Y-72634015D01*
X163896400Y-72613495D01*
X163870120Y-72589603D01*
X163852046Y-72565330D01*
X163840627Y-72538655D01*
X163836854Y-72510473D01*
X163839868Y-72480744D01*
X163848138Y-72457814D01*
X163861613Y-72438924D01*
X163879108Y-72425330D01*
X163899965Y-72417034D01*
X163924683Y-72414144D01*
X163948394Y-72417044D01*
X163975290Y-72426454D01*
X164002090Y-72440496D01*
X164031027Y-72459524D01*
X164086714Y-72502071D01*
X164133951Y-72542957D01*
X164391725Y-72774793D01*
X164484000Y-72737814D01*
X164484000Y-72220313D01*
X164330810Y-72220313D01*
X164330810Y-72524581D01*
X164205514Y-72410236D01*
X164134146Y-72350543D01*
X164068933Y-72305895D01*
X164009924Y-72275756D01*
X163955946Y-72259001D01*
X163905388Y-72253969D01*
X163862065Y-72257596D01*
X163823383Y-72268099D01*
X163788494Y-72285281D01*
X163757300Y-72308637D01*
X163730979Y-72337130D01*
X163709212Y-72371303D01*
X163693462Y-72408749D01*
X163683842Y-72449511D01*
X163680538Y-72494255D01*
X163591649Y-72494255D01*
X163591649Y-71838659D01*
X163686791Y-71838659D01*
X163692492Y-71904456D01*
X163708791Y-71961264D01*
X163735151Y-72010752D01*
X163771303Y-72053722D01*
X163817105Y-72089903D01*
X163874027Y-72119489D01*
X163935498Y-72139605D01*
X164007469Y-72152443D01*
X164091697Y-72157005D01*
X164175857Y-72152444D01*
X164247798Y-72139607D01*
X164309268Y-72119489D01*
X164366190Y-72089903D01*
X164411993Y-72053722D01*
X164448145Y-72010752D01*
X164474504Y-71961264D01*
X164490803Y-71904456D01*
X164496505Y-71838659D01*
X164490815Y-71772888D01*
X164474525Y-71715903D01*
X164448145Y-71666077D01*
X164411950Y-71622751D01*
X164366143Y-71586399D01*
X164309268Y-71556802D01*
X164247795Y-71536658D01*
X164175855Y-71523805D01*
X164091697Y-71519238D01*
X164007472Y-71523806D01*
X163935501Y-71536660D01*
X163874027Y-71556802D01*
X163817152Y-71586399D01*
X163771345Y-71622751D01*
X163735151Y-71666077D01*
X163708771Y-71715903D01*
X163692481Y-71772888D01*
X163686842Y-71838072D01*
X163686791Y-71838659D01*
X163591649Y-71838659D01*
X163591649Y-70681387D01*
X163683665Y-70681387D01*
X163687144Y-70738243D01*
X163697325Y-70791050D01*
X163714000Y-70840389D01*
X163737042Y-70887099D01*
X163765253Y-70929335D01*
X163798801Y-70967493D01*
X163837095Y-71000750D01*
X163879781Y-71028493D01*
X163927321Y-71050878D01*
X163977451Y-71066836D01*
X164031524Y-71076631D01*
X164090133Y-71079992D01*
X164147928Y-71076654D01*
X164201810Y-71066881D01*
X164252311Y-71050878D01*
X164300200Y-71028469D01*
X164343075Y-71000721D01*
X164381418Y-70967493D01*
X164414966Y-70929335D01*
X164443177Y-70887099D01*
X164466219Y-70840389D01*
X164482837Y-70791042D01*
X164493016Y-70737873D01*
X164496505Y-70680264D01*
X164493022Y-70623376D01*
X164482850Y-70570756D01*
X164466219Y-70521799D01*
X164443163Y-70475502D01*
X164414784Y-70433471D01*
X164380880Y-70395330D01*
X164342196Y-70362014D01*
X164299305Y-70334258D01*
X164251773Y-70311897D01*
X164201622Y-70295907D01*
X164147926Y-70286127D01*
X164090133Y-70282783D01*
X164032276Y-70286129D01*
X163978566Y-70295910D01*
X163928445Y-70311897D01*
X163880883Y-70334262D01*
X163837994Y-70362019D01*
X163799338Y-70395330D01*
X163765434Y-70433471D01*
X163737055Y-70475502D01*
X163714000Y-70521799D01*
X163697370Y-70570769D01*
X163687167Y-70623750D01*
X163683724Y-70680410D01*
X163683665Y-70681387D01*
X163591649Y-70681387D01*
X163591649Y-69634855D01*
X163697733Y-69634855D01*
X164015053Y-69634855D01*
X164015053Y-69959992D01*
X163697733Y-69959992D01*
X163697733Y-70128812D01*
X164484000Y-70128812D01*
X164484000Y-69959992D01*
X164168242Y-69959992D01*
X164168242Y-69634855D01*
X164484000Y-69634855D01*
X164484000Y-69466035D01*
X163697733Y-69466035D01*
X163697733Y-69634855D01*
X163591649Y-69634855D01*
X163591649Y-68636537D01*
X163699296Y-68636537D01*
X164082916Y-68874749D01*
X163699296Y-69110222D01*
X163699296Y-69263606D01*
X164484000Y-69263606D01*
X164484000Y-69098987D01*
X164214990Y-69098987D01*
X164027168Y-69104018D01*
X163978543Y-69108299D01*
X164282206Y-68915365D01*
X164282206Y-68841457D01*
X163976521Y-68644565D01*
X164033371Y-68649433D01*
X164214990Y-68654465D01*
X164484000Y-68654465D01*
X164484000Y-68489845D01*
X163699296Y-68489845D01*
X163699296Y-68636537D01*
X163591649Y-68636537D01*
X163591649Y-68400956D01*
X164585394Y-68400956D01*
X164585394Y-73480541D01*
G37*
G36*
X137249035Y-67871843D02*
G01*
X137279999Y-67884452D01*
X137306882Y-67905475D01*
X137330307Y-67936254D01*
X137346921Y-67970688D01*
X137359816Y-68013675D01*
X137368300Y-68066924D01*
X137371389Y-68132381D01*
X137368307Y-68196573D01*
X137359837Y-68248862D01*
X137346947Y-68291147D01*
X137330307Y-68325088D01*
X137306954Y-68355270D01*
X137280101Y-68375948D01*
X137249112Y-68388381D01*
X137212728Y-68392695D01*
X137176293Y-68388379D01*
X137145272Y-68375942D01*
X137118405Y-68355264D01*
X137095052Y-68325088D01*
X137078413Y-68291147D01*
X137065522Y-68248862D01*
X137057052Y-68196573D01*
X137053971Y-68132381D01*
X137057060Y-68066924D01*
X137065543Y-68013675D01*
X137078438Y-67970688D01*
X137095052Y-67936254D01*
X137118477Y-67905482D01*
X137145375Y-67884458D01*
X137176370Y-67871845D01*
X137212728Y-67867475D01*
X137249035Y-67871843D01*
G37*
G36*
X138201059Y-67868851D02*
G01*
X138232198Y-67881836D01*
X138258357Y-67902390D01*
X138277969Y-67929122D01*
X138290159Y-67960538D01*
X138294382Y-67997168D01*
X138290098Y-68030682D01*
X138277432Y-68060769D01*
X138257415Y-68086489D01*
X138231075Y-68106393D01*
X138199940Y-68118900D01*
X138163224Y-68123246D01*
X138130776Y-68118711D01*
X138101626Y-68105221D01*
X138076749Y-68084533D01*
X138057516Y-68058521D01*
X138045263Y-68028621D01*
X138041151Y-67996044D01*
X138045409Y-67958511D01*
X138057516Y-67927412D01*
X138076846Y-67901116D01*
X138101626Y-67881250D01*
X138130858Y-67868654D01*
X138164347Y-67864348D01*
X138201059Y-67868851D01*
G37*
G36*
X145666862Y-67893857D02*
G01*
X145709009Y-67906749D01*
X145746610Y-67927698D01*
X145778032Y-67955451D01*
X145802892Y-67989565D01*
X145821214Y-68031020D01*
X145832016Y-68076871D01*
X145835820Y-68130085D01*
X145832028Y-68183373D01*
X145821214Y-68229736D01*
X145802836Y-68271555D01*
X145778032Y-68305304D01*
X145746654Y-68332600D01*
X145709009Y-68353469D01*
X145666865Y-68366325D01*
X145618102Y-68370810D01*
X145470042Y-68370810D01*
X145470042Y-67889359D01*
X145618102Y-67889359D01*
X145666862Y-67893857D01*
G37*
G36*
X146093530Y-68625394D02*
G01*
X136804907Y-68625394D01*
X136804907Y-68131697D01*
X136893796Y-68131697D01*
X136893833Y-68132381D01*
X136898357Y-68215857D01*
X136911194Y-68287798D01*
X136931312Y-68349268D01*
X136960898Y-68406190D01*
X136997079Y-68451993D01*
X137040049Y-68488145D01*
X137089536Y-68514504D01*
X137146345Y-68530803D01*
X137212142Y-68536505D01*
X137277913Y-68530815D01*
X137334898Y-68514525D01*
X137384724Y-68488145D01*
X137428050Y-68451950D01*
X137437045Y-68440615D01*
X137624571Y-68440615D01*
X137627509Y-68470541D01*
X137635572Y-68493726D01*
X137648213Y-68511690D01*
X137665481Y-68525061D01*
X137687540Y-68533466D01*
X137715820Y-68536505D01*
X137741663Y-68533406D01*
X137763076Y-68524566D01*
X137781082Y-68509980D01*
X137794612Y-68490974D01*
X137802951Y-68468199D01*
X137805897Y-68440615D01*
X137802981Y-68411422D01*
X137794939Y-68388577D01*
X137782254Y-68370664D01*
X137765008Y-68357210D01*
X137743302Y-68348815D01*
X137715820Y-68345800D01*
X137689927Y-68348886D01*
X137668288Y-68357720D01*
X137649923Y-68372325D01*
X137636028Y-68391348D01*
X137627546Y-68413790D01*
X137624571Y-68440615D01*
X137437045Y-68440615D01*
X137464402Y-68406143D01*
X137493998Y-68349268D01*
X137514143Y-68287795D01*
X137526996Y-68215855D01*
X137531563Y-68131697D01*
X137526995Y-68047472D01*
X137520183Y-68009331D01*
X137887962Y-68009331D01*
X137891645Y-68054020D01*
X137902498Y-68095633D01*
X137920544Y-68134823D01*
X137944796Y-68170611D01*
X137973517Y-68201076D01*
X138007006Y-68226658D01*
X138044206Y-68246003D01*
X138083296Y-68257510D01*
X138124975Y-68261390D01*
X138158558Y-68258521D01*
X138193461Y-68249666D01*
X138225700Y-68235981D01*
X138088681Y-68514327D01*
X138093175Y-68525563D01*
X138252568Y-68525563D01*
X138350705Y-68330413D01*
X138398576Y-68227831D01*
X138433015Y-68141466D01*
X138444992Y-68101806D01*
X138453287Y-68064628D01*
X138458399Y-68027673D01*
X138460077Y-67991697D01*
X138454545Y-67938238D01*
X138438144Y-67888577D01*
X138411986Y-67843127D01*
X138406272Y-67836554D01*
X138573796Y-67836554D01*
X138606280Y-67985542D01*
X138728158Y-67926188D01*
X138728158Y-68370810D01*
X138590600Y-68370810D01*
X138590600Y-68524000D01*
X139034536Y-68524000D01*
X139034536Y-68370810D01*
X138893852Y-68370810D01*
X138893852Y-67883106D01*
X139521458Y-67883106D01*
X139652763Y-67883106D01*
X139652763Y-68380189D01*
X139521458Y-68380189D01*
X139521458Y-68524000D01*
X139952889Y-68524000D01*
X140136560Y-68524000D01*
X140299128Y-68524000D01*
X140299128Y-68241459D01*
X140299128Y-68198863D01*
X140299128Y-68156267D01*
X140296148Y-68103560D01*
X140289016Y-68032339D01*
X140285633Y-67998988D01*
X140678437Y-68524000D01*
X140830600Y-68524000D01*
X140830600Y-68129987D01*
X140981444Y-68129987D01*
X140984796Y-68188566D01*
X140994582Y-68242843D01*
X141010558Y-68293385D01*
X141032916Y-68341342D01*
X141060349Y-68384216D01*
X141092966Y-68422492D01*
X141130469Y-68455976D01*
X141172175Y-68484005D01*
X141218507Y-68506756D01*
X141267503Y-68523087D01*
X141320176Y-68533082D01*
X141377118Y-68536505D01*
X141433961Y-68533008D01*
X141482231Y-68524000D01*
X141806008Y-68524000D01*
X141974829Y-68524000D01*
X141974829Y-68208242D01*
X142299965Y-68208242D01*
X142299965Y-68524000D01*
X142468786Y-68524000D01*
X142468786Y-68130133D01*
X142961179Y-68130133D01*
X142964516Y-68187928D01*
X142974290Y-68241810D01*
X142990293Y-68292311D01*
X143012702Y-68340200D01*
X143040450Y-68383075D01*
X143073677Y-68421418D01*
X143111836Y-68454966D01*
X143154072Y-68483177D01*
X143200781Y-68506219D01*
X143250128Y-68522837D01*
X143303298Y-68533016D01*
X143360907Y-68536505D01*
X143417794Y-68533022D01*
X143464466Y-68524000D01*
X143912359Y-68524000D01*
X144436015Y-68524000D01*
X144590768Y-68524000D01*
X145128493Y-68524000D01*
X145128493Y-68377063D01*
X144756462Y-68377063D01*
X144756462Y-68370810D01*
X145301221Y-68370810D01*
X145301221Y-68524000D01*
X145622742Y-68524000D01*
X145679656Y-68520673D01*
X145731692Y-68511011D01*
X145779497Y-68495325D01*
X145824710Y-68473328D01*
X145864881Y-68446359D01*
X145900495Y-68414286D01*
X145931241Y-68377470D01*
X145956975Y-68335991D01*
X145977774Y-68289331D01*
X145992493Y-68240269D01*
X146001537Y-68187384D01*
X146004641Y-68130133D01*
X146001515Y-68072062D01*
X145992450Y-68018989D01*
X145977774Y-67970301D01*
X145956952Y-67924029D01*
X145931033Y-67882738D01*
X145899909Y-67845933D01*
X145863984Y-67813777D01*
X145823813Y-67786815D01*
X145778960Y-67764893D01*
X145731502Y-67749193D01*
X145679653Y-67739509D01*
X145622742Y-67736170D01*
X145301221Y-67736170D01*
X145301221Y-68370810D01*
X144756462Y-68370810D01*
X144756462Y-68195737D01*
X145067530Y-68195737D01*
X145067530Y-68051927D01*
X144756462Y-68051927D01*
X144756462Y-67886233D01*
X145120677Y-67886233D01*
X145120677Y-67739296D01*
X144590768Y-67739296D01*
X144590768Y-68524000D01*
X144436015Y-68524000D01*
X144436015Y-68370810D01*
X144081179Y-68370810D01*
X144081179Y-67737733D01*
X143912359Y-67737733D01*
X143912359Y-68524000D01*
X143464466Y-68524000D01*
X143470415Y-68522850D01*
X143519372Y-68506219D01*
X143565669Y-68483163D01*
X143607699Y-68454784D01*
X143645841Y-68420880D01*
X143679157Y-68382196D01*
X143706913Y-68339305D01*
X143729274Y-68291773D01*
X143745264Y-68241622D01*
X143755044Y-68187926D01*
X143758388Y-68130133D01*
X143755042Y-68072276D01*
X143745261Y-68018566D01*
X143729274Y-67968445D01*
X143706908Y-67920883D01*
X143679152Y-67877994D01*
X143645841Y-67839338D01*
X143607699Y-67805434D01*
X143565669Y-67777055D01*
X143519372Y-67754000D01*
X143470402Y-67737370D01*
X143417421Y-67727167D01*
X143359784Y-67723665D01*
X143302927Y-67727144D01*
X143250120Y-67737325D01*
X143200781Y-67754000D01*
X143154072Y-67777042D01*
X143111836Y-67805253D01*
X143073677Y-67838801D01*
X143040421Y-67877095D01*
X143012678Y-67919781D01*
X142990293Y-67967321D01*
X142974334Y-68017451D01*
X142964539Y-68071524D01*
X142961182Y-68130085D01*
X143133126Y-68130085D01*
X143137315Y-68077716D01*
X143149393Y-68031313D01*
X143169581Y-67989118D01*
X143197069Y-67953302D01*
X143231016Y-67923818D01*
X143269951Y-67901669D01*
X143312932Y-67887841D01*
X143360761Y-67883106D01*
X143409609Y-67887868D01*
X143452742Y-67901669D01*
X143491511Y-67923874D01*
X143524550Y-67953302D01*
X143551392Y-67989000D01*
X143572177Y-68031313D01*
X143585098Y-68077768D01*
X143589567Y-68130085D01*
X143585100Y-68182408D01*
X143572177Y-68228905D01*
X143551397Y-68271185D01*
X143524550Y-68306916D01*
X143491516Y-68336316D01*
X143452742Y-68358549D01*
X143409612Y-68372313D01*
X143360761Y-68377063D01*
X143312930Y-68372340D01*
X143269951Y-68358549D01*
X143231011Y-68336372D01*
X143197069Y-68306916D01*
X143169576Y-68271068D01*
X143149393Y-68228905D01*
X143137314Y-68182460D01*
X143133126Y-68130085D01*
X142961179Y-68130133D01*
X142468786Y-68130133D01*
X142468786Y-67737733D01*
X142299965Y-67737733D01*
X142299965Y-68055053D01*
X141974829Y-68055053D01*
X141974829Y-67737733D01*
X141806008Y-67737733D01*
X141806008Y-68524000D01*
X141482231Y-68524000D01*
X141490349Y-68522485D01*
X141544415Y-68505486D01*
X141591758Y-68483699D01*
X141633900Y-68456792D01*
X141665227Y-68428696D01*
X141582331Y-68297489D01*
X141558523Y-68319535D01*
X141531382Y-68338961D01*
X141501695Y-68354868D01*
X141469197Y-68367000D01*
X141435161Y-68374533D01*
X141399784Y-68377063D01*
X141346503Y-68372596D01*
X141299497Y-68359722D01*
X141257073Y-68338511D01*
X141221682Y-68310434D01*
X141193048Y-68275452D01*
X141171270Y-68233106D01*
X141158014Y-68185898D01*
X141153391Y-68131697D01*
X141158139Y-68078427D01*
X141171856Y-68031362D01*
X141193826Y-67988881D01*
X141221682Y-67954034D01*
X141255616Y-67925653D01*
X141295052Y-67904160D01*
X141338310Y-67890773D01*
X141385227Y-67886233D01*
X141420356Y-67888936D01*
X141452980Y-67896882D01*
X141484023Y-67909699D01*
X141513992Y-67927168D01*
X141542108Y-67948414D01*
X141568897Y-67973623D01*
X141674166Y-67856826D01*
X141638627Y-67819119D01*
X141596253Y-67786728D01*
X141548885Y-67760979D01*
X141496504Y-67742080D01*
X141441667Y-67730606D01*
X141386106Y-67726791D01*
X141329176Y-67730255D01*
X141275916Y-67740422D01*
X141225785Y-67757126D01*
X141178293Y-67780200D01*
X141135462Y-67808418D01*
X141096874Y-67841927D01*
X141063103Y-67880232D01*
X141034762Y-67922769D01*
X141011682Y-67969959D01*
X140995050Y-68019771D01*
X140984907Y-68072927D01*
X140981444Y-68129987D01*
X140830600Y-68129987D01*
X140830600Y-67736170D01*
X140666127Y-67736170D01*
X140666127Y-67950859D01*
X140667250Y-68040154D01*
X140670035Y-68117726D01*
X140674529Y-68188508D01*
X140680635Y-68255967D01*
X140682663Y-68273491D01*
X140286818Y-67736170D01*
X140136560Y-67736170D01*
X140136560Y-68524000D01*
X139952889Y-68524000D01*
X139952889Y-68380189D01*
X139821584Y-68380189D01*
X139821584Y-67883106D01*
X139952889Y-67883106D01*
X139952889Y-67739296D01*
X139521458Y-67739296D01*
X139521458Y-67883106D01*
X138893852Y-67883106D01*
X138893852Y-67726791D01*
X138791954Y-67726791D01*
X138573796Y-67836554D01*
X138406272Y-67836554D01*
X138376888Y-67802750D01*
X138334599Y-67769474D01*
X138285834Y-67744425D01*
X138232780Y-67728916D01*
X138175680Y-67723665D01*
X138122022Y-67727979D01*
X138073242Y-67740556D01*
X138028451Y-67761229D01*
X137987964Y-67789373D01*
X137953859Y-67823367D01*
X137925624Y-67863713D01*
X137904856Y-67908336D01*
X137892267Y-67956591D01*
X137889047Y-67996044D01*
X137887962Y-68009331D01*
X137520183Y-68009331D01*
X137514141Y-67975501D01*
X137493998Y-67914027D01*
X137464402Y-67857152D01*
X137428050Y-67811345D01*
X137384724Y-67775151D01*
X137334898Y-67748771D01*
X137277913Y-67732481D01*
X137212142Y-67726791D01*
X137146345Y-67732492D01*
X137089536Y-67748791D01*
X137040049Y-67775151D01*
X136997079Y-67811303D01*
X136960898Y-67857105D01*
X136931312Y-67914027D01*
X136911196Y-67975498D01*
X136898358Y-68047469D01*
X136893796Y-68131697D01*
X136804907Y-68131697D01*
X136804907Y-67634776D01*
X146093530Y-67634776D01*
X146093530Y-68625394D01*
G37*
G36*
X129535948Y-116012664D02*
G01*
X123982196Y-116012664D01*
X123982196Y-115828168D01*
X124071085Y-115828168D01*
X124071085Y-115859382D01*
X124083030Y-115888221D01*
X124105102Y-115910293D01*
X124133941Y-115922238D01*
X124149548Y-115923775D01*
X124644786Y-115923775D01*
X124660393Y-115922238D01*
X124689232Y-115910293D01*
X124711304Y-115888221D01*
X124723249Y-115859382D01*
X124723249Y-115828168D01*
X124711304Y-115799329D01*
X124689232Y-115777257D01*
X124660393Y-115765312D01*
X124644786Y-115763775D01*
X124342686Y-115763775D01*
X124663260Y-115443200D01*
X124673209Y-115431078D01*
X124674309Y-115428420D01*
X124676192Y-115426250D01*
X124682586Y-115411930D01*
X124691019Y-115386632D01*
X124869548Y-115386632D01*
X124869548Y-115500918D01*
X124869815Y-115503638D01*
X124869642Y-115504807D01*
X124870506Y-115510651D01*
X124871085Y-115516525D01*
X124871536Y-115517615D01*
X124871937Y-115520321D01*
X124910033Y-115672702D01*
X124910444Y-115673852D01*
X124910485Y-115674429D01*
X124912969Y-115680921D01*
X124915309Y-115687470D01*
X124915653Y-115687934D01*
X124916090Y-115689076D01*
X124954185Y-115765266D01*
X124958412Y-115771982D01*
X124959221Y-115773934D01*
X124961023Y-115776130D01*
X124962539Y-115778538D01*
X124964136Y-115779923D01*
X124969170Y-115786057D01*
X125045360Y-115862248D01*
X125057483Y-115872197D01*
X125060138Y-115873297D01*
X125062311Y-115875181D01*
X125076631Y-115881575D01*
X125190917Y-115919670D01*
X125198656Y-115921429D01*
X125200608Y-115922238D01*
X125203436Y-115922516D01*
X125206209Y-115923147D01*
X125208317Y-115922997D01*
X125216215Y-115923775D01*
X125292406Y-115923775D01*
X125300303Y-115922997D01*
X125302412Y-115923147D01*
X125305184Y-115922516D01*
X125308013Y-115922238D01*
X125309964Y-115921429D01*
X125317704Y-115919670D01*
X125431989Y-115881575D01*
X125446309Y-115875181D01*
X125448479Y-115873298D01*
X125451137Y-115872198D01*
X125463260Y-115862249D01*
X125501356Y-115824152D01*
X125511305Y-115812030D01*
X125523250Y-115783191D01*
X125523250Y-115751977D01*
X125511305Y-115723138D01*
X125489233Y-115701066D01*
X125460394Y-115689121D01*
X125429180Y-115689121D01*
X125400341Y-115701066D01*
X125388219Y-115711015D01*
X125363476Y-115735757D01*
X125279423Y-115763775D01*
X125229198Y-115763775D01*
X125145143Y-115735757D01*
X125091487Y-115682100D01*
X125063124Y-115625375D01*
X125029548Y-115491070D01*
X125029548Y-115396479D01*
X125063124Y-115262173D01*
X125091486Y-115205450D01*
X125145143Y-115151792D01*
X125229198Y-115123775D01*
X125279423Y-115123775D01*
X125363477Y-115151793D01*
X125388219Y-115176534D01*
X125400342Y-115186483D01*
X125429181Y-115198428D01*
X125460395Y-115198428D01*
X125489234Y-115186482D01*
X125511305Y-115164410D01*
X125523250Y-115135571D01*
X125523250Y-115104357D01*
X125511304Y-115075518D01*
X125501355Y-115063396D01*
X125481733Y-115043775D01*
X125707644Y-115043775D01*
X125707644Y-115843775D01*
X125709181Y-115859382D01*
X125721126Y-115888221D01*
X125743198Y-115910293D01*
X125772037Y-115922238D01*
X125803251Y-115922238D01*
X125832090Y-115910293D01*
X125854162Y-115888221D01*
X125866107Y-115859382D01*
X125867644Y-115843775D01*
X125867644Y-115504727D01*
X126164787Y-115504727D01*
X126164787Y-115843775D01*
X126166324Y-115859382D01*
X126178269Y-115888221D01*
X126200341Y-115910293D01*
X126229180Y-115922238D01*
X126260394Y-115922238D01*
X126289233Y-115910293D01*
X126311305Y-115888221D01*
X126323250Y-115859382D01*
X126324787Y-115843775D01*
X126324787Y-115523406D01*
X126547276Y-115523406D01*
X126547276Y-115554620D01*
X126559221Y-115583459D01*
X126581293Y-115605531D01*
X126610132Y-115617476D01*
X126625739Y-115619013D01*
X127235263Y-115619013D01*
X127250870Y-115617476D01*
X127279709Y-115605531D01*
X127301781Y-115583459D01*
X127313726Y-115554620D01*
X127313726Y-115523406D01*
X127301781Y-115494567D01*
X127279709Y-115472495D01*
X127250870Y-115460550D01*
X127235263Y-115459013D01*
X126625739Y-115459013D01*
X126610132Y-115460550D01*
X126581293Y-115472495D01*
X126559221Y-115494567D01*
X126547276Y-115523406D01*
X126324787Y-115523406D01*
X126324787Y-115043775D01*
X127536215Y-115043775D01*
X127536215Y-115843775D01*
X127537752Y-115859382D01*
X127549697Y-115888221D01*
X127571769Y-115910293D01*
X127600608Y-115922238D01*
X127631822Y-115922238D01*
X127660661Y-115910293D01*
X127682733Y-115888221D01*
X127694678Y-115859382D01*
X127696215Y-115843775D01*
X127696215Y-115404380D01*
X127810387Y-115649034D01*
X127813769Y-115654744D01*
X127814475Y-115656685D01*
X127815731Y-115658056D01*
X127818379Y-115662527D01*
X127827345Y-115670738D01*
X127835557Y-115679705D01*
X127838776Y-115681207D01*
X127841399Y-115683609D01*
X127852829Y-115687765D01*
X127863843Y-115692905D01*
X127867392Y-115693061D01*
X127870734Y-115694276D01*
X127882881Y-115693741D01*
X127895028Y-115694276D01*
X127898369Y-115693061D01*
X127901919Y-115692905D01*
X127912932Y-115687765D01*
X127924363Y-115683609D01*
X127926985Y-115681207D01*
X127930205Y-115679705D01*
X127938416Y-115670738D01*
X127947383Y-115662527D01*
X127950031Y-115658055D01*
X127951287Y-115656685D01*
X127951991Y-115654747D01*
X127955376Y-115649034D01*
X128069548Y-115404380D01*
X128069548Y-115843775D01*
X128071085Y-115859382D01*
X128083030Y-115888221D01*
X128105102Y-115910293D01*
X128133941Y-115922238D01*
X128165155Y-115922238D01*
X128193994Y-115910293D01*
X128216066Y-115888221D01*
X128228011Y-115859382D01*
X128229548Y-115843775D01*
X128229548Y-115043775D01*
X128450501Y-115043775D01*
X128450501Y-115843775D01*
X128452038Y-115859382D01*
X128463983Y-115888221D01*
X128486055Y-115910293D01*
X128514894Y-115922238D01*
X128546108Y-115922238D01*
X128574947Y-115910293D01*
X128597019Y-115888221D01*
X128608964Y-115859382D01*
X128610501Y-115843775D01*
X128610501Y-115386632D01*
X128793357Y-115386632D01*
X128793357Y-115500918D01*
X128793624Y-115503638D01*
X128793451Y-115504807D01*
X128794315Y-115510651D01*
X128794894Y-115516525D01*
X128795345Y-115517615D01*
X128795746Y-115520321D01*
X128833842Y-115672702D01*
X128834253Y-115673852D01*
X128834294Y-115674429D01*
X128836778Y-115680921D01*
X128839118Y-115687470D01*
X128839462Y-115687934D01*
X128839899Y-115689076D01*
X128877994Y-115765266D01*
X128882221Y-115771982D01*
X128883030Y-115773934D01*
X128884832Y-115776130D01*
X128886348Y-115778538D01*
X128887945Y-115779923D01*
X128892979Y-115786057D01*
X128969169Y-115862248D01*
X128981292Y-115872197D01*
X128983947Y-115873297D01*
X128986120Y-115875181D01*
X129000440Y-115881575D01*
X129114726Y-115919670D01*
X129122465Y-115921429D01*
X129124417Y-115922238D01*
X129127245Y-115922516D01*
X129130018Y-115923147D01*
X129132126Y-115922997D01*
X129140024Y-115923775D01*
X129216215Y-115923775D01*
X129224112Y-115922997D01*
X129226221Y-115923147D01*
X129228993Y-115922516D01*
X129231822Y-115922238D01*
X129233773Y-115921429D01*
X129241513Y-115919670D01*
X129355798Y-115881575D01*
X129370118Y-115875181D01*
X129372288Y-115873298D01*
X129374946Y-115872198D01*
X129387069Y-115862249D01*
X129425165Y-115824152D01*
X129435114Y-115812030D01*
X129447059Y-115783191D01*
X129447059Y-115751977D01*
X129435114Y-115723138D01*
X129413042Y-115701066D01*
X129384203Y-115689121D01*
X129352989Y-115689121D01*
X129324150Y-115701066D01*
X129312028Y-115711015D01*
X129287285Y-115735757D01*
X129203232Y-115763775D01*
X129153007Y-115763775D01*
X129068952Y-115735757D01*
X129015296Y-115682100D01*
X128986933Y-115625375D01*
X128953357Y-115491070D01*
X128953357Y-115396479D01*
X128986933Y-115262173D01*
X129015295Y-115205450D01*
X129068952Y-115151792D01*
X129153007Y-115123775D01*
X129203232Y-115123775D01*
X129287286Y-115151793D01*
X129312028Y-115176534D01*
X129324151Y-115186483D01*
X129352990Y-115198428D01*
X129384204Y-115198428D01*
X129413043Y-115186482D01*
X129435114Y-115164410D01*
X129447059Y-115135571D01*
X129447059Y-115104357D01*
X129435113Y-115075518D01*
X129425164Y-115063396D01*
X129387068Y-115025301D01*
X129374945Y-115015352D01*
X129372288Y-115014251D01*
X129370118Y-115012369D01*
X129355798Y-115005975D01*
X129241513Y-114967880D01*
X129233773Y-114966120D01*
X129231822Y-114965312D01*
X129228993Y-114965033D01*
X129226221Y-114964403D01*
X129224112Y-114964552D01*
X129216215Y-114963775D01*
X129140024Y-114963775D01*
X129132126Y-114964552D01*
X129130018Y-114964403D01*
X129127245Y-114965033D01*
X129124417Y-114965312D01*
X129122465Y-114966120D01*
X129114726Y-114967880D01*
X129000440Y-115005975D01*
X128986120Y-115012369D01*
X128983949Y-115014251D01*
X128981292Y-115015352D01*
X128969170Y-115025301D01*
X128892979Y-115101491D01*
X128887942Y-115107628D01*
X128886348Y-115109011D01*
X128884835Y-115111414D01*
X128883030Y-115113614D01*
X128882220Y-115115568D01*
X128877994Y-115122283D01*
X128839899Y-115198474D01*
X128839462Y-115199615D01*
X128839118Y-115200080D01*
X128836778Y-115206628D01*
X128834294Y-115213121D01*
X128834253Y-115213697D01*
X128833842Y-115214848D01*
X128795746Y-115367229D01*
X128795345Y-115369934D01*
X128794894Y-115371025D01*
X128794315Y-115376898D01*
X128793451Y-115382743D01*
X128793624Y-115383911D01*
X128793357Y-115386632D01*
X128610501Y-115386632D01*
X128610501Y-115043775D01*
X128608964Y-115028168D01*
X128597019Y-114999329D01*
X128574947Y-114977257D01*
X128546108Y-114965312D01*
X128514894Y-114965312D01*
X128486055Y-114977257D01*
X128463983Y-114999329D01*
X128452038Y-115028168D01*
X128450501Y-115043775D01*
X128229548Y-115043775D01*
X128228537Y-115033518D01*
X128228621Y-115031628D01*
X128228251Y-115030612D01*
X128228011Y-115028168D01*
X128222702Y-115015350D01*
X128217954Y-115002293D01*
X128216748Y-115000976D01*
X128216066Y-114999329D01*
X128206249Y-114989512D01*
X128196872Y-114979273D01*
X128195255Y-114978518D01*
X128193994Y-114977257D01*
X128181167Y-114971944D01*
X128168586Y-114966073D01*
X128166803Y-114965994D01*
X128165155Y-114965312D01*
X128151276Y-114965312D01*
X128137401Y-114964702D01*
X128135723Y-114965312D01*
X128133941Y-114965312D01*
X128121123Y-114970620D01*
X128108066Y-114975369D01*
X128106749Y-114976574D01*
X128105102Y-114977257D01*
X128095285Y-114987073D01*
X128085046Y-114996451D01*
X128083793Y-114998565D01*
X128083030Y-114999329D01*
X128082306Y-115001075D01*
X128077053Y-115009944D01*
X127882880Y-115426025D01*
X127688710Y-115009944D01*
X127683456Y-115001075D01*
X127682733Y-114999329D01*
X127681969Y-114998565D01*
X127680717Y-114996451D01*
X127670477Y-114987073D01*
X127660661Y-114977257D01*
X127659013Y-114976574D01*
X127657697Y-114975369D01*
X127644639Y-114970620D01*
X127631822Y-114965312D01*
X127630040Y-114965312D01*
X127628362Y-114964702D01*
X127614487Y-114965312D01*
X127600608Y-114965312D01*
X127598959Y-114965994D01*
X127597177Y-114966073D01*
X127584595Y-114971944D01*
X127571769Y-114977257D01*
X127570507Y-114978518D01*
X127568891Y-114979273D01*
X127559513Y-114989512D01*
X127549697Y-114999329D01*
X127549014Y-115000976D01*
X127547809Y-115002293D01*
X127543060Y-115015350D01*
X127537752Y-115028168D01*
X127537511Y-115030612D01*
X127537142Y-115031628D01*
X127537225Y-115033518D01*
X127536215Y-115043775D01*
X126324787Y-115043775D01*
X126323250Y-115028168D01*
X126311305Y-114999329D01*
X126289233Y-114977257D01*
X126260394Y-114965312D01*
X126229180Y-114965312D01*
X126200341Y-114977257D01*
X126178269Y-114999329D01*
X126166324Y-115028168D01*
X126164787Y-115043775D01*
X126164787Y-115344727D01*
X125867644Y-115344727D01*
X125867644Y-115043775D01*
X125866107Y-115028168D01*
X125854162Y-114999329D01*
X125832090Y-114977257D01*
X125803251Y-114965312D01*
X125772037Y-114965312D01*
X125743198Y-114977257D01*
X125721126Y-114999329D01*
X125709181Y-115028168D01*
X125707644Y-115043775D01*
X125481733Y-115043775D01*
X125463259Y-115025301D01*
X125451136Y-115015352D01*
X125448479Y-115014251D01*
X125446309Y-115012369D01*
X125431989Y-115005975D01*
X125317704Y-114967880D01*
X125309964Y-114966120D01*
X125308013Y-114965312D01*
X125305184Y-114965033D01*
X125302412Y-114964403D01*
X125300303Y-114964552D01*
X125292406Y-114963775D01*
X125216215Y-114963775D01*
X125208317Y-114964552D01*
X125206209Y-114964403D01*
X125203436Y-114965033D01*
X125200608Y-114965312D01*
X125198656Y-114966120D01*
X125190917Y-114967880D01*
X125076631Y-115005975D01*
X125062311Y-115012369D01*
X125060140Y-115014251D01*
X125057483Y-115015352D01*
X125045361Y-115025301D01*
X124969170Y-115101491D01*
X124964133Y-115107628D01*
X124962539Y-115109011D01*
X124961026Y-115111414D01*
X124959221Y-115113614D01*
X124958411Y-115115568D01*
X124954185Y-115122283D01*
X124916090Y-115198474D01*
X124915653Y-115199615D01*
X124915309Y-115200080D01*
X124912969Y-115206628D01*
X124910485Y-115213121D01*
X124910444Y-115213697D01*
X124910033Y-115214848D01*
X124871937Y-115367229D01*
X124871536Y-115369934D01*
X124871085Y-115371025D01*
X124870506Y-115376898D01*
X124869642Y-115382743D01*
X124869815Y-115383911D01*
X124869548Y-115386632D01*
X124691019Y-115386632D01*
X124720681Y-115297644D01*
X124722440Y-115289904D01*
X124723249Y-115287953D01*
X124723527Y-115285124D01*
X124724158Y-115282352D01*
X124724008Y-115280243D01*
X124724786Y-115272346D01*
X124724786Y-115196156D01*
X124723249Y-115180549D01*
X124722148Y-115177892D01*
X124721945Y-115175026D01*
X124716340Y-115160379D01*
X124678245Y-115084188D01*
X124674015Y-115077469D01*
X124673208Y-115075519D01*
X124671406Y-115073324D01*
X124669891Y-115070916D01*
X124668293Y-115069530D01*
X124663259Y-115063396D01*
X124625165Y-115025301D01*
X124619027Y-115020264D01*
X124617645Y-115018670D01*
X124615241Y-115017157D01*
X124613042Y-115015352D01*
X124611087Y-115014542D01*
X124604373Y-115010316D01*
X124528182Y-114972221D01*
X124513535Y-114966616D01*
X124510668Y-114966412D01*
X124508012Y-114965312D01*
X124492405Y-114963775D01*
X124301929Y-114963775D01*
X124286322Y-114965312D01*
X124283665Y-114966412D01*
X124280799Y-114966616D01*
X124266152Y-114972221D01*
X124189962Y-115010316D01*
X124183245Y-115014543D01*
X124181294Y-115015352D01*
X124179097Y-115017154D01*
X124176690Y-115018670D01*
X124175304Y-115020267D01*
X124169171Y-115025301D01*
X124131075Y-115063396D01*
X124121126Y-115075518D01*
X124109180Y-115104357D01*
X124109179Y-115135571D01*
X124121125Y-115164410D01*
X124143196Y-115186482D01*
X124172035Y-115198428D01*
X124203249Y-115198429D01*
X124232088Y-115186483D01*
X124244211Y-115176534D01*
X124273127Y-115147618D01*
X124320814Y-115123775D01*
X124473520Y-115123775D01*
X124521205Y-115147617D01*
X124540943Y-115167354D01*
X124564786Y-115215040D01*
X124564786Y-115259363D01*
X124536767Y-115343418D01*
X124092979Y-115787206D01*
X124083030Y-115799329D01*
X124071085Y-115828168D01*
X123982196Y-115828168D01*
X123982196Y-114874886D01*
X129535948Y-114874886D01*
X129535948Y-116012664D01*
G37*
G36*
X164405394Y-86556704D02*
G01*
X163417902Y-86556704D01*
X163417902Y-86049720D01*
X163506791Y-86049720D01*
X163510284Y-86109665D01*
X163520480Y-86165135D01*
X163537126Y-86216733D01*
X163560243Y-86265745D01*
X163588471Y-86309869D01*
X163621927Y-86349552D01*
X163660321Y-86384399D01*
X163702861Y-86413473D01*
X163749959Y-86436991D01*
X163799797Y-86453952D01*
X163852949Y-86464288D01*
X163909987Y-86467815D01*
X163967041Y-86464425D01*
X164020386Y-86454482D01*
X164070552Y-86438163D01*
X164118101Y-86415453D01*
X164161009Y-86387357D01*
X164199708Y-86353704D01*
X164233496Y-86315107D01*
X164262098Y-86271808D01*
X164285632Y-86223327D01*
X164302566Y-86172119D01*
X164312946Y-86116919D01*
X164316505Y-86057096D01*
X164313606Y-86006124D01*
X164305112Y-85958534D01*
X164291201Y-85913872D01*
X164271805Y-85871369D01*
X164248026Y-85833259D01*
X164219785Y-85799126D01*
X164187210Y-85769156D01*
X164150610Y-85743834D01*
X164109582Y-85723020D01*
X164066100Y-85707963D01*
X164019419Y-85698764D01*
X163968996Y-85695616D01*
X163941445Y-85695616D01*
X163906030Y-85697326D01*
X163875695Y-85700110D01*
X163875695Y-86062909D01*
X164016379Y-86062909D01*
X164016379Y-85861831D01*
X164042410Y-85864817D01*
X164071285Y-85875330D01*
X164097381Y-85892011D01*
X164120085Y-85914507D01*
X164138333Y-85941441D01*
X164152080Y-85972783D01*
X164160447Y-86006685D01*
X164163316Y-86043858D01*
X164158355Y-86095151D01*
X164143727Y-86142434D01*
X164120404Y-86185582D01*
X164090043Y-86222546D01*
X164053079Y-86252912D01*
X164009540Y-86276279D01*
X163961816Y-86290922D01*
X163910573Y-86295868D01*
X163858300Y-86291157D01*
X163810971Y-86277403D01*
X163767994Y-86255023D01*
X163731592Y-86225330D01*
X163701714Y-86189134D01*
X163679031Y-86147514D01*
X163664847Y-86101684D01*
X163659980Y-86050599D01*
X163662621Y-86014029D01*
X163670531Y-85978352D01*
X163683312Y-85944072D01*
X163700573Y-85911722D01*
X163721850Y-85881248D01*
X163747810Y-85851248D01*
X163638438Y-85747103D01*
X163602618Y-85781888D01*
X163570392Y-85825554D01*
X163544179Y-85874682D01*
X163523839Y-85929796D01*
X163511106Y-85987984D01*
X163506791Y-86049720D01*
X163417902Y-86049720D01*
X163417902Y-85588540D01*
X163910085Y-85588540D01*
X164057021Y-85588540D01*
X164057021Y-85222762D01*
X163910085Y-85222762D01*
X163910085Y-85588540D01*
X163417902Y-85588540D01*
X163417902Y-84370697D01*
X163519296Y-84370697D01*
X163519296Y-84574542D01*
X163842090Y-84893718D01*
X163519296Y-84893718D01*
X163519296Y-85062539D01*
X164304000Y-85062539D01*
X164304000Y-84893718D01*
X164032315Y-84893718D01*
X163955913Y-84815826D01*
X164304000Y-84553244D01*
X164304000Y-84353893D01*
X163847673Y-84705476D01*
X163519296Y-84370697D01*
X163417902Y-84370697D01*
X163417902Y-84259078D01*
X163519296Y-84259078D01*
X163663106Y-84259078D01*
X163663106Y-84127773D01*
X164160189Y-84127773D01*
X164160189Y-84259078D01*
X164304000Y-84259078D01*
X164304000Y-83827647D01*
X164160189Y-83827647D01*
X164160189Y-83958952D01*
X163663106Y-83958952D01*
X163663106Y-83827647D01*
X163519296Y-83827647D01*
X163519296Y-84259078D01*
X163417902Y-84259078D01*
X163417902Y-83709629D01*
X163516170Y-83709629D01*
X163669359Y-83709629D01*
X163669359Y-83481408D01*
X164304000Y-83481408D01*
X164304000Y-83312588D01*
X163669359Y-83312588D01*
X163669359Y-83078115D01*
X163516170Y-83078115D01*
X163516170Y-83709629D01*
X163417902Y-83709629D01*
X163417902Y-82989226D01*
X164405394Y-82989226D01*
X164405394Y-86556704D01*
G37*
D11*
X121269999Y-74494233D02*
X160501539Y-74494233D01*
X160501539Y-94379999D01*
X121269999Y-94379999D01*
X121269999Y-74494233D01*
D12*
G36*
X139854208Y-84279849D02*
G01*
X139883810Y-84290106D01*
X139908734Y-84306797D01*
X139926406Y-84328305D01*
X139937216Y-84354329D01*
X139941011Y-84385898D01*
X139937839Y-84415774D01*
X139928653Y-84441878D01*
X139913595Y-84464112D01*
X139893335Y-84480664D01*
X139868908Y-84490927D01*
X139840041Y-84494488D01*
X139662770Y-84494488D01*
X139662770Y-84276233D01*
X139818744Y-84276233D01*
X139854208Y-84279849D01*
G37*
G36*
X136083989Y-84282763D02*
G01*
X136106448Y-84292743D01*
X136125583Y-84308311D01*
X136140593Y-84328452D01*
X136150140Y-84352205D01*
X136153489Y-84380817D01*
X136150169Y-84409679D01*
X136140593Y-84434404D01*
X136125535Y-84455553D01*
X136106448Y-84471773D01*
X136083955Y-84482165D01*
X136058283Y-84485695D01*
X135910516Y-84485695D01*
X135910516Y-84279359D01*
X136058283Y-84279359D01*
X136083989Y-84282763D01*
G37*
G36*
X137487446Y-84384237D02*
G01*
X137507034Y-84443832D01*
X137523300Y-84489945D01*
X137569440Y-84613874D01*
X137369403Y-84613874D01*
X137414661Y-84493316D01*
X137433663Y-84440461D01*
X137452714Y-84384774D01*
X137469962Y-84329006D01*
X137487446Y-84384237D01*
G37*
G36*
X140914857Y-84595116D02*
G01*
X140739516Y-84595116D01*
X140914857Y-84379536D01*
X140914857Y-84595116D01*
G37*
G36*
X146162643Y-85015394D02*
G01*
X134880071Y-85015394D01*
X134880071Y-84771459D01*
X134968960Y-84771459D01*
X135008530Y-84817554D01*
X135052247Y-84855723D01*
X135101533Y-84886101D01*
X135158492Y-84908528D01*
X135220287Y-84921839D01*
X135291018Y-84926505D01*
X135350064Y-84922960D01*
X135401912Y-84912842D01*
X135447578Y-84896707D01*
X135489696Y-84873496D01*
X135524454Y-84844909D01*
X135552700Y-84810685D01*
X135573435Y-84771599D01*
X135586264Y-84726691D01*
X135590753Y-84674642D01*
X135585857Y-84628070D01*
X135571702Y-84587496D01*
X135548812Y-84551445D01*
X135517480Y-84520036D01*
X135479598Y-84493963D01*
X135462726Y-84485695D01*
X135743942Y-84485695D01*
X135743942Y-84914000D01*
X135912763Y-84914000D01*
X136474717Y-84914000D01*
X137012442Y-84914000D01*
X137089818Y-84914000D01*
X137256734Y-84914000D01*
X137318937Y-84748305D01*
X137619489Y-84748305D01*
X137681179Y-84914000D01*
X137853663Y-84914000D01*
X137964403Y-84914000D01*
X138133224Y-84914000D01*
X138133224Y-84642315D01*
X138211115Y-84565913D01*
X138473698Y-84914000D01*
X138673049Y-84914000D01*
X138789748Y-84914000D01*
X139327473Y-84914000D01*
X139327473Y-84767063D01*
X138955443Y-84767063D01*
X138955443Y-84585737D01*
X139266510Y-84585737D01*
X139266510Y-84494488D01*
X139500202Y-84494488D01*
X139500202Y-84914439D01*
X139662770Y-84914439D01*
X139662770Y-84632632D01*
X139787033Y-84632632D01*
X139945457Y-84915563D01*
X140139190Y-84915563D01*
X139962189Y-84606791D01*
X139968185Y-84604055D01*
X140547466Y-84604055D01*
X140616929Y-84735800D01*
X140914857Y-84735800D01*
X140914857Y-84914000D01*
X141077425Y-84914000D01*
X141077425Y-84735800D01*
X141207166Y-84735800D01*
X141207166Y-84595116D01*
X141077425Y-84595116D01*
X141077425Y-84520133D01*
X141299392Y-84520133D01*
X141302730Y-84577928D01*
X141312503Y-84631810D01*
X141328506Y-84682311D01*
X141350915Y-84730200D01*
X141378663Y-84773075D01*
X141411891Y-84811418D01*
X141450049Y-84844966D01*
X141492285Y-84873177D01*
X141538995Y-84896219D01*
X141588342Y-84912837D01*
X141641511Y-84923016D01*
X141699120Y-84926505D01*
X141756008Y-84923022D01*
X141802679Y-84914000D01*
X142250572Y-84914000D01*
X142419392Y-84914000D01*
X142419392Y-84598242D01*
X142744529Y-84598242D01*
X142744529Y-84914000D01*
X142913349Y-84914000D01*
X143115778Y-84914000D01*
X143280397Y-84914000D01*
X143280397Y-84644990D01*
X143275366Y-84457168D01*
X143271084Y-84408543D01*
X143464019Y-84712206D01*
X143537927Y-84712206D01*
X143734818Y-84406521D01*
X143729951Y-84463371D01*
X143724919Y-84644990D01*
X143724919Y-84914000D01*
X143889539Y-84914000D01*
X143889539Y-84753092D01*
X144356971Y-84753092D01*
X144398805Y-84813443D01*
X144440371Y-84857213D01*
X144481877Y-84887328D01*
X144528537Y-84908671D01*
X144581351Y-84921894D01*
X144641563Y-84926505D01*
X144694416Y-84922444D01*
X144742890Y-84910574D01*
X144787767Y-84891041D01*
X144828739Y-84864319D01*
X144863278Y-84832173D01*
X144891961Y-84794223D01*
X144913281Y-84751886D01*
X144926183Y-84705852D01*
X144930600Y-84655200D01*
X144925626Y-84604803D01*
X144910963Y-84558431D01*
X144887495Y-84516148D01*
X144856545Y-84479638D01*
X144819307Y-84449521D01*
X144776922Y-84426686D01*
X144730731Y-84412389D01*
X144703526Y-84409759D01*
X144910230Y-84186254D01*
X144881526Y-84127733D01*
X144985115Y-84127733D01*
X145223691Y-84914000D01*
X145352505Y-84914000D01*
X145524567Y-84472770D01*
X145707536Y-84914000D01*
X145832979Y-84914000D01*
X146073754Y-84127733D01*
X145903517Y-84127733D01*
X145776950Y-84564683D01*
X145763517Y-84613630D01*
X145756776Y-84649582D01*
X145753766Y-84672492D01*
X145743928Y-84630629D01*
X145722093Y-84566051D01*
X145601144Y-84241843D01*
X145462268Y-84241843D01*
X145339023Y-84566784D01*
X145323928Y-84617977D01*
X145311032Y-84675325D01*
X145310414Y-84678234D01*
X145309372Y-84670880D01*
X145299260Y-84618075D01*
X145285289Y-84566930D01*
X145157599Y-84127733D01*
X144985115Y-84127733D01*
X144881526Y-84127733D01*
X144879993Y-84124607D01*
X144408506Y-84124607D01*
X144408506Y-84268856D01*
X144668142Y-84272404D01*
X144487934Y-84469673D01*
X144527062Y-84574697D01*
X144573468Y-84556086D01*
X144614891Y-84545388D01*
X144651186Y-84541969D01*
X144687554Y-84545540D01*
X144717180Y-84555549D01*
X144741926Y-84572300D01*
X144759727Y-84595067D01*
X144770404Y-84623074D01*
X144774284Y-84659401D01*
X144769822Y-84694851D01*
X144756943Y-84724858D01*
X144736690Y-84750107D01*
X144710537Y-84769457D01*
X144680372Y-84781724D01*
X144647913Y-84785821D01*
X144617223Y-84782986D01*
X144588074Y-84774537D01*
X144560576Y-84760257D01*
X144532679Y-84738389D01*
X144507006Y-84710941D01*
X144480118Y-84674055D01*
X144356971Y-84753092D01*
X143889539Y-84753092D01*
X143889539Y-84129296D01*
X143742847Y-84129296D01*
X143504634Y-84512916D01*
X143269162Y-84129296D01*
X143115778Y-84129296D01*
X143115778Y-84914000D01*
X142913349Y-84914000D01*
X142913349Y-84127733D01*
X142744529Y-84127733D01*
X142744529Y-84445053D01*
X142419392Y-84445053D01*
X142419392Y-84127733D01*
X142250572Y-84127733D01*
X142250572Y-84914000D01*
X141802679Y-84914000D01*
X141808628Y-84912850D01*
X141857585Y-84896219D01*
X141903882Y-84873163D01*
X141945913Y-84844784D01*
X141984054Y-84810880D01*
X142017370Y-84772196D01*
X142045126Y-84729305D01*
X142067487Y-84681773D01*
X142083477Y-84631622D01*
X142093257Y-84577926D01*
X142096601Y-84520133D01*
X142093255Y-84462276D01*
X142083474Y-84408566D01*
X142067487Y-84358445D01*
X142045122Y-84310883D01*
X142017365Y-84267994D01*
X141984054Y-84229338D01*
X141945913Y-84195434D01*
X141903882Y-84167055D01*
X141857585Y-84144000D01*
X141808615Y-84127370D01*
X141755634Y-84117167D01*
X141697997Y-84113665D01*
X141641141Y-84117144D01*
X141588334Y-84127325D01*
X141538995Y-84144000D01*
X141492285Y-84167042D01*
X141450049Y-84195253D01*
X141411891Y-84228801D01*
X141378634Y-84267095D01*
X141350891Y-84309781D01*
X141328506Y-84357321D01*
X141312548Y-84407451D01*
X141302753Y-84461524D01*
X141299395Y-84520085D01*
X141471339Y-84520085D01*
X141475528Y-84467716D01*
X141487606Y-84421313D01*
X141507794Y-84379118D01*
X141535282Y-84343302D01*
X141569230Y-84313818D01*
X141608164Y-84291669D01*
X141651145Y-84277841D01*
X141698974Y-84273106D01*
X141747822Y-84277868D01*
X141790956Y-84291669D01*
X141829724Y-84313874D01*
X141862763Y-84343302D01*
X141889605Y-84379000D01*
X141910390Y-84421313D01*
X141923312Y-84467768D01*
X141927780Y-84520085D01*
X141923313Y-84572408D01*
X141910390Y-84618905D01*
X141889610Y-84661185D01*
X141862763Y-84696916D01*
X141829730Y-84726316D01*
X141790956Y-84748549D01*
X141747825Y-84762313D01*
X141698974Y-84767063D01*
X141651143Y-84762340D01*
X141608164Y-84748549D01*
X141569224Y-84726372D01*
X141535282Y-84696916D01*
X141507789Y-84661068D01*
X141487606Y-84618905D01*
X141475527Y-84572460D01*
X141471339Y-84520085D01*
X141299392Y-84520133D01*
X141077425Y-84520133D01*
X141077425Y-84123043D01*
X140942896Y-84123043D01*
X140554815Y-84595116D01*
X140547466Y-84604055D01*
X139968185Y-84604055D01*
X139979211Y-84599024D01*
X140016121Y-84573766D01*
X140047086Y-84543435D01*
X140072610Y-84507628D01*
X140091461Y-84467950D01*
X140102833Y-84425403D01*
X140106706Y-84379254D01*
X140102779Y-84332418D01*
X140091348Y-84290122D01*
X140072561Y-84251515D01*
X140047116Y-84216792D01*
X140016149Y-84187190D01*
X139979113Y-84162367D01*
X139938467Y-84144124D01*
X139894710Y-84133071D01*
X139847125Y-84129296D01*
X139500202Y-84129296D01*
X139500202Y-84494488D01*
X139266510Y-84494488D01*
X139266510Y-84441927D01*
X138955443Y-84441927D01*
X138955443Y-84276233D01*
X139319658Y-84276233D01*
X139319658Y-84129296D01*
X138789748Y-84129296D01*
X138789748Y-84914000D01*
X138673049Y-84914000D01*
X138321465Y-84457673D01*
X138656245Y-84129296D01*
X138452400Y-84129296D01*
X138133224Y-84452090D01*
X138133224Y-84129296D01*
X137964403Y-84129296D01*
X137964403Y-84914000D01*
X137853663Y-84914000D01*
X137547920Y-84127733D01*
X137397857Y-84127733D01*
X137207400Y-84613874D01*
X137089818Y-84914000D01*
X137012442Y-84914000D01*
X137012442Y-84767063D01*
X136640411Y-84767063D01*
X136640411Y-84585737D01*
X136951479Y-84585737D01*
X136951479Y-84441927D01*
X136640411Y-84441927D01*
X136640411Y-84276233D01*
X137004626Y-84276233D01*
X137004626Y-84129296D01*
X136474717Y-84129296D01*
X136474717Y-84914000D01*
X135912763Y-84914000D01*
X135912763Y-84638884D01*
X136077138Y-84638884D01*
X136123146Y-84634951D01*
X136164998Y-84623461D01*
X136203510Y-84604495D01*
X136238198Y-84578925D01*
X136267715Y-84548102D01*
X136292414Y-84511536D01*
X136310586Y-84471353D01*
X136321644Y-84427663D01*
X136325436Y-84379694D01*
X136321640Y-84332524D01*
X136310570Y-84289601D01*
X136292365Y-84250147D01*
X136267651Y-84214341D01*
X136238094Y-84184263D01*
X136203314Y-84159436D01*
X136164804Y-84141115D01*
X136122863Y-84129985D01*
X136076699Y-84126170D01*
X135743942Y-84126170D01*
X135743942Y-84485695D01*
X135462726Y-84485695D01*
X135433021Y-84471138D01*
X135381933Y-84453194D01*
X135322330Y-84438508D01*
X135263077Y-84422778D01*
X135217208Y-84401969D01*
X135200112Y-84388857D01*
X135188143Y-84374418D01*
X135180646Y-84357744D01*
X135178081Y-84338466D01*
X135181887Y-84315156D01*
X135193175Y-84295137D01*
X135210751Y-84279144D01*
X135235136Y-84267049D01*
X135263455Y-84260031D01*
X135298932Y-84257475D01*
X135332017Y-84260148D01*
X135364291Y-84268173D01*
X135394947Y-84281444D01*
X135423593Y-84300217D01*
X135449660Y-84323706D01*
X135474494Y-84353071D01*
X135580690Y-84249659D01*
X135550581Y-84209344D01*
X135514159Y-84175556D01*
X135471571Y-84148960D01*
X135420760Y-84129296D01*
X135364656Y-84117828D01*
X135295561Y-84113665D01*
X135238551Y-84117940D01*
X135185408Y-84130517D01*
X135136035Y-84151247D01*
X135093670Y-84178829D01*
X135058182Y-84213369D01*
X135031633Y-84253469D01*
X135014905Y-84298266D01*
X135009260Y-84347161D01*
X135013185Y-84394911D01*
X135024354Y-84435870D01*
X135043378Y-84472855D01*
X135070760Y-84506016D01*
X135105223Y-84533823D01*
X135149016Y-84557600D01*
X135198295Y-84576297D01*
X135258632Y-84592967D01*
X135312316Y-84604788D01*
X135357062Y-84621641D01*
X135391695Y-84642988D01*
X135404696Y-84655758D01*
X135414068Y-84669903D01*
X135419940Y-84685607D01*
X135421933Y-84702974D01*
X135417958Y-84726005D01*
X135406252Y-84745081D01*
X135388275Y-84760259D01*
X135363168Y-84772583D01*
X135334612Y-84780056D01*
X135301081Y-84782695D01*
X135259283Y-84779575D01*
X135220132Y-84770383D01*
X135183112Y-84755144D01*
X135149595Y-84733461D01*
X135113431Y-84699768D01*
X135074082Y-84651096D01*
X134968960Y-84771459D01*
X134880071Y-84771459D01*
X134880071Y-84024776D01*
X146162643Y-84024776D01*
X146162643Y-85015394D01*
G37*
D10*
G36*
X118496554Y-138022036D02*
G01*
X118521223Y-138046704D01*
X118551028Y-138106314D01*
X118551028Y-138363659D01*
X118227219Y-138363659D01*
X118227219Y-138106314D01*
X118257024Y-138046704D01*
X118281692Y-138022035D01*
X118341302Y-137992231D01*
X118436945Y-137992231D01*
X118496554Y-138022036D01*
G37*
G36*
X119338330Y-141389056D02*
G01*
X117916108Y-141389056D01*
X117916108Y-140701755D01*
X118027219Y-140701755D01*
X118027219Y-140844612D01*
X118028191Y-140854485D01*
X118028004Y-140857119D01*
X118028791Y-140860582D01*
X118029140Y-140864121D01*
X118030151Y-140866563D01*
X118032351Y-140876235D01*
X118079970Y-141019091D01*
X118087961Y-141036992D01*
X118090316Y-141039707D01*
X118091691Y-141043026D01*
X118104127Y-141058180D01*
X118199365Y-141153418D01*
X118207031Y-141159709D01*
X118208764Y-141161707D01*
X118211775Y-141163602D01*
X118214519Y-141165854D01*
X118216956Y-141166863D01*
X118225355Y-141172150D01*
X118320592Y-141219769D01*
X118322020Y-141220315D01*
X118322600Y-141220745D01*
X118330776Y-141223666D01*
X118338901Y-141226775D01*
X118339621Y-141226826D01*
X118341060Y-141227340D01*
X118531536Y-141274959D01*
X118534917Y-141275459D01*
X118536281Y-141276024D01*
X118543631Y-141276747D01*
X118550929Y-141277827D01*
X118552387Y-141277609D01*
X118555790Y-141277945D01*
X118698647Y-141277945D01*
X118702049Y-141277609D01*
X118703508Y-141277827D01*
X118710805Y-141276747D01*
X118718156Y-141276024D01*
X118719519Y-141275459D01*
X118722901Y-141274959D01*
X118913376Y-141227340D01*
X118914813Y-141226826D01*
X118915536Y-141226775D01*
X118923660Y-141223666D01*
X118931837Y-141220745D01*
X118932417Y-141220314D01*
X118933844Y-141219769D01*
X119029082Y-141172150D01*
X119037474Y-141166867D01*
X119039918Y-141165855D01*
X119042667Y-141163598D01*
X119045672Y-141161707D01*
X119047401Y-141159712D01*
X119055071Y-141153418D01*
X119150311Y-141058180D01*
X119162747Y-141043027D01*
X119164122Y-141039707D01*
X119166477Y-141036992D01*
X119174468Y-141019092D01*
X119222087Y-140876235D01*
X119224286Y-140866562D01*
X119225298Y-140864121D01*
X119225646Y-140860583D01*
X119226434Y-140857120D01*
X119226246Y-140854485D01*
X119227219Y-140844612D01*
X119227219Y-140749374D01*
X119226246Y-140739500D01*
X119226434Y-140736866D01*
X119225646Y-140733402D01*
X119225298Y-140729865D01*
X119224286Y-140727423D01*
X119222087Y-140717751D01*
X119174468Y-140574894D01*
X119166477Y-140556994D01*
X119164122Y-140554278D01*
X119162747Y-140550959D01*
X119150310Y-140535805D01*
X119102690Y-140488187D01*
X119087537Y-140475750D01*
X119062046Y-140465192D01*
X119051489Y-140460819D01*
X119031980Y-140458898D01*
X118698647Y-140458898D01*
X118679138Y-140460819D01*
X118643090Y-140475751D01*
X118615500Y-140503341D01*
X118600568Y-140539389D01*
X118598647Y-140558898D01*
X118598647Y-140749374D01*
X118600568Y-140768883D01*
X118615500Y-140804931D01*
X118643090Y-140832521D01*
X118679138Y-140847453D01*
X118718156Y-140847453D01*
X118754204Y-140832521D01*
X118781794Y-140804931D01*
X118796726Y-140768883D01*
X118798647Y-140749374D01*
X118798647Y-140658898D01*
X118990560Y-140658898D01*
X118992197Y-140660535D01*
X119027219Y-140765600D01*
X119027219Y-140828385D01*
X118992197Y-140933450D01*
X118925127Y-141000520D01*
X118854218Y-141035974D01*
X118686337Y-141077945D01*
X118568099Y-141077945D01*
X118400218Y-141035974D01*
X118329313Y-141000522D01*
X118262240Y-140933449D01*
X118227219Y-140828385D01*
X118227219Y-140725362D01*
X118264281Y-140651239D01*
X118271287Y-140632930D01*
X118274053Y-140594010D01*
X118261714Y-140556994D01*
X118236149Y-140527517D01*
X118201251Y-140510068D01*
X118162331Y-140507303D01*
X118125315Y-140519641D01*
X118095838Y-140545206D01*
X118085395Y-140561796D01*
X118037776Y-140657034D01*
X118030770Y-140675342D01*
X118030515Y-140678925D01*
X118029140Y-140682246D01*
X118027219Y-140701755D01*
X117916108Y-140701755D01*
X117916108Y-140110817D01*
X118029140Y-140110817D01*
X118029140Y-140149835D01*
X118044072Y-140185883D01*
X118071662Y-140213473D01*
X118107710Y-140228405D01*
X118127219Y-140230326D01*
X119127219Y-140230326D01*
X119146728Y-140228405D01*
X119182776Y-140213473D01*
X119210366Y-140185883D01*
X119225298Y-140149835D01*
X119227219Y-140130326D01*
X119227219Y-139654136D01*
X119225298Y-139634627D01*
X119210366Y-139598579D01*
X119182776Y-139570989D01*
X119146728Y-139556057D01*
X119107710Y-139556057D01*
X119071662Y-139570989D01*
X119044072Y-139598579D01*
X119029140Y-139634627D01*
X119027219Y-139654136D01*
X119027219Y-140030326D01*
X118127219Y-140030326D01*
X118107710Y-140032247D01*
X118071662Y-140047179D01*
X118044072Y-140074769D01*
X118029140Y-140110817D01*
X117916108Y-140110817D01*
X117916108Y-138799225D01*
X118027244Y-138799225D01*
X118035708Y-138837314D01*
X118058104Y-138869265D01*
X118073531Y-138881359D01*
X118464765Y-139130326D01*
X118073531Y-139379293D01*
X118058104Y-139391387D01*
X118035708Y-139423338D01*
X118027244Y-139461427D01*
X118034000Y-139499856D01*
X118054947Y-139532774D01*
X118086898Y-139555170D01*
X118124987Y-139563634D01*
X118163416Y-139556878D01*
X118180907Y-139548025D01*
X118680148Y-139230326D01*
X119127219Y-139230326D01*
X119146728Y-139228405D01*
X119182776Y-139213473D01*
X119210366Y-139185883D01*
X119225298Y-139149835D01*
X119225298Y-139110817D01*
X119210366Y-139074769D01*
X119182776Y-139047179D01*
X119146728Y-139032247D01*
X119127219Y-139030326D01*
X118680148Y-139030326D01*
X118180907Y-138712627D01*
X118163416Y-138703774D01*
X118124987Y-138697018D01*
X118086898Y-138705482D01*
X118054947Y-138727878D01*
X118034000Y-138760796D01*
X118027244Y-138799225D01*
X117916108Y-138799225D01*
X117916108Y-138082707D01*
X118027219Y-138082707D01*
X118027219Y-138463659D01*
X118029140Y-138483168D01*
X118044072Y-138519216D01*
X118071662Y-138546806D01*
X118107710Y-138561738D01*
X118127219Y-138563659D01*
X119127219Y-138563659D01*
X119146728Y-138561738D01*
X119182776Y-138546806D01*
X119210366Y-138519216D01*
X119225298Y-138483168D01*
X119225298Y-138444150D01*
X119210366Y-138408102D01*
X119182776Y-138380512D01*
X119146728Y-138365580D01*
X119127219Y-138363659D01*
X118751028Y-138363659D01*
X118751028Y-138082707D01*
X118749107Y-138063198D01*
X118747731Y-138059877D01*
X118747477Y-138056294D01*
X118740471Y-138037985D01*
X118692852Y-137942748D01*
X118687566Y-137934351D01*
X118686556Y-137931911D01*
X118684302Y-137929165D01*
X118682409Y-137926157D01*
X118680411Y-137924424D01*
X118674119Y-137916758D01*
X118626501Y-137869139D01*
X118618830Y-137862844D01*
X118617101Y-137860850D01*
X118614093Y-137858956D01*
X118611347Y-137856703D01*
X118608907Y-137855692D01*
X118600511Y-137850407D01*
X118505273Y-137802788D01*
X118486965Y-137795782D01*
X118483381Y-137795527D01*
X118480061Y-137794152D01*
X118460552Y-137792231D01*
X118317695Y-137792231D01*
X118298186Y-137794152D01*
X118294865Y-137795527D01*
X118291282Y-137795782D01*
X118272973Y-137802788D01*
X118177736Y-137850407D01*
X118169339Y-137855692D01*
X118166899Y-137856703D01*
X118164153Y-137858956D01*
X118161145Y-137860850D01*
X118159412Y-137862847D01*
X118151746Y-137869140D01*
X118104127Y-137916758D01*
X118097832Y-137924428D01*
X118095838Y-137926158D01*
X118093944Y-137929165D01*
X118091691Y-137931912D01*
X118090680Y-137934351D01*
X118085395Y-137942748D01*
X118037776Y-138037986D01*
X118030770Y-138056294D01*
X118030515Y-138059877D01*
X118029140Y-138063198D01*
X118027219Y-138082707D01*
X117916108Y-138082707D01*
X117916108Y-136872722D01*
X118029140Y-136872722D01*
X118029140Y-136911740D01*
X118044072Y-136947788D01*
X118071662Y-136975378D01*
X118107710Y-136990310D01*
X118127219Y-136992231D01*
X118503409Y-136992231D01*
X118503409Y-137363659D01*
X118127219Y-137363659D01*
X118107710Y-137365580D01*
X118071662Y-137380512D01*
X118044072Y-137408102D01*
X118029140Y-137444150D01*
X118029140Y-137483168D01*
X118044072Y-137519216D01*
X118071662Y-137546806D01*
X118107710Y-137561738D01*
X118127219Y-137563659D01*
X119127219Y-137563659D01*
X119146728Y-137561738D01*
X119182776Y-137546806D01*
X119210366Y-137519216D01*
X119225298Y-137483168D01*
X119225298Y-137444150D01*
X119210366Y-137408102D01*
X119182776Y-137380512D01*
X119146728Y-137365580D01*
X119127219Y-137363659D01*
X118703409Y-137363659D01*
X118703409Y-136992231D01*
X119127219Y-136992231D01*
X119146728Y-136990310D01*
X119182776Y-136975378D01*
X119210366Y-136947788D01*
X119225298Y-136911740D01*
X119225298Y-136872722D01*
X119210366Y-136836674D01*
X119182776Y-136809084D01*
X119146728Y-136794152D01*
X119127219Y-136792231D01*
X118127219Y-136792231D01*
X118107710Y-136794152D01*
X118071662Y-136809084D01*
X118044072Y-136836674D01*
X118029140Y-136872722D01*
X117916108Y-136872722D01*
X117916108Y-135273183D01*
X118027219Y-135273183D01*
X118027219Y-135511278D01*
X118029140Y-135530787D01*
X118030515Y-135534107D01*
X118030770Y-135537691D01*
X118037776Y-135555999D01*
X118085395Y-135651237D01*
X118090680Y-135659633D01*
X118091691Y-135662073D01*
X118093944Y-135664819D01*
X118095838Y-135667827D01*
X118097832Y-135669556D01*
X118104127Y-135677227D01*
X118151746Y-135724845D01*
X118159412Y-135731137D01*
X118161145Y-135733135D01*
X118164153Y-135735028D01*
X118166899Y-135737282D01*
X118169339Y-135738292D01*
X118177736Y-135743578D01*
X118272973Y-135791197D01*
X118291282Y-135798203D01*
X118294865Y-135798457D01*
X118298186Y-135799833D01*
X118317695Y-135801754D01*
X118412933Y-135801754D01*
X118432442Y-135799833D01*
X118435762Y-135798457D01*
X118439346Y-135798203D01*
X118457654Y-135791197D01*
X118552892Y-135743578D01*
X118561288Y-135738292D01*
X118563728Y-135737282D01*
X118566474Y-135735028D01*
X118569482Y-135733135D01*
X118571211Y-135731140D01*
X118578882Y-135724846D01*
X118626500Y-135677227D01*
X118632792Y-135669560D01*
X118634790Y-135667828D01*
X118636683Y-135664819D01*
X118638937Y-135662074D01*
X118639947Y-135659633D01*
X118645233Y-135651237D01*
X118692852Y-135556000D01*
X118693398Y-135554571D01*
X118693828Y-135553992D01*
X118696749Y-135545815D01*
X118699858Y-135537691D01*
X118699909Y-135536970D01*
X118700423Y-135535532D01*
X118745379Y-135355706D01*
X118780833Y-135284799D01*
X118805501Y-135260130D01*
X118865111Y-135230326D01*
X118913135Y-135230326D01*
X118972746Y-135260132D01*
X118997414Y-135284799D01*
X119027219Y-135344409D01*
X119027219Y-135542670D01*
X118984732Y-135670131D01*
X118980385Y-135689247D01*
X118983151Y-135728167D01*
X119000601Y-135763066D01*
X119030077Y-135788631D01*
X119067093Y-135800969D01*
X119106013Y-135798203D01*
X119140912Y-135780753D01*
X119166477Y-135751277D01*
X119174468Y-135733377D01*
X119222087Y-135590520D01*
X119224286Y-135580847D01*
X119225298Y-135578406D01*
X119225646Y-135574868D01*
X119226434Y-135571405D01*
X119226246Y-135568770D01*
X119227219Y-135558897D01*
X119227219Y-135320802D01*
X119225298Y-135301293D01*
X119223922Y-135297972D01*
X119223668Y-135294389D01*
X119216662Y-135276080D01*
X119169043Y-135180843D01*
X119163757Y-135172446D01*
X119162747Y-135170006D01*
X119160493Y-135167260D01*
X119158600Y-135164252D01*
X119156603Y-135162520D01*
X119150310Y-135154852D01*
X119102690Y-135107234D01*
X119095020Y-135100939D01*
X119093291Y-135098945D01*
X119090286Y-135097053D01*
X119087537Y-135094797D01*
X119085093Y-135093785D01*
X119076701Y-135088502D01*
X118981463Y-135040883D01*
X118963155Y-135033877D01*
X118959571Y-135033622D01*
X118956251Y-135032247D01*
X118936742Y-135030326D01*
X118841504Y-135030326D01*
X118821995Y-135032247D01*
X118818674Y-135033622D01*
X118815091Y-135033877D01*
X118796782Y-135040883D01*
X118701545Y-135088502D01*
X118693148Y-135093787D01*
X118690708Y-135094798D01*
X118687962Y-135097051D01*
X118684954Y-135098945D01*
X118683221Y-135100942D01*
X118675555Y-135107235D01*
X118627936Y-135154853D01*
X118621641Y-135162523D01*
X118619647Y-135164253D01*
X118617753Y-135167260D01*
X118615500Y-135170007D01*
X118614489Y-135172446D01*
X118609204Y-135180843D01*
X118561585Y-135276081D01*
X118561039Y-135277507D01*
X118560609Y-135278088D01*
X118557687Y-135286264D01*
X118554579Y-135294389D01*
X118554527Y-135295111D01*
X118554014Y-135296549D01*
X118509057Y-135476373D01*
X118473604Y-135547280D01*
X118448935Y-135571948D01*
X118389326Y-135601754D01*
X118341302Y-135601754D01*
X118281692Y-135571949D01*
X118257024Y-135547280D01*
X118227219Y-135487670D01*
X118227219Y-135289410D01*
X118269706Y-135161949D01*
X118274053Y-135142834D01*
X118271287Y-135103914D01*
X118253837Y-135069015D01*
X118224361Y-135043450D01*
X118187345Y-135031111D01*
X118148425Y-135033878D01*
X118113526Y-135051327D01*
X118087961Y-135080803D01*
X118079970Y-135098704D01*
X118032351Y-135241560D01*
X118030151Y-135251231D01*
X118029140Y-135253674D01*
X118028791Y-135257212D01*
X118028004Y-135260676D01*
X118028191Y-135263309D01*
X118027219Y-135273183D01*
X117916108Y-135273183D01*
X117916108Y-134177945D01*
X118027219Y-134177945D01*
X118027219Y-134796992D01*
X118029140Y-134816501D01*
X118044072Y-134852549D01*
X118071662Y-134880139D01*
X118107710Y-134895071D01*
X118146728Y-134895071D01*
X118182776Y-134880139D01*
X118210366Y-134852549D01*
X118225298Y-134816501D01*
X118227219Y-134796992D01*
X118227219Y-134398321D01*
X118442321Y-134586536D01*
X118450754Y-134592565D01*
X118452614Y-134594425D01*
X118454377Y-134595155D01*
X118458268Y-134597937D01*
X118473656Y-134603141D01*
X118488662Y-134609357D01*
X118492036Y-134609357D01*
X118495229Y-134610437D01*
X118511432Y-134609357D01*
X118527680Y-134609357D01*
X118530795Y-134608066D01*
X118534161Y-134607842D01*
X118548726Y-134600639D01*
X118563728Y-134594425D01*
X118566111Y-134592041D01*
X118569136Y-134590546D01*
X118579840Y-134578312D01*
X118591318Y-134566835D01*
X118592607Y-134563721D01*
X118594830Y-134561182D01*
X118600035Y-134545790D01*
X118606250Y-134530787D01*
X118606718Y-134526027D01*
X118607330Y-134524220D01*
X118607155Y-134521595D01*
X118608171Y-134511278D01*
X118608171Y-134392028D01*
X118637976Y-134332418D01*
X118662644Y-134307749D01*
X118722254Y-134277945D01*
X118913135Y-134277945D01*
X118972746Y-134307751D01*
X118997414Y-134332418D01*
X119027219Y-134392028D01*
X119027219Y-134630528D01*
X118997414Y-134690137D01*
X118961270Y-134726281D01*
X118948833Y-134741434D01*
X118933902Y-134777482D01*
X118933901Y-134816500D01*
X118948832Y-134852549D01*
X118976422Y-134880139D01*
X119012470Y-134895070D01*
X119051488Y-134895071D01*
X119087537Y-134880140D01*
X119102690Y-134867703D01*
X119150310Y-134820085D01*
X119156603Y-134812416D01*
X119158600Y-134810685D01*
X119160493Y-134807676D01*
X119162747Y-134804931D01*
X119163757Y-134802490D01*
X119169043Y-134794094D01*
X119216662Y-134698857D01*
X119223668Y-134680548D01*
X119223922Y-134676964D01*
X119225298Y-134673644D01*
X119227219Y-134654135D01*
X119227219Y-134368421D01*
X119225298Y-134348912D01*
X119223922Y-134345591D01*
X119223668Y-134342008D01*
X119216662Y-134323699D01*
X119169043Y-134228462D01*
X119163757Y-134220065D01*
X119162747Y-134217625D01*
X119160493Y-134214879D01*
X119158600Y-134211871D01*
X119156603Y-134210139D01*
X119150310Y-134202471D01*
X119102690Y-134154853D01*
X119095020Y-134148558D01*
X119093291Y-134146564D01*
X119090286Y-134144672D01*
X119087537Y-134142416D01*
X119085093Y-134141404D01*
X119076701Y-134136121D01*
X118981463Y-134088502D01*
X118963155Y-134081496D01*
X118959571Y-134081241D01*
X118956251Y-134079866D01*
X118936742Y-134077945D01*
X118698647Y-134077945D01*
X118679138Y-134079866D01*
X118675817Y-134081241D01*
X118672234Y-134081496D01*
X118653925Y-134088502D01*
X118558688Y-134136121D01*
X118550291Y-134141406D01*
X118547851Y-134142417D01*
X118545105Y-134144670D01*
X118542097Y-134146564D01*
X118540364Y-134148561D01*
X118532698Y-134154854D01*
X118485079Y-134202472D01*
X118478784Y-134210142D01*
X118476790Y-134211872D01*
X118474896Y-134214879D01*
X118472643Y-134217626D01*
X118471632Y-134220065D01*
X118466347Y-134228462D01*
X118426923Y-134307309D01*
X118193069Y-134102687D01*
X118184635Y-134096657D01*
X118182776Y-134094798D01*
X118181012Y-134094067D01*
X118177122Y-134091286D01*
X118161733Y-134086081D01*
X118146728Y-134079866D01*
X118143354Y-134079866D01*
X118140161Y-134078786D01*
X118123958Y-134079866D01*
X118107710Y-134079866D01*
X118104594Y-134081156D01*
X118101229Y-134081381D01*
X118086668Y-134088581D01*
X118071662Y-134094798D01*
X118069277Y-134097182D01*
X118066254Y-134098678D01*
X118055556Y-134110903D01*
X118044072Y-134122388D01*
X118042781Y-134125502D01*
X118040560Y-134128042D01*
X118035355Y-134143430D01*
X118029140Y-134158436D01*
X118028671Y-134163195D01*
X118028060Y-134165003D01*
X118028234Y-134167627D01*
X118027219Y-134177945D01*
X117916108Y-134177945D01*
X117916108Y-133966834D01*
X119338330Y-133966834D01*
X119338330Y-141389056D01*
G37*
D12*
G36*
X150533588Y-114977618D02*
G01*
X150584931Y-115028960D01*
X150615263Y-115150287D01*
X150615263Y-115397261D01*
X150584931Y-115518588D01*
X150533586Y-115569932D01*
X150485902Y-115593775D01*
X150371291Y-115593775D01*
X150323604Y-115569931D01*
X150272261Y-115518588D01*
X150241929Y-115397260D01*
X150241929Y-115150288D01*
X150272261Y-115028961D01*
X150323604Y-114977618D01*
X150371291Y-114953775D01*
X150485902Y-114953775D01*
X150533588Y-114977618D01*
G37*
G36*
X151299666Y-114981792D02*
G01*
X151353323Y-115035449D01*
X151381686Y-115092173D01*
X151415263Y-115226479D01*
X151415263Y-115321070D01*
X151381686Y-115455375D01*
X151353323Y-115512100D01*
X151299667Y-115565757D01*
X151215613Y-115593775D01*
X151118120Y-115593775D01*
X151118120Y-114953775D01*
X151215613Y-114953775D01*
X151299666Y-114981792D01*
G37*
G36*
X155485966Y-115320474D02*
G01*
X155505704Y-115340211D01*
X155529547Y-115387897D01*
X155529547Y-115502509D01*
X155505703Y-115550195D01*
X155485967Y-115569932D01*
X155438281Y-115593775D01*
X155323670Y-115593775D01*
X155275984Y-115569932D01*
X155256248Y-115550196D01*
X155232404Y-115502507D01*
X155232404Y-115387898D01*
X155256247Y-115340211D01*
X155275984Y-115320474D01*
X155323670Y-115296632D01*
X155438281Y-115296632D01*
X155485966Y-115320474D01*
G37*
G36*
X155485966Y-114977617D02*
G01*
X155505704Y-114997354D01*
X155529547Y-115045040D01*
X155529547Y-115045366D01*
X155505703Y-115093052D01*
X155485967Y-115112789D01*
X155438281Y-115136632D01*
X155323670Y-115136632D01*
X155275984Y-115112789D01*
X155256248Y-115093053D01*
X155232404Y-115045364D01*
X155232404Y-115045041D01*
X155256247Y-114997354D01*
X155275984Y-114977617D01*
X155323670Y-114953775D01*
X155438281Y-114953775D01*
X155485966Y-114977617D01*
G37*
G36*
X153898553Y-115365203D02*
G01*
X153739590Y-115365203D01*
X153819071Y-115126758D01*
X153898553Y-115365203D01*
G37*
G36*
X158064151Y-115842664D02*
G01*
X148278754Y-115842664D01*
X148278754Y-115216632D01*
X148367643Y-115216632D01*
X148367643Y-115330918D01*
X148367910Y-115333638D01*
X148367737Y-115334807D01*
X148368601Y-115340651D01*
X148369180Y-115346525D01*
X148369631Y-115347615D01*
X148370032Y-115350321D01*
X148408128Y-115502702D01*
X148408539Y-115503852D01*
X148408580Y-115504429D01*
X148411064Y-115510921D01*
X148413404Y-115517470D01*
X148413748Y-115517934D01*
X148414185Y-115519076D01*
X148452280Y-115595266D01*
X148456507Y-115601982D01*
X148457316Y-115603934D01*
X148459118Y-115606130D01*
X148460634Y-115608538D01*
X148462231Y-115609923D01*
X148467265Y-115616057D01*
X148543455Y-115692248D01*
X148555578Y-115702197D01*
X148558233Y-115703297D01*
X148560406Y-115705181D01*
X148574726Y-115711575D01*
X148689012Y-115749670D01*
X148696751Y-115751429D01*
X148698703Y-115752238D01*
X148701531Y-115752516D01*
X148704304Y-115753147D01*
X148706412Y-115752997D01*
X148714310Y-115753775D01*
X148790501Y-115753775D01*
X148798398Y-115752997D01*
X148800507Y-115753147D01*
X148803279Y-115752516D01*
X148806108Y-115752238D01*
X148808059Y-115751429D01*
X148815799Y-115749670D01*
X148930084Y-115711575D01*
X148944404Y-115705181D01*
X148946574Y-115703298D01*
X148949232Y-115702198D01*
X148961355Y-115692249D01*
X148999451Y-115654152D01*
X149009400Y-115642030D01*
X149021345Y-115613191D01*
X149021345Y-115613190D01*
X149022882Y-115597584D01*
X149022882Y-115330918D01*
X149021345Y-115315311D01*
X149009400Y-115286472D01*
X148987328Y-115264400D01*
X148958489Y-115252455D01*
X148942882Y-115250918D01*
X148790501Y-115250918D01*
X148774894Y-115252455D01*
X148746055Y-115264400D01*
X148723983Y-115286472D01*
X148712038Y-115315311D01*
X148712038Y-115346525D01*
X148723983Y-115375364D01*
X148746055Y-115397436D01*
X148774894Y-115409381D01*
X148790501Y-115410918D01*
X148862882Y-115410918D01*
X148862882Y-115564446D01*
X148861571Y-115565757D01*
X148777518Y-115593775D01*
X148727293Y-115593775D01*
X148643238Y-115565757D01*
X148589582Y-115512100D01*
X148561219Y-115455375D01*
X148527643Y-115321070D01*
X148527643Y-115226479D01*
X148561219Y-115092173D01*
X148589581Y-115035450D01*
X148643238Y-114981792D01*
X148727293Y-114953775D01*
X148809711Y-114953775D01*
X148869009Y-114983424D01*
X148883656Y-114989029D01*
X148914792Y-114991242D01*
X148944405Y-114981371D01*
X148967986Y-114960919D01*
X148981945Y-114933000D01*
X148984158Y-114901864D01*
X148974795Y-114873775D01*
X149205739Y-114873775D01*
X149205739Y-115673775D01*
X149207276Y-115689382D01*
X149219221Y-115718221D01*
X149241293Y-115740293D01*
X149270132Y-115752238D01*
X149301346Y-115752238D01*
X149330185Y-115740293D01*
X149352257Y-115718221D01*
X149364202Y-115689382D01*
X149365739Y-115673775D01*
X149365739Y-115234380D01*
X149479911Y-115479034D01*
X149483293Y-115484744D01*
X149483999Y-115486685D01*
X149485255Y-115488056D01*
X149487903Y-115492527D01*
X149496869Y-115500738D01*
X149505081Y-115509705D01*
X149508300Y-115511207D01*
X149510923Y-115513609D01*
X149522353Y-115517765D01*
X149533367Y-115522905D01*
X149536916Y-115523061D01*
X149540258Y-115524276D01*
X149552405Y-115523741D01*
X149564552Y-115524276D01*
X149567893Y-115523061D01*
X149571443Y-115522905D01*
X149582456Y-115517765D01*
X149593887Y-115513609D01*
X149596509Y-115511207D01*
X149599729Y-115509705D01*
X149607940Y-115500738D01*
X149616907Y-115492527D01*
X149619555Y-115488055D01*
X149620811Y-115486685D01*
X149621515Y-115484747D01*
X149624900Y-115479034D01*
X149739072Y-115234380D01*
X149739072Y-115673775D01*
X149740609Y-115689382D01*
X149752554Y-115718221D01*
X149774626Y-115740293D01*
X149803465Y-115752238D01*
X149834679Y-115752238D01*
X149863518Y-115740293D01*
X149885590Y-115718221D01*
X149897535Y-115689382D01*
X149899072Y-115673775D01*
X149899072Y-115140441D01*
X150081929Y-115140441D01*
X150081929Y-115407108D01*
X150082196Y-115409828D01*
X150082023Y-115410997D01*
X150082887Y-115416841D01*
X150083466Y-115422715D01*
X150083917Y-115423805D01*
X150084318Y-115426511D01*
X150122414Y-115578892D01*
X150127690Y-115593660D01*
X150131230Y-115598439D01*
X150133507Y-115603934D01*
X150143456Y-115616057D01*
X150219646Y-115692248D01*
X150225780Y-115697282D01*
X150227166Y-115698880D01*
X150229574Y-115700395D01*
X150231769Y-115702197D01*
X150233719Y-115703005D01*
X150240438Y-115707234D01*
X150316629Y-115745329D01*
X150331276Y-115750934D01*
X150334142Y-115751137D01*
X150336799Y-115752238D01*
X150352406Y-115753775D01*
X150504787Y-115753775D01*
X150520394Y-115752238D01*
X150523050Y-115751137D01*
X150525917Y-115750934D01*
X150540564Y-115745329D01*
X150616754Y-115707234D01*
X150623468Y-115703007D01*
X150625423Y-115702198D01*
X150627622Y-115700392D01*
X150630026Y-115698880D01*
X150631408Y-115697285D01*
X150637546Y-115692249D01*
X150713736Y-115616058D01*
X150723685Y-115603935D01*
X150725961Y-115598440D01*
X150729503Y-115593660D01*
X150734779Y-115578892D01*
X150772875Y-115426510D01*
X150773275Y-115423803D01*
X150773726Y-115422715D01*
X150774303Y-115416847D01*
X150775169Y-115410997D01*
X150774995Y-115409828D01*
X150775263Y-115407108D01*
X150775263Y-115140441D01*
X150774995Y-115137720D01*
X150775169Y-115136552D01*
X150774303Y-115130701D01*
X150773726Y-115124834D01*
X150773275Y-115123745D01*
X150772875Y-115121039D01*
X150734779Y-114968657D01*
X150729503Y-114953889D01*
X150725961Y-114949109D01*
X150723685Y-114943614D01*
X150713736Y-114931491D01*
X150656019Y-114873775D01*
X150958120Y-114873775D01*
X150958120Y-115673775D01*
X150959657Y-115689382D01*
X150971602Y-115718221D01*
X150993674Y-115740293D01*
X151022513Y-115752238D01*
X151038120Y-115753775D01*
X151228596Y-115753775D01*
X151236493Y-115752997D01*
X151238602Y-115753147D01*
X151241374Y-115752516D01*
X151244203Y-115752238D01*
X151246154Y-115751429D01*
X151253894Y-115749670D01*
X151368180Y-115711575D01*
X151382500Y-115705181D01*
X151384672Y-115703297D01*
X151387328Y-115702197D01*
X151399451Y-115692248D01*
X151475641Y-115616057D01*
X151480674Y-115609923D01*
X151482272Y-115608538D01*
X151483787Y-115606130D01*
X151485590Y-115603934D01*
X151486398Y-115601982D01*
X151490626Y-115595266D01*
X151528721Y-115519076D01*
X151529157Y-115517934D01*
X151529502Y-115517470D01*
X151531841Y-115510921D01*
X151534326Y-115504429D01*
X151534366Y-115503852D01*
X151534778Y-115502702D01*
X151572103Y-115353406D01*
X151759657Y-115353406D01*
X151759657Y-115384620D01*
X151771602Y-115413459D01*
X151793674Y-115435531D01*
X151822513Y-115447476D01*
X151838120Y-115449013D01*
X152447644Y-115449013D01*
X152463251Y-115447476D01*
X152492090Y-115435531D01*
X152514162Y-115413459D01*
X152526107Y-115384620D01*
X152526107Y-115353406D01*
X152514162Y-115324567D01*
X152492090Y-115302495D01*
X152463251Y-115290550D01*
X152447644Y-115289013D01*
X151838120Y-115289013D01*
X151822513Y-115290550D01*
X151793674Y-115302495D01*
X151771602Y-115324567D01*
X151759657Y-115353406D01*
X151572103Y-115353406D01*
X151572874Y-115350321D01*
X151573274Y-115347615D01*
X151573726Y-115346525D01*
X151574304Y-115340651D01*
X151575169Y-115334807D01*
X151574995Y-115333638D01*
X151575263Y-115330918D01*
X151575263Y-115216632D01*
X151574995Y-115213911D01*
X151575169Y-115212743D01*
X151574304Y-115206898D01*
X151573726Y-115201025D01*
X151573274Y-115199934D01*
X151572874Y-115197229D01*
X151534778Y-115044848D01*
X151534366Y-115043697D01*
X151534326Y-115043121D01*
X151531841Y-115036628D01*
X151529502Y-115030080D01*
X151529157Y-115029615D01*
X151528721Y-115028474D01*
X151490626Y-114952283D01*
X151486399Y-114945568D01*
X151485590Y-114943614D01*
X151483785Y-114941414D01*
X151482272Y-114939011D01*
X151480676Y-114937626D01*
X151475641Y-114931492D01*
X151417925Y-114873775D01*
X152748596Y-114873775D01*
X152748596Y-115673775D01*
X152750133Y-115689382D01*
X152762078Y-115718221D01*
X152784150Y-115740293D01*
X152812989Y-115752238D01*
X152844203Y-115752238D01*
X152873042Y-115740293D01*
X152895114Y-115718221D01*
X152907059Y-115689382D01*
X152908596Y-115673775D01*
X152908596Y-115175019D01*
X153216280Y-115713466D01*
X153218612Y-115716752D01*
X153219221Y-115718221D01*
X153220716Y-115719716D01*
X153225357Y-115726254D01*
X153233766Y-115732766D01*
X153241293Y-115740293D01*
X153246005Y-115742244D01*
X153250037Y-115745367D01*
X153260302Y-115748166D01*
X153270132Y-115752238D01*
X153275230Y-115752238D01*
X153280151Y-115753580D01*
X153290706Y-115752238D01*
X153301346Y-115752238D01*
X153306058Y-115750286D01*
X153311117Y-115749643D01*
X153320353Y-115744365D01*
X153330185Y-115740293D01*
X153333791Y-115736686D01*
X153338218Y-115734157D01*
X153344730Y-115725747D01*
X153352257Y-115718221D01*
X153354208Y-115713508D01*
X153357331Y-115709477D01*
X153360130Y-115699211D01*
X153364202Y-115689382D01*
X153364987Y-115681402D01*
X153365544Y-115679363D01*
X153365343Y-115677788D01*
X153365739Y-115673775D01*
X153365739Y-115663769D01*
X153473033Y-115663769D01*
X153475245Y-115694905D01*
X153489205Y-115722824D01*
X153512787Y-115743276D01*
X153542399Y-115753147D01*
X153573535Y-115750935D01*
X153601454Y-115736975D01*
X153621906Y-115713393D01*
X153628300Y-115699073D01*
X153686257Y-115525203D01*
X153951886Y-115525203D01*
X154009843Y-115699073D01*
X154016237Y-115713393D01*
X154036689Y-115736975D01*
X154064608Y-115750935D01*
X154095744Y-115753147D01*
X154125356Y-115743276D01*
X154148938Y-115722825D01*
X154162898Y-115694906D01*
X154165110Y-115663769D01*
X154161633Y-115648477D01*
X153903400Y-114873775D01*
X154272405Y-114873775D01*
X154272405Y-115521394D01*
X154273942Y-115537001D01*
X154275042Y-115539657D01*
X154275246Y-115542524D01*
X154280851Y-115557171D01*
X154318946Y-115633361D01*
X154323173Y-115640077D01*
X154323982Y-115642029D01*
X154325784Y-115644225D01*
X154327300Y-115646633D01*
X154328897Y-115648018D01*
X154333931Y-115654152D01*
X154372026Y-115692248D01*
X154378161Y-115697283D01*
X154379546Y-115698880D01*
X154381950Y-115700393D01*
X154384148Y-115702197D01*
X154386100Y-115703005D01*
X154392818Y-115707234D01*
X154469009Y-115745329D01*
X154483656Y-115750934D01*
X154486522Y-115751137D01*
X154489179Y-115752238D01*
X154504786Y-115753775D01*
X154657167Y-115753775D01*
X154672774Y-115752238D01*
X154675430Y-115751137D01*
X154678297Y-115750934D01*
X154692944Y-115745329D01*
X154769134Y-115707234D01*
X154775851Y-115703005D01*
X154777804Y-115702197D01*
X154780001Y-115700393D01*
X154782406Y-115698880D01*
X154783790Y-115697283D01*
X154789926Y-115692248D01*
X154828021Y-115654152D01*
X154833054Y-115648018D01*
X154834651Y-115646634D01*
X154836166Y-115644226D01*
X154837970Y-115642029D01*
X154838778Y-115640078D01*
X154843006Y-115633362D01*
X154881102Y-115557172D01*
X154886707Y-115542526D01*
X154886910Y-115539656D01*
X154888011Y-115537001D01*
X154889548Y-115521394D01*
X154889548Y-115026156D01*
X155072404Y-115026156D01*
X155072404Y-115064251D01*
X155073941Y-115079858D01*
X155075041Y-115082514D01*
X155075245Y-115085382D01*
X155080850Y-115100029D01*
X155118946Y-115176218D01*
X155123172Y-115182931D01*
X155123982Y-115184886D01*
X155125788Y-115187086D01*
X155127301Y-115189490D01*
X155128894Y-115190872D01*
X155133931Y-115197009D01*
X155153553Y-115216631D01*
X155133931Y-115236253D01*
X155128894Y-115242390D01*
X155127300Y-115243773D01*
X155125787Y-115246176D01*
X155123982Y-115248376D01*
X155123172Y-115250330D01*
X155118946Y-115257045D01*
X155080850Y-115333236D01*
X155075245Y-115347882D01*
X155075041Y-115350749D01*
X155073941Y-115353406D01*
X155072404Y-115369013D01*
X155072404Y-115521394D01*
X155073941Y-115537001D01*
X155075041Y-115539657D01*
X155075245Y-115542525D01*
X155080850Y-115557172D01*
X155118946Y-115633361D01*
X155123172Y-115640074D01*
X155123982Y-115642029D01*
X155125788Y-115644229D01*
X155127301Y-115646633D01*
X155128894Y-115648015D01*
X155133931Y-115654152D01*
X155172026Y-115692248D01*
X155178161Y-115697283D01*
X155179546Y-115698880D01*
X155181950Y-115700393D01*
X155184148Y-115702197D01*
X155186100Y-115703005D01*
X155192818Y-115707234D01*
X155269008Y-115745329D01*
X155283655Y-115750934D01*
X155286521Y-115751137D01*
X155289178Y-115752238D01*
X155304785Y-115753775D01*
X155457166Y-115753775D01*
X155472773Y-115752238D01*
X155475429Y-115751137D01*
X155478296Y-115750934D01*
X155492943Y-115745329D01*
X155569134Y-115707234D01*
X155575851Y-115703005D01*
X155577804Y-115702197D01*
X155580001Y-115700393D01*
X155582406Y-115698880D01*
X155583790Y-115697283D01*
X155589926Y-115692248D01*
X155628021Y-115654152D01*
X155633054Y-115648018D01*
X155634652Y-115646633D01*
X155636167Y-115644225D01*
X155637970Y-115642029D01*
X155638778Y-115640077D01*
X155643006Y-115633361D01*
X155653092Y-115613190D01*
X155797750Y-115613190D01*
X155809696Y-115642029D01*
X155819645Y-115654152D01*
X155857740Y-115692248D01*
X155863875Y-115697283D01*
X155865260Y-115698880D01*
X155867664Y-115700393D01*
X155869862Y-115702197D01*
X155871814Y-115703005D01*
X155878532Y-115707234D01*
X155954723Y-115745329D01*
X155969370Y-115750934D01*
X155972236Y-115751137D01*
X155974893Y-115752238D01*
X155990500Y-115753775D01*
X156219071Y-115753775D01*
X156234678Y-115752238D01*
X156237334Y-115751137D01*
X156240201Y-115750934D01*
X156254848Y-115745329D01*
X156331039Y-115707234D01*
X156337756Y-115703005D01*
X156339709Y-115702197D01*
X156341906Y-115700393D01*
X156344311Y-115698880D01*
X156345695Y-115697283D01*
X156351831Y-115692248D01*
X156385910Y-115658168D01*
X156559656Y-115658168D01*
X156559656Y-115689382D01*
X156571601Y-115718221D01*
X156593673Y-115740293D01*
X156622512Y-115752238D01*
X156638119Y-115753775D01*
X157133357Y-115753775D01*
X157148964Y-115752238D01*
X157177803Y-115740293D01*
X157199875Y-115718221D01*
X157211820Y-115689382D01*
X157211820Y-115658168D01*
X157199875Y-115629329D01*
X157177803Y-115607257D01*
X157148964Y-115595312D01*
X157133357Y-115593775D01*
X156831257Y-115593775D01*
X157151831Y-115273200D01*
X157160655Y-115262449D01*
X157358492Y-115262449D01*
X157359655Y-115266304D01*
X157359655Y-115270333D01*
X157364129Y-115281135D01*
X157367508Y-115292333D01*
X157370060Y-115295452D01*
X157371601Y-115299172D01*
X157379868Y-115307439D01*
X157387275Y-115316492D01*
X157390823Y-115318395D01*
X157393672Y-115321244D01*
X157404475Y-115325719D01*
X157414782Y-115331248D01*
X157418790Y-115331648D01*
X157422511Y-115333190D01*
X157434205Y-115333190D01*
X157445841Y-115334354D01*
X157449696Y-115333190D01*
X157453725Y-115333191D01*
X157464527Y-115328716D01*
X157475725Y-115325338D01*
X157478844Y-115322785D01*
X157482564Y-115321245D01*
X157494687Y-115311296D01*
X157523603Y-115282380D01*
X157571290Y-115258537D01*
X157723996Y-115258537D01*
X157771681Y-115282379D01*
X157791419Y-115302116D01*
X157815262Y-115349802D01*
X157815262Y-115502509D01*
X157791418Y-115550195D01*
X157771682Y-115569932D01*
X157723996Y-115593775D01*
X157571290Y-115593775D01*
X157523604Y-115569932D01*
X157494688Y-115541015D01*
X157482565Y-115531066D01*
X157453726Y-115519121D01*
X157422512Y-115519121D01*
X157393673Y-115531066D01*
X157371601Y-115553138D01*
X157359656Y-115581977D01*
X157359656Y-115613191D01*
X157371601Y-115642030D01*
X157381550Y-115654153D01*
X157419647Y-115692249D01*
X157425781Y-115697284D01*
X157427166Y-115698880D01*
X157429569Y-115700393D01*
X157431769Y-115702198D01*
X157433723Y-115703007D01*
X157440438Y-115707234D01*
X157516628Y-115745329D01*
X157531275Y-115750934D01*
X157534141Y-115751137D01*
X157536798Y-115752238D01*
X157552405Y-115753775D01*
X157742881Y-115753775D01*
X157758488Y-115752238D01*
X157761144Y-115751137D01*
X157764011Y-115750934D01*
X157778658Y-115745329D01*
X157854849Y-115707234D01*
X157861566Y-115703005D01*
X157863519Y-115702197D01*
X157865716Y-115700393D01*
X157868121Y-115698880D01*
X157869505Y-115697283D01*
X157875641Y-115692248D01*
X157913736Y-115654152D01*
X157918769Y-115648018D01*
X157920367Y-115646633D01*
X157921882Y-115644225D01*
X157923685Y-115642029D01*
X157924493Y-115640077D01*
X157928721Y-115633361D01*
X157966816Y-115557171D01*
X157972421Y-115542524D01*
X157972624Y-115539657D01*
X157973725Y-115537001D01*
X157975262Y-115521394D01*
X157975262Y-115330918D01*
X157973725Y-115315311D01*
X157972624Y-115312654D01*
X157972421Y-115309788D01*
X157966816Y-115295141D01*
X157928721Y-115218950D01*
X157924491Y-115212231D01*
X157923684Y-115210281D01*
X157921882Y-115208086D01*
X157920367Y-115205678D01*
X157918769Y-115204292D01*
X157913735Y-115198158D01*
X157875641Y-115160063D01*
X157869503Y-115155026D01*
X157868121Y-115153432D01*
X157865717Y-115151919D01*
X157863518Y-115150114D01*
X157861563Y-115149304D01*
X157854849Y-115145078D01*
X157778658Y-115106983D01*
X157764011Y-115101378D01*
X157761144Y-115101174D01*
X157758488Y-115100074D01*
X157742881Y-115098537D01*
X157552405Y-115098537D01*
X157536798Y-115100074D01*
X157534141Y-115101174D01*
X157533871Y-115101193D01*
X157548614Y-114953775D01*
X157857167Y-114953775D01*
X157872774Y-114952238D01*
X157901613Y-114940293D01*
X157923685Y-114918221D01*
X157935630Y-114889382D01*
X157935630Y-114858168D01*
X157923685Y-114829329D01*
X157901613Y-114807257D01*
X157872774Y-114795312D01*
X157857167Y-114793775D01*
X157476215Y-114793775D01*
X157470440Y-114794343D01*
X157468493Y-114794149D01*
X157466591Y-114794722D01*
X157460608Y-114795312D01*
X157449799Y-114799788D01*
X157438609Y-114803165D01*
X157435492Y-114805714D01*
X157431769Y-114807257D01*
X157423496Y-114815529D01*
X157414450Y-114822931D01*
X157412546Y-114826479D01*
X157409697Y-114829329D01*
X157405221Y-114840133D01*
X157399694Y-114850438D01*
X157398512Y-114856331D01*
X157397752Y-114858168D01*
X157397752Y-114860127D01*
X157396612Y-114865815D01*
X157358516Y-115246767D01*
X157358492Y-115262449D01*
X157160655Y-115262449D01*
X157161780Y-115261078D01*
X157162880Y-115258420D01*
X157164763Y-115256250D01*
X157171157Y-115241930D01*
X157209252Y-115127644D01*
X157211011Y-115119904D01*
X157211820Y-115117953D01*
X157212098Y-115115124D01*
X157212729Y-115112352D01*
X157212579Y-115110243D01*
X157213357Y-115102346D01*
X157213357Y-115026156D01*
X157211820Y-115010549D01*
X157210719Y-115007892D01*
X157210516Y-115005026D01*
X157204911Y-114990379D01*
X157166816Y-114914188D01*
X157162586Y-114907469D01*
X157161779Y-114905519D01*
X157159977Y-114903324D01*
X157158462Y-114900916D01*
X157156864Y-114899530D01*
X157151830Y-114893396D01*
X157113736Y-114855301D01*
X157107598Y-114850264D01*
X157106216Y-114848670D01*
X157103812Y-114847157D01*
X157101613Y-114845352D01*
X157099658Y-114844542D01*
X157092944Y-114840316D01*
X157016753Y-114802221D01*
X157002106Y-114796616D01*
X156999239Y-114796412D01*
X156996583Y-114795312D01*
X156980976Y-114793775D01*
X156790500Y-114793775D01*
X156774893Y-114795312D01*
X156772236Y-114796412D01*
X156769370Y-114796616D01*
X156754723Y-114802221D01*
X156678533Y-114840316D01*
X156671816Y-114844543D01*
X156669865Y-114845352D01*
X156667668Y-114847154D01*
X156665261Y-114848670D01*
X156663875Y-114850267D01*
X156657742Y-114855301D01*
X156619646Y-114893396D01*
X156609697Y-114905518D01*
X156597751Y-114934357D01*
X156597750Y-114965571D01*
X156609696Y-114994410D01*
X156631767Y-115016482D01*
X156660606Y-115028428D01*
X156691820Y-115028429D01*
X156720659Y-115016483D01*
X156732782Y-115006534D01*
X156761698Y-114977618D01*
X156809385Y-114953775D01*
X156962091Y-114953775D01*
X157009776Y-114977617D01*
X157029514Y-114997354D01*
X157053357Y-115045040D01*
X157053357Y-115089363D01*
X157025338Y-115173418D01*
X156581550Y-115617206D01*
X156571601Y-115629329D01*
X156559656Y-115658168D01*
X156385910Y-115658168D01*
X156389926Y-115654152D01*
X156394959Y-115648018D01*
X156396557Y-115646633D01*
X156398072Y-115644225D01*
X156399875Y-115642029D01*
X156400683Y-115640077D01*
X156404911Y-115633361D01*
X156443006Y-115557171D01*
X156448611Y-115542524D01*
X156448814Y-115539657D01*
X156449915Y-115537001D01*
X156451452Y-115521394D01*
X156451452Y-115330918D01*
X156449915Y-115315311D01*
X156448814Y-115312654D01*
X156448611Y-115309788D01*
X156443006Y-115295141D01*
X156404911Y-115218950D01*
X156400681Y-115212231D01*
X156399874Y-115210281D01*
X156398072Y-115208086D01*
X156396557Y-115205678D01*
X156394959Y-115204292D01*
X156389925Y-115198158D01*
X156351831Y-115160063D01*
X156345693Y-115155026D01*
X156344311Y-115153432D01*
X156341907Y-115151919D01*
X156339708Y-115150114D01*
X156337753Y-115149304D01*
X156331039Y-115145078D01*
X156267960Y-115113538D01*
X156431658Y-114926455D01*
X156436478Y-114919712D01*
X156437970Y-114918221D01*
X156438555Y-114916806D01*
X156440779Y-114913697D01*
X156444942Y-114901387D01*
X156449915Y-114889382D01*
X156449915Y-114886685D01*
X156450780Y-114884128D01*
X156449915Y-114871150D01*
X156449915Y-114858168D01*
X156448883Y-114855677D01*
X156448704Y-114852983D01*
X156442939Y-114841326D01*
X156437970Y-114829329D01*
X156436062Y-114827421D01*
X156434866Y-114825002D01*
X156425084Y-114816443D01*
X156415898Y-114807257D01*
X156413405Y-114806224D01*
X156411375Y-114804448D01*
X156399059Y-114800282D01*
X156387059Y-114795312D01*
X156383256Y-114794937D01*
X156381806Y-114794447D01*
X156379700Y-114794587D01*
X156371452Y-114793775D01*
X155876214Y-114793775D01*
X155860607Y-114795312D01*
X155831768Y-114807257D01*
X155809696Y-114829329D01*
X155797751Y-114858168D01*
X155797751Y-114889382D01*
X155809696Y-114918221D01*
X155831768Y-114940293D01*
X155860607Y-114952238D01*
X155876214Y-114953775D01*
X156195151Y-114953775D01*
X156044580Y-115125857D01*
X156039758Y-115132600D01*
X156038268Y-115134091D01*
X156037682Y-115135503D01*
X156035459Y-115138614D01*
X156031294Y-115150927D01*
X156026323Y-115162930D01*
X156026323Y-115165626D01*
X156025458Y-115168184D01*
X156026323Y-115181154D01*
X156026323Y-115194144D01*
X156027355Y-115196636D01*
X156027535Y-115199329D01*
X156033294Y-115210975D01*
X156038268Y-115222983D01*
X156040176Y-115224891D01*
X156041372Y-115227309D01*
X156051149Y-115235864D01*
X156060340Y-115245055D01*
X156062832Y-115246087D01*
X156064863Y-115247864D01*
X156077176Y-115252028D01*
X156089179Y-115257000D01*
X156092983Y-115257374D01*
X156094433Y-115257865D01*
X156096537Y-115257724D01*
X156104786Y-115258537D01*
X156200186Y-115258537D01*
X156247871Y-115282379D01*
X156267609Y-115302116D01*
X156291452Y-115349802D01*
X156291452Y-115502509D01*
X156267608Y-115550195D01*
X156247872Y-115569932D01*
X156200186Y-115593775D01*
X156009385Y-115593775D01*
X155961698Y-115569932D01*
X155932783Y-115541016D01*
X155920661Y-115531067D01*
X155891822Y-115519121D01*
X155860608Y-115519120D01*
X155831769Y-115531066D01*
X155809697Y-115553137D01*
X155797751Y-115581976D01*
X155797750Y-115613190D01*
X155653092Y-115613190D01*
X155681101Y-115557171D01*
X155686706Y-115542524D01*
X155686909Y-115539657D01*
X155688010Y-115537001D01*
X155689547Y-115521394D01*
X155689547Y-115369013D01*
X155688010Y-115353406D01*
X155686909Y-115350749D01*
X155686706Y-115347883D01*
X155681101Y-115333236D01*
X155643006Y-115257045D01*
X155638776Y-115250326D01*
X155637969Y-115248376D01*
X155636167Y-115246181D01*
X155634652Y-115243773D01*
X155633054Y-115242387D01*
X155628020Y-115236253D01*
X155608399Y-115216631D01*
X155628021Y-115197009D01*
X155633054Y-115190875D01*
X155634652Y-115189490D01*
X155636167Y-115187082D01*
X155637970Y-115184886D01*
X155638778Y-115182934D01*
X155643006Y-115176218D01*
X155681101Y-115100028D01*
X155686706Y-115085381D01*
X155686909Y-115082514D01*
X155688010Y-115079858D01*
X155689547Y-115064251D01*
X155689547Y-115026156D01*
X155688010Y-115010549D01*
X155686909Y-115007892D01*
X155686706Y-115005026D01*
X155681101Y-114990379D01*
X155643006Y-114914188D01*
X155638776Y-114907469D01*
X155637969Y-114905519D01*
X155636167Y-114903324D01*
X155634652Y-114900916D01*
X155633054Y-114899530D01*
X155628020Y-114893396D01*
X155589926Y-114855301D01*
X155583788Y-114850264D01*
X155582406Y-114848670D01*
X155580002Y-114847157D01*
X155577803Y-114845352D01*
X155575848Y-114844542D01*
X155569134Y-114840316D01*
X155492943Y-114802221D01*
X155478296Y-114796616D01*
X155475429Y-114796412D01*
X155472773Y-114795312D01*
X155457166Y-114793775D01*
X155304785Y-114793775D01*
X155289178Y-114795312D01*
X155286521Y-114796412D01*
X155283655Y-114796616D01*
X155269008Y-114802221D01*
X155192818Y-114840316D01*
X155186099Y-114844545D01*
X155184149Y-114845353D01*
X155181954Y-114847154D01*
X155179546Y-114848670D01*
X155178160Y-114850267D01*
X155172026Y-114855302D01*
X155133931Y-114893396D01*
X155128894Y-114899533D01*
X155127300Y-114900916D01*
X155125787Y-114903319D01*
X155123982Y-114905519D01*
X155123172Y-114907473D01*
X155118946Y-114914188D01*
X155080850Y-114990379D01*
X155075245Y-115005025D01*
X155075041Y-115007892D01*
X155073941Y-115010549D01*
X155072404Y-115026156D01*
X154889548Y-115026156D01*
X154889548Y-114873775D01*
X154888011Y-114858168D01*
X154876066Y-114829329D01*
X154853994Y-114807257D01*
X154825155Y-114795312D01*
X154793941Y-114795312D01*
X154765102Y-114807257D01*
X154743030Y-114829329D01*
X154731085Y-114858168D01*
X154729548Y-114873775D01*
X154729548Y-115502508D01*
X154705703Y-115550196D01*
X154685967Y-115569932D01*
X154638282Y-115593775D01*
X154523671Y-115593775D01*
X154475984Y-115569932D01*
X154456248Y-115550195D01*
X154432405Y-115502509D01*
X154432405Y-114873775D01*
X154430868Y-114858168D01*
X154418923Y-114829329D01*
X154396851Y-114807257D01*
X154368012Y-114795312D01*
X154336798Y-114795312D01*
X154307959Y-114807257D01*
X154285887Y-114829329D01*
X154273942Y-114858168D01*
X154272405Y-114873775D01*
X153903400Y-114873775D01*
X153894967Y-114848477D01*
X153888573Y-114834157D01*
X153884828Y-114829839D01*
X153882272Y-114824726D01*
X153874696Y-114818155D01*
X153868122Y-114810575D01*
X153863005Y-114808016D01*
X153858690Y-114804274D01*
X153849179Y-114801103D01*
X153840202Y-114796615D01*
X153834498Y-114796209D01*
X153829078Y-114794403D01*
X153819074Y-114795114D01*
X153809066Y-114794403D01*
X153803642Y-114796210D01*
X153797942Y-114796616D01*
X153788969Y-114801102D01*
X153779454Y-114804274D01*
X153775136Y-114808018D01*
X153770023Y-114810575D01*
X153763452Y-114818150D01*
X153755872Y-114824725D01*
X153753313Y-114829841D01*
X153749571Y-114834157D01*
X153743177Y-114848477D01*
X153476510Y-115648477D01*
X153473033Y-115663769D01*
X153365739Y-115663769D01*
X153365739Y-114873775D01*
X153364202Y-114858168D01*
X153352257Y-114829329D01*
X153330185Y-114807257D01*
X153301346Y-114795312D01*
X153270132Y-114795312D01*
X153241293Y-114807257D01*
X153219221Y-114829329D01*
X153207276Y-114858168D01*
X153205739Y-114873775D01*
X153205739Y-115372530D01*
X152898055Y-114834084D01*
X152895722Y-114830797D01*
X152895114Y-114829329D01*
X152893618Y-114827833D01*
X152888978Y-114821296D01*
X152880568Y-114814783D01*
X152873042Y-114807257D01*
X152868329Y-114805305D01*
X152864298Y-114802183D01*
X152854032Y-114799383D01*
X152844203Y-114795312D01*
X152839105Y-114795312D01*
X152834184Y-114793970D01*
X152823629Y-114795312D01*
X152812989Y-114795312D01*
X152808276Y-114797263D01*
X152803218Y-114797907D01*
X152793981Y-114803184D01*
X152784150Y-114807257D01*
X152780543Y-114810863D01*
X152776117Y-114813393D01*
X152769604Y-114821802D01*
X152762078Y-114829329D01*
X152760126Y-114834041D01*
X152757004Y-114838073D01*
X152754204Y-114848338D01*
X152750133Y-114858168D01*
X152749347Y-114866147D01*
X152748791Y-114868187D01*
X152748991Y-114869761D01*
X152748596Y-114873775D01*
X151417925Y-114873775D01*
X151399451Y-114855301D01*
X151387328Y-114845352D01*
X151384670Y-114844251D01*
X151382500Y-114842369D01*
X151368180Y-114835975D01*
X151253894Y-114797880D01*
X151246154Y-114796120D01*
X151244203Y-114795312D01*
X151241374Y-114795033D01*
X151238602Y-114794403D01*
X151236493Y-114794552D01*
X151228596Y-114793775D01*
X151038120Y-114793775D01*
X151022513Y-114795312D01*
X150993674Y-114807257D01*
X150971602Y-114829329D01*
X150959657Y-114858168D01*
X150958120Y-114873775D01*
X150656019Y-114873775D01*
X150637545Y-114855301D01*
X150631411Y-114850267D01*
X150630026Y-114848670D01*
X150627618Y-114847154D01*
X150625422Y-114845352D01*
X150623470Y-114844543D01*
X150616754Y-114840316D01*
X150540564Y-114802221D01*
X150525917Y-114796616D01*
X150523050Y-114796412D01*
X150520394Y-114795312D01*
X150504787Y-114793775D01*
X150352406Y-114793775D01*
X150336799Y-114795312D01*
X150334142Y-114796412D01*
X150331276Y-114796616D01*
X150316629Y-114802221D01*
X150240438Y-114840316D01*
X150233723Y-114844542D01*
X150231769Y-114845352D01*
X150229569Y-114847156D01*
X150227166Y-114848670D01*
X150225781Y-114850265D01*
X150219647Y-114855301D01*
X150143456Y-114931491D01*
X150133507Y-114943614D01*
X150131230Y-114949110D01*
X150127690Y-114953889D01*
X150122414Y-114968657D01*
X150084318Y-115121038D01*
X150083917Y-115123743D01*
X150083466Y-115124834D01*
X150082887Y-115130707D01*
X150082023Y-115136552D01*
X150082196Y-115137720D01*
X150081929Y-115140441D01*
X149899072Y-115140441D01*
X149899072Y-114873775D01*
X149898061Y-114863518D01*
X149898145Y-114861628D01*
X149897775Y-114860612D01*
X149897535Y-114858168D01*
X149892226Y-114845350D01*
X149887478Y-114832293D01*
X149886272Y-114830976D01*
X149885590Y-114829329D01*
X149875773Y-114819512D01*
X149866396Y-114809273D01*
X149864779Y-114808518D01*
X149863518Y-114807257D01*
X149850691Y-114801944D01*
X149838110Y-114796073D01*
X149836327Y-114795994D01*
X149834679Y-114795312D01*
X149820800Y-114795312D01*
X149806925Y-114794702D01*
X149805247Y-114795312D01*
X149803465Y-114795312D01*
X149790647Y-114800620D01*
X149777590Y-114805369D01*
X149776273Y-114806574D01*
X149774626Y-114807257D01*
X149764809Y-114817073D01*
X149754570Y-114826451D01*
X149753317Y-114828565D01*
X149752554Y-114829329D01*
X149751830Y-114831075D01*
X149746577Y-114839944D01*
X149552404Y-115256025D01*
X149358234Y-114839944D01*
X149352980Y-114831075D01*
X149352257Y-114829329D01*
X149351493Y-114828565D01*
X149350241Y-114826451D01*
X149340001Y-114817073D01*
X149330185Y-114807257D01*
X149328537Y-114806574D01*
X149327221Y-114805369D01*
X149314163Y-114800620D01*
X149301346Y-114795312D01*
X149299564Y-114795312D01*
X149297886Y-114794702D01*
X149284011Y-114795312D01*
X149270132Y-114795312D01*
X149268483Y-114795994D01*
X149266701Y-114796073D01*
X149254119Y-114801944D01*
X149241293Y-114807257D01*
X149240031Y-114808518D01*
X149238415Y-114809273D01*
X149229037Y-114819512D01*
X149219221Y-114829329D01*
X149218538Y-114830976D01*
X149217333Y-114832293D01*
X149212584Y-114845350D01*
X149207276Y-114858168D01*
X149207035Y-114860612D01*
X149206666Y-114861628D01*
X149206749Y-114863518D01*
X149205739Y-114873775D01*
X148974795Y-114873775D01*
X148974287Y-114872251D01*
X148953835Y-114848670D01*
X148940563Y-114840316D01*
X148864373Y-114802221D01*
X148849726Y-114796616D01*
X148846859Y-114796412D01*
X148844203Y-114795312D01*
X148828596Y-114793775D01*
X148714310Y-114793775D01*
X148706412Y-114794552D01*
X148704304Y-114794403D01*
X148701531Y-114795033D01*
X148698703Y-114795312D01*
X148696751Y-114796120D01*
X148689012Y-114797880D01*
X148574726Y-114835975D01*
X148560406Y-114842369D01*
X148558235Y-114844251D01*
X148555578Y-114845352D01*
X148543456Y-114855301D01*
X148467265Y-114931491D01*
X148462228Y-114937628D01*
X148460634Y-114939011D01*
X148459121Y-114941414D01*
X148457316Y-114943614D01*
X148456506Y-114945568D01*
X148452280Y-114952283D01*
X148414185Y-115028474D01*
X148413748Y-115029615D01*
X148413404Y-115030080D01*
X148411064Y-115036628D01*
X148408580Y-115043121D01*
X148408539Y-115043697D01*
X148408128Y-115044848D01*
X148370032Y-115197229D01*
X148369631Y-115199934D01*
X148369180Y-115201025D01*
X148368601Y-115206898D01*
X148367737Y-115212743D01*
X148367910Y-115213911D01*
X148367643Y-115216632D01*
X148278754Y-115216632D01*
X148278754Y-114704886D01*
X158064151Y-114704886D01*
X158064151Y-115842664D01*
G37*
D13*
%TO.C,G\u002A\u002A\u002A*%
G36*
X140894088Y-136975370D02*
G01*
X141165377Y-136975388D01*
X141413227Y-136975433D01*
X141638738Y-136975514D01*
X141843013Y-136975644D01*
X142027153Y-136975832D01*
X142192261Y-136976092D01*
X142339438Y-136976432D01*
X142469787Y-136976865D01*
X142584408Y-136977401D01*
X142684404Y-136978053D01*
X142770876Y-136978829D01*
X142844927Y-136979743D01*
X142907658Y-136980805D01*
X142960172Y-136982025D01*
X143003569Y-136983416D01*
X143038952Y-136984988D01*
X143067423Y-136986752D01*
X143090083Y-136988720D01*
X143108035Y-136990902D01*
X143122379Y-136993309D01*
X143134219Y-136995953D01*
X143144655Y-136998845D01*
X143151860Y-137001068D01*
X143250672Y-137044599D01*
X143334811Y-137107271D01*
X143399067Y-137183777D01*
X143408868Y-137198052D01*
X143417885Y-137210466D01*
X143426149Y-137222087D01*
X143433692Y-137233986D01*
X143440544Y-137247232D01*
X143446738Y-137262894D01*
X143452304Y-137282042D01*
X143457274Y-137305745D01*
X143461679Y-137335072D01*
X143465550Y-137371094D01*
X143468919Y-137414879D01*
X143471817Y-137467498D01*
X143474276Y-137530018D01*
X143476327Y-137603511D01*
X143478000Y-137689045D01*
X143479328Y-137787690D01*
X143480341Y-137900515D01*
X143481072Y-138028589D01*
X143481551Y-138172983D01*
X143481810Y-138334766D01*
X143481880Y-138515006D01*
X143481792Y-138714774D01*
X143481578Y-138935140D01*
X143481269Y-139177171D01*
X143480896Y-139441938D01*
X143480492Y-139730511D01*
X143480198Y-139953270D01*
X143476961Y-142514096D01*
X142890868Y-141962904D01*
X142304774Y-141411711D01*
X140215666Y-141411711D01*
X139944679Y-141411706D01*
X139698130Y-141411681D01*
X139474813Y-141411623D01*
X139273522Y-141411516D01*
X139093052Y-141411347D01*
X138932196Y-141411101D01*
X138789749Y-141410765D01*
X138664505Y-141410322D01*
X138555258Y-141409761D01*
X138460802Y-141409065D01*
X138379932Y-141408222D01*
X138311442Y-141407216D01*
X138254126Y-141406033D01*
X138206778Y-141404660D01*
X138168193Y-141403081D01*
X138137164Y-141401283D01*
X138112486Y-141399251D01*
X138092953Y-141396971D01*
X138077359Y-141394429D01*
X138064498Y-141391610D01*
X138053165Y-141388500D01*
X138045071Y-141386008D01*
X137944242Y-141341557D01*
X137859584Y-141277554D01*
X137792492Y-141195410D01*
X137744361Y-141096532D01*
X137737256Y-141075268D01*
X137733955Y-141063782D01*
X137730975Y-141050737D01*
X137728299Y-141034833D01*
X137725912Y-141014772D01*
X137723796Y-140989253D01*
X137721936Y-140956978D01*
X137720316Y-140916646D01*
X137718918Y-140866958D01*
X137717726Y-140806615D01*
X137716724Y-140734318D01*
X137715896Y-140648767D01*
X137715226Y-140548662D01*
X137714696Y-140432704D01*
X137714291Y-140299593D01*
X137713994Y-140148031D01*
X137713789Y-139976717D01*
X137713660Y-139784353D01*
X137713589Y-139569638D01*
X137713562Y-139331273D01*
X137713561Y-139282774D01*
X138303352Y-139282774D01*
X138303406Y-139447231D01*
X138303645Y-139589457D01*
X138304194Y-139711160D01*
X138305176Y-139814047D01*
X138306713Y-139899824D01*
X138308930Y-139970197D01*
X138311948Y-140026875D01*
X138315892Y-140071563D01*
X138320885Y-140105968D01*
X138327049Y-140131798D01*
X138334509Y-140150758D01*
X138343386Y-140164555D01*
X138353805Y-140174897D01*
X138365888Y-140183490D01*
X138379760Y-140192041D01*
X138382727Y-140193876D01*
X138403433Y-140205129D01*
X138426117Y-140212443D01*
X138456313Y-140216448D01*
X138499555Y-140217777D01*
X138561379Y-140217059D01*
X138582025Y-140216595D01*
X138738882Y-140212872D01*
X138780764Y-140170995D01*
X138822645Y-140129117D01*
X138829595Y-139930804D01*
X138832690Y-139853105D01*
X138836101Y-139796588D01*
X138840457Y-139756793D01*
X138846387Y-139729261D01*
X138854520Y-139709532D01*
X138862561Y-139697012D01*
X138880792Y-139673989D01*
X138899976Y-139655827D01*
X138923272Y-139641948D01*
X138953837Y-139631772D01*
X138994831Y-139624722D01*
X139049412Y-139620219D01*
X139120737Y-139617684D01*
X139211965Y-139616539D01*
X139303463Y-139616231D01*
X139454116Y-139614543D01*
X139582540Y-139609549D01*
X139692010Y-139600651D01*
X139785795Y-139587251D01*
X139867169Y-139568754D01*
X139939404Y-139544560D01*
X140005772Y-139514074D01*
X140069545Y-139476698D01*
X140070130Y-139476320D01*
X140173146Y-139397105D01*
X140255834Y-139305185D01*
X140318804Y-139199296D01*
X140349632Y-139114164D01*
X140561506Y-139114164D01*
X140573672Y-139278240D01*
X140605405Y-139437507D01*
X140656109Y-139589062D01*
X140725187Y-139730004D01*
X140812041Y-139857430D01*
X140916074Y-139968438D01*
X140927426Y-139978548D01*
X141066828Y-140083803D01*
X141220258Y-140168737D01*
X141385230Y-140232649D01*
X141559260Y-140274839D01*
X141739863Y-140294605D01*
X141924552Y-140291246D01*
X142004731Y-140282500D01*
X142083597Y-140267800D01*
X142170353Y-140245222D01*
X142256510Y-140217483D01*
X142333584Y-140187296D01*
X142389825Y-140159314D01*
X142417762Y-140144202D01*
X142444194Y-140134283D01*
X142475656Y-140128419D01*
X142518682Y-140125471D01*
X142579806Y-140124300D01*
X142591255Y-140124205D01*
X142654862Y-140123328D01*
X142700515Y-140120783D01*
X142735904Y-140114997D01*
X142768719Y-140104395D01*
X142806649Y-140087401D01*
X142832326Y-140074834D01*
X142933100Y-140012106D01*
X143013721Y-139933525D01*
X143074133Y-139839167D01*
X143114280Y-139729105D01*
X143124448Y-139681857D01*
X143131432Y-139573191D01*
X143114950Y-139467803D01*
X143077178Y-139368695D01*
X143020293Y-139278870D01*
X142946470Y-139201329D01*
X142857885Y-139139076D01*
X142756716Y-139095112D01*
X142686794Y-139078034D01*
X142576378Y-139071057D01*
X142469928Y-139087400D01*
X142370347Y-139124763D01*
X142280534Y-139180846D01*
X142203389Y-139253349D01*
X142141815Y-139339970D01*
X142098711Y-139438410D01*
X142076977Y-139546367D01*
X142075775Y-139562634D01*
X142074698Y-139618099D01*
X142077286Y-139670331D01*
X142082980Y-139708495D01*
X142083384Y-139710017D01*
X142090487Y-139742761D01*
X142086529Y-139761498D01*
X142069311Y-139776282D01*
X142068823Y-139776602D01*
X142027631Y-139795788D01*
X141969596Y-139812992D01*
X141903519Y-139826242D01*
X141838201Y-139833568D01*
X141810638Y-139834406D01*
X141673372Y-139822191D01*
X141545300Y-139787365D01*
X141428548Y-139731438D01*
X141325237Y-139655921D01*
X141237491Y-139562325D01*
X141167435Y-139452159D01*
X141122911Y-139345189D01*
X141108799Y-139297545D01*
X141099736Y-139252913D01*
X141094742Y-139203235D01*
X141092837Y-139140454D01*
X141092751Y-139097375D01*
X141093799Y-139025951D01*
X141097067Y-138972006D01*
X141103692Y-138927401D01*
X141114809Y-138883994D01*
X141128226Y-138843146D01*
X141184248Y-138716993D01*
X141258309Y-138607793D01*
X141349315Y-138516929D01*
X141432490Y-138459008D01*
X141545979Y-138406736D01*
X141670028Y-138375160D01*
X141798584Y-138365442D01*
X141885742Y-138371949D01*
X142004095Y-138396487D01*
X142104067Y-138435922D01*
X142189732Y-138492765D01*
X142265164Y-138569529D01*
X142313650Y-138635840D01*
X142356041Y-138696527D01*
X142393311Y-138737969D01*
X142432009Y-138763751D01*
X142478686Y-138777460D01*
X142539894Y-138782685D01*
X142582852Y-138783241D01*
X142664725Y-138780181D01*
X142725870Y-138770031D01*
X142770576Y-138751332D01*
X142803132Y-138722626D01*
X142816309Y-138703876D01*
X142836678Y-138656921D01*
X142840931Y-138605779D01*
X142828618Y-138545896D01*
X142799287Y-138472720D01*
X142791891Y-138457221D01*
X142713087Y-138322996D01*
X142616320Y-138207005D01*
X142501777Y-138109369D01*
X142369647Y-138030204D01*
X142220115Y-137969631D01*
X142053369Y-137927768D01*
X141929552Y-137909975D01*
X141761008Y-137903534D01*
X141588070Y-137917794D01*
X141417984Y-137951632D01*
X141257994Y-138003928D01*
X141220498Y-138019722D01*
X141088563Y-138091276D01*
X140964710Y-138184132D01*
X140852717Y-138294311D01*
X140756363Y-138417834D01*
X140679426Y-138550722D01*
X140648385Y-138622107D01*
X140598266Y-138783195D01*
X140569505Y-138948182D01*
X140561506Y-139114164D01*
X140349632Y-139114164D01*
X140362665Y-139078175D01*
X140388029Y-138940558D01*
X140395542Y-138802359D01*
X140392169Y-138685786D01*
X140381069Y-138591814D01*
X140374090Y-138558745D01*
X140329782Y-138425840D01*
X140266270Y-138309864D01*
X140183751Y-138210976D01*
X140082421Y-138129333D01*
X139962474Y-138065094D01*
X139824106Y-138018415D01*
X139668884Y-137989622D01*
X139627771Y-137986265D01*
X139563849Y-137983256D01*
X139479951Y-137980654D01*
X139378912Y-137978519D01*
X139263564Y-137976909D01*
X139136741Y-137975884D01*
X139001276Y-137975504D01*
X138995539Y-137975503D01*
X138853558Y-137975535D01*
X138734925Y-137975858D01*
X138637349Y-137976782D01*
X138558535Y-137978618D01*
X138496190Y-137981675D01*
X138448019Y-137986266D01*
X138411728Y-137992700D01*
X138385024Y-138001287D01*
X138365614Y-138012338D01*
X138351202Y-138026164D01*
X138339496Y-138043074D01*
X138328201Y-138063379D01*
X138326791Y-138066010D01*
X138322444Y-138075212D01*
X138318670Y-138086669D01*
X138315427Y-138102142D01*
X138312676Y-138123393D01*
X138310376Y-138152184D01*
X138308487Y-138190275D01*
X138306969Y-138239430D01*
X138305782Y-138301408D01*
X138304886Y-138377972D01*
X138304241Y-138470884D01*
X138303806Y-138581904D01*
X138303542Y-138712795D01*
X138303407Y-138865318D01*
X138303363Y-139041235D01*
X138303362Y-139094381D01*
X138303352Y-139282774D01*
X137713561Y-139282774D01*
X137713559Y-139193747D01*
X137713565Y-138942660D01*
X137713597Y-138715913D01*
X137713671Y-138512199D01*
X137713806Y-138330213D01*
X137714019Y-138168652D01*
X137714328Y-138026208D01*
X137714752Y-137901579D01*
X137715306Y-137793458D01*
X137716010Y-137700541D01*
X137716882Y-137621522D01*
X137717938Y-137555097D01*
X137719197Y-137499960D01*
X137720677Y-137454807D01*
X137722395Y-137418332D01*
X137724369Y-137389232D01*
X137726617Y-137366199D01*
X137729156Y-137347931D01*
X137732005Y-137333120D01*
X137735181Y-137320464D01*
X137738703Y-137308656D01*
X137739261Y-137306878D01*
X137783713Y-137206049D01*
X137847716Y-137121391D01*
X137929860Y-137054299D01*
X138028738Y-137006168D01*
X138050002Y-136999063D01*
X138059890Y-136996224D01*
X138071262Y-136993620D01*
X138085215Y-136991242D01*
X138102846Y-136989080D01*
X138125255Y-136987123D01*
X138153539Y-136985361D01*
X138188796Y-136983784D01*
X138232124Y-136982382D01*
X138284622Y-136981144D01*
X138347387Y-136980060D01*
X138421517Y-136979121D01*
X138508111Y-136978315D01*
X138608266Y-136977633D01*
X138723080Y-136977065D01*
X138853653Y-136976599D01*
X139001081Y-136976227D01*
X139166463Y-136975937D01*
X139350896Y-136975720D01*
X139555480Y-136975565D01*
X139781311Y-136975463D01*
X140029488Y-136975402D01*
X140301109Y-136975373D01*
X140597273Y-136975366D01*
X140598257Y-136975366D01*
X140894088Y-136975370D01*
G37*
G36*
X139363415Y-138430726D02*
G01*
X139442082Y-138431163D01*
X139502201Y-138432223D01*
X139547321Y-138434179D01*
X139580991Y-138437302D01*
X139606758Y-138441865D01*
X139628170Y-138448138D01*
X139648777Y-138456394D01*
X139659161Y-138461023D01*
X139728106Y-138503527D01*
X139789043Y-138562146D01*
X139833866Y-138628808D01*
X139839323Y-138640411D01*
X139852616Y-138689324D01*
X139859585Y-138759359D01*
X139860515Y-138796062D01*
X139859659Y-138854875D01*
X139854932Y-138897951D01*
X139844432Y-138935122D01*
X139826259Y-138976219D01*
X139825326Y-138978124D01*
X139774836Y-139053328D01*
X139706473Y-139110273D01*
X139620938Y-139148378D01*
X139618577Y-139149087D01*
X139582359Y-139155861D01*
X139527094Y-139161222D01*
X139457280Y-139165180D01*
X139377416Y-139167742D01*
X139292001Y-139168916D01*
X139205531Y-139168710D01*
X139122506Y-139167133D01*
X139047425Y-139164192D01*
X138984784Y-139159897D01*
X138939083Y-139154253D01*
X138915764Y-139147824D01*
X138889117Y-139130449D01*
X138868913Y-139108651D01*
X138854191Y-139078774D01*
X138843990Y-139037164D01*
X138837345Y-138980166D01*
X138833296Y-138904125D01*
X138831275Y-138826897D01*
X138830192Y-138728410D01*
X138831702Y-138651691D01*
X138836470Y-138592935D01*
X138845158Y-138548341D01*
X138858432Y-138514103D01*
X138876954Y-138486419D01*
X138893822Y-138468496D01*
X138933354Y-138430641D01*
X139262654Y-138430641D01*
X139363415Y-138430726D01*
G37*
G36*
X142665552Y-139316720D02*
G01*
X142736409Y-139342362D01*
X142799563Y-139385971D01*
X142850836Y-139447398D01*
X142869479Y-139482029D01*
X142886688Y-139540241D01*
X142892647Y-139607889D01*
X142887000Y-139673053D01*
X142876279Y-139710028D01*
X142833008Y-139782226D01*
X142772965Y-139838197D01*
X142700734Y-139875824D01*
X142620895Y-139892992D01*
X142538031Y-139887582D01*
X142508740Y-139879828D01*
X142436219Y-139844068D01*
X142378411Y-139790632D01*
X142337107Y-139723997D01*
X142314098Y-139648636D01*
X142311175Y-139569025D01*
X142330129Y-139489639D01*
X142342008Y-139463233D01*
X142388687Y-139396804D01*
X142448560Y-139349088D01*
X142517448Y-139319934D01*
X142591172Y-139309195D01*
X142665552Y-139316720D01*
G37*
G36*
X138564556Y-131748726D02*
G01*
X138580292Y-131782778D01*
X138558043Y-131815884D01*
X138534504Y-131822351D01*
X138495948Y-131801062D01*
X138491413Y-131794825D01*
X138493334Y-131759772D01*
X138528882Y-131741045D01*
X138564556Y-131748726D01*
G37*
G36*
X137938864Y-132316947D02*
G01*
X137943119Y-132338068D01*
X137927681Y-132378525D01*
X137913550Y-132384167D01*
X137884827Y-132362944D01*
X137883981Y-132356343D01*
X137905474Y-132316296D01*
X137913550Y-132310244D01*
X137938864Y-132316947D01*
G37*
G36*
X138030022Y-131435356D02*
G01*
X138072780Y-131481264D01*
X138112542Y-131554785D01*
X138106961Y-131599930D01*
X138050485Y-131630960D01*
X138009650Y-131643380D01*
X137921878Y-131666169D01*
X137874149Y-131667394D01*
X137849408Y-131640883D01*
X137830598Y-131580466D01*
X137830039Y-131578404D01*
X137820241Y-131483974D01*
X137854369Y-131428294D01*
X137934333Y-131408501D01*
X137943339Y-131408381D01*
X138030022Y-131435356D01*
G37*
G36*
X138746496Y-132199930D02*
G01*
X138757239Y-132228344D01*
X138729246Y-132258989D01*
X138657121Y-132294911D01*
X138535467Y-132339152D01*
X138451663Y-132366197D01*
X138321063Y-132406656D01*
X138235625Y-132430578D01*
X138184242Y-132439626D01*
X138155806Y-132435461D01*
X138139210Y-132419743D01*
X138135190Y-132413527D01*
X138140257Y-132379217D01*
X138155622Y-132369909D01*
X138356987Y-132299068D01*
X138509278Y-132247833D01*
X138618571Y-132214457D01*
X138690941Y-132197190D01*
X138732464Y-132194286D01*
X138746496Y-132199930D01*
G37*
G36*
X138795925Y-132336636D02*
G01*
X138796235Y-132367556D01*
X138765996Y-132403084D01*
X138686158Y-132444494D01*
X138552781Y-132493739D01*
X138519720Y-132504576D01*
X138376012Y-132549913D01*
X138279164Y-132576967D01*
X138220212Y-132586971D01*
X138190192Y-132581159D01*
X138180138Y-132560765D01*
X138179673Y-132551371D01*
X138207452Y-132523387D01*
X138286175Y-132486277D01*
X138408925Y-132443132D01*
X138451080Y-132430139D01*
X138573376Y-132393084D01*
X138676797Y-132361100D01*
X138746413Y-132338835D01*
X138764556Y-132332543D01*
X138795925Y-132336636D01*
G37*
G36*
X138638688Y-131912428D02*
G01*
X138632562Y-131948552D01*
X138597921Y-131986276D01*
X138564074Y-132002676D01*
X138498720Y-132021824D01*
X138398185Y-132050998D01*
X138284133Y-132083914D01*
X138283166Y-132084192D01*
X138173384Y-132116449D01*
X138081169Y-132144731D01*
X138025760Y-132163130D01*
X138024435Y-132163634D01*
X137981293Y-132165033D01*
X137972688Y-132138487D01*
X137997100Y-132107777D01*
X138072299Y-132068793D01*
X138201232Y-132020146D01*
X138275773Y-131995311D01*
X138402471Y-131955086D01*
X138509040Y-131922752D01*
X138582504Y-131902157D01*
X138608428Y-131896716D01*
X138638688Y-131912428D01*
G37*
G36*
X138690041Y-132054768D02*
G01*
X138701120Y-132075077D01*
X138687496Y-132096315D01*
X138642032Y-132122101D01*
X138557591Y-132156053D01*
X138427036Y-132201793D01*
X138347602Y-132228429D01*
X138212610Y-132273362D01*
X138123539Y-132302216D01*
X138070049Y-132317140D01*
X138041803Y-132320283D01*
X138028461Y-132313792D01*
X138019685Y-132299818D01*
X138017959Y-132296943D01*
X138016979Y-132273577D01*
X138046711Y-132247199D01*
X138113681Y-132214653D01*
X138224417Y-132172786D01*
X138385446Y-132118441D01*
X138390961Y-132116637D01*
X138524720Y-132076565D01*
X138624730Y-132054075D01*
X138681946Y-132051039D01*
X138690041Y-132054768D01*
G37*
G36*
X138298521Y-131290186D02*
G01*
X138336446Y-131338015D01*
X138346869Y-131339856D01*
X138337674Y-131297496D01*
X138332824Y-131242689D01*
X138353031Y-131232624D01*
X138390036Y-131263186D01*
X138435579Y-131330258D01*
X138447259Y-131352108D01*
X138481603Y-131426297D01*
X138497877Y-131475598D01*
X138497240Y-131485071D01*
X138464353Y-131499774D01*
X138393877Y-131523964D01*
X138346893Y-131538582D01*
X138262413Y-131561613D01*
X138216445Y-131564285D01*
X138191701Y-131545826D01*
X138183326Y-131531288D01*
X138150225Y-131446416D01*
X138140452Y-131393596D01*
X138209243Y-131393596D01*
X138224027Y-131408381D01*
X138238812Y-131393596D01*
X138224027Y-131378812D01*
X138209243Y-131393596D01*
X138140452Y-131393596D01*
X138135537Y-131367029D01*
X138142274Y-131313588D01*
X138149995Y-131304956D01*
X138177675Y-131310170D01*
X138181548Y-131325320D01*
X138191541Y-131330943D01*
X138212868Y-131290186D01*
X138242314Y-131216346D01*
X138298521Y-131290186D01*
G37*
G36*
X137151096Y-130292239D02*
G01*
X137196745Y-130368189D01*
X137300537Y-130657180D01*
X137389310Y-130890800D01*
X137463741Y-131070696D01*
X137524505Y-131198515D01*
X137566280Y-131267950D01*
X137619461Y-131352118D01*
X137677421Y-131459650D01*
X137705297Y-131518013D01*
X137774639Y-131671999D01*
X137681464Y-131759039D01*
X137613348Y-131834866D01*
X137584719Y-131909319D01*
X137590090Y-132004197D01*
X137603998Y-132066848D01*
X137610574Y-132128360D01*
X137585751Y-132147762D01*
X137584101Y-132147795D01*
X137530072Y-132160904D01*
X137464709Y-132189311D01*
X137403889Y-132213523D01*
X137368657Y-132213817D01*
X137368609Y-132213770D01*
X137351645Y-132162155D01*
X137355835Y-132080299D01*
X137377962Y-131991842D01*
X137407047Y-131931249D01*
X137433035Y-131888362D01*
X137444982Y-131848934D01*
X137442180Y-131797694D01*
X137423924Y-131719374D01*
X137392068Y-131607506D01*
X137359717Y-131489808D01*
X137335306Y-131388767D01*
X137322923Y-131321729D01*
X137322165Y-131310860D01*
X137311256Y-131261705D01*
X137281598Y-131170315D01*
X137237789Y-131048792D01*
X137184428Y-130909235D01*
X137126116Y-130763744D01*
X137067452Y-130624419D01*
X137024964Y-130529018D01*
X136985302Y-130438102D01*
X136971445Y-130382408D01*
X136983174Y-130344051D01*
X137020269Y-130305150D01*
X137022196Y-130303403D01*
X137090401Y-130269633D01*
X137151096Y-130292239D01*
G37*
G36*
X138637579Y-131552455D02*
G01*
X138668957Y-131569205D01*
X138669717Y-131569702D01*
X138736367Y-131629228D01*
X138774711Y-131681897D01*
X138822759Y-131749002D01*
X138860470Y-131784272D01*
X138909793Y-131842271D01*
X138965791Y-131944077D01*
X139023105Y-132075598D01*
X139076371Y-132222743D01*
X139120227Y-132371416D01*
X139149313Y-132507528D01*
X139156214Y-132561582D01*
X139167656Y-132658669D01*
X139185675Y-132755467D01*
X139213397Y-132862533D01*
X139253949Y-132990418D01*
X139310455Y-133149678D01*
X139386041Y-133350866D01*
X139403423Y-133396283D01*
X139448262Y-133543735D01*
X139451559Y-133656819D01*
X139409037Y-133743634D01*
X139316416Y-133812280D01*
X139169421Y-133870856D01*
X139149498Y-133877110D01*
X139065170Y-133905255D01*
X138945783Y-133947864D01*
X138811305Y-133997737D01*
X138746345Y-134022493D01*
X138559609Y-134087542D01*
X138417649Y-134120843D01*
X138315704Y-134122950D01*
X138249014Y-134094418D01*
X138236730Y-134081892D01*
X138211511Y-134036944D01*
X138171940Y-133950451D01*
X138123665Y-133836522D01*
X138072334Y-133709265D01*
X138023595Y-133582789D01*
X137983096Y-133471203D01*
X137956486Y-133388616D01*
X137951607Y-133369658D01*
X137955169Y-133316538D01*
X138001829Y-133273084D01*
X138029353Y-133257739D01*
X138091874Y-133228425D01*
X138121645Y-133229115D01*
X138137384Y-133260683D01*
X138138055Y-133262818D01*
X138174504Y-133369144D01*
X138221858Y-133492731D01*
X138274320Y-133620130D01*
X138326095Y-133737894D01*
X138371388Y-133832576D01*
X138404403Y-133890729D01*
X138413044Y-133900889D01*
X138442788Y-133921372D01*
X138433768Y-133899228D01*
X138429434Y-133892199D01*
X138408509Y-133847874D01*
X138372565Y-133760914D01*
X138355298Y-133716894D01*
X138543372Y-133716894D01*
X138544835Y-133758192D01*
X138583055Y-133788074D01*
X138646735Y-133785274D01*
X138713323Y-133751641D01*
X138722650Y-133743606D01*
X138734643Y-133703714D01*
X138704653Y-133668004D01*
X138658429Y-133656098D01*
X138583045Y-133673701D01*
X138543372Y-133716894D01*
X138355298Y-133716894D01*
X138326808Y-133644260D01*
X138323989Y-133636805D01*
X138835421Y-133636805D01*
X138849310Y-133674389D01*
X138898179Y-133684791D01*
X138963083Y-133665109D01*
X138974960Y-133658177D01*
X139001668Y-133612329D01*
X138998270Y-133585240D01*
X138962956Y-133557669D01*
X139101331Y-133557669D01*
X139116033Y-133576794D01*
X139162129Y-133595246D01*
X139232831Y-133572715D01*
X139248020Y-133564875D01*
X139287526Y-133532123D01*
X139275144Y-133494746D01*
X139273400Y-133492609D01*
X139233269Y-133467415D01*
X139173182Y-133482309D01*
X139167998Y-133484633D01*
X139107726Y-133521764D01*
X139101331Y-133557669D01*
X138962956Y-133557669D01*
X138962864Y-133557597D01*
X138908204Y-133563690D01*
X138857553Y-133596152D01*
X138835421Y-133636805D01*
X138323989Y-133636805D01*
X138303900Y-133583684D01*
X138480503Y-133583684D01*
X138508831Y-133594022D01*
X138578800Y-133579850D01*
X138586251Y-133577870D01*
X138638126Y-133547863D01*
X138652782Y-133517171D01*
X138630813Y-133486680D01*
X138580268Y-133481354D01*
X138524186Y-133497495D01*
X138485610Y-133531407D01*
X138480843Y-133544761D01*
X138480503Y-133583684D01*
X138303900Y-133583684D01*
X138280794Y-133522584D01*
X138260421Y-133467785D01*
X138746082Y-133467785D01*
X138761202Y-133488086D01*
X138817650Y-133506396D01*
X138891596Y-133475418D01*
X138897917Y-133470837D01*
X138933325Y-133424898D01*
X138920843Y-133389423D01*
X138871696Y-133376454D01*
X138820352Y-133387644D01*
X138753996Y-133425712D01*
X138746082Y-133467785D01*
X138260421Y-133467785D01*
X138218997Y-133356364D01*
X138399257Y-133356364D01*
X138406347Y-133396886D01*
X138445843Y-133411373D01*
X138465991Y-133406322D01*
X138521473Y-133391081D01*
X138536923Y-133389522D01*
X138555163Y-133369034D01*
X139024873Y-133369034D01*
X139026662Y-133375188D01*
X139041806Y-133408607D01*
X139064703Y-133415525D01*
X139116362Y-133398769D01*
X139138749Y-133390254D01*
X139192337Y-133354593D01*
X139213874Y-133311373D01*
X139198904Y-133278533D01*
X139168300Y-133271245D01*
X139094788Y-133286587D01*
X139040879Y-133323660D01*
X139024873Y-133369034D01*
X138555163Y-133369034D01*
X138558990Y-133364735D01*
X138564074Y-133330383D01*
X138545688Y-133281046D01*
X138495562Y-133277013D01*
X138432146Y-133311113D01*
X138399257Y-133356364D01*
X138218997Y-133356364D01*
X138176113Y-133241015D01*
X138657384Y-133241015D01*
X138679025Y-133282022D01*
X138733321Y-133308757D01*
X138797815Y-133296864D01*
X138845974Y-133254062D01*
X138854542Y-133230946D01*
X138838980Y-133195490D01*
X138787746Y-133181909D01*
X138721025Y-133192649D01*
X138684252Y-133210305D01*
X138657384Y-133241015D01*
X138176113Y-133241015D01*
X138159869Y-133197322D01*
X138178485Y-133172012D01*
X138948474Y-133172012D01*
X138960790Y-133203050D01*
X139007442Y-133206643D01*
X139042418Y-133200710D01*
X139111748Y-133183479D01*
X139150677Y-133167550D01*
X139151332Y-133166952D01*
X139147354Y-133136715D01*
X139133476Y-133119157D01*
X139081968Y-133099769D01*
X139016896Y-133108797D01*
X138964231Y-133138820D01*
X138948474Y-133172012D01*
X138178485Y-133172012D01*
X138218218Y-133117991D01*
X138260503Y-133028849D01*
X138257851Y-132945080D01*
X138256083Y-132931626D01*
X138305054Y-132931626D01*
X138315277Y-133001354D01*
X138338989Y-133076277D01*
X138369347Y-133133923D01*
X138395237Y-133152551D01*
X138436959Y-133142743D01*
X138520194Y-133116692D01*
X138631070Y-133078884D01*
X138706663Y-133051851D01*
X138825064Y-133007848D01*
X138921317Y-132970329D01*
X138982671Y-132944364D01*
X138997678Y-132936204D01*
X138998526Y-132901271D01*
X138981318Y-132834017D01*
X138974818Y-132815135D01*
X138933365Y-132736650D01*
X138881466Y-132709600D01*
X138876104Y-132709429D01*
X138819656Y-132718580D01*
X138727384Y-132742459D01*
X138615985Y-132775704D01*
X138502157Y-132812952D01*
X138402595Y-132848842D01*
X138333997Y-132878012D01*
X138315163Y-132889567D01*
X138305054Y-132931626D01*
X138256083Y-132931626D01*
X138245012Y-132847367D01*
X138257862Y-132776752D01*
X138304686Y-132723183D01*
X138393769Y-132676612D01*
X138515160Y-132632954D01*
X138676952Y-132578119D01*
X138789646Y-132534898D01*
X138860958Y-132498479D01*
X138898603Y-132464049D01*
X138910294Y-132426796D01*
X138905612Y-132389420D01*
X138875768Y-132287759D01*
X138831111Y-132165630D01*
X138777371Y-132035577D01*
X138720277Y-131910146D01*
X138665558Y-131801881D01*
X138618943Y-131723328D01*
X138586162Y-131687032D01*
X138584554Y-131686404D01*
X138535748Y-131688157D01*
X138443923Y-131706018D01*
X138322037Y-131737007D01*
X138183045Y-131778149D01*
X138176931Y-131780085D01*
X138012849Y-131834864D01*
X137899911Y-131880689D01*
X137831768Y-131922459D01*
X137802071Y-131965071D01*
X137804472Y-132013425D01*
X137822128Y-132053833D01*
X137836764Y-132090822D01*
X137816318Y-132100410D01*
X137757235Y-132090862D01*
X137692603Y-132070165D01*
X137663274Y-132029669D01*
X137653140Y-131963537D01*
X137653155Y-131906615D01*
X137668621Y-131859954D01*
X137706684Y-131819311D01*
X137774489Y-131780445D01*
X137879184Y-131739115D01*
X138027915Y-131691077D01*
X138195992Y-131641311D01*
X138356455Y-131595357D01*
X138470589Y-131565045D01*
X138548651Y-131548824D01*
X138600896Y-131545144D01*
X138637579Y-131552455D01*
G37*
G36*
X140919283Y-130451657D02*
G01*
X141028734Y-130464849D01*
X141123145Y-130495321D01*
X141215537Y-130549334D01*
X141318931Y-130633147D01*
X141446349Y-130753020D01*
X141478423Y-130784387D01*
X141548791Y-130890310D01*
X141595052Y-131039311D01*
X141616318Y-131220075D01*
X141611697Y-131421287D01*
X141580299Y-131631633D01*
X141553559Y-131739239D01*
X141488829Y-131966605D01*
X141582334Y-132248590D01*
X141625128Y-132370371D01*
X141664969Y-132470931D01*
X141696312Y-132536902D01*
X141709304Y-132554762D01*
X141754296Y-132577112D01*
X141835293Y-132609416D01*
X141905401Y-132634512D01*
X142022109Y-132677563D01*
X142158603Y-132732438D01*
X142260232Y-132776182D01*
X142452432Y-132862291D01*
X142338757Y-132921059D01*
X142263481Y-132966007D01*
X142243775Y-132992206D01*
X142278361Y-132997201D01*
X142365958Y-132978533D01*
X142368344Y-132977873D01*
X142585991Y-132944766D01*
X142811557Y-132958938D01*
X143028130Y-133017314D01*
X143218796Y-133116820D01*
X143247504Y-133137672D01*
X143358793Y-133253872D01*
X143454353Y-133414615D01*
X143528054Y-133606087D01*
X143573768Y-133814478D01*
X143582290Y-133892199D01*
X143602153Y-134143538D01*
X143642574Y-134003084D01*
X143669869Y-133922236D01*
X143694757Y-133871465D01*
X143704942Y-133862630D01*
X143746293Y-133883392D01*
X143814318Y-133938153D01*
X143897658Y-134015622D01*
X143984955Y-134104510D01*
X144064851Y-134193526D01*
X144125989Y-134271383D01*
X144143844Y-134298893D01*
X144184340Y-134373415D01*
X144243009Y-134488454D01*
X144313286Y-134630812D01*
X144388608Y-134787290D01*
X144424460Y-134863181D01*
X144514464Y-135056994D01*
X144578554Y-135207782D01*
X144615939Y-135326055D01*
X144625824Y-135422326D01*
X144607418Y-135507106D01*
X144559926Y-135590907D01*
X144482557Y-135684242D01*
X144374518Y-135797623D01*
X144352258Y-135820453D01*
X144173904Y-135992331D01*
X144006064Y-136126746D01*
X143830637Y-136235159D01*
X143629519Y-136329029D01*
X143430503Y-136403970D01*
X143206874Y-136487825D01*
X142998382Y-136576733D01*
X142815182Y-136665718D01*
X142667430Y-136749802D01*
X142565280Y-136824007D01*
X142555925Y-136832626D01*
X142397390Y-136956812D01*
X142229724Y-137028934D01*
X142036505Y-137055616D01*
X142001866Y-137056111D01*
X141849916Y-137045043D01*
X141740771Y-137013302D01*
X141679918Y-136963080D01*
X141668847Y-136923049D01*
X141646709Y-136876122D01*
X141607244Y-136838901D01*
X141561161Y-136786455D01*
X141521239Y-136694035D01*
X141484281Y-136553470D01*
X141471695Y-136492613D01*
X141468894Y-136439366D01*
X141490291Y-136395566D01*
X141544800Y-136353146D01*
X141641331Y-136304040D01*
X141716866Y-136270700D01*
X141793676Y-136234742D01*
X141827340Y-136212409D01*
X141812106Y-136207603D01*
X141809301Y-136207988D01*
X141748576Y-136207806D01*
X141728381Y-136177572D01*
X141727985Y-136168553D01*
X141743868Y-136112098D01*
X141797376Y-136072862D01*
X141897300Y-136045759D01*
X141955885Y-136036681D01*
X142061521Y-136028424D01*
X142141728Y-136041856D01*
X142227913Y-136082335D01*
X142229828Y-136083409D01*
X142349793Y-136150833D01*
X142489288Y-136083061D01*
X142661110Y-135984001D01*
X142806850Y-135862016D01*
X142942277Y-135702801D01*
X143002648Y-135617283D01*
X143145229Y-135432710D01*
X143300262Y-135290775D01*
X143486394Y-135175302D01*
X143546495Y-135145569D01*
X143627226Y-135106102D01*
X143658871Y-135085115D01*
X143646288Y-135076857D01*
X143605634Y-135075548D01*
X143528388Y-135088113D01*
X143427130Y-135120290D01*
X143364606Y-135146470D01*
X143212286Y-135217391D01*
X143068913Y-135150177D01*
X142865404Y-135023528D01*
X142682945Y-134846929D01*
X142529474Y-134628096D01*
X142526567Y-134623012D01*
X142468707Y-134523620D01*
X142434544Y-134472192D01*
X142420086Y-134464439D01*
X142421337Y-134496071D01*
X142424281Y-134513154D01*
X142447135Y-134597976D01*
X142485842Y-134707489D01*
X142517683Y-134784840D01*
X142591928Y-134953034D01*
X142498353Y-135110102D01*
X142432732Y-135211820D01*
X142346552Y-135334250D01*
X142257220Y-135452760D01*
X142247388Y-135465206D01*
X142155780Y-135589680D01*
X142100137Y-135690762D01*
X142072068Y-135784170D01*
X142069811Y-135797860D01*
X142054975Y-135879961D01*
X142032590Y-135919263D01*
X141986917Y-135931531D01*
X141935427Y-135932479D01*
X141826521Y-135955014D01*
X141723268Y-136013238D01*
X141646877Y-136093076D01*
X141624762Y-136138615D01*
X141588842Y-136189219D01*
X141522485Y-136243626D01*
X141505860Y-136254033D01*
X141431104Y-136315330D01*
X141387079Y-136384652D01*
X141385275Y-136390890D01*
X141384799Y-136465905D01*
X141405505Y-136574351D01*
X141441503Y-136697079D01*
X141486902Y-136814940D01*
X141535812Y-136908788D01*
X141551354Y-136930763D01*
X141586836Y-136989090D01*
X141593242Y-137029185D01*
X141592776Y-137030017D01*
X141560627Y-137035731D01*
X141475688Y-137041010D01*
X141344304Y-137045716D01*
X141172822Y-137049710D01*
X140967589Y-137052854D01*
X140734952Y-137055011D01*
X140481258Y-137056042D01*
X140394695Y-137056111D01*
X140090217Y-137055788D01*
X139839989Y-137054713D01*
X139639125Y-137052722D01*
X139482739Y-137049655D01*
X139365945Y-137045347D01*
X139283857Y-137039639D01*
X139231590Y-137032367D01*
X139204258Y-137023369D01*
X139197498Y-137016388D01*
X139197075Y-136970036D01*
X139209942Y-136884015D01*
X139233404Y-136775591D01*
X139237876Y-136757657D01*
X139262092Y-136648871D01*
X139276990Y-136541815D01*
X139283689Y-136419942D01*
X139283308Y-136266701D01*
X139279692Y-136139464D01*
X139273867Y-135952053D01*
X139268598Y-135748236D01*
X139264513Y-135554366D01*
X139262420Y-135415017D01*
X139258952Y-135089755D01*
X139341543Y-135080275D01*
X139424134Y-135070796D01*
X139326758Y-135006113D01*
X139253379Y-134939311D01*
X139232393Y-134911806D01*
X140785869Y-134911806D01*
X140787569Y-134921257D01*
X140830380Y-134931386D01*
X140908350Y-134940930D01*
X141015525Y-134948628D01*
X141145955Y-134953216D01*
X141183079Y-134953746D01*
X141395850Y-134948206D01*
X141556147Y-134927085D01*
X141613489Y-134911514D01*
X141795279Y-134819267D01*
X141946589Y-134680510D01*
X142042211Y-134535326D01*
X142117847Y-134386066D01*
X141945093Y-134534938D01*
X141840427Y-134618794D01*
X141732090Y-134695528D01*
X141643537Y-134748528D01*
X141643535Y-134748529D01*
X141487140Y-134809604D01*
X141294091Y-134858338D01*
X141086373Y-134890068D01*
X140929615Y-134899989D01*
X140831234Y-134904296D01*
X140785869Y-134911806D01*
X139232393Y-134911806D01*
X139183021Y-134847096D01*
X139160715Y-134808608D01*
X139122789Y-134723965D01*
X139104445Y-134643449D01*
X139101703Y-134542598D01*
X139105457Y-134468800D01*
X139114863Y-134355592D01*
X139126510Y-134259570D01*
X139137596Y-134202677D01*
X139139062Y-134188167D01*
X139120766Y-134221043D01*
X139108402Y-134247031D01*
X139047989Y-134420359D01*
X139019132Y-134600641D01*
X139024595Y-134765949D01*
X139036198Y-134820116D01*
X139067159Y-134908226D01*
X139101394Y-134973737D01*
X139114791Y-134989321D01*
X139143151Y-135040665D01*
X139155445Y-135118031D01*
X139155459Y-135120652D01*
X139147363Y-135181789D01*
X139116473Y-135239126D01*
X139052886Y-135307657D01*
X139000220Y-135355702D01*
X138810073Y-135499169D01*
X138600601Y-135614898D01*
X138393478Y-135691171D01*
X138367846Y-135697579D01*
X138280401Y-135720298D01*
X138154785Y-135755714D01*
X138009185Y-135798598D01*
X137889216Y-135835179D01*
X137726877Y-135883212D01*
X137605155Y-135911398D01*
X137509201Y-135920397D01*
X137424164Y-135910871D01*
X137335191Y-135883480D01*
X137281961Y-135862195D01*
X137231927Y-135837374D01*
X137195288Y-135803930D01*
X137164362Y-135749069D01*
X137131468Y-135659995D01*
X137099355Y-135558057D01*
X137032585Y-135293817D01*
X137002571Y-135059401D01*
X137009960Y-134861224D01*
X137022537Y-134797440D01*
X137048638Y-134718215D01*
X137094627Y-134602017D01*
X137153912Y-134464750D01*
X137216968Y-134328425D01*
X137286318Y-134176186D01*
X137351441Y-134020048D01*
X137404401Y-133879792D01*
X137434149Y-133787028D01*
X137490368Y-133581722D01*
X137386237Y-133359953D01*
X137314161Y-133204744D01*
X137264553Y-133089210D01*
X137234350Y-132999683D01*
X137220486Y-132922495D01*
X137219898Y-132843978D01*
X137229522Y-132750464D01*
X137237090Y-132694644D01*
X137268722Y-132532832D01*
X137317867Y-132416291D01*
X137394631Y-132331621D01*
X137509119Y-132265420D01*
X137583676Y-132235054D01*
X137703566Y-132197378D01*
X137779605Y-132192343D01*
X137817662Y-132220566D01*
X137824842Y-132260379D01*
X137797585Y-132333292D01*
X137725019Y-132395256D01*
X137638871Y-132429714D01*
X137566886Y-132466707D01*
X137495171Y-132531509D01*
X137483633Y-132545694D01*
X137429377Y-132623802D01*
X137413757Y-132662472D01*
X137435626Y-132659107D01*
X137493838Y-132611108D01*
X137506972Y-132598606D01*
X137590151Y-132539095D01*
X137696704Y-132491354D01*
X137812355Y-132458137D01*
X137922828Y-132442197D01*
X138013847Y-132446284D01*
X138071134Y-132473154D01*
X138080417Y-132488036D01*
X138077484Y-132551118D01*
X138016638Y-132603890D01*
X137898250Y-132646058D01*
X137873532Y-132651905D01*
X137759520Y-132687051D01*
X137662100Y-132743022D01*
X137563474Y-132831714D01*
X137499580Y-132901828D01*
X137464138Y-132944264D01*
X137462934Y-132953080D01*
X137500039Y-132926816D01*
X137558719Y-132880620D01*
X137666221Y-132809248D01*
X137787452Y-132751075D01*
X137910073Y-132709257D01*
X138021744Y-132686946D01*
X138110126Y-132687298D01*
X138162880Y-132713467D01*
X138169125Y-132724590D01*
X138166112Y-132787675D01*
X138105336Y-132840725D01*
X137987400Y-132883236D01*
X137975491Y-132886172D01*
X137856525Y-132930639D01*
X137747082Y-133010427D01*
X137704675Y-133051401D01*
X137629581Y-133131156D01*
X137598184Y-133172369D01*
X137610301Y-133174477D01*
X137665747Y-133136919D01*
X137719132Y-133095592D01*
X137809622Y-133035670D01*
X137913807Y-132984307D01*
X138016113Y-132947071D01*
X138100969Y-132929528D01*
X138152802Y-132937245D01*
X138155532Y-132939584D01*
X138178929Y-132996934D01*
X138148092Y-133061976D01*
X138066420Y-133129130D01*
X138025977Y-133152352D01*
X137930694Y-133208790D01*
X137874066Y-133264241D01*
X137853450Y-133331059D01*
X137866206Y-133421602D01*
X137909691Y-133548223D01*
X137930287Y-133599914D01*
X137982171Y-133736490D01*
X138012743Y-133846448D01*
X138027346Y-133955965D01*
X138031321Y-134091213D01*
X138031330Y-134094946D01*
X138037676Y-134248217D01*
X138053962Y-134424093D01*
X138076844Y-134587551D01*
X138080109Y-134605952D01*
X138105283Y-134768715D01*
X138113047Y-134897985D01*
X138104441Y-135016457D01*
X138100219Y-135044791D01*
X138088544Y-135134430D01*
X138086331Y-135192816D01*
X138092654Y-135206988D01*
X138119436Y-135163058D01*
X138143524Y-135075109D01*
X138162471Y-134958258D01*
X138173831Y-134827623D01*
X138175156Y-134698324D01*
X138175123Y-134697425D01*
X138172508Y-134583005D01*
X138177711Y-134511477D01*
X138194518Y-134466733D01*
X138226719Y-134432663D01*
X138239855Y-134422188D01*
X138377330Y-134334697D01*
X138523834Y-134272755D01*
X138656908Y-134245616D01*
X138669510Y-134245156D01*
X138740134Y-134242688D01*
X138757355Y-134235641D01*
X138726909Y-134219758D01*
X138711920Y-134213667D01*
X138662878Y-134189977D01*
X138664921Y-134170770D01*
X138690169Y-134154695D01*
X138738373Y-134132729D01*
X138828281Y-134096097D01*
X138946018Y-134050333D01*
X139049291Y-134011469D01*
X139209184Y-133951542D01*
X139323128Y-133905966D01*
X139400778Y-133868949D01*
X139451788Y-133834699D01*
X139485814Y-133797425D01*
X139512509Y-133751336D01*
X139524627Y-133726337D01*
X139557023Y-133639135D01*
X139556981Y-133562209D01*
X139543265Y-133507507D01*
X139518945Y-133421404D01*
X139518137Y-133403542D01*
X140003839Y-133403542D01*
X140020250Y-133416716D01*
X140093596Y-133437893D01*
X140224580Y-133467541D01*
X140249522Y-133472807D01*
X140352198Y-133493705D01*
X140406087Y-133501207D01*
X140417696Y-133495554D01*
X140702208Y-133495554D01*
X140707846Y-133503444D01*
X140749771Y-133484590D01*
X140825755Y-133450097D01*
X140885261Y-133422981D01*
X140988785Y-133382366D01*
X141122639Y-133338729D01*
X141259240Y-133301004D01*
X141269662Y-133298461D01*
X141401961Y-133264951D01*
X141530960Y-133229614D01*
X141630932Y-133199529D01*
X141639277Y-133196769D01*
X141772339Y-133152129D01*
X141580139Y-133168226D01*
X141302342Y-133204546D01*
X141068463Y-133262619D01*
X140882468Y-133341096D01*
X140748320Y-133438628D01*
X140730673Y-133457326D01*
X140702208Y-133495554D01*
X140417696Y-133495554D01*
X140420224Y-133494323D01*
X140403646Y-133472061D01*
X140389289Y-133457478D01*
X140330441Y-133424552D01*
X140228646Y-133405345D01*
X140139006Y-133399333D01*
X140043659Y-133397904D01*
X140003839Y-133403542D01*
X139518137Y-133403542D01*
X139516968Y-133377690D01*
X139543069Y-133361996D01*
X139602135Y-133359953D01*
X139697595Y-133337450D01*
X139800377Y-133277286D01*
X139801728Y-133276240D01*
X139878175Y-133220737D01*
X139974492Y-133156151D01*
X140077071Y-133090913D01*
X140172306Y-133033453D01*
X140246590Y-132992200D01*
X140286315Y-132975585D01*
X140287067Y-132975552D01*
X140304108Y-133000674D01*
X140309113Y-133042083D01*
X140320335Y-133113756D01*
X140334843Y-133148500D01*
X140355103Y-133153945D01*
X140364599Y-133133255D01*
X141796980Y-133133255D01*
X141801039Y-133150834D01*
X141816693Y-133152968D01*
X141841032Y-133142149D01*
X141836406Y-133133255D01*
X141801314Y-133129716D01*
X141796980Y-133133255D01*
X140364599Y-133133255D01*
X140372868Y-133115240D01*
X140385434Y-133047375D01*
X140390098Y-132965337D01*
X140384156Y-132884117D01*
X140383378Y-132879452D01*
X140377445Y-132832494D01*
X140385598Y-132797895D01*
X140417500Y-132766381D01*
X140482817Y-132728676D01*
X140591213Y-132675504D01*
X140600568Y-132671009D01*
X140778342Y-132578463D01*
X140906117Y-132493225D01*
X140991235Y-132408137D01*
X141041040Y-132316042D01*
X141061709Y-132221536D01*
X141077914Y-132073690D01*
X141032777Y-132190653D01*
X140993779Y-132276332D01*
X140944373Y-132346425D01*
X140874703Y-132408779D01*
X140774908Y-132471242D01*
X140635133Y-132541662D01*
X140532353Y-132589020D01*
X140342425Y-132669173D01*
X140192239Y-132718239D01*
X140072306Y-132737899D01*
X139973138Y-132729831D01*
X139896404Y-132701581D01*
X139866558Y-132681447D01*
X139842106Y-132648674D01*
X139819767Y-132593633D01*
X139796260Y-132506697D01*
X139768305Y-132378237D01*
X139742884Y-132251086D01*
X139709266Y-132071889D01*
X139688663Y-131939337D01*
X139679996Y-131842639D01*
X139682186Y-131771005D01*
X139690434Y-131726734D01*
X139704183Y-131630057D01*
X139682894Y-131547155D01*
X139672859Y-131526537D01*
X139649969Y-131475051D01*
X139642622Y-131425998D01*
X139651726Y-131361368D01*
X139678190Y-131263150D01*
X139687781Y-131230714D01*
X139749138Y-131024688D01*
X139687026Y-130940677D01*
X139645675Y-130863740D01*
X139632339Y-130770428D01*
X139634133Y-130711162D01*
X139643352Y-130565657D01*
X139791198Y-130574997D01*
X139885531Y-130572374D01*
X140015762Y-130557584D01*
X140160562Y-130533370D01*
X140234737Y-130517921D01*
X140420327Y-130483335D01*
X140613235Y-130459200D01*
X140781706Y-130449486D01*
X140781769Y-130449486D01*
X140919283Y-130451657D01*
G37*
%TO.C,J3*%
D14*
X159290000Y-100130000D02*
X164790000Y-100130000D01*
X164790000Y-100630000D01*
X159290000Y-100630000D01*
X159290000Y-100130000D01*
X159290000Y-97630000D02*
X164790000Y-97630000D01*
X164790000Y-98130000D01*
X159290000Y-98130000D01*
X159290000Y-97630000D01*
X165400000Y-102940000D02*
X153680000Y-102940000D01*
X165400000Y-99130000D02*
X165400000Y-102940000D01*
X165400000Y-99130000D02*
X165400000Y-95320000D01*
X165400000Y-95320000D02*
X153680000Y-95320000D01*
X158180000Y-101520000D02*
X158180000Y-99130000D01*
X158180000Y-96740000D02*
X158180000Y-99130000D01*
X153680000Y-102940000D02*
X153680000Y-101520000D01*
X153680000Y-101520000D02*
X158180000Y-101520000D01*
X153680000Y-96740000D02*
X158180000Y-96740000D01*
X153680000Y-95320000D02*
X153680000Y-96740000D01*
%TO.C,J2*%
X140780000Y-95320000D02*
X152500000Y-95320000D01*
X140780000Y-99130000D02*
X140780000Y-95320000D01*
X140780000Y-99130000D02*
X140780000Y-102940000D01*
X140780000Y-102940000D02*
X152500000Y-102940000D01*
X148000000Y-96740000D02*
X148000000Y-99130000D01*
X148000000Y-101520000D02*
X148000000Y-99130000D01*
X152500000Y-95320000D02*
X152500000Y-96740000D01*
X152500000Y-96740000D02*
X148000000Y-96740000D01*
X152500000Y-101520000D02*
X148000000Y-101520000D01*
X152500000Y-102940000D02*
X152500000Y-101520000D01*
X141390000Y-97630000D02*
X146890000Y-97630000D01*
X146890000Y-98130000D01*
X141390000Y-98130000D01*
X141390000Y-97630000D01*
X141390000Y-100130000D02*
X146890000Y-100130000D01*
X146890000Y-100630000D01*
X141390000Y-100630000D01*
X141390000Y-100130000D01*
%TO.C,SW1*%
X114755000Y-64105001D02*
X114755000Y-71645001D01*
X114755000Y-71645001D02*
X118205000Y-71645001D01*
X118205000Y-64105001D02*
X114755000Y-64105001D01*
X118695000Y-70265001D02*
X118695000Y-65485001D01*
X121045000Y-64105001D02*
X121245000Y-64105001D01*
X121045000Y-71645001D02*
X121245000Y-71645001D01*
X121245000Y-64105001D02*
X121245000Y-64895001D01*
X121245000Y-64895001D02*
X120995000Y-64895001D01*
X121245000Y-70855001D02*
X120995000Y-70855001D01*
X121245000Y-70855001D02*
X121245000Y-71645001D01*
%TO.C,U1*%
D15*
X114588597Y-147192209D02*
X114624949Y-129448045D01*
X117164690Y-126871952D02*
X162848588Y-126871952D01*
D11*
X154989638Y-149762016D02*
X154989390Y-149975915D01*
X156275900Y-149973889D02*
X155005900Y-149975889D01*
X156285662Y-149762016D02*
X156285900Y-149973889D01*
D15*
X162884681Y-149731951D02*
X117164690Y-149731950D01*
X165424681Y-129411953D02*
X165424422Y-147155858D01*
D11*
X165455662Y-142753638D02*
X165928647Y-142753638D01*
X165928647Y-133813638D02*
X165455662Y-133813638D01*
X165928647Y-142753638D02*
X165928647Y-133813638D01*
D15*
X114624949Y-129448045D02*
G75*
G02*
X117164690Y-126871951I2558031J18065D01*
G01*
X117164690Y-149731950D02*
G75*
G02*
X114588599Y-147192209I-18220J2557870D01*
G01*
X162848588Y-126872212D02*
G75*
G02*
X165424681Y-129411953I18029J-2558066D01*
G01*
X165424422Y-147155858D02*
G75*
G02*
X162884681Y-149731952I-2558084J-18012D01*
G01*
%TO.C,U3*%
X140174597Y-106293954D02*
X140174597Y-124049536D01*
X142739013Y-103729538D02*
X163041272Y-103729538D01*
X163077365Y-126589277D02*
X142779013Y-126589277D01*
X165617365Y-106269279D02*
X165617106Y-124013184D01*
X140174597Y-106293954D02*
G75*
G02*
X142739013Y-103729536I2538534J25884D01*
G01*
X142779013Y-126589277D02*
G75*
G02*
X140174600Y-124049536I-46232J2557827D01*
G01*
X163041272Y-103729538D02*
G75*
G02*
X165617366Y-106269279I18019J-2558077D01*
G01*
X165617106Y-124013184D02*
G75*
G02*
X163077365Y-126589277I-2558135J-17961D01*
G01*
%TO.C,R1*%
D14*
X164100000Y-66830000D02*
X164100000Y-67600000D01*
X164100000Y-74910000D02*
X164100000Y-74140000D01*
X162730000Y-67600000D02*
X165470000Y-67600000D01*
X165470000Y-74140000D01*
X162730000Y-74140000D01*
X162730000Y-67600000D01*
%TO.C,U4*%
D15*
X114478550Y-106284806D02*
X114478809Y-124028711D01*
X117018550Y-126604804D02*
X137316902Y-126604804D01*
X137356902Y-103745065D02*
X117054643Y-103745065D01*
X139921318Y-106309481D02*
X139921318Y-124065063D01*
X114478550Y-106284806D02*
G75*
G02*
X117054643Y-103745065I2558010J-18270D01*
G01*
X117018550Y-126604804D02*
G75*
G02*
X114478809Y-124028711I18408J2558146D01*
G01*
X137356902Y-103745065D02*
G75*
G02*
X139921318Y-106309481I25894J-2538522D01*
G01*
X139912712Y-124065062D02*
G75*
G02*
X137316902Y-126604808I-2558046J18085D01*
G01*
%TO.C,U7*%
D14*
X123600000Y-73040000D02*
X124980000Y-73040000D01*
X124980000Y-71660000D02*
X124980000Y-73040000D01*
X122100000Y-61850000D02*
X160100000Y-61850000D01*
X160100000Y-73850000D01*
X122100000Y-73850000D01*
X122100000Y-61850000D01*
%TD*%
M02*
