%TF.GenerationSoftware,KiCad,Pcbnew,10.0.3-2.fc44*%
%TF.CreationDate,2026-07-02T16:12:44+05:30*%
%TF.ProjectId,walkietalkie,77616c6b-6965-4746-916c-6b69652e6b69,rev?*%
%TF.SameCoordinates,Original*%
%TF.FileFunction,Copper,L1,Top*%
%TF.FilePolarity,Positive*%
%FSLAX46Y46*%
G04 Gerber Fmt 4.6, Leading zero omitted, Abs format (unit mm)*
G04 Created by KiCad (PCBNEW 10.0.3-2.fc44) date 2026-07-02 16:12:44*
%MOMM*%
%LPD*%
G01*
G04 APERTURE LIST*
G04 Aperture macros list*
%AMRoundRect*
0 Rectangle with rounded corners*
0 $1 Rounding radius*
0 $2 $3 $4 $5 $6 $7 $8 $9 X,Y pos of 4 corners*
0 Add a 4 corners polygon primitive as box body*
4,1,4,$2,$3,$4,$5,$6,$7,$8,$9,$2,$3,0*
0 Add four circle primitives for the rounded corners*
1,1,$1+$1,$2,$3*
1,1,$1+$1,$4,$5*
1,1,$1+$1,$6,$7*
1,1,$1+$1,$8,$9*
0 Add four rect primitives between the rounded corners*
20,1,$1+$1,$2,$3,$4,$5,0*
20,1,$1+$1,$4,$5,$6,$7,0*
20,1,$1+$1,$6,$7,$8,$9,0*
20,1,$1+$1,$8,$9,$2,$3,0*%
G04 Aperture macros list end*
%TA.AperFunction,ComponentPad*%
%ADD10O,2.000000X1.700000*%
%TD*%
%TA.AperFunction,ComponentPad*%
%ADD11RoundRect,0.250000X0.750000X-0.600000X0.750000X0.600000X-0.750000X0.600000X-0.750000X-0.600000X0*%
%TD*%
%TA.AperFunction,ComponentPad*%
%ADD12RoundRect,0.250000X-0.750000X0.600000X-0.750000X-0.600000X0.750000X-0.600000X0.750000X0.600000X0*%
%TD*%
%TA.AperFunction,ComponentPad*%
%ADD13C,2.400000*%
%TD*%
%TA.AperFunction,ComponentPad*%
%ADD14C,1.700000*%
%TD*%
%TA.AperFunction,ComponentPad*%
%ADD15R,1.800000X1.800000*%
%TD*%
%TA.AperFunction,ComponentPad*%
%ADD16C,1.800000*%
%TD*%
%TA.AperFunction,ComponentPad*%
%ADD17O,1.700000X1.700000*%
%TD*%
%TA.AperFunction,ComponentPad*%
%ADD18R,1.700000X1.700000*%
%TD*%
%TA.AperFunction,ComponentPad*%
%ADD19C,2.000000*%
%TD*%
%TA.AperFunction,ComponentPad*%
%ADD20C,1.600000*%
%TD*%
%TA.AperFunction,ComponentPad*%
%ADD21RoundRect,0.250000X-0.550000X-0.550000X0.550000X-0.550000X0.550000X0.550000X-0.550000X0.550000X0*%
%TD*%
%TA.AperFunction,ComponentPad*%
%ADD22C,1.308000*%
%TD*%
%TA.AperFunction,ComponentPad*%
%ADD23C,2.100000*%
%TD*%
%TA.AperFunction,ComponentPad*%
%ADD24RoundRect,0.170000X0.680000X-0.680000X0.680000X0.680000X-0.680000X0.680000X-0.680000X-0.680000X0*%
%TD*%
%TA.AperFunction,ViaPad*%
%ADD25C,0.600000*%
%TD*%
%TA.AperFunction,Conductor*%
%ADD26C,0.300000*%
%TD*%
%TA.AperFunction,Conductor*%
%ADD27C,0.200000*%
%TD*%
%TA.AperFunction,Conductor*%
%ADD28C,0.500000*%
%TD*%
G04 APERTURE END LIST*
D10*
%TO.P,J3,2,Pin_2_2*%
%TO.N,/_LP*%
X156090000Y-97880000D03*
D11*
%TO.P,J3,1,Pin_1_1*%
%TO.N,/_LN*%
X156090000Y-100380000D03*
%TD*%
D12*
%TO.P,J2,1,Pin_2_1*%
%TO.N,/_RN*%
X150090000Y-97880000D03*
D10*
%TO.P,J2,2,Pin_1_2*%
%TO.N,/_RP*%
X150090000Y-100380000D03*
%TD*%
D13*
%TO.P,SW1,*%
%TO.N,*%
X119625000Y-71375001D03*
X119625000Y-64375001D03*
D14*
%TO.P,SW1,1,1_1*%
%TO.N,/PTT*%
X117125000Y-70125001D03*
%TO.P,SW1,2,2_2*%
%TO.N,GND*%
X117125000Y-65625001D03*
%TD*%
D15*
%TO.P,D1,1,K_1*%
%TO.N,GND*%
X159270000Y-63460000D03*
D16*
%TO.P,D1,2,A_2*%
%TO.N,Net-(D1-A)*%
X161810000Y-63460000D03*
%TD*%
D17*
%TO.P,U1,1,SCL_1*%
%TO.N,/CSN*%
X121206640Y-148352017D03*
%TO.P,U1,2,SDA_2*%
%TO.N,/CE*%
X123606640Y-148352017D03*
%TO.P,U1,3,A1_3*%
%TO.N,/WS*%
X126206640Y-148352017D03*
%TO.P,U1,4,A2_4*%
%TO.N,/MSCK*%
X128706640Y-148352017D03*
%TO.P,U1,5,A6_5*%
%TO.N,/PTT*%
X131106640Y-148352017D03*
%TO.P,U1,6,A7_6*%
%TO.N,/ENC_B*%
X133806640Y-148452017D03*
%TO.P,U1,7,A8_7*%
%TO.N,/ENC_A*%
X136306640Y-148452017D03*
%TO.P,U1,8,A9_8*%
%TO.N,/ENC_SW*%
X138906640Y-148452017D03*
%TO.P,U1,9,A10_9*%
%TO.N,/LED*%
X141406640Y-148452017D03*
%TO.P,U1,10,USB_10*%
%TO.N,unconnected-(U1-USB-Pad10)*%
X143906640Y-148452017D03*
%TO.P,U1,11,RST_11*%
%TO.N,unconnected-(U1-RST-Pad11)*%
X146506640Y-148452017D03*
D18*
%TO.P,U1,12,BAT_12*%
%TO.N,/BAT*%
X149006640Y-148452017D03*
%TO.P,U1,13,RST_13*%
%TO.N,unconnected-(U1-RST-Pad13)*%
X159106640Y-128152017D03*
D17*
%TO.P,U1,14,3V3_14*%
%TO.N,+3V3*%
X156606640Y-128152017D03*
%TO.P,U1,15,3V3_15*%
X154006640Y-128052017D03*
%TO.P,U1,16,GND_16*%
%TO.N,GND*%
X151506640Y-128052017D03*
%TO.P,U1,17,D13_17*%
%TO.N,/NAU_MCLK*%
X149006640Y-128052017D03*
%TO.P,U1,18,D14_18*%
%TO.N,/BCLK*%
X146406640Y-128052017D03*
%TO.P,U1,19,D15_19*%
%TO.N,/NAU_DAT*%
X143906640Y-128052017D03*
%TO.P,U1,20,D16_20*%
%TO.N,/LRCK*%
X141306640Y-128052017D03*
%TO.P,U1,21,D17_21*%
%TO.N,/SDA*%
X138806640Y-128052017D03*
%TO.P,U1,22,D18_22*%
%TO.N,/SCL*%
X136306640Y-128052017D03*
%TO.P,U1,23,SCK_23*%
%TO.N,/SCK*%
X133706640Y-128052017D03*
%TO.P,U1,24,MO_24*%
%TO.N,/MO*%
X131206640Y-128052017D03*
%TO.P,U1,25,MI_25*%
%TO.N,/MI*%
X128606640Y-128052017D03*
%TO.P,U1,26,RX_26*%
%TO.N,Net-(U1-RX)*%
X126106640Y-128052017D03*
%TO.P,U1,27,TX_27*%
%TO.N,/MIC_SD*%
X123606640Y-128052017D03*
%TO.P,U1,28,GND_28*%
%TO.N,GND*%
X121006640Y-128152017D03*
%TD*%
D18*
%TO.P,U3,1,5V_1*%
%TO.N,/BAT*%
X164353927Y-122727268D03*
D17*
%TO.P,U3,2,3V3_2*%
%TO.N,unconnected-(U3-3V3-Pad2)*%
X161813927Y-122727268D03*
%TO.P,U3,3,GND_3*%
%TO.N,GND*%
X159273927Y-122727268D03*
%TO.P,U3,4,SDA_4*%
%TO.N,/SDA*%
X156733927Y-122727268D03*
%TO.P,U3,5,SCL_5*%
%TO.N,/SCL*%
X154193927Y-122727268D03*
%TO.P,U3,6,MCLK_6*%
%TO.N,/NAU_MCLK*%
X151653927Y-122727268D03*
%TO.P,U3,7,BCK_7*%
%TO.N,/BCLK*%
X149113927Y-122727268D03*
%TO.P,U3,8,DAT_8*%
%TO.N,/NAU_DAT*%
X146573927Y-122727268D03*
%TO.P,U3,9,LRCK_9*%
%TO.N,/LRCK*%
X144033927Y-122727268D03*
D19*
%TO.P,U3,10,LP_10*%
%TO.N,/_LP*%
X157546727Y-107538068D03*
%TO.P,U3,11,LN_11*%
%TO.N,/_LN*%
X155006727Y-107538068D03*
%TO.P,U3,12,RN_12*%
%TO.N,/_RN*%
X151598127Y-107540468D03*
%TO.P,U3,13,RP_13*%
%TO.N,/_RP*%
X149058127Y-107540468D03*
%TD*%
D20*
%TO.P,R1,1*%
%TO.N,/LED*%
X164100000Y-75950000D03*
%TO.P,R1,2*%
%TO.N,Net-(D1-A)*%
X164100000Y-65790000D03*
%TD*%
D21*
%TO.P,C1,1*%
%TO.N,+3V3*%
X132970000Y-95710000D03*
D20*
%TO.P,C1,2*%
%TO.N,GND*%
X136770000Y-95710000D03*
%TD*%
D22*
%TO.P,U6,1,1_1*%
%TO.N,unconnected-(U6-Pad1)*%
X161220000Y-147240000D03*
%TO.P,U6,2,2_2*%
%TO.N,/BAT*%
X157220000Y-147240000D03*
%TO.P,U6,COM,COM_COM*%
%TO.N,Net-(BT1-Pad1)*%
X159220000Y-147240000D03*
D23*
%TO.P,U6,M1*%
%TO.N,N/C*%
X163370000Y-147240000D03*
%TO.P,U6,M2*%
X155070000Y-147240000D03*
%TD*%
D18*
%TO.P,U5,1,3.3V_1*%
%TO.N,+3V3*%
X133763248Y-125225355D03*
D17*
%TO.P,U5,2,D1_2*%
%TO.N,unconnected-(U5-D1-Pad2)*%
X133763248Y-122685355D03*
%TO.P,U5,3,SCK_3*%
%TO.N,/SCK*%
X133763248Y-120145355D03*
%TO.P,U5,4,MO_4*%
%TO.N,/MO*%
X133763248Y-117605355D03*
%TO.P,U5,5,MI_5*%
%TO.N,/MI*%
X133763248Y-115065355D03*
%TO.P,U5,6,CS_6*%
%TO.N,Net-(U1-RX)*%
X133763248Y-112525355D03*
%TO.P,U5,7,CD_7*%
%TO.N,unconnected-(U5-CD-Pad7)*%
X133763248Y-109985355D03*
%TO.P,U5,8,GND_8*%
%TO.N,GND*%
X133763248Y-107445355D03*
D14*
%TO.P,U5,9,D2_9*%
%TO.N,unconnected-(U5-D2-Pad9)*%
X133763248Y-104905355D03*
%TD*%
D18*
%TO.P,J1,1,Pin_1_1*%
%TO.N,/ENC_A*%
X134995000Y-62975000D03*
D14*
%TO.P,J1,2,Pin_2_2*%
%TO.N,/ENC_B*%
X137535000Y-62975000D03*
%TO.P,J1,3,Pin_3_3*%
%TO.N,/ENC_SW*%
X140075000Y-62975000D03*
%TO.P,J1,4,Pin_4_4*%
%TO.N,+3V3*%
X142615000Y-62975000D03*
%TO.P,J1,5,Pin_5_5*%
%TO.N,GND*%
X145155000Y-62975000D03*
%TD*%
D18*
%TO.P,U2,1,GND_1*%
%TO.N,GND*%
X126296112Y-99190000D03*
D14*
%TO.P,U2,2,VCC_2*%
%TO.N,+3V3*%
X126296112Y-96650000D03*
%TO.P,U2,3,CE_3*%
%TO.N,/CE*%
X123756112Y-99190000D03*
%TO.P,U2,4,~{CSN}_4*%
%TO.N,/CSN*%
X123756112Y-96650000D03*
%TO.P,U2,5,SCK_5*%
%TO.N,/SCK*%
X121216112Y-99190000D03*
%TO.P,U2,6,MOSI_6*%
%TO.N,/MO*%
X121216112Y-96650000D03*
%TO.P,U2,7,MISO_7*%
%TO.N,/MI*%
X118676112Y-99190000D03*
%TO.P,U2,8,IRQ_8*%
%TO.N,unconnected-(U2-IRQ-Pad8)*%
X118676112Y-96650000D03*
%TD*%
D18*
%TO.P,U4,1,GND_1*%
%TO.N,GND*%
X120909284Y-122795803D03*
D17*
%TO.P,U4,2,WS_2*%
%TO.N,/WS*%
X123449284Y-122795803D03*
%TO.P,U4,3,SD_3*%
%TO.N,/MIC_SD*%
X125989284Y-122795803D03*
%TO.P,U4,4,SCK_4*%
%TO.N,/MSCK*%
X128529284Y-122795803D03*
%TO.P,U4,5,3.3V_5*%
%TO.N,+3V3*%
X131069284Y-122795803D03*
%TD*%
D24*
%TO.P,U7,1,GND_1*%
%TO.N,GND*%
X123600000Y-71660000D03*
D14*
%TO.P,U7,2,VCC_2*%
%TO.N,+3V3*%
X123600000Y-69120000D03*
%TO.P,U7,3,SCL_3*%
%TO.N,/SCL*%
X123600000Y-66580000D03*
%TO.P,U7,4,SDA_4*%
%TO.N,/SDA*%
X123600000Y-64040000D03*
%TD*%
D25*
%TO.N,/PTT*%
X123880000Y-142920000D03*
X116475000Y-97610000D03*
%TO.N,/ENC_A*%
X135452500Y-82427500D03*
%TO.N,+3V3*%
X139810000Y-94030000D03*
X140250000Y-119900000D03*
X137430000Y-94030000D03*
X135080000Y-123880000D03*
X137510000Y-119880000D03*
X153070000Y-125010000D03*
%TO.N,/SCL*%
X139902060Y-125125000D03*
%TD*%
%TO.N,/ENC_B*%
D26*
X133806640Y-148452017D02*
X134970000Y-147288657D01*
X134970000Y-127495763D02*
X136670000Y-125795763D01*
X136670000Y-122345001D02*
X135670000Y-121345001D01*
X134970000Y-147288657D02*
X134970000Y-127495763D01*
X136670000Y-125795763D02*
X136670000Y-122345001D01*
X135670000Y-121345001D02*
X135670000Y-109770000D01*
X135670000Y-109770000D02*
X135330000Y-109430000D01*
X135330000Y-109430000D02*
X135330000Y-95523654D01*
X135670000Y-91320000D02*
X137535000Y-89455000D01*
X135330000Y-95523654D02*
X135670000Y-95183654D01*
X135670000Y-95183654D02*
X135670000Y-91320000D01*
X137535000Y-89455000D02*
X137535000Y-62975000D01*
%TO.N,/MIC_SD*%
X125989284Y-122795803D02*
X125989284Y-125669373D01*
X125989284Y-125669373D02*
X123606640Y-128052017D01*
%TO.N,/PTT*%
X123880000Y-142920000D02*
X128740000Y-142920000D01*
X128740000Y-142920000D02*
X130950000Y-145130000D01*
X116530000Y-97555000D02*
X116475000Y-97610000D01*
X130950000Y-145130000D02*
X130950000Y-148195377D01*
X117125000Y-70125001D02*
X116530000Y-70720001D01*
X116530000Y-70720001D02*
X116530000Y-97555000D01*
%TO.N,Net-(D1-A)*%
D27*
X164100000Y-65790000D02*
X161810000Y-63500000D01*
%TO.N,/CSN*%
D26*
X122536112Y-97870000D02*
X117611867Y-97870000D01*
X117611867Y-97870000D02*
X115150000Y-100331867D01*
X123756112Y-96650000D02*
X122536112Y-97870000D01*
X115150000Y-142295377D02*
X121206640Y-148352017D01*
X115150000Y-100331867D02*
X115150000Y-142295377D01*
%TO.N,/CE*%
X119174628Y-103771484D02*
X123756112Y-99190000D01*
X119174628Y-143920005D02*
X119174628Y-103771484D01*
X123606640Y-148352017D02*
X119174628Y-143920005D01*
%TO.N,/ENC_A*%
X135452500Y-82427500D02*
X134600000Y-81575000D01*
X134600000Y-81575000D02*
X134600000Y-63370000D01*
%TO.N,/ENC_SW*%
X140106640Y-147252017D02*
X138906640Y-148452017D01*
X140900000Y-92980000D02*
X140900000Y-125644239D01*
X140120000Y-63020000D02*
X140120000Y-92200000D01*
X140900000Y-125644239D02*
X140769239Y-125775000D01*
X140769239Y-125775000D02*
X140755000Y-125775000D01*
X140755000Y-125775000D02*
X140106640Y-126423360D01*
X140120000Y-92200000D02*
X140900000Y-92980000D01*
X140106640Y-126423360D02*
X140106640Y-147252017D01*
%TO.N,/BAT*%
X164353927Y-136376073D02*
X157220000Y-143510000D01*
X157220000Y-148500000D02*
X157220000Y-147240000D01*
X157220000Y-143510000D02*
X157220000Y-147240000D01*
X164353927Y-122727268D02*
X164353927Y-136376073D01*
X156660000Y-149060000D02*
X157220000Y-148500000D01*
X149614623Y-149060000D02*
X156660000Y-149060000D01*
%TO.N,+3V3*%
D28*
X137510000Y-119880000D02*
X140270000Y-119880000D01*
X153070000Y-127115377D02*
X154006640Y-128052017D01*
X133763248Y-125196752D02*
X135080000Y-123880000D01*
X139810000Y-94030000D02*
X137430000Y-94030000D01*
X140270000Y-119880000D02*
X140250000Y-119900000D01*
X153070000Y-125010000D02*
X153070000Y-127115377D01*
%TO.N,/NAU_MCLK*%
D26*
X149006640Y-126793360D02*
X149006640Y-128052017D01*
X151653927Y-122727268D02*
X151653927Y-124146073D01*
X151653927Y-124146073D02*
X149006640Y-126793360D01*
%TO.N,/BCLK*%
X146406640Y-126768360D02*
X146406640Y-128052017D01*
X149113927Y-122727268D02*
X149113927Y-124061073D01*
X149113927Y-124061073D02*
X146406640Y-126768360D01*
%TO.N,/NAU_DAT*%
X143906640Y-127218360D02*
X143906640Y-128052017D01*
X146573927Y-124551073D02*
X143906640Y-127218360D01*
X146573927Y-122727268D02*
X146573927Y-124551073D01*
%TO.N,/LRCK*%
X141306640Y-127218360D02*
X141306640Y-128052017D01*
X144033927Y-122727268D02*
X144033927Y-124491073D01*
X144033927Y-124491073D02*
X141306640Y-127218360D01*
%TO.N,/SCL*%
X139902060Y-125125000D02*
X139852060Y-125175000D01*
X139852060Y-125175000D02*
X139200000Y-125175000D01*
X139200000Y-125175000D02*
X136322983Y-128052017D01*
%TO.N,/SCK*%
X136170000Y-125588657D02*
X133706640Y-128052017D01*
X133763248Y-120145355D02*
X136170000Y-122552107D01*
X136170000Y-122552107D02*
X136170000Y-125588657D01*
%TO.N,/MO*%
X132420000Y-125420000D02*
X131206640Y-126633360D01*
X133763248Y-117605355D02*
X132420000Y-118948603D01*
X132420000Y-118948603D02*
X132420000Y-125420000D01*
X131206640Y-126633360D02*
X131206640Y-128052017D01*
%TO.N,/MI*%
X129800000Y-126858657D02*
X128606640Y-128052017D01*
X129800000Y-119028603D02*
X129800000Y-126858657D01*
X133763248Y-115065355D02*
X129800000Y-119028603D01*
%TO.N,Net-(U1-RX)*%
X127270000Y-126888657D02*
X126106640Y-128052017D01*
X127270000Y-119018603D02*
X127270000Y-126888657D01*
X133763248Y-112525355D02*
X127270000Y-119018603D01*
%TO.N,/_LP*%
X160595000Y-101923910D02*
X160595000Y-99998740D01*
X159451260Y-98855000D02*
X158065000Y-98855000D01*
X157090000Y-97880000D02*
X156090000Y-97880000D01*
X160595000Y-99998740D02*
X159451260Y-98855000D01*
X157546727Y-107538068D02*
X156551141Y-106542482D01*
X158065000Y-98855000D02*
X157090000Y-97880000D01*
X156551141Y-105967769D02*
X160595000Y-101923910D01*
X156551141Y-106542482D02*
X156551141Y-105967769D01*
%TO.N,/_LN*%
X160045000Y-101696090D02*
X160045000Y-100226560D01*
X156665640Y-104142071D02*
X156744835Y-104062877D01*
X158065000Y-99405000D02*
X157090000Y-100380000D01*
X156001141Y-106543654D02*
X156001141Y-105739949D01*
X158038841Y-103702248D02*
X160045000Y-101696090D01*
X156815546Y-104608761D02*
X156665640Y-104458855D01*
X159223440Y-99405000D02*
X158065000Y-99405000D01*
X157061619Y-104062877D02*
X157211526Y-104212784D01*
X157528310Y-104212784D02*
X157607506Y-104133585D01*
X160045000Y-100226560D02*
X159223440Y-99405000D01*
X156001141Y-105739949D02*
X156815545Y-104925545D01*
X157090000Y-100380000D02*
X156090000Y-100380000D01*
X157607506Y-104133585D02*
X158038841Y-103702248D01*
X155006727Y-107538068D02*
X156001141Y-106543654D01*
X156815545Y-104925545D02*
G75*
G03*
X156815499Y-104608809I-158345J158345D01*
G01*
X156665640Y-104458855D02*
G75*
G02*
X156665677Y-104142108I158360J158355D01*
G01*
X157211526Y-104212784D02*
G75*
G03*
X157528310Y-104212784I158392J158392D01*
G01*
X156744835Y-104062877D02*
G75*
G02*
X157061619Y-104062877I158392J-158392D01*
G01*
%TO.N,/_RN*%
X152065000Y-98855000D02*
X153113910Y-98855000D01*
X150595199Y-105563711D02*
X150595199Y-106537540D01*
X150595199Y-106537540D02*
X151598127Y-107540468D01*
X153113910Y-98855000D02*
X154135000Y-99876090D01*
X154135000Y-99876090D02*
X154135000Y-102023910D01*
X150090000Y-97880000D02*
X151090000Y-97880000D01*
X154135000Y-102023910D02*
X150595199Y-105563711D01*
X151090000Y-97880000D02*
X152065000Y-98855000D01*
%TO.N,/_RP*%
X152065000Y-99405000D02*
X152886090Y-99405000D01*
X151653005Y-103728089D02*
X151723715Y-103657376D01*
X152886090Y-99405000D02*
X153585000Y-100103910D01*
X150045199Y-105335891D02*
X151016607Y-104364483D01*
X151200457Y-103558382D02*
X151370163Y-103728088D01*
X153585000Y-100103910D02*
X153585000Y-101796090D01*
X149058127Y-107540468D02*
X150045199Y-106553396D01*
X150090000Y-100380000D02*
X151090000Y-100380000D01*
X151723715Y-103657376D02*
X153585000Y-101796090D01*
X151090000Y-100380000D02*
X152065000Y-99405000D01*
X150846903Y-103629092D02*
X150917613Y-103558383D01*
X151016607Y-104081641D02*
X150846902Y-103911936D01*
X150045199Y-106553396D02*
X150045199Y-105335891D01*
X151016607Y-104364483D02*
G75*
G03*
X151016569Y-104081679I-141407J141383D01*
G01*
X151370163Y-103728088D02*
G75*
G03*
X151653021Y-103728105I141437J141388D01*
G01*
X150846902Y-103911936D02*
G75*
G02*
X150846888Y-103629077I141398J141436D01*
G01*
X150917613Y-103558383D02*
G75*
G02*
X151200421Y-103558417I141387J-141417D01*
G01*
%TD*%
%TA.AperFunction,Conductor*%
%TO.N,+3V3*%
G36*
X134908892Y-123708893D02*
G01*
X135251160Y-124051161D01*
X135254587Y-124059434D01*
X135253630Y-124064068D01*
X134617719Y-125538465D01*
X134611296Y-125544704D01*
X134602728Y-125544733D01*
X133752764Y-125213524D01*
X133746300Y-125207327D01*
X133387231Y-124386032D01*
X133387057Y-124377079D01*
X133393221Y-124370644D01*
X134895890Y-123706464D01*
X134904841Y-123706254D01*
X134908892Y-123708893D01*
G37*
%TD.AperFunction*%
%TD*%
%TA.AperFunction,Conductor*%
%TO.N,Net-(U1-RX)*%
G36*
X133760778Y-112519947D02*
G01*
X133767730Y-112525591D01*
X133768655Y-112527824D01*
X134006855Y-113328221D01*
X134005930Y-113337128D01*
X133999673Y-113342541D01*
X132677145Y-113828031D01*
X132668198Y-113827665D01*
X132664840Y-113825321D01*
X132463281Y-113623762D01*
X132459854Y-113615489D01*
X132460570Y-113611460D01*
X132946062Y-112288927D01*
X132952129Y-112282344D01*
X132960380Y-112281747D01*
X133760778Y-112519947D01*
G37*
%TD.AperFunction*%
%TD*%
%TA.AperFunction,Conductor*%
%TO.N,/SCK*%
G36*
X134575021Y-119902672D02*
G01*
X134580434Y-119908929D01*
X135065924Y-121231457D01*
X135065558Y-121240404D01*
X135063214Y-121243762D01*
X134861655Y-121445321D01*
X134853382Y-121448748D01*
X134849350Y-121448031D01*
X133526822Y-120962541D01*
X133520237Y-120956473D01*
X133519640Y-120948222D01*
X133757840Y-120147822D01*
X133763484Y-120140872D01*
X133765712Y-120139948D01*
X134566115Y-119901747D01*
X134575021Y-119902672D01*
G37*
%TD.AperFunction*%
%TD*%
%TA.AperFunction,Conductor*%
%TO.N,/MO*%
G36*
X132962425Y-117362355D02*
G01*
X133758549Y-117599283D01*
X133762585Y-117601414D01*
X133765264Y-117603589D01*
X133769104Y-117609335D01*
X134006191Y-118405991D01*
X134006614Y-118410538D01*
X134006408Y-118412520D01*
X134002427Y-118420157D01*
X134001290Y-118421141D01*
X133997666Y-118423277D01*
X132679330Y-118907228D01*
X132674821Y-118907935D01*
X132671706Y-118907808D01*
X132663910Y-118904391D01*
X132464926Y-118705407D01*
X132462392Y-118701616D01*
X132461196Y-118698730D01*
X132461023Y-118690225D01*
X132945262Y-117371105D01*
X132947636Y-117367219D01*
X132948994Y-117365744D01*
X132956747Y-117362009D01*
X132958254Y-117361900D01*
X132962425Y-117362355D01*
G37*
%TD.AperFunction*%
%TD*%
%TA.AperFunction,Conductor*%
%TO.N,/MI*%
G36*
X133760778Y-115059947D02*
G01*
X133767730Y-115065591D01*
X133768655Y-115067824D01*
X134006855Y-115868221D01*
X134005930Y-115877128D01*
X133999673Y-115882541D01*
X132677145Y-116368031D01*
X132668198Y-116367665D01*
X132664840Y-116365321D01*
X132463281Y-116163762D01*
X132459854Y-116155489D01*
X132460570Y-116151460D01*
X132946062Y-114828927D01*
X132952129Y-114822344D01*
X132960380Y-114821747D01*
X133760778Y-115059947D01*
G37*
%TD.AperFunction*%
%TD*%
%TA.AperFunction,Conductor*%
%TO.N,GND*%
G36*
X159180020Y-123219743D02*
G01*
X159208101Y-123227268D01*
X159339752Y-123227268D01*
X159339753Y-123227268D01*
X159367832Y-123219744D01*
X159437682Y-123221405D01*
X159495545Y-123260567D01*
X159523050Y-123324795D01*
X159523927Y-123339518D01*
X159523927Y-124054497D01*
X159523927Y-124054498D01*
X159580413Y-124045551D01*
X159580419Y-124045551D01*
X159590053Y-124044025D01*
X159590056Y-124044025D01*
X159792144Y-123978363D01*
X159981484Y-123881888D01*
X160153386Y-123756995D01*
X160153391Y-123756991D01*
X160303650Y-123606732D01*
X160303654Y-123606727D01*
X160428547Y-123434826D01*
X160428556Y-123434807D01*
X160429084Y-123433948D01*
X160431066Y-123431357D01*
X160431410Y-123430885D01*
X160431421Y-123430893D01*
X160444661Y-123413594D01*
X160454294Y-123403395D01*
X160514636Y-123368174D01*
X160584441Y-123371166D01*
X160638154Y-123407334D01*
X160644224Y-123414339D01*
X160655679Y-123431324D01*
X160656328Y-123430927D01*
X160658871Y-123435077D01*
X160658874Y-123435081D01*
X160658876Y-123435085D01*
X160783817Y-123607054D01*
X160783819Y-123607056D01*
X160934143Y-123757380D01*
X161106096Y-123882310D01*
X161106104Y-123882315D01*
X161106106Y-123882316D01*
X161106108Y-123882317D01*
X161106109Y-123882318D01*
X161106127Y-123882328D01*
X161106369Y-123882450D01*
X161295515Y-123978825D01*
X161497684Y-124044514D01*
X161707640Y-124077768D01*
X161707641Y-124077768D01*
X161920213Y-124077768D01*
X161920214Y-124077768D01*
X162130170Y-124044514D01*
X162332339Y-123978825D01*
X162521743Y-123882319D01*
X162693719Y-123757372D01*
X162794652Y-123656437D01*
X162822900Y-123635291D01*
X162835083Y-123628639D01*
X162903354Y-123613789D01*
X162968807Y-123638198D01*
X162972480Y-123640947D01*
X163014357Y-123696877D01*
X163014362Y-123696890D01*
X163022964Y-123719954D01*
X163025382Y-123727092D01*
X163027190Y-123733016D01*
X163027192Y-123733024D01*
X163045735Y-123783860D01*
X163048045Y-123788666D01*
X163052464Y-123799045D01*
X163060129Y-123819596D01*
X163060133Y-123819603D01*
X163095498Y-123866844D01*
X163102189Y-123876745D01*
X163105583Y-123882328D01*
X163120464Y-123906813D01*
X163349904Y-124185418D01*
X163675146Y-124580354D01*
X163702569Y-124644617D01*
X163703427Y-124659181D01*
X163703427Y-136037434D01*
X163703426Y-136037436D01*
X163703427Y-136037437D01*
X163698403Y-136072371D01*
X163690991Y-136097612D01*
X163659696Y-136150356D01*
X156714728Y-143095323D01*
X156643533Y-143201875D01*
X156594502Y-143320245D01*
X156594495Y-143320265D01*
X156594493Y-143320273D01*
X156569500Y-143445923D01*
X156569500Y-146204555D01*
X156568182Y-146222587D01*
X156567240Y-146228996D01*
X156564866Y-146234149D01*
X156564476Y-146239495D01*
X156563696Y-146242151D01*
X156563052Y-146241962D01*
X156560116Y-146255935D01*
X156558224Y-146260795D01*
X156558210Y-146260835D01*
X156557866Y-146262009D01*
X156557739Y-146262219D01*
X156557361Y-146263329D01*
X156557119Y-146263246D01*
X156549819Y-146275353D01*
X156546879Y-146288006D01*
X156525332Y-146315960D01*
X156524757Y-146316519D01*
X156511207Y-146327927D01*
X156503330Y-146333650D01*
X156472111Y-146350122D01*
X156457390Y-146355374D01*
X156387635Y-146359361D01*
X156385872Y-146358951D01*
X156331423Y-146330714D01*
X156325650Y-146325565D01*
X156307869Y-146305911D01*
X156269121Y-146252579D01*
X156252660Y-146229922D01*
X156192819Y-146170081D01*
X156080089Y-146057350D01*
X156080087Y-146057348D01*
X156080082Y-146057344D01*
X156080081Y-146057343D01*
X156080076Y-146057339D01*
X155882642Y-145913896D01*
X155882641Y-145913895D01*
X155882639Y-145913894D01*
X155876557Y-145910795D01*
X155665189Y-145803097D01*
X155446603Y-145732073D01*
X155446589Y-145732069D01*
X155433076Y-145727679D01*
X155433074Y-145727678D01*
X155433072Y-145727678D01*
X155418675Y-145725397D01*
X155418668Y-145725396D01*
X155264769Y-145701021D01*
X155247905Y-145698350D01*
X155192031Y-145689500D01*
X155192027Y-145689500D01*
X154947973Y-145689500D01*
X154947969Y-145689500D01*
X154892093Y-145698350D01*
X154706930Y-145727677D01*
X154474809Y-145803098D01*
X154257353Y-145913898D01*
X154059940Y-146057326D01*
X154059911Y-146057348D01*
X153887348Y-146229911D01*
X153887326Y-146229940D01*
X153743898Y-146427353D01*
X153633098Y-146644807D01*
X153557678Y-146876926D01*
X153519500Y-147117973D01*
X153519500Y-147362031D01*
X153556898Y-147598156D01*
X153556899Y-147598156D01*
X153556901Y-147598169D01*
X153557679Y-147603076D01*
X153629225Y-147823272D01*
X153633097Y-147835187D01*
X153732752Y-148030772D01*
X153743893Y-148052638D01*
X153743899Y-148052648D01*
X153849643Y-148198192D01*
X153849644Y-148198193D01*
X153866114Y-148229408D01*
X153870465Y-148241603D01*
X153874453Y-148311359D01*
X153840095Y-148372197D01*
X153783486Y-148403635D01*
X153774490Y-148405863D01*
X153744680Y-148409500D01*
X150498969Y-148409500D01*
X150464028Y-148404475D01*
X150449029Y-148400070D01*
X150434041Y-148390440D01*
X150416963Y-148385432D01*
X150390283Y-148362327D01*
X150389096Y-148360958D01*
X150361616Y-148306083D01*
X150359971Y-148298521D01*
X150357139Y-148272168D01*
X150357139Y-147554139D01*
X150356979Y-147552214D01*
X150356753Y-147550560D01*
X150353242Y-147517899D01*
X150350731Y-147494533D01*
X150300437Y-147359688D01*
X150300433Y-147359681D01*
X150214187Y-147244472D01*
X150214184Y-147244469D01*
X150214183Y-147244468D01*
X150214182Y-147244467D01*
X150134482Y-147184804D01*
X150098975Y-147158223D01*
X150098972Y-147158221D01*
X150098970Y-147158220D01*
X150098968Y-147158219D01*
X149964122Y-147107925D01*
X149964123Y-147107925D01*
X149904523Y-147101518D01*
X149904521Y-147101517D01*
X149904513Y-147101517D01*
X149904504Y-147101517D01*
X149903481Y-147101517D01*
X148108763Y-147101517D01*
X148106832Y-147101676D01*
X148105185Y-147101902D01*
X148049156Y-147107925D01*
X147957167Y-147142235D01*
X147914306Y-147158221D01*
X147914305Y-147158222D01*
X147799096Y-147244467D01*
X147799093Y-147244470D01*
X147799091Y-147244473D01*
X147712844Y-147359684D01*
X147712840Y-147359692D01*
X147680924Y-147445262D01*
X147664009Y-147476238D01*
X147655692Y-147487348D01*
X147599758Y-147529219D01*
X147530074Y-147534204D01*
X147530068Y-147534202D01*
X147530067Y-147534203D01*
X147530065Y-147534202D01*
X147525591Y-147533229D01*
X147464266Y-147499747D01*
X147386428Y-147421909D01*
X147386426Y-147421907D01*
X147214460Y-147296968D01*
X147111421Y-147244467D01*
X147046885Y-147211584D01*
X147046880Y-147211582D01*
X147025054Y-147200461D01*
X147025053Y-147200460D01*
X147025052Y-147200460D01*
X146928190Y-147168987D01*
X146831714Y-147137640D01*
X146827192Y-147135787D01*
X146818002Y-147133617D01*
X146813239Y-147133243D01*
X146742115Y-147121978D01*
X146661597Y-147109225D01*
X146642129Y-147106141D01*
X146612930Y-147101517D01*
X146612927Y-147101517D01*
X146400353Y-147101517D01*
X146400349Y-147101517D01*
X146361416Y-147107683D01*
X146351682Y-147109225D01*
X146315442Y-147114965D01*
X146190403Y-147134769D01*
X146190400Y-147134770D01*
X145998982Y-147196966D01*
X145988222Y-147200462D01*
X145798822Y-147296966D01*
X145798819Y-147296967D01*
X145798819Y-147296968D01*
X145764493Y-147321907D01*
X145626850Y-147421909D01*
X145476531Y-147572228D01*
X145476529Y-147572231D01*
X145351591Y-147744196D01*
X145351589Y-147744199D01*
X145325217Y-147795956D01*
X145305961Y-147823272D01*
X145304887Y-147824795D01*
X145295997Y-147834209D01*
X145235658Y-147869435D01*
X145165852Y-147866447D01*
X145112132Y-147830278D01*
X145106061Y-147823272D01*
X145089287Y-147798362D01*
X145082710Y-147785455D01*
X145079664Y-147779476D01*
X145079663Y-147779474D01*
X145079663Y-147779473D01*
X145079661Y-147779471D01*
X145061691Y-147744201D01*
X145014666Y-147679476D01*
X144936749Y-147572230D01*
X144786426Y-147421907D01*
X144614460Y-147296968D01*
X144511421Y-147244467D01*
X144446885Y-147211584D01*
X144446880Y-147211582D01*
X144425054Y-147200461D01*
X144425053Y-147200460D01*
X144425052Y-147200460D01*
X144328190Y-147168987D01*
X144231714Y-147137640D01*
X144227192Y-147135787D01*
X144218002Y-147133617D01*
X144213239Y-147133243D01*
X144142115Y-147121978D01*
X144061597Y-147109225D01*
X144042129Y-147106141D01*
X144012930Y-147101517D01*
X144012927Y-147101517D01*
X143800353Y-147101517D01*
X143800349Y-147101517D01*
X143761416Y-147107683D01*
X143751682Y-147109225D01*
X143715442Y-147114965D01*
X143590403Y-147134769D01*
X143590400Y-147134770D01*
X143398982Y-147196966D01*
X143388222Y-147200462D01*
X143198822Y-147296966D01*
X143198819Y-147296967D01*
X143198819Y-147296968D01*
X143112498Y-147359683D01*
X143026853Y-147421907D01*
X142876533Y-147572226D01*
X142876515Y-147572250D01*
X142767434Y-147722388D01*
X142750273Y-147740048D01*
X142742840Y-147747696D01*
X142731852Y-147756169D01*
X142666746Y-147781521D01*
X142598267Y-147767648D01*
X142598260Y-147767645D01*
X142592080Y-147764384D01*
X142549631Y-147727600D01*
X142463402Y-147608916D01*
X142436749Y-147572231D01*
X142436745Y-147572226D01*
X142286426Y-147421907D01*
X142114460Y-147296968D01*
X142011421Y-147244467D01*
X141946885Y-147211584D01*
X141946880Y-147211582D01*
X141925054Y-147200461D01*
X141925053Y-147200460D01*
X141925052Y-147200460D01*
X141828190Y-147168987D01*
X141731714Y-147137640D01*
X141727192Y-147135787D01*
X141718002Y-147133617D01*
X141713239Y-147133243D01*
X141642115Y-147121978D01*
X141561597Y-147109225D01*
X141542129Y-147106141D01*
X141512930Y-147101517D01*
X141512927Y-147101517D01*
X141300353Y-147101517D01*
X141300349Y-147101517D01*
X141252286Y-147109129D01*
X141252247Y-147109135D01*
X141251682Y-147109225D01*
X141090400Y-147134770D01*
X141090397Y-147134771D01*
X141081162Y-147137771D01*
X141081159Y-147137772D01*
X140936412Y-147184804D01*
X140901632Y-147190822D01*
X140887761Y-147191218D01*
X140820187Y-147173455D01*
X140772944Y-147121978D01*
X140769856Y-147115697D01*
X140757140Y-147060999D01*
X140757140Y-129481973D01*
X140762162Y-129447040D01*
X140762522Y-129445814D01*
X140766073Y-129433721D01*
X140803846Y-129374944D01*
X140867398Y-129345919D01*
X140871126Y-129345383D01*
X140874329Y-129344923D01*
X140930286Y-129349731D01*
X140990397Y-129369263D01*
X141200353Y-129402517D01*
X141200354Y-129402517D01*
X141412926Y-129402517D01*
X141412927Y-129402517D01*
X141622883Y-129369263D01*
X141825052Y-129303574D01*
X142014456Y-129207068D01*
X142145285Y-129112016D01*
X142147616Y-129110323D01*
X142181999Y-129085342D01*
X142186426Y-129082126D01*
X142186427Y-129082123D01*
X142186430Y-129082121D01*
X142186432Y-129082121D01*
X142186433Y-129082119D01*
X142186487Y-129082080D01*
X142187245Y-129081307D01*
X142336744Y-128931809D01*
X142336746Y-128931805D01*
X142336749Y-128931803D01*
X142336978Y-128931489D01*
X142445843Y-128781646D01*
X142461688Y-128759837D01*
X142461690Y-128759834D01*
X142461691Y-128759833D01*
X142488503Y-128707210D01*
X142488924Y-128706414D01*
X142490046Y-128705261D01*
X142508397Y-128679229D01*
X142517291Y-128669812D01*
X142534108Y-128659997D01*
X142537660Y-128656349D01*
X142542136Y-128655312D01*
X142577635Y-128634593D01*
X142647440Y-128637589D01*
X142701148Y-128673755D01*
X142707218Y-128680760D01*
X142723990Y-128705668D01*
X142733615Y-128724557D01*
X142751591Y-128759837D01*
X142876530Y-128931803D01*
X142876531Y-128931804D01*
X142876532Y-128931805D01*
X143026856Y-129082129D01*
X143198809Y-129207059D01*
X143198840Y-129207077D01*
X143199082Y-129207199D01*
X143388228Y-129303574D01*
X143590397Y-129369263D01*
X143800353Y-129402517D01*
X143800354Y-129402517D01*
X144012926Y-129402517D01*
X144012927Y-129402517D01*
X144222883Y-129369263D01*
X144425052Y-129303574D01*
X144614456Y-129207068D01*
X144745285Y-129112016D01*
X144747616Y-129110323D01*
X144781999Y-129085342D01*
X144786426Y-129082126D01*
X144786427Y-129082124D01*
X144786485Y-129082082D01*
X144787198Y-129081354D01*
X144936744Y-128931809D01*
X145045844Y-128781643D01*
X145070430Y-128756342D01*
X145081428Y-128747861D01*
X145146531Y-128722511D01*
X145215010Y-128736383D01*
X145215017Y-128736387D01*
X145221199Y-128739649D01*
X145263649Y-128776433D01*
X145324242Y-128859832D01*
X145324242Y-128859833D01*
X145376532Y-128931804D01*
X145376537Y-128931810D01*
X145526856Y-129082129D01*
X145698809Y-129207059D01*
X145698840Y-129207077D01*
X145699082Y-129207199D01*
X145888228Y-129303574D01*
X146090397Y-129369263D01*
X146300353Y-129402517D01*
X146300354Y-129402517D01*
X146512926Y-129402517D01*
X146512927Y-129402517D01*
X146722883Y-129369263D01*
X146925052Y-129303574D01*
X147114456Y-129207068D01*
X147245285Y-129112016D01*
X147247616Y-129110323D01*
X147281999Y-129085342D01*
X147286426Y-129082126D01*
X147286427Y-129082123D01*
X147286430Y-129082121D01*
X147286432Y-129082121D01*
X147286433Y-129082119D01*
X147286487Y-129082080D01*
X147287245Y-129081307D01*
X147436744Y-128931809D01*
X147436746Y-128931805D01*
X147436749Y-128931803D01*
X147436978Y-128931489D01*
X147545843Y-128781646D01*
X147561688Y-128759837D01*
X147561690Y-128759834D01*
X147561691Y-128759833D01*
X147588503Y-128707210D01*
X147588924Y-128706414D01*
X147590046Y-128705261D01*
X147608397Y-128679229D01*
X147617291Y-128669812D01*
X147634108Y-128659997D01*
X147637660Y-128656349D01*
X147642136Y-128655312D01*
X147677635Y-128634593D01*
X147747440Y-128637589D01*
X147801148Y-128673755D01*
X147807218Y-128680760D01*
X147823990Y-128705668D01*
X147833615Y-128724557D01*
X147851591Y-128759837D01*
X147976530Y-128931803D01*
X147976531Y-128931804D01*
X147976532Y-128931805D01*
X148126856Y-129082129D01*
X148298809Y-129207059D01*
X148298840Y-129207077D01*
X148299082Y-129207199D01*
X148488228Y-129303574D01*
X148690397Y-129369263D01*
X148900353Y-129402517D01*
X148900354Y-129402517D01*
X149112926Y-129402517D01*
X149112927Y-129402517D01*
X149322883Y-129369263D01*
X149525052Y-129303574D01*
X149714456Y-129207068D01*
X149845285Y-129112016D01*
X149847616Y-129110323D01*
X149881999Y-129085342D01*
X149886426Y-129082126D01*
X149886427Y-129082124D01*
X149886485Y-129082082D01*
X149887198Y-129081354D01*
X150036744Y-128931809D01*
X150146153Y-128781217D01*
X150170746Y-128755911D01*
X150181740Y-128747433D01*
X150246847Y-128722086D01*
X150315323Y-128735960D01*
X150315325Y-128735961D01*
X150315326Y-128735962D01*
X150321508Y-128739224D01*
X150363958Y-128776008D01*
X150476907Y-128931470D01*
X150476912Y-128931477D01*
X150476914Y-128931479D01*
X150476923Y-128931489D01*
X150627168Y-129081734D01*
X150627171Y-129081736D01*
X150627175Y-129081740D01*
X150627180Y-129081744D01*
X150799082Y-129206637D01*
X150988422Y-129303112D01*
X150988427Y-129303113D01*
X150988430Y-129303115D01*
X151074666Y-129331134D01*
X151190511Y-129368774D01*
X151256640Y-129379248D01*
X151256640Y-128664267D01*
X151276325Y-128597228D01*
X151329129Y-128551473D01*
X151398287Y-128541529D01*
X151412733Y-128544492D01*
X151440814Y-128552017D01*
X151572465Y-128552017D01*
X151572466Y-128552017D01*
X151600545Y-128544493D01*
X151670395Y-128546154D01*
X151728258Y-128585316D01*
X151755763Y-128649544D01*
X151756640Y-128664267D01*
X151756640Y-129379246D01*
X151756640Y-129379247D01*
X151813126Y-129370300D01*
X151813132Y-129370300D01*
X151822766Y-129368774D01*
X151822769Y-129368774D01*
X152024857Y-129303112D01*
X152214197Y-129206637D01*
X152386099Y-129081744D01*
X152386104Y-129081740D01*
X152536361Y-128931483D01*
X152645535Y-128781216D01*
X152670128Y-128755912D01*
X152671166Y-128755112D01*
X152681120Y-128747436D01*
X152746229Y-128722087D01*
X152814701Y-128735960D01*
X152820882Y-128739221D01*
X152863339Y-128776008D01*
X152976527Y-128931799D01*
X152976532Y-128931805D01*
X152976534Y-128931807D01*
X153126853Y-129082126D01*
X153126856Y-129082128D01*
X153126857Y-129082129D01*
X153298809Y-129207059D01*
X153298840Y-129207077D01*
X153299082Y-129207199D01*
X153488228Y-129303574D01*
X153690397Y-129369263D01*
X153900353Y-129402517D01*
X153900354Y-129402517D01*
X154112926Y-129402517D01*
X154112927Y-129402517D01*
X154322883Y-129369263D01*
X154525052Y-129303574D01*
X154714456Y-129207068D01*
X154845285Y-129112016D01*
X154847616Y-129110323D01*
X154881999Y-129085342D01*
X154886426Y-129082126D01*
X154886427Y-129082123D01*
X154886430Y-129082121D01*
X154886432Y-129082121D01*
X154886433Y-129082119D01*
X154886487Y-129082080D01*
X154887245Y-129081307D01*
X155036744Y-128931809D01*
X155036746Y-128931805D01*
X155036749Y-128931803D01*
X155036978Y-128931489D01*
X155159616Y-128762689D01*
X155159616Y-128762688D01*
X155161688Y-128759837D01*
X155161690Y-128759834D01*
X155161691Y-128759833D01*
X155164283Y-128754744D01*
X155166154Y-128751561D01*
X155169186Y-128748712D01*
X155182916Y-128729235D01*
X155191810Y-128719817D01*
X155213325Y-128707258D01*
X155217083Y-128703729D01*
X155220432Y-128703109D01*
X155252149Y-128684595D01*
X155321955Y-128687587D01*
X155375667Y-128723751D01*
X155381741Y-128730760D01*
X155398514Y-128755669D01*
X155411534Y-128781220D01*
X155451588Y-128859832D01*
X155451591Y-128859836D01*
X155576296Y-129031481D01*
X155576529Y-129031801D01*
X155576531Y-129031804D01*
X155726856Y-129182129D01*
X155898809Y-129307059D01*
X155898840Y-129307077D01*
X155899082Y-129307199D01*
X156088228Y-129403574D01*
X156290397Y-129469263D01*
X156500353Y-129502517D01*
X156500354Y-129502517D01*
X156712926Y-129502517D01*
X156712927Y-129502517D01*
X156922883Y-129469263D01*
X157125052Y-129403574D01*
X157314456Y-129307068D01*
X157400787Y-129244345D01*
X157482977Y-129184631D01*
X157485176Y-129183148D01*
X157488622Y-129180528D01*
X157494470Y-129176278D01*
X157500307Y-129168246D01*
X157558227Y-129110325D01*
X157558226Y-129110325D01*
X157558229Y-129110323D01*
X157586479Y-129089174D01*
X157598662Y-129082522D01*
X157666933Y-129067672D01*
X157732391Y-129092085D01*
X157736065Y-129094835D01*
X157777939Y-129150766D01*
X157777941Y-129150770D01*
X157812843Y-129244347D01*
X157812846Y-129244352D01*
X157852213Y-129296939D01*
X157899090Y-129359559D01*
X157899096Y-129359565D01*
X157911398Y-129368774D01*
X158014304Y-129445810D01*
X158014311Y-129445814D01*
X158149157Y-129496108D01*
X158149156Y-129496108D01*
X158156084Y-129496852D01*
X158208767Y-129502517D01*
X160004512Y-129502516D01*
X160064123Y-129496108D01*
X160198971Y-129445813D01*
X160314186Y-129359563D01*
X160400436Y-129244348D01*
X160400437Y-129244345D01*
X160400438Y-129244344D01*
X160435214Y-129151104D01*
X160450731Y-129109500D01*
X160457140Y-129049890D01*
X160457139Y-127254145D01*
X160450731Y-127194534D01*
X160447131Y-127184883D01*
X160423785Y-127122289D01*
X160400438Y-127059690D01*
X160400437Y-127059688D01*
X160400436Y-127059687D01*
X160400433Y-127059681D01*
X160327395Y-126962115D01*
X160314188Y-126944473D01*
X160314182Y-126944467D01*
X160246903Y-126894102D01*
X160198975Y-126858223D01*
X160198972Y-126858221D01*
X160198970Y-126858220D01*
X160198968Y-126858219D01*
X160064122Y-126807925D01*
X160064123Y-126807925D01*
X160004523Y-126801518D01*
X160004521Y-126801517D01*
X160004513Y-126801517D01*
X160004504Y-126801517D01*
X160003481Y-126801517D01*
X158208763Y-126801517D01*
X158206832Y-126801676D01*
X158205185Y-126801902D01*
X158149156Y-126807925D01*
X158024146Y-126854551D01*
X158014306Y-126858221D01*
X158014305Y-126858222D01*
X157899096Y-126944467D01*
X157899093Y-126944470D01*
X157899091Y-126944473D01*
X157879143Y-126971120D01*
X157833937Y-127031508D01*
X157812844Y-127059684D01*
X157812840Y-127059692D01*
X157780924Y-127145262D01*
X157764009Y-127176238D01*
X157755692Y-127187348D01*
X157699758Y-127229219D01*
X157630074Y-127234204D01*
X157630068Y-127234202D01*
X157630067Y-127234203D01*
X157630065Y-127234202D01*
X157625591Y-127233229D01*
X157564266Y-127199747D01*
X157486428Y-127121909D01*
X157486426Y-127121907D01*
X157314460Y-126996968D01*
X157300807Y-126990011D01*
X157146885Y-126911584D01*
X157146880Y-126911582D01*
X157125054Y-126900461D01*
X157125053Y-126900460D01*
X157125052Y-126900460D01*
X157002395Y-126860606D01*
X156931714Y-126837640D01*
X156927192Y-126835787D01*
X156918002Y-126833617D01*
X156913239Y-126833243D01*
X156882611Y-126828392D01*
X156761597Y-126809225D01*
X156740072Y-126805816D01*
X156712930Y-126801517D01*
X156712927Y-126801517D01*
X156500353Y-126801517D01*
X156500349Y-126801517D01*
X156461416Y-126807683D01*
X156451682Y-126809225D01*
X156414294Y-126815146D01*
X156290403Y-126834769D01*
X156290400Y-126834770D01*
X156098982Y-126896966D01*
X156088222Y-126900462D01*
X155898822Y-126996966D01*
X155898819Y-126996967D01*
X155898819Y-126996968D01*
X155864478Y-127021918D01*
X155726850Y-127121909D01*
X155576524Y-127272235D01*
X155451596Y-127444187D01*
X155451584Y-127444206D01*
X155450686Y-127445969D01*
X155449299Y-127447936D01*
X155449048Y-127448346D01*
X155449021Y-127448329D01*
X155431437Y-127473272D01*
X155430358Y-127474802D01*
X155421469Y-127484214D01*
X155361128Y-127519437D01*
X155291322Y-127516445D01*
X155237608Y-127480278D01*
X155231537Y-127473272D01*
X155214762Y-127448359D01*
X155214755Y-127448346D01*
X155209962Y-127438937D01*
X155201476Y-127422282D01*
X155201476Y-127422283D01*
X155161691Y-127344201D01*
X155161689Y-127344198D01*
X155161688Y-127344196D01*
X155161345Y-127343725D01*
X155161342Y-127343718D01*
X155036752Y-127172233D01*
X154886428Y-127021909D01*
X154886426Y-127021907D01*
X154714460Y-126896968D01*
X154685223Y-126882071D01*
X154546885Y-126811584D01*
X154546880Y-126811582D01*
X154525054Y-126800461D01*
X154525053Y-126800460D01*
X154525052Y-126800460D01*
X154405411Y-126761586D01*
X154331714Y-126737640D01*
X154327192Y-126735787D01*
X154318002Y-126733617D01*
X154313239Y-126733243D01*
X154130441Y-126704291D01*
X154130441Y-126704290D01*
X154112927Y-126701517D01*
X153962330Y-126701517D01*
X153962325Y-126701516D01*
X153962323Y-126701517D01*
X153927389Y-126696492D01*
X153912390Y-126692087D01*
X153853644Y-126654344D01*
X153853615Y-126654310D01*
X153853614Y-126654310D01*
X153853613Y-126654308D01*
X153852457Y-126652975D01*
X153824977Y-126598100D01*
X153823332Y-126590538D01*
X153820500Y-126564185D01*
X153820500Y-125326814D01*
X153822881Y-125302631D01*
X153827557Y-125279123D01*
X153834613Y-125255866D01*
X153839737Y-125243497D01*
X153870500Y-125088842D01*
X153870500Y-124931158D01*
X153870500Y-124931155D01*
X153870500Y-124930973D01*
X153870065Y-124928972D01*
X153865444Y-124905741D01*
X153865444Y-124905740D01*
X153848052Y-124818306D01*
X153839737Y-124776503D01*
X153825987Y-124743307D01*
X153779397Y-124630827D01*
X153779390Y-124630814D01*
X153691789Y-124499711D01*
X153691786Y-124499707D01*
X153691781Y-124499701D01*
X153580297Y-124388217D01*
X153580291Y-124388212D01*
X153580290Y-124388211D01*
X153449191Y-124300613D01*
X153449190Y-124300612D01*
X153449185Y-124300609D01*
X153449172Y-124300602D01*
X153449165Y-124300598D01*
X153303502Y-124240264D01*
X153303471Y-124240257D01*
X153148847Y-124209500D01*
X153148845Y-124209500D01*
X153148842Y-124209500D01*
X152991158Y-124209500D01*
X152991155Y-124209500D01*
X152991153Y-124209500D01*
X152836527Y-124240257D01*
X152836496Y-124240264D01*
X152690833Y-124300598D01*
X152690824Y-124300603D01*
X152690807Y-124300613D01*
X152559711Y-124388209D01*
X152497219Y-124450701D01*
X152469539Y-124471425D01*
X152468983Y-124471841D01*
X152464822Y-124474114D01*
X152396552Y-124488978D01*
X152331084Y-124464572D01*
X152289203Y-124408645D01*
X152284206Y-124338955D01*
X152298531Y-124302364D01*
X152299571Y-124300598D01*
X152809135Y-123435412D01*
X152825823Y-123413210D01*
X152834577Y-123403942D01*
X152894917Y-123368723D01*
X152964723Y-123371717D01*
X153018430Y-123407880D01*
X153024634Y-123415039D01*
X153036656Y-123431461D01*
X153038876Y-123435085D01*
X153038878Y-123435088D01*
X153163817Y-123607054D01*
X153163819Y-123607056D01*
X153314143Y-123757380D01*
X153486096Y-123882310D01*
X153486104Y-123882315D01*
X153486106Y-123882316D01*
X153486108Y-123882317D01*
X153486109Y-123882318D01*
X153486127Y-123882328D01*
X153486369Y-123882450D01*
X153675515Y-123978825D01*
X153877684Y-124044514D01*
X154087640Y-124077768D01*
X154087641Y-124077768D01*
X154300213Y-124077768D01*
X154300214Y-124077768D01*
X154510170Y-124044514D01*
X154712339Y-123978825D01*
X154901743Y-123882319D01*
X154979388Y-123825907D01*
X155073713Y-123757377D01*
X155073715Y-123757374D01*
X155073719Y-123757372D01*
X155073721Y-123757369D01*
X155073775Y-123757330D01*
X155074532Y-123756558D01*
X155224031Y-123607060D01*
X155224033Y-123607056D01*
X155224036Y-123607054D01*
X155348975Y-123435088D01*
X155348974Y-123435088D01*
X155348978Y-123435084D01*
X155348982Y-123435077D01*
X155351842Y-123431141D01*
X155351842Y-123431140D01*
X155356992Y-123424052D01*
X155367156Y-123411799D01*
X155374574Y-123403946D01*
X155434912Y-123368725D01*
X155504718Y-123371715D01*
X155558430Y-123407880D01*
X155564634Y-123415039D01*
X155576656Y-123431461D01*
X155578876Y-123435085D01*
X155578878Y-123435088D01*
X155703817Y-123607054D01*
X155703819Y-123607056D01*
X155854143Y-123757380D01*
X156026096Y-123882310D01*
X156026104Y-123882315D01*
X156026106Y-123882316D01*
X156026108Y-123882317D01*
X156026109Y-123882318D01*
X156026127Y-123882328D01*
X156026369Y-123882450D01*
X156215515Y-123978825D01*
X156417684Y-124044514D01*
X156627640Y-124077768D01*
X156627641Y-124077768D01*
X156840213Y-124077768D01*
X156840214Y-124077768D01*
X157050170Y-124044514D01*
X157252339Y-123978825D01*
X157441743Y-123882319D01*
X157519388Y-123825907D01*
X157613713Y-123757377D01*
X157613715Y-123757374D01*
X157613719Y-123757372D01*
X157613721Y-123757369D01*
X157613775Y-123757330D01*
X157614532Y-123756558D01*
X157764031Y-123607060D01*
X157764033Y-123607056D01*
X157764036Y-123607054D01*
X157764270Y-123606732D01*
X157845173Y-123495377D01*
X157845200Y-123495338D01*
X157845549Y-123494859D01*
X157888978Y-123435084D01*
X157890280Y-123432527D01*
X157894717Y-123426346D01*
X157896607Y-123424870D01*
X157905297Y-123413517D01*
X157907057Y-123411652D01*
X157914845Y-123403405D01*
X157975180Y-123368177D01*
X158044986Y-123371160D01*
X158098717Y-123407336D01*
X158104817Y-123414376D01*
X158116824Y-123430776D01*
X158119300Y-123434815D01*
X158119304Y-123434823D01*
X158136011Y-123457818D01*
X158244194Y-123606721D01*
X158244199Y-123606728D01*
X158244201Y-123606730D01*
X158244210Y-123606740D01*
X158394455Y-123756985D01*
X158394459Y-123756988D01*
X158394462Y-123756991D01*
X158394467Y-123756995D01*
X158566369Y-123881888D01*
X158755709Y-123978363D01*
X158755714Y-123978364D01*
X158755717Y-123978366D01*
X158831504Y-124002990D01*
X158957798Y-124044025D01*
X159023927Y-124054499D01*
X159023927Y-123339518D01*
X159043612Y-123272479D01*
X159096416Y-123226724D01*
X159165574Y-123216780D01*
X159180020Y-123219743D01*
G37*
%TD.AperFunction*%
%TA.AperFunction,Conductor*%
G36*
X129947440Y-128637589D02*
G01*
X130001148Y-128673755D01*
X130007218Y-128680760D01*
X130023990Y-128705668D01*
X130033615Y-128724557D01*
X130051591Y-128759837D01*
X130176530Y-128931803D01*
X130176531Y-128931804D01*
X130176532Y-128931805D01*
X130326856Y-129082129D01*
X130498809Y-129207059D01*
X130498840Y-129207077D01*
X130499082Y-129207199D01*
X130688228Y-129303574D01*
X130890397Y-129369263D01*
X131100353Y-129402517D01*
X131100354Y-129402517D01*
X131312926Y-129402517D01*
X131312927Y-129402517D01*
X131522883Y-129369263D01*
X131725052Y-129303574D01*
X131914456Y-129207068D01*
X132045285Y-129112016D01*
X132047616Y-129110323D01*
X132081999Y-129085342D01*
X132086426Y-129082126D01*
X132086427Y-129082124D01*
X132086485Y-129082082D01*
X132087198Y-129081354D01*
X132236744Y-128931809D01*
X132345844Y-128781643D01*
X132370430Y-128756342D01*
X132381428Y-128747861D01*
X132446531Y-128722511D01*
X132515010Y-128736383D01*
X132515017Y-128736387D01*
X132521199Y-128739649D01*
X132563649Y-128776433D01*
X132624242Y-128859832D01*
X132624242Y-128859833D01*
X132676532Y-128931804D01*
X132676537Y-128931810D01*
X132826856Y-129082129D01*
X132998809Y-129207059D01*
X132998840Y-129207077D01*
X132999082Y-129207199D01*
X133188228Y-129303574D01*
X133390397Y-129369263D01*
X133600353Y-129402517D01*
X133600354Y-129402517D01*
X133812926Y-129402517D01*
X133812927Y-129402517D01*
X134022883Y-129369263D01*
X134140232Y-129331132D01*
X134175007Y-129325116D01*
X134188878Y-129324720D01*
X134256452Y-129342483D01*
X134303691Y-129393951D01*
X134306776Y-129400228D01*
X134319500Y-129454939D01*
X134319500Y-146950016D01*
X134314475Y-146984958D01*
X134310857Y-146997274D01*
X134310852Y-146997295D01*
X134310093Y-147000785D01*
X134276609Y-147062100D01*
X134249956Y-147088752D01*
X134223236Y-147108754D01*
X134221705Y-147109900D01*
X134204425Y-147119336D01*
X134143669Y-147134498D01*
X134128622Y-147134337D01*
X134110554Y-147132818D01*
X134016825Y-147117973D01*
X133912927Y-147101517D01*
X133912926Y-147101517D01*
X133700349Y-147101517D01*
X133661416Y-147107683D01*
X133651682Y-147109225D01*
X133615442Y-147114965D01*
X133490403Y-147134769D01*
X133490400Y-147134770D01*
X133298982Y-147196966D01*
X133288222Y-147200462D01*
X133098822Y-147296966D01*
X133098819Y-147296967D01*
X133098819Y-147296968D01*
X133064493Y-147321907D01*
X132926850Y-147421909D01*
X132776532Y-147572227D01*
X132776530Y-147572230D01*
X132651591Y-147744197D01*
X132651585Y-147744205D01*
X132598699Y-147847997D01*
X132578366Y-147876841D01*
X132570602Y-147885062D01*
X132510261Y-147920285D01*
X132440455Y-147917295D01*
X132383348Y-147877039D01*
X132378576Y-147871030D01*
X132360751Y-147837820D01*
X132360061Y-147838106D01*
X132358197Y-147833605D01*
X132330594Y-147779431D01*
X132261691Y-147644201D01*
X132261689Y-147644198D01*
X132261688Y-147644196D01*
X132261342Y-147643720D01*
X132261340Y-147643716D01*
X132136752Y-147472233D01*
X131986422Y-147321903D01*
X131814461Y-147196968D01*
X131801399Y-147190312D01*
X131801399Y-147190313D01*
X131684087Y-147130539D01*
X131655240Y-147110203D01*
X131642833Y-147098485D01*
X131608277Y-147040713D01*
X131604802Y-147027866D01*
X131600500Y-146995489D01*
X131600500Y-145065925D01*
X131575262Y-144939053D01*
X131573177Y-144934645D01*
X131526465Y-144821874D01*
X131526465Y-144821873D01*
X131455277Y-144715331D01*
X131455275Y-144715329D01*
X131455273Y-144715326D01*
X131455268Y-144715320D01*
X129154677Y-142414729D01*
X129154673Y-142414726D01*
X129154669Y-142414723D01*
X129048127Y-142343535D01*
X129048125Y-142343534D01*
X128929753Y-142294502D01*
X128929733Y-142294495D01*
X128929725Y-142294493D01*
X128804074Y-142269500D01*
X128804071Y-142269500D01*
X128804069Y-142269500D01*
X124402765Y-142269500D01*
X124402762Y-142269499D01*
X124402761Y-142269500D01*
X124367827Y-142264476D01*
X124336018Y-142255135D01*
X124302066Y-142239262D01*
X124259173Y-142210602D01*
X124259162Y-142210597D01*
X124113502Y-142150264D01*
X124113471Y-142150257D01*
X123958847Y-142119500D01*
X123958845Y-142119500D01*
X123958842Y-142119500D01*
X123801158Y-142119500D01*
X123801155Y-142119500D01*
X123801153Y-142119500D01*
X123646527Y-142150257D01*
X123646496Y-142150264D01*
X123500833Y-142210598D01*
X123500824Y-142210603D01*
X123500807Y-142210613D01*
X123369708Y-142298211D01*
X123369707Y-142298212D01*
X123369701Y-142298217D01*
X123258217Y-142409701D01*
X123258212Y-142409707D01*
X123258211Y-142409708D01*
X123170613Y-142540807D01*
X123170603Y-142540824D01*
X123170598Y-142540833D01*
X123110264Y-142686496D01*
X123110257Y-142686527D01*
X123079500Y-142841150D01*
X123079500Y-142841153D01*
X123079500Y-142998846D01*
X123079500Y-142998848D01*
X123079499Y-142998848D01*
X123110257Y-143153471D01*
X123110264Y-143153502D01*
X123170598Y-143299165D01*
X123170603Y-143299174D01*
X123170613Y-143299191D01*
X123258211Y-143430290D01*
X123258212Y-143430291D01*
X123258217Y-143430297D01*
X123369701Y-143541781D01*
X123369707Y-143541786D01*
X123369711Y-143541789D01*
X123500814Y-143629390D01*
X123500827Y-143629397D01*
X123646498Y-143689735D01*
X123646503Y-143689737D01*
X123801153Y-143720499D01*
X123801156Y-143720500D01*
X123801158Y-143720500D01*
X123958844Y-143720500D01*
X123958845Y-143720499D01*
X124113497Y-143689737D01*
X124259179Y-143629394D01*
X124301227Y-143601297D01*
X124333052Y-143586071D01*
X124364697Y-143576163D01*
X124401743Y-143570500D01*
X128401362Y-143570500D01*
X128436294Y-143575521D01*
X128461538Y-143582934D01*
X128514284Y-143614230D01*
X130250574Y-145350520D01*
X130271723Y-145378771D01*
X130284331Y-145401860D01*
X130299500Y-145461289D01*
X130299500Y-147188117D01*
X130294475Y-147223058D01*
X130288199Y-147244428D01*
X130259371Y-147294631D01*
X130256308Y-147297874D01*
X130239056Y-147313041D01*
X130226850Y-147321910D01*
X130076533Y-147472226D01*
X130076515Y-147472250D01*
X130017436Y-147553566D01*
X130017435Y-147553566D01*
X130017434Y-147553570D01*
X129995949Y-147575675D01*
X129992835Y-147578879D01*
X129981845Y-147587353D01*
X129916735Y-147612700D01*
X129848266Y-147598827D01*
X129842087Y-147595567D01*
X129799631Y-147558780D01*
X129736753Y-147472236D01*
X129736748Y-147472229D01*
X129736746Y-147472227D01*
X129686426Y-147421907D01*
X129586426Y-147321907D01*
X129414460Y-147196968D01*
X129334503Y-147156228D01*
X129246885Y-147111584D01*
X129246880Y-147111582D01*
X129225054Y-147100461D01*
X129225053Y-147100460D01*
X129225052Y-147100460D01*
X129103604Y-147060999D01*
X129031714Y-147037640D01*
X129027192Y-147035787D01*
X129018002Y-147033617D01*
X129013239Y-147033243D01*
X128840568Y-147005895D01*
X128837203Y-147005362D01*
X128812927Y-147001517D01*
X128812926Y-147001517D01*
X128600354Y-147001517D01*
X128600353Y-147001517D01*
X128576077Y-147005362D01*
X128572712Y-147005895D01*
X128390399Y-147034769D01*
X128341268Y-147050733D01*
X128329219Y-147054649D01*
X128209566Y-147093527D01*
X128202091Y-147095955D01*
X128188223Y-147100461D01*
X127998822Y-147196966D01*
X127998819Y-147196967D01*
X127998819Y-147196968D01*
X127933440Y-147244468D01*
X127826853Y-147321907D01*
X127676533Y-147472226D01*
X127676515Y-147472250D01*
X127567434Y-147622388D01*
X127550273Y-147640048D01*
X127542840Y-147647696D01*
X127531852Y-147656169D01*
X127466746Y-147681521D01*
X127398267Y-147667648D01*
X127398260Y-147667645D01*
X127392080Y-147664384D01*
X127349631Y-147627600D01*
X127276878Y-147527464D01*
X127236749Y-147472231D01*
X127236745Y-147472226D01*
X127086426Y-147321907D01*
X126914460Y-147196968D01*
X126834503Y-147156228D01*
X126746885Y-147111584D01*
X126746880Y-147111582D01*
X126725054Y-147100461D01*
X126725053Y-147100460D01*
X126725052Y-147100460D01*
X126603604Y-147060999D01*
X126531714Y-147037640D01*
X126527192Y-147035787D01*
X126518002Y-147033617D01*
X126513239Y-147033243D01*
X126340568Y-147005895D01*
X126337203Y-147005362D01*
X126312927Y-147001517D01*
X126312926Y-147001517D01*
X126100354Y-147001517D01*
X126100353Y-147001517D01*
X126076077Y-147005362D01*
X126072712Y-147005895D01*
X125890399Y-147034769D01*
X125841268Y-147050733D01*
X125829219Y-147054649D01*
X125709566Y-147093527D01*
X125702091Y-147095955D01*
X125688223Y-147100461D01*
X125498822Y-147196966D01*
X125498819Y-147196967D01*
X125498819Y-147196968D01*
X125485871Y-147206375D01*
X125326850Y-147321909D01*
X125176531Y-147472228D01*
X125176529Y-147472231D01*
X125051591Y-147644196D01*
X125051589Y-147644199D01*
X125025217Y-147695956D01*
X125006584Y-147722388D01*
X125004887Y-147724795D01*
X124995997Y-147734209D01*
X124935658Y-147769435D01*
X124865852Y-147766447D01*
X124812132Y-147730278D01*
X124806061Y-147723272D01*
X124789287Y-147698362D01*
X124782710Y-147685455D01*
X124779664Y-147679476D01*
X124779663Y-147679475D01*
X124779663Y-147679474D01*
X124779662Y-147679473D01*
X124761691Y-147644201D01*
X124737319Y-147610656D01*
X124733452Y-147605334D01*
X124636750Y-147472231D01*
X124486428Y-147321909D01*
X124486427Y-147321908D01*
X124486426Y-147321907D01*
X124314460Y-147196968D01*
X124234503Y-147156228D01*
X124146885Y-147111584D01*
X124146880Y-147111582D01*
X124125054Y-147100461D01*
X124125053Y-147100460D01*
X124125052Y-147100460D01*
X124003604Y-147060999D01*
X123931714Y-147037640D01*
X123927192Y-147035787D01*
X123918002Y-147033617D01*
X123913239Y-147033243D01*
X123740568Y-147005895D01*
X123737203Y-147005362D01*
X123712927Y-147001517D01*
X123712926Y-147001517D01*
X123500354Y-147001517D01*
X123500353Y-147001517D01*
X123476077Y-147005362D01*
X123461606Y-147007654D01*
X123306097Y-147032284D01*
X123280459Y-147033653D01*
X123277132Y-147033486D01*
X123255035Y-147032373D01*
X123195342Y-147013548D01*
X123187781Y-147008801D01*
X123166033Y-146991464D01*
X119874054Y-143699485D01*
X119852902Y-143671229D01*
X119840295Y-143648140D01*
X119825128Y-143588715D01*
X119825128Y-129196884D01*
X119830149Y-129161957D01*
X119833335Y-129151104D01*
X119871105Y-129092323D01*
X119934659Y-129063294D01*
X120003814Y-129073232D01*
X120010800Y-129076422D01*
X120046967Y-129101532D01*
X120127175Y-129181740D01*
X120127180Y-129181744D01*
X120299082Y-129306637D01*
X120488422Y-129403112D01*
X120488427Y-129403113D01*
X120488430Y-129403115D01*
X120576257Y-129431651D01*
X120690511Y-129468774D01*
X120756640Y-129479248D01*
X120756640Y-128764267D01*
X120776325Y-128697228D01*
X120829129Y-128651473D01*
X120898287Y-128641529D01*
X120912733Y-128644492D01*
X120940814Y-128652017D01*
X121072465Y-128652017D01*
X121072466Y-128652017D01*
X121100545Y-128644493D01*
X121170395Y-128646154D01*
X121228258Y-128685316D01*
X121255763Y-128749544D01*
X121256640Y-128764267D01*
X121256640Y-129479246D01*
X121256640Y-129479247D01*
X121313126Y-129470300D01*
X121313132Y-129470300D01*
X121322766Y-129468774D01*
X121322769Y-129468774D01*
X121524857Y-129403112D01*
X121714197Y-129306637D01*
X121886099Y-129181744D01*
X121886104Y-129181740D01*
X122036363Y-129031481D01*
X122036367Y-129031476D01*
X122161262Y-128859572D01*
X122213262Y-128757515D01*
X122233586Y-128728686D01*
X122242489Y-128719259D01*
X122302829Y-128684043D01*
X122372634Y-128687038D01*
X122426349Y-128723211D01*
X122432419Y-128730217D01*
X122449182Y-128755112D01*
X122451588Y-128759834D01*
X122576526Y-128931799D01*
X122726856Y-129082129D01*
X122898809Y-129207059D01*
X122898840Y-129207077D01*
X122899082Y-129207199D01*
X123088228Y-129303574D01*
X123290397Y-129369263D01*
X123500353Y-129402517D01*
X123500354Y-129402517D01*
X123712926Y-129402517D01*
X123712927Y-129402517D01*
X123922883Y-129369263D01*
X124125052Y-129303574D01*
X124314456Y-129207068D01*
X124445285Y-129112016D01*
X124447616Y-129110323D01*
X124481999Y-129085342D01*
X124486426Y-129082126D01*
X124486427Y-129082124D01*
X124486485Y-129082082D01*
X124487198Y-129081354D01*
X124636744Y-128931809D01*
X124745844Y-128781643D01*
X124770430Y-128756342D01*
X124781428Y-128747861D01*
X124846531Y-128722511D01*
X124915010Y-128736383D01*
X124915017Y-128736387D01*
X124921199Y-128739649D01*
X124963649Y-128776433D01*
X125024242Y-128859832D01*
X125024242Y-128859833D01*
X125076532Y-128931804D01*
X125076537Y-128931810D01*
X125226856Y-129082129D01*
X125398809Y-129207059D01*
X125398840Y-129207077D01*
X125399082Y-129207199D01*
X125588228Y-129303574D01*
X125790397Y-129369263D01*
X126000353Y-129402517D01*
X126000354Y-129402517D01*
X126212926Y-129402517D01*
X126212927Y-129402517D01*
X126422883Y-129369263D01*
X126625052Y-129303574D01*
X126814456Y-129207068D01*
X126945285Y-129112016D01*
X126947616Y-129110323D01*
X126981999Y-129085342D01*
X126986426Y-129082126D01*
X126986427Y-129082124D01*
X126986485Y-129082082D01*
X126987198Y-129081354D01*
X127136744Y-128931809D01*
X127245844Y-128781643D01*
X127270430Y-128756342D01*
X127281428Y-128747861D01*
X127346531Y-128722511D01*
X127415010Y-128736383D01*
X127415017Y-128736387D01*
X127421199Y-128739649D01*
X127463649Y-128776433D01*
X127524242Y-128859832D01*
X127524242Y-128859833D01*
X127576532Y-128931804D01*
X127576537Y-128931810D01*
X127726856Y-129082129D01*
X127898809Y-129207059D01*
X127898840Y-129207077D01*
X127899082Y-129207199D01*
X128088228Y-129303574D01*
X128290397Y-129369263D01*
X128500353Y-129402517D01*
X128500354Y-129402517D01*
X128712926Y-129402517D01*
X128712927Y-129402517D01*
X128922883Y-129369263D01*
X129125052Y-129303574D01*
X129314456Y-129207068D01*
X129445285Y-129112016D01*
X129447616Y-129110323D01*
X129481999Y-129085342D01*
X129486426Y-129082126D01*
X129486427Y-129082123D01*
X129486430Y-129082121D01*
X129486432Y-129082121D01*
X129486433Y-129082119D01*
X129486487Y-129082080D01*
X129487245Y-129081307D01*
X129636744Y-128931809D01*
X129636746Y-128931805D01*
X129636749Y-128931803D01*
X129636978Y-128931489D01*
X129745843Y-128781646D01*
X129761688Y-128759837D01*
X129761690Y-128759834D01*
X129761691Y-128759833D01*
X129788503Y-128707210D01*
X129788924Y-128706414D01*
X129790046Y-128705261D01*
X129808397Y-128679229D01*
X129817291Y-128669812D01*
X129834108Y-128659997D01*
X129837660Y-128656349D01*
X129842136Y-128655312D01*
X129877635Y-128634593D01*
X129947440Y-128637589D01*
G37*
%TD.AperFunction*%
%TA.AperFunction,Conductor*%
G36*
X120815377Y-123288278D02*
G01*
X120843458Y-123295803D01*
X120975109Y-123295803D01*
X120975110Y-123295803D01*
X121003189Y-123288279D01*
X121073039Y-123289940D01*
X121130902Y-123329102D01*
X121158407Y-123393330D01*
X121159284Y-123408053D01*
X121159284Y-124145803D01*
X121807112Y-124145803D01*
X121807120Y-124145803D01*
X121807131Y-124145802D01*
X121846085Y-124141613D01*
X121866656Y-124139401D01*
X121866663Y-124139399D01*
X122001370Y-124089157D01*
X122001377Y-124089153D01*
X122116471Y-124002993D01*
X122116474Y-124002990D01*
X122202634Y-123887896D01*
X122202638Y-123887889D01*
X122245476Y-123773034D01*
X122262387Y-123742063D01*
X122270706Y-123730950D01*
X122326636Y-123689079D01*
X122346284Y-123687673D01*
X122396326Y-123684092D01*
X122400809Y-123685067D01*
X122462134Y-123718549D01*
X122569500Y-123825915D01*
X122741453Y-123950845D01*
X122741484Y-123950863D01*
X122741726Y-123950985D01*
X122930872Y-124047360D01*
X123133041Y-124113049D01*
X123342997Y-124146303D01*
X123342998Y-124146303D01*
X123555570Y-124146303D01*
X123555571Y-124146303D01*
X123765527Y-124113049D01*
X123967696Y-124047360D01*
X124157100Y-123950854D01*
X124221233Y-123904259D01*
X124329070Y-123825912D01*
X124329072Y-123825909D01*
X124329076Y-123825907D01*
X124329082Y-123825900D01*
X124329132Y-123825865D01*
X124329889Y-123825093D01*
X124479388Y-123675595D01*
X124479390Y-123675591D01*
X124479393Y-123675589D01*
X124604332Y-123503623D01*
X124604331Y-123503623D01*
X124604335Y-123503619D01*
X124604338Y-123503612D01*
X124606333Y-123500867D01*
X124606333Y-123500866D01*
X124606337Y-123500862D01*
X124612356Y-123492578D01*
X124622508Y-123480340D01*
X124625273Y-123477412D01*
X124685609Y-123442184D01*
X124755415Y-123445167D01*
X124812526Y-123485417D01*
X124827957Y-123510449D01*
X125084704Y-124065026D01*
X125320657Y-124574691D01*
X125327310Y-124589060D01*
X125338784Y-124641155D01*
X125338784Y-125330734D01*
X125338783Y-125330736D01*
X125338784Y-125330737D01*
X125333760Y-125365671D01*
X125326348Y-125390912D01*
X125295053Y-125443656D01*
X124049957Y-126688751D01*
X124021702Y-126709903D01*
X124004421Y-126719339D01*
X123943675Y-126734499D01*
X123928642Y-126734339D01*
X123910566Y-126732820D01*
X123813845Y-126717501D01*
X123712927Y-126701517D01*
X123712926Y-126701517D01*
X123500353Y-126701517D01*
X123482838Y-126704290D01*
X123482839Y-126704291D01*
X123290399Y-126734770D01*
X123088220Y-126800462D01*
X122898822Y-126896966D01*
X122898819Y-126896967D01*
X122898819Y-126896968D01*
X122888719Y-126904306D01*
X122726850Y-127021909D01*
X122576532Y-127172227D01*
X122451586Y-127344203D01*
X122399458Y-127446508D01*
X122380592Y-127473272D01*
X122379129Y-127475347D01*
X122370240Y-127484760D01*
X122309900Y-127519986D01*
X122240094Y-127516998D01*
X122186373Y-127480827D01*
X122180298Y-127473816D01*
X122163528Y-127448908D01*
X122161264Y-127444464D01*
X122161259Y-127444456D01*
X122146974Y-127424795D01*
X122036367Y-127272557D01*
X122036366Y-127272555D01*
X122036364Y-127272553D01*
X122036355Y-127272543D01*
X121886110Y-127122298D01*
X121886105Y-127122294D01*
X121886104Y-127122293D01*
X121886099Y-127122289D01*
X121747927Y-127021902D01*
X121714200Y-126997398D01*
X121714199Y-126997397D01*
X121714197Y-126997396D01*
X121524855Y-126900920D01*
X121524851Y-126900918D01*
X121524846Y-126900916D01*
X121322766Y-126835258D01*
X121322767Y-126835258D01*
X121256640Y-126824784D01*
X121256640Y-127539766D01*
X121236955Y-127606805D01*
X121184151Y-127652560D01*
X121114993Y-127662504D01*
X121100548Y-127659541D01*
X121072468Y-127652017D01*
X121072466Y-127652017D01*
X120940814Y-127652017D01*
X120940811Y-127652017D01*
X120912732Y-127659541D01*
X120842882Y-127657878D01*
X120785020Y-127618715D01*
X120757517Y-127554486D01*
X120756640Y-127539766D01*
X120756640Y-126824785D01*
X120756639Y-126824785D01*
X120756635Y-126824785D01*
X120690511Y-126835258D01*
X120488432Y-126900916D01*
X120488424Y-126900919D01*
X120488424Y-126900920D01*
X120402956Y-126944469D01*
X120299078Y-126997398D01*
X120127197Y-127122276D01*
X120127175Y-127122292D01*
X120049413Y-127200055D01*
X120046708Y-127202080D01*
X120021160Y-127221205D01*
X120011236Y-127226624D01*
X119942963Y-127241476D01*
X119877498Y-127217060D01*
X119835627Y-127161126D01*
X119835625Y-127161122D01*
X119832941Y-127153924D01*
X119825128Y-127110604D01*
X119825128Y-124281645D01*
X119830149Y-124246715D01*
X119830963Y-124243944D01*
X119834267Y-124232691D01*
X119843318Y-124218605D01*
X119847748Y-124202460D01*
X119861812Y-124189825D01*
X119872037Y-124173915D01*
X119887653Y-124166613D01*
X119899726Y-124155769D01*
X119933402Y-124145223D01*
X119945903Y-124143197D01*
X119978987Y-124142312D01*
X120011444Y-124145802D01*
X120011447Y-124145802D01*
X120011454Y-124145803D01*
X120011456Y-124145803D01*
X120659284Y-124145803D01*
X120659284Y-123408053D01*
X120678969Y-123341014D01*
X120731773Y-123295259D01*
X120800931Y-123285315D01*
X120815377Y-123288278D01*
G37*
%TD.AperFunction*%
%TA.AperFunction,Conductor*%
G36*
X152237397Y-124592131D02*
G01*
X152293330Y-124634002D01*
X152317748Y-124699466D01*
X152316475Y-124728101D01*
X152316330Y-124728998D01*
X152308482Y-124756656D01*
X152300264Y-124776498D01*
X152300263Y-124776502D01*
X152300257Y-124776527D01*
X152269500Y-124931150D01*
X152269500Y-124931153D01*
X152269500Y-125088846D01*
X152269500Y-125088848D01*
X152269499Y-125088848D01*
X152298199Y-125233125D01*
X152300261Y-125243489D01*
X152300263Y-125243497D01*
X152300264Y-125243500D01*
X152300267Y-125243509D01*
X152305389Y-125255874D01*
X152312443Y-125279127D01*
X152317117Y-125302627D01*
X152319500Y-125326814D01*
X152319500Y-126730870D01*
X152314475Y-126765811D01*
X152310564Y-126779128D01*
X152300593Y-126794640D01*
X152299935Y-126798609D01*
X152293410Y-126805816D01*
X152272787Y-126837904D01*
X152258428Y-126844460D01*
X152253045Y-126850408D01*
X152234332Y-126855464D01*
X152209234Y-126866925D01*
X152205930Y-126867400D01*
X152193844Y-126866403D01*
X152185594Y-126868633D01*
X152150776Y-126862853D01*
X152148898Y-126862257D01*
X152130112Y-126854551D01*
X152024855Y-126800919D01*
X152024849Y-126800917D01*
X151822766Y-126735258D01*
X151822767Y-126735258D01*
X151756640Y-126724784D01*
X151756640Y-127439766D01*
X151736955Y-127506805D01*
X151684151Y-127552560D01*
X151614993Y-127562504D01*
X151600548Y-127559541D01*
X151572468Y-127552017D01*
X151572466Y-127552017D01*
X151440814Y-127552017D01*
X151440811Y-127552017D01*
X151412732Y-127559541D01*
X151342882Y-127557878D01*
X151285020Y-127518715D01*
X151257517Y-127454486D01*
X151256640Y-127439766D01*
X151256640Y-126724785D01*
X151256639Y-126724785D01*
X151256635Y-126724785D01*
X151190511Y-126735258D01*
X150988432Y-126800916D01*
X150988424Y-126800919D01*
X150988424Y-126800920D01*
X150921993Y-126834769D01*
X150799078Y-126897398D01*
X150627197Y-127022276D01*
X150627168Y-127022298D01*
X150476923Y-127172543D01*
X150476914Y-127172553D01*
X150476912Y-127172555D01*
X150476907Y-127172562D01*
X150367747Y-127322808D01*
X150367747Y-127322810D01*
X150343149Y-127348120D01*
X150332157Y-127356596D01*
X150267048Y-127381945D01*
X150198570Y-127368069D01*
X150198562Y-127368065D01*
X150192381Y-127364803D01*
X150149938Y-127328023D01*
X150036753Y-127172236D01*
X150036748Y-127172229D01*
X150036746Y-127172227D01*
X149975123Y-127110604D01*
X149896021Y-127031502D01*
X149879860Y-127011589D01*
X149868765Y-126994586D01*
X149848615Y-126927685D01*
X149865748Y-126863925D01*
X149871660Y-126853880D01*
X149890836Y-126829107D01*
X151895371Y-124824572D01*
X151908735Y-124812993D01*
X151929769Y-124797248D01*
X152106386Y-124620629D01*
X152167705Y-124587147D01*
X152237397Y-124592131D01*
G37*
%TD.AperFunction*%
%TA.AperFunction,Conductor*%
G36*
X139517370Y-94782882D02*
G01*
X139540862Y-94787554D01*
X139564130Y-94794612D01*
X139576502Y-94799737D01*
X139576509Y-94799738D01*
X139576511Y-94799739D01*
X139723528Y-94828982D01*
X139726252Y-94829704D01*
X139731155Y-94830500D01*
X139888844Y-94830500D01*
X139892101Y-94830500D01*
X139896849Y-94828974D01*
X139898801Y-94828518D01*
X140043497Y-94799737D01*
X140070970Y-94788356D01*
X140080862Y-94786049D01*
X140084954Y-94786280D01*
X140095767Y-94783519D01*
X140109578Y-94782034D01*
X140178333Y-94794441D01*
X140229461Y-94842038D01*
X140232135Y-94846545D01*
X140249500Y-94909828D01*
X140249500Y-118964322D01*
X140244487Y-118999222D01*
X140240557Y-119012607D01*
X140240540Y-119012678D01*
X140240046Y-119014363D01*
X140223423Y-119040244D01*
X140206475Y-119068269D01*
X140207016Y-119068829D01*
X140202480Y-119073205D01*
X140140580Y-119105581D01*
X140075863Y-119118455D01*
X140052839Y-119123035D01*
X140052834Y-119123036D01*
X140038292Y-119125928D01*
X140026267Y-119127712D01*
X140014193Y-119128902D01*
X140002031Y-119129500D01*
X137826815Y-119129500D01*
X137802627Y-119127117D01*
X137782102Y-119123035D01*
X137779131Y-119122444D01*
X137756225Y-119115533D01*
X137755700Y-119115317D01*
X137743497Y-119110263D01*
X137743493Y-119110262D01*
X137743488Y-119110260D01*
X137743286Y-119110219D01*
X137743282Y-119110218D01*
X137588849Y-119079500D01*
X137588845Y-119079500D01*
X137588842Y-119079500D01*
X137431158Y-119079500D01*
X137431155Y-119079500D01*
X137431153Y-119079500D01*
X137276527Y-119110257D01*
X137276496Y-119110264D01*
X137130833Y-119170598D01*
X137130824Y-119170603D01*
X137130807Y-119170613D01*
X136999708Y-119258211D01*
X136999707Y-119258212D01*
X136999701Y-119258217D01*
X136888217Y-119369701D01*
X136888212Y-119369707D01*
X136888211Y-119369708D01*
X136800613Y-119500807D01*
X136800603Y-119500824D01*
X136800598Y-119500833D01*
X136740264Y-119646496D01*
X136740257Y-119646527D01*
X136709500Y-119801150D01*
X136709500Y-119801153D01*
X136709500Y-119958846D01*
X136709500Y-119958848D01*
X136709499Y-119958848D01*
X136740257Y-120113471D01*
X136740264Y-120113502D01*
X136800598Y-120259165D01*
X136800603Y-120259174D01*
X136800613Y-120259191D01*
X136888211Y-120390290D01*
X136888212Y-120390291D01*
X136888217Y-120390297D01*
X136999701Y-120501781D01*
X136999707Y-120501786D01*
X136999711Y-120501789D01*
X137130814Y-120589390D01*
X137130827Y-120589397D01*
X137230060Y-120630500D01*
X137276503Y-120649737D01*
X137276505Y-120649737D01*
X137276510Y-120649739D01*
X137360279Y-120666401D01*
X137431153Y-120680499D01*
X137431156Y-120680500D01*
X137431158Y-120680500D01*
X137588844Y-120680500D01*
X137588845Y-120680499D01*
X137665152Y-120665320D01*
X137665153Y-120665320D01*
X137690125Y-120660352D01*
X137743488Y-120649739D01*
X137743489Y-120649738D01*
X137743497Y-120649737D01*
X137743501Y-120649734D01*
X137744697Y-120649497D01*
X137749100Y-120647416D01*
X137755872Y-120644611D01*
X137779134Y-120637554D01*
X137802627Y-120632881D01*
X137826815Y-120630500D01*
X139888711Y-120630500D01*
X139905426Y-120631632D01*
X139908732Y-120632081D01*
X139917941Y-120633335D01*
X139948669Y-120641639D01*
X140016503Y-120669737D01*
X140135701Y-120693447D01*
X140141035Y-120695546D01*
X140144338Y-120695488D01*
X140175552Y-120709130D01*
X140176698Y-120709581D01*
X140184566Y-120714472D01*
X140184862Y-120714626D01*
X140186974Y-120715932D01*
X140208920Y-120740374D01*
X140229072Y-120761296D01*
X140229933Y-120760806D01*
X140233250Y-120766630D01*
X140233565Y-120767821D01*
X140233654Y-120767920D01*
X140233752Y-120768526D01*
X140249500Y-120827998D01*
X140249500Y-124209003D01*
X140249499Y-124209007D01*
X140249500Y-124209010D01*
X140244475Y-124243944D01*
X140240564Y-124257261D01*
X140202787Y-124316037D01*
X140139237Y-124345058D01*
X140128339Y-124346625D01*
X140086499Y-124345504D01*
X139980907Y-124324500D01*
X139980905Y-124324500D01*
X139980902Y-124324500D01*
X139823218Y-124324500D01*
X139823215Y-124324500D01*
X139823213Y-124324500D01*
X139668587Y-124355257D01*
X139668556Y-124355264D01*
X139522893Y-124415598D01*
X139522884Y-124415603D01*
X139522857Y-124415619D01*
X139406013Y-124493691D01*
X139406012Y-124493694D01*
X139374175Y-124508927D01*
X139342538Y-124518834D01*
X139305482Y-124524500D01*
X139135927Y-124524500D01*
X139022238Y-124547115D01*
X139022233Y-124547115D01*
X139022234Y-124547116D01*
X139010255Y-124549498D01*
X138891873Y-124598533D01*
X138891864Y-124598538D01*
X138785331Y-124669721D01*
X138785315Y-124669736D01*
X137544788Y-125910264D01*
X137522067Y-125927274D01*
X137516538Y-125931413D01*
X137506611Y-125936834D01*
X137438338Y-125951688D01*
X137372873Y-125927274D01*
X137331000Y-125871342D01*
X137328313Y-125864136D01*
X137320500Y-125820816D01*
X137320500Y-122280926D01*
X137295262Y-122154056D01*
X137293173Y-122149638D01*
X137292306Y-122147545D01*
X137289927Y-122141801D01*
X137250897Y-122047572D01*
X137250895Y-122047569D01*
X137246465Y-122036873D01*
X137246462Y-122036869D01*
X137246001Y-122036060D01*
X137244587Y-122034063D01*
X137241050Y-122028770D01*
X137175278Y-121930333D01*
X137175272Y-121930326D01*
X136369421Y-121124475D01*
X136348274Y-121096224D01*
X136335667Y-121073135D01*
X136320500Y-121013710D01*
X136320500Y-109705925D01*
X136295262Y-109579053D01*
X136293177Y-109574645D01*
X136259801Y-109494070D01*
X136259800Y-109494066D01*
X136246468Y-109461878D01*
X136246466Y-109461875D01*
X136246466Y-109461874D01*
X136175277Y-109355331D01*
X136175272Y-109355325D01*
X136175259Y-109355311D01*
X136029426Y-109209478D01*
X136008275Y-109181224D01*
X135995668Y-109158136D01*
X135980500Y-109098709D01*
X135980500Y-96986932D01*
X135985522Y-96951999D01*
X135987632Y-96944814D01*
X135989433Y-96938680D01*
X135999385Y-96923194D01*
X136000039Y-96919244D01*
X136006550Y-96912044D01*
X136027206Y-96879903D01*
X136041540Y-96873356D01*
X136046906Y-96867424D01*
X136065624Y-96862357D01*
X136090758Y-96850878D01*
X136094070Y-96850402D01*
X136106127Y-96851393D01*
X136114348Y-96849168D01*
X136149168Y-96854931D01*
X136151054Y-96855529D01*
X136169883Y-96863248D01*
X136270968Y-96914755D01*
X136465582Y-96977990D01*
X136667683Y-97010000D01*
X136872316Y-97010000D01*
X136872317Y-97010000D01*
X137074417Y-96977990D01*
X137269031Y-96914755D01*
X137371868Y-96862357D01*
X137451347Y-96821860D01*
X137451346Y-96821860D01*
X137451349Y-96821859D01*
X137495921Y-96789474D01*
X136952945Y-96246498D01*
X136919460Y-96185175D01*
X136924444Y-96115483D01*
X136966316Y-96059550D01*
X136978618Y-96051434D01*
X137015606Y-96030080D01*
X137090080Y-95955606D01*
X137111430Y-95918625D01*
X137161995Y-95870411D01*
X137230602Y-95857187D01*
X137295467Y-95883154D01*
X137306498Y-95892945D01*
X137849473Y-96435920D01*
X137849474Y-96435921D01*
X137881859Y-96391349D01*
X137974755Y-96209031D01*
X138037990Y-96014417D01*
X138070000Y-95812317D01*
X138070000Y-95607682D01*
X138037990Y-95405582D01*
X137974755Y-95210968D01*
X137974753Y-95210965D01*
X137974753Y-95210963D01*
X137922789Y-95108979D01*
X137881857Y-95028646D01*
X137855089Y-94991804D01*
X137838622Y-94960594D01*
X137834271Y-94948400D01*
X137830281Y-94878644D01*
X137864638Y-94817805D01*
X137921253Y-94786363D01*
X137930253Y-94784134D01*
X137960057Y-94780500D01*
X139493183Y-94780500D01*
X139517370Y-94782882D01*
G37*
%TD.AperFunction*%
%TA.AperFunction,Conductor*%
G36*
X162648084Y-60825556D02*
G01*
X162651848Y-60825669D01*
X162655575Y-60825837D01*
X162940069Y-60843045D01*
X162947505Y-60843721D01*
X162954951Y-60844625D01*
X162962324Y-60845747D01*
X163237134Y-60896108D01*
X163244431Y-60897675D01*
X163251691Y-60899465D01*
X163251703Y-60899468D01*
X163258909Y-60901477D01*
X163525613Y-60984586D01*
X163532663Y-60987018D01*
X163539671Y-60989675D01*
X163546567Y-60992532D01*
X163801322Y-61107188D01*
X163808048Y-61110464D01*
X163814684Y-61113947D01*
X163821191Y-61117617D01*
X164060260Y-61262137D01*
X164066534Y-61266194D01*
X164072686Y-61270440D01*
X164078711Y-61274872D01*
X164298621Y-61447161D01*
X164304379Y-61451960D01*
X164309984Y-61456926D01*
X164315434Y-61462057D01*
X164512941Y-61659564D01*
X164518072Y-61665014D01*
X164523038Y-61670619D01*
X164527836Y-61676376D01*
X164531620Y-61681206D01*
X164700117Y-61896275D01*
X164704538Y-61902283D01*
X164708817Y-61908483D01*
X164712854Y-61914727D01*
X164857385Y-62153813D01*
X164861057Y-62160324D01*
X164864535Y-62166951D01*
X164867813Y-62173683D01*
X164982456Y-62428407D01*
X164985328Y-62435341D01*
X164987983Y-62442344D01*
X164990421Y-62449412D01*
X165073520Y-62716087D01*
X165075524Y-62723273D01*
X165077322Y-62730566D01*
X165078893Y-62737881D01*
X165129247Y-63012655D01*
X165130373Y-63020051D01*
X165131275Y-63027475D01*
X165131954Y-63034944D01*
X165149160Y-63319384D01*
X165149329Y-63323117D01*
X165149443Y-63326881D01*
X165149500Y-63330635D01*
X165149500Y-64683991D01*
X165144475Y-64718933D01*
X165141247Y-64729924D01*
X165103469Y-64788700D01*
X165039911Y-64817721D01*
X164971156Y-64807956D01*
X164955442Y-64800846D01*
X164933673Y-64788191D01*
X164853474Y-64729924D01*
X164781613Y-64677715D01*
X164781612Y-64677714D01*
X164781610Y-64677713D01*
X164752018Y-64662635D01*
X164724654Y-64648691D01*
X164724653Y-64648691D01*
X164599223Y-64584781D01*
X164404534Y-64521522D01*
X164404532Y-64521521D01*
X164404530Y-64521521D01*
X164404529Y-64521520D01*
X164229995Y-64493878D01*
X164213409Y-64491251D01*
X164202354Y-64489500D01*
X164202352Y-64489500D01*
X163997648Y-64489500D01*
X163997645Y-64489500D01*
X163971279Y-64493676D01*
X163959599Y-64495526D01*
X163795468Y-64521522D01*
X163793902Y-64522031D01*
X163789192Y-64523561D01*
X163779917Y-64525087D01*
X163775617Y-64524557D01*
X163763328Y-64526681D01*
X163746270Y-64527168D01*
X163680988Y-64510754D01*
X163669446Y-64504127D01*
X163643508Y-64484273D01*
X163186236Y-64027001D01*
X163186231Y-64026996D01*
X163165084Y-63998745D01*
X163156903Y-63983762D01*
X163141890Y-63918153D01*
X163142556Y-63904846D01*
X163148486Y-63872675D01*
X163149219Y-63870420D01*
X163149218Y-63870420D01*
X163149220Y-63870417D01*
X163176015Y-63787951D01*
X163210500Y-63570222D01*
X163210500Y-63349778D01*
X163176015Y-63132049D01*
X163138419Y-63016340D01*
X163107896Y-62922396D01*
X163107895Y-62922393D01*
X163039643Y-62788444D01*
X163039642Y-62788442D01*
X163007818Y-62725983D01*
X163007813Y-62725975D01*
X162959058Y-62658869D01*
X162898050Y-62574898D01*
X162878247Y-62547641D01*
X162878243Y-62547636D01*
X162878240Y-62547633D01*
X162878237Y-62547629D01*
X162722369Y-62391761D01*
X162722364Y-62391757D01*
X162722363Y-62391756D01*
X162722358Y-62391752D01*
X162655994Y-62343536D01*
X162554630Y-62269891D01*
X162554618Y-62269883D01*
X162544025Y-62262187D01*
X162544024Y-62262186D01*
X162544022Y-62262185D01*
X162537909Y-62259070D01*
X162537898Y-62259063D01*
X162481098Y-62230123D01*
X162481096Y-62230122D01*
X162347606Y-62162104D01*
X162347602Y-62162102D01*
X162347579Y-62162094D01*
X162137954Y-62093985D01*
X162137955Y-62093985D01*
X162029086Y-62076742D01*
X161920227Y-62059500D01*
X161920222Y-62059500D01*
X161699778Y-62059500D01*
X161699774Y-62059500D01*
X161652582Y-62066975D01*
X161627201Y-62070995D01*
X161482043Y-62093985D01*
X161272419Y-62162094D01*
X161272396Y-62162102D01*
X161272392Y-62162104D01*
X161075972Y-62262187D01*
X160897658Y-62391739D01*
X160897629Y-62391761D01*
X160859685Y-62429705D01*
X160859684Y-62429708D01*
X160831430Y-62450859D01*
X160819248Y-62457511D01*
X160750975Y-62472363D01*
X160685511Y-62447947D01*
X160685507Y-62447944D01*
X160681835Y-62445195D01*
X160639967Y-62389265D01*
X160613354Y-62317913D01*
X160613350Y-62317906D01*
X160527190Y-62202812D01*
X160527187Y-62202809D01*
X160527185Y-62202807D01*
X160461717Y-62153798D01*
X160412093Y-62116649D01*
X160412088Y-62116646D01*
X160412089Y-62116646D01*
X160277377Y-62066402D01*
X160277370Y-62066400D01*
X160217852Y-62060000D01*
X160217844Y-62060000D01*
X159520000Y-62060000D01*
X159520000Y-62899513D01*
X159500315Y-62966552D01*
X159447511Y-63012307D01*
X159378353Y-63022251D01*
X159363907Y-63019288D01*
X159329244Y-63010000D01*
X159329243Y-63010000D01*
X159210756Y-63010000D01*
X159176093Y-63019288D01*
X159106243Y-63017625D01*
X159048381Y-62978462D01*
X159020877Y-62914233D01*
X159020000Y-62899513D01*
X159020000Y-62060000D01*
X158322155Y-62060000D01*
X158322146Y-62060000D01*
X158262628Y-62066400D01*
X158262621Y-62066402D01*
X158127910Y-62116646D01*
X158127907Y-62116648D01*
X158012813Y-62202807D01*
X158012807Y-62202813D01*
X157926648Y-62317907D01*
X157926646Y-62317910D01*
X157876402Y-62452621D01*
X157876400Y-62452628D01*
X157870000Y-62512146D01*
X157870000Y-62512155D01*
X157870000Y-63210000D01*
X158709513Y-63210000D01*
X158776552Y-63229685D01*
X158822307Y-63282489D01*
X158832251Y-63351647D01*
X158829288Y-63366092D01*
X158820000Y-63400756D01*
X158820000Y-63519244D01*
X158820628Y-63521588D01*
X158829288Y-63553907D01*
X158827625Y-63623757D01*
X158788462Y-63681619D01*
X158724233Y-63709123D01*
X158709513Y-63710000D01*
X157870000Y-63710000D01*
X157870000Y-64407852D01*
X157876400Y-64467370D01*
X157876402Y-64467377D01*
X157886286Y-64493878D01*
X157910355Y-64558411D01*
X157926646Y-64602088D01*
X157926648Y-64602091D01*
X158012807Y-64717185D01*
X158012809Y-64717187D01*
X158012812Y-64717190D01*
X158127906Y-64803350D01*
X158127913Y-64803354D01*
X158262620Y-64853596D01*
X158262627Y-64853598D01*
X158269468Y-64854333D01*
X158322138Y-64859998D01*
X158322155Y-64859999D01*
X158322172Y-64860000D01*
X159020000Y-64860000D01*
X159020000Y-64020486D01*
X159039685Y-63953447D01*
X159092489Y-63907692D01*
X159161647Y-63897748D01*
X159176086Y-63900710D01*
X159210756Y-63910000D01*
X159329242Y-63910000D01*
X159329244Y-63910000D01*
X159363906Y-63900712D01*
X159433755Y-63902373D01*
X159491618Y-63941535D01*
X159519123Y-64005763D01*
X159520000Y-64020486D01*
X159520000Y-64860000D01*
X160217828Y-64860000D01*
X160217836Y-64860000D01*
X160217847Y-64859999D01*
X160253560Y-64856158D01*
X160277372Y-64853598D01*
X160277379Y-64853596D01*
X160412086Y-64803354D01*
X160412093Y-64803350D01*
X160527187Y-64717190D01*
X160527190Y-64717187D01*
X160613350Y-64602093D01*
X160613354Y-64602086D01*
X160636983Y-64538733D01*
X160653894Y-64507762D01*
X160662213Y-64496649D01*
X160718143Y-64454778D01*
X160787833Y-64449791D01*
X160787836Y-64449791D01*
X160792316Y-64450766D01*
X160853641Y-64484248D01*
X160853646Y-64484253D01*
X160897628Y-64528236D01*
X160897636Y-64528243D01*
X160897660Y-64528261D01*
X161047362Y-64637025D01*
X161047366Y-64637027D01*
X161053192Y-64641260D01*
X161075978Y-64657815D01*
X161162344Y-64701821D01*
X161272393Y-64757895D01*
X161272396Y-64757896D01*
X161306139Y-64768859D01*
X161306140Y-64768860D01*
X161306141Y-64768860D01*
X161482049Y-64826015D01*
X161699778Y-64860500D01*
X161699779Y-64860500D01*
X161920221Y-64860500D01*
X161920222Y-64860500D01*
X162137951Y-64826015D01*
X162161069Y-64818503D01*
X162195825Y-64812489D01*
X162212905Y-64812001D01*
X162278182Y-64828416D01*
X162289727Y-64835045D01*
X162315662Y-64854897D01*
X162793314Y-65332549D01*
X162814465Y-65360802D01*
X162822647Y-65375786D01*
X162826462Y-65392462D01*
X162834389Y-65406269D01*
X162837660Y-65441411D01*
X162836995Y-65454700D01*
X162832225Y-65480623D01*
X162832660Y-65480728D01*
X162831521Y-65485472D01*
X162799500Y-65687642D01*
X162799500Y-65892356D01*
X162831521Y-66094530D01*
X162831522Y-66094534D01*
X162847340Y-66143215D01*
X162894780Y-66289221D01*
X162894786Y-66289234D01*
X162987708Y-66471601D01*
X162987715Y-66471613D01*
X163108028Y-66637213D01*
X163252786Y-66781971D01*
X163407749Y-66894556D01*
X163418390Y-66902287D01*
X163534607Y-66961503D01*
X163595154Y-66992353D01*
X163596043Y-66992824D01*
X163596249Y-66993025D01*
X163599629Y-66994662D01*
X163601637Y-66995660D01*
X163605403Y-66996722D01*
X163645488Y-67009746D01*
X163705135Y-67029126D01*
X163705136Y-67029127D01*
X163748612Y-67043253D01*
X163795465Y-67058477D01*
X163896557Y-67074488D01*
X163997648Y-67090500D01*
X163997649Y-67090500D01*
X164202351Y-67090500D01*
X164202352Y-67090500D01*
X164404534Y-67058477D01*
X164599219Y-66995220D01*
X164781610Y-66902287D01*
X164857718Y-66846991D01*
X164933483Y-66791945D01*
X164955607Y-66779132D01*
X164971636Y-66771941D01*
X165040860Y-66762460D01*
X165104220Y-66791909D01*
X165141485Y-66850539D01*
X165144593Y-66861256D01*
X165149500Y-66895794D01*
X165149500Y-74843991D01*
X165149499Y-74843996D01*
X165149500Y-74843999D01*
X165144475Y-74878933D01*
X165141247Y-74889924D01*
X165103469Y-74948700D01*
X165039911Y-74977721D01*
X164971156Y-74967956D01*
X164955442Y-74960846D01*
X164933673Y-74948191D01*
X164789504Y-74843448D01*
X164789164Y-74843158D01*
X164781603Y-74837707D01*
X164781188Y-74837498D01*
X164724654Y-74808691D01*
X164724653Y-74808691D01*
X164599223Y-74744781D01*
X164404534Y-74681522D01*
X164404532Y-74681521D01*
X164404530Y-74681521D01*
X164404529Y-74681520D01*
X164229995Y-74653878D01*
X164213409Y-74651251D01*
X164202354Y-74649500D01*
X164202352Y-74649500D01*
X163997648Y-74649500D01*
X163997647Y-74649500D01*
X163973327Y-74653351D01*
X163973326Y-74653350D01*
X163795468Y-74681521D01*
X163600777Y-74744780D01*
X163600764Y-74744786D01*
X163418397Y-74837708D01*
X163418385Y-74837715D01*
X163252787Y-74958027D01*
X163252784Y-74958029D01*
X163108029Y-75102784D01*
X163108027Y-75102787D01*
X162987715Y-75268385D01*
X162987708Y-75268397D01*
X162894786Y-75450764D01*
X162894780Y-75450777D01*
X162831521Y-75645468D01*
X162799500Y-75847642D01*
X162799500Y-76052356D01*
X162831521Y-76254530D01*
X162894780Y-76449221D01*
X162894786Y-76449234D01*
X162987708Y-76631601D01*
X162987715Y-76631613D01*
X163108028Y-76797213D01*
X163252786Y-76941971D01*
X163407749Y-77054556D01*
X163418390Y-77062287D01*
X163534607Y-77121503D01*
X163595154Y-77152353D01*
X163596043Y-77152824D01*
X163596249Y-77153025D01*
X163599629Y-77154662D01*
X163601637Y-77155660D01*
X163605403Y-77156722D01*
X163645488Y-77169746D01*
X163705135Y-77189126D01*
X163705136Y-77189127D01*
X163748612Y-77203253D01*
X163795465Y-77218477D01*
X163896557Y-77234488D01*
X163997648Y-77250500D01*
X163997649Y-77250500D01*
X164202351Y-77250500D01*
X164202352Y-77250500D01*
X164404534Y-77218477D01*
X164599219Y-77155220D01*
X164781610Y-77062287D01*
X164857718Y-77006991D01*
X164933483Y-76951945D01*
X164955607Y-76939132D01*
X164971636Y-76931941D01*
X165040860Y-76922460D01*
X165104220Y-76951909D01*
X165141485Y-77010539D01*
X165144593Y-77021256D01*
X165149500Y-77055794D01*
X165149500Y-121234938D01*
X165149499Y-121234944D01*
X165149500Y-121234947D01*
X165144475Y-121269882D01*
X165140070Y-121284880D01*
X165102327Y-121343623D01*
X165102292Y-121343653D01*
X165102291Y-121343655D01*
X165102289Y-121343655D01*
X165100958Y-121344810D01*
X165046097Y-121372286D01*
X165038539Y-121373931D01*
X165012168Y-121376768D01*
X163456050Y-121376768D01*
X163454119Y-121376927D01*
X163452472Y-121377153D01*
X163396443Y-121383176D01*
X163278058Y-121427331D01*
X163261593Y-121433472D01*
X163261592Y-121433473D01*
X163146383Y-121519718D01*
X163146377Y-121519724D01*
X163060135Y-121634929D01*
X163060127Y-121634941D01*
X163017346Y-121749645D01*
X163017345Y-121749646D01*
X163017345Y-121749647D01*
X163000430Y-121780623D01*
X162992113Y-121791733D01*
X162936179Y-121833604D01*
X162866495Y-121838589D01*
X162866489Y-121838587D01*
X162866488Y-121838588D01*
X162866486Y-121838587D01*
X162862012Y-121837614D01*
X162800687Y-121804132D01*
X162693715Y-121697160D01*
X162693713Y-121697158D01*
X162521747Y-121572219D01*
X162472886Y-121547323D01*
X162354172Y-121486835D01*
X162354167Y-121486833D01*
X162332341Y-121475712D01*
X162332340Y-121475711D01*
X162332339Y-121475711D01*
X162223445Y-121440329D01*
X162139001Y-121412891D01*
X162134479Y-121411038D01*
X162125289Y-121408868D01*
X162120526Y-121408494D01*
X161968884Y-121384476D01*
X161949416Y-121381392D01*
X161920217Y-121376768D01*
X161920214Y-121376768D01*
X161707640Y-121376768D01*
X161707636Y-121376768D01*
X161668703Y-121382934D01*
X161658969Y-121384476D01*
X161621581Y-121390397D01*
X161497690Y-121410020D01*
X161295509Y-121475713D01*
X161106109Y-121572217D01*
X161106106Y-121572218D01*
X161106106Y-121572219D01*
X161083543Y-121588612D01*
X160934137Y-121697160D01*
X160783813Y-121847484D01*
X160658870Y-122019455D01*
X160658115Y-122020689D01*
X160642540Y-122041036D01*
X160632997Y-122051140D01*
X160572655Y-122086362D01*
X160502849Y-122083368D01*
X160449136Y-122047199D01*
X160443035Y-122040158D01*
X160431023Y-122023749D01*
X160428550Y-122019713D01*
X160303658Y-121847813D01*
X160303653Y-121847806D01*
X160303651Y-121847804D01*
X160303642Y-121847794D01*
X160153397Y-121697549D01*
X160153392Y-121697545D01*
X160153391Y-121697544D01*
X160153386Y-121697540D01*
X160003458Y-121588612D01*
X159981487Y-121572649D01*
X159981486Y-121572648D01*
X159981484Y-121572647D01*
X159792142Y-121476171D01*
X159792138Y-121476169D01*
X159792133Y-121476167D01*
X159590053Y-121410509D01*
X159590054Y-121410509D01*
X159523927Y-121400035D01*
X159523927Y-122115017D01*
X159504242Y-122182056D01*
X159451438Y-122227811D01*
X159382280Y-122237755D01*
X159367835Y-122234792D01*
X159339755Y-122227268D01*
X159339753Y-122227268D01*
X159208101Y-122227268D01*
X159208098Y-122227268D01*
X159180019Y-122234792D01*
X159110169Y-122233129D01*
X159052307Y-122193966D01*
X159024804Y-122129737D01*
X159023927Y-122115017D01*
X159023927Y-121400036D01*
X159023926Y-121400036D01*
X159023922Y-121400036D01*
X158957798Y-121410509D01*
X158755719Y-121476167D01*
X158755711Y-121476170D01*
X158755711Y-121476171D01*
X158670243Y-121519720D01*
X158566365Y-121572649D01*
X158394484Y-121697527D01*
X158394455Y-121697549D01*
X158244208Y-121847796D01*
X158244203Y-121847803D01*
X158244199Y-121847808D01*
X158230244Y-121867016D01*
X158119300Y-122019716D01*
X158118752Y-122020611D01*
X158116759Y-122023213D01*
X158116441Y-122023652D01*
X158116430Y-122023644D01*
X158103178Y-122040954D01*
X158093554Y-122051143D01*
X158033210Y-122086363D01*
X157963405Y-122083367D01*
X157909696Y-122047199D01*
X157903605Y-122040169D01*
X157891336Y-122023333D01*
X157889480Y-122020276D01*
X157889029Y-122019520D01*
X157764039Y-121847484D01*
X157613715Y-121697160D01*
X157613713Y-121697158D01*
X157441747Y-121572219D01*
X157392886Y-121547323D01*
X157274172Y-121486835D01*
X157274167Y-121486833D01*
X157252341Y-121475712D01*
X157252340Y-121475711D01*
X157252339Y-121475711D01*
X157143445Y-121440329D01*
X157059001Y-121412891D01*
X157054479Y-121411038D01*
X157045289Y-121408868D01*
X157040526Y-121408494D01*
X156888884Y-121384476D01*
X156869416Y-121381392D01*
X156840217Y-121376768D01*
X156840214Y-121376768D01*
X156627640Y-121376768D01*
X156627636Y-121376768D01*
X156588703Y-121382934D01*
X156578969Y-121384476D01*
X156541581Y-121390397D01*
X156417690Y-121410020D01*
X156215509Y-121475713D01*
X156026109Y-121572217D01*
X156026106Y-121572218D01*
X156026106Y-121572219D01*
X156003543Y-121588612D01*
X155854137Y-121697160D01*
X155703819Y-121847478D01*
X155678385Y-121882486D01*
X155578879Y-122019447D01*
X155578872Y-122019456D01*
X155578561Y-122019964D01*
X155577426Y-122021445D01*
X155576012Y-122023393D01*
X155575963Y-122023357D01*
X155562987Y-122040309D01*
X155553280Y-122050587D01*
X155492938Y-122085810D01*
X155423132Y-122082818D01*
X155369415Y-122046646D01*
X155363212Y-122039487D01*
X155351201Y-122023079D01*
X155348980Y-122019455D01*
X155348978Y-122019452D01*
X155348977Y-122019450D01*
X155224036Y-121847481D01*
X155073713Y-121697158D01*
X154901747Y-121572219D01*
X154852886Y-121547323D01*
X154734172Y-121486835D01*
X154734167Y-121486833D01*
X154712341Y-121475712D01*
X154712340Y-121475711D01*
X154712339Y-121475711D01*
X154603445Y-121440329D01*
X154519001Y-121412891D01*
X154514479Y-121411038D01*
X154505289Y-121408868D01*
X154500526Y-121408494D01*
X154348884Y-121384476D01*
X154329416Y-121381392D01*
X154300217Y-121376768D01*
X154300214Y-121376768D01*
X154087640Y-121376768D01*
X154087636Y-121376768D01*
X154048703Y-121382934D01*
X154038969Y-121384476D01*
X154001581Y-121390397D01*
X153877690Y-121410020D01*
X153675509Y-121475713D01*
X153486109Y-121572217D01*
X153486106Y-121572218D01*
X153486106Y-121572219D01*
X153463543Y-121588612D01*
X153314137Y-121697160D01*
X153163819Y-121847478D01*
X153138385Y-121882486D01*
X153038879Y-122019447D01*
X153038872Y-122019456D01*
X153038561Y-122019964D01*
X153037426Y-122021445D01*
X153036012Y-122023393D01*
X153035963Y-122023357D01*
X153022987Y-122040309D01*
X153013280Y-122050587D01*
X152952938Y-122085810D01*
X152883132Y-122082818D01*
X152829415Y-122046646D01*
X152823212Y-122039487D01*
X152811201Y-122023079D01*
X152808980Y-122019455D01*
X152808978Y-122019452D01*
X152808977Y-122019450D01*
X152684036Y-121847481D01*
X152533713Y-121697158D01*
X152361747Y-121572219D01*
X152312886Y-121547323D01*
X152194172Y-121486835D01*
X152194167Y-121486833D01*
X152172341Y-121475712D01*
X152172340Y-121475711D01*
X152172339Y-121475711D01*
X152063445Y-121440329D01*
X151979001Y-121412891D01*
X151974479Y-121411038D01*
X151965289Y-121408868D01*
X151960526Y-121408494D01*
X151808884Y-121384476D01*
X151789416Y-121381392D01*
X151760217Y-121376768D01*
X151760214Y-121376768D01*
X151547640Y-121376768D01*
X151547636Y-121376768D01*
X151508703Y-121382934D01*
X151498969Y-121384476D01*
X151461581Y-121390397D01*
X151337690Y-121410020D01*
X151135509Y-121475713D01*
X150946109Y-121572217D01*
X150946106Y-121572218D01*
X150946106Y-121572219D01*
X150923543Y-121588612D01*
X150774137Y-121697160D01*
X150623819Y-121847478D01*
X150598385Y-121882486D01*
X150498879Y-122019447D01*
X150498872Y-122019456D01*
X150498561Y-122019964D01*
X150497426Y-122021445D01*
X150496012Y-122023393D01*
X150495963Y-122023357D01*
X150482987Y-122040309D01*
X150473280Y-122050587D01*
X150412938Y-122085810D01*
X150343132Y-122082818D01*
X150289415Y-122046646D01*
X150283212Y-122039487D01*
X150271201Y-122023079D01*
X150268980Y-122019455D01*
X150268978Y-122019452D01*
X150268977Y-122019450D01*
X150144036Y-121847481D01*
X149993713Y-121697158D01*
X149821747Y-121572219D01*
X149772886Y-121547323D01*
X149654172Y-121486835D01*
X149654167Y-121486833D01*
X149632341Y-121475712D01*
X149632340Y-121475711D01*
X149632339Y-121475711D01*
X149523445Y-121440329D01*
X149439001Y-121412891D01*
X149434479Y-121411038D01*
X149425289Y-121408868D01*
X149420526Y-121408494D01*
X149268884Y-121384476D01*
X149249416Y-121381392D01*
X149220217Y-121376768D01*
X149220214Y-121376768D01*
X149007640Y-121376768D01*
X149007636Y-121376768D01*
X148968703Y-121382934D01*
X148958969Y-121384476D01*
X148921581Y-121390397D01*
X148797690Y-121410020D01*
X148595509Y-121475713D01*
X148406109Y-121572217D01*
X148406106Y-121572218D01*
X148406106Y-121572219D01*
X148383543Y-121588612D01*
X148234137Y-121697160D01*
X148083819Y-121847478D01*
X148058385Y-121882486D01*
X147958879Y-122019447D01*
X147958872Y-122019456D01*
X147958561Y-122019964D01*
X147957426Y-122021445D01*
X147956012Y-122023393D01*
X147955963Y-122023357D01*
X147942987Y-122040309D01*
X147933280Y-122050587D01*
X147872938Y-122085810D01*
X147803132Y-122082818D01*
X147749415Y-122046646D01*
X147743212Y-122039487D01*
X147731201Y-122023079D01*
X147728980Y-122019455D01*
X147728978Y-122019452D01*
X147728977Y-122019450D01*
X147604036Y-121847481D01*
X147453713Y-121697158D01*
X147281747Y-121572219D01*
X147232886Y-121547323D01*
X147114172Y-121486835D01*
X147114167Y-121486833D01*
X147092341Y-121475712D01*
X147092340Y-121475711D01*
X147092339Y-121475711D01*
X146983445Y-121440329D01*
X146899001Y-121412891D01*
X146894479Y-121411038D01*
X146885289Y-121408868D01*
X146880526Y-121408494D01*
X146728884Y-121384476D01*
X146709416Y-121381392D01*
X146680217Y-121376768D01*
X146680214Y-121376768D01*
X146467640Y-121376768D01*
X146467636Y-121376768D01*
X146428703Y-121382934D01*
X146418969Y-121384476D01*
X146381581Y-121390397D01*
X146257690Y-121410020D01*
X146055509Y-121475713D01*
X145866109Y-121572217D01*
X145866106Y-121572218D01*
X145866106Y-121572219D01*
X145843543Y-121588612D01*
X145694137Y-121697160D01*
X145543819Y-121847478D01*
X145518385Y-121882486D01*
X145418879Y-122019447D01*
X145418872Y-122019456D01*
X145418561Y-122019964D01*
X145417426Y-122021445D01*
X145416012Y-122023393D01*
X145415963Y-122023357D01*
X145402987Y-122040309D01*
X145393280Y-122050587D01*
X145332938Y-122085810D01*
X145263132Y-122082818D01*
X145209415Y-122046646D01*
X145203212Y-122039487D01*
X145191201Y-122023079D01*
X145188980Y-122019455D01*
X145188978Y-122019452D01*
X145188977Y-122019450D01*
X145064036Y-121847481D01*
X144913713Y-121697158D01*
X144741747Y-121572219D01*
X144692886Y-121547323D01*
X144574172Y-121486835D01*
X144574167Y-121486833D01*
X144552341Y-121475712D01*
X144552340Y-121475711D01*
X144552339Y-121475711D01*
X144443445Y-121440329D01*
X144359001Y-121412891D01*
X144354479Y-121411038D01*
X144345289Y-121408868D01*
X144340526Y-121408494D01*
X144188884Y-121384476D01*
X144169416Y-121381392D01*
X144140217Y-121376768D01*
X144140214Y-121376768D01*
X143927640Y-121376768D01*
X143927636Y-121376768D01*
X143888703Y-121382934D01*
X143878969Y-121384476D01*
X143841581Y-121390397D01*
X143717690Y-121410020D01*
X143515509Y-121475713D01*
X143326109Y-121572217D01*
X143326106Y-121572218D01*
X143326106Y-121572219D01*
X143303543Y-121588612D01*
X143154137Y-121697160D01*
X143003819Y-121847478D01*
X142878876Y-122019450D01*
X142782372Y-122208848D01*
X142716679Y-122411027D01*
X142683427Y-122620975D01*
X142683427Y-122833559D01*
X142710042Y-123001598D01*
X142716680Y-123043511D01*
X142727579Y-123077052D01*
X142738369Y-123110262D01*
X142738949Y-123112045D01*
X142782372Y-123245686D01*
X142817280Y-123314195D01*
X142825590Y-123334940D01*
X142830185Y-123350297D01*
X142830187Y-123350302D01*
X143244624Y-124245496D01*
X143254926Y-124314602D01*
X143226230Y-124378307D01*
X143219779Y-124385272D01*
X141766179Y-125838873D01*
X141753682Y-125846344D01*
X141746237Y-125855055D01*
X141737929Y-125860022D01*
X141728002Y-125865443D01*
X141718157Y-125867584D01*
X141714232Y-125869932D01*
X141703489Y-125873165D01*
X141692160Y-125873241D01*
X141659729Y-125880297D01*
X141641716Y-125873579D01*
X141633620Y-125873634D01*
X141621809Y-125866155D01*
X141594264Y-125855883D01*
X141584059Y-125842251D01*
X141574590Y-125836256D01*
X141566432Y-125818707D01*
X141552391Y-125799951D01*
X141552388Y-125799943D01*
X141551572Y-125797755D01*
X141550500Y-125784431D01*
X141545138Y-125772896D01*
X141547930Y-125752499D01*
X141546139Y-125730230D01*
X141550500Y-125708309D01*
X141550500Y-107422364D01*
X147557627Y-107422364D01*
X147557627Y-107658570D01*
X147573928Y-107761487D01*
X147594573Y-107891836D01*
X147667560Y-108116464D01*
X147773561Y-108324501D01*
X147774784Y-108326901D01*
X147913610Y-108517978D01*
X148080617Y-108684985D01*
X148271694Y-108823811D01*
X148371118Y-108874470D01*
X148475687Y-108927751D01*
X148483002Y-108931479D01*
X148486757Y-108932538D01*
X148556630Y-108955241D01*
X148556661Y-108955251D01*
X148706758Y-109004021D01*
X148940030Y-109040968D01*
X148940035Y-109040968D01*
X149176223Y-109040968D01*
X149176224Y-109040968D01*
X149409495Y-109004021D01*
X149447381Y-108991711D01*
X149634119Y-108931036D01*
X149844560Y-108823811D01*
X150035637Y-108684985D01*
X150202644Y-108517978D01*
X150217331Y-108497761D01*
X150241925Y-108472454D01*
X150252919Y-108463977D01*
X150318026Y-108438629D01*
X150386499Y-108452502D01*
X150386505Y-108452505D01*
X150392678Y-108455762D01*
X150435134Y-108492549D01*
X150453605Y-108517972D01*
X150453609Y-108517977D01*
X150453610Y-108517978D01*
X150620617Y-108684985D01*
X150811694Y-108823811D01*
X150911118Y-108874470D01*
X151015687Y-108927751D01*
X151023002Y-108931479D01*
X151026757Y-108932538D01*
X151096630Y-108955241D01*
X151096661Y-108955251D01*
X151246758Y-109004021D01*
X151480030Y-109040968D01*
X151480035Y-109040968D01*
X151716223Y-109040968D01*
X151716224Y-109040968D01*
X151949495Y-109004021D01*
X151987381Y-108991711D01*
X152174119Y-108931036D01*
X152384560Y-108823811D01*
X152575637Y-108684985D01*
X152742644Y-108517978D01*
X152881470Y-108326901D01*
X152988695Y-108116460D01*
X153061680Y-107891836D01*
X153082326Y-107761481D01*
X153098627Y-107658565D01*
X153098627Y-107422370D01*
X153061680Y-107189099D01*
X152988693Y-106964471D01*
X152881469Y-106754034D01*
X152879726Y-106751635D01*
X152742644Y-106562958D01*
X152575637Y-106395951D01*
X152384560Y-106257125D01*
X152174123Y-106149901D01*
X151949495Y-106076914D01*
X151934336Y-106074513D01*
X151782427Y-106050453D01*
X151775734Y-106049204D01*
X151739889Y-106041489D01*
X151739885Y-106041488D01*
X151364746Y-105998573D01*
X151300379Y-105971397D01*
X151260922Y-105913735D01*
X151258903Y-105843894D01*
X151291157Y-105787698D01*
X154640272Y-102438584D01*
X154640277Y-102438579D01*
X154640279Y-102438575D01*
X154640281Y-102438574D01*
X154711459Y-102332046D01*
X154711466Y-102332036D01*
X154760501Y-102213653D01*
X154785500Y-102087979D01*
X154785500Y-101959841D01*
X154785500Y-101759766D01*
X154790522Y-101724833D01*
X154794433Y-101711514D01*
X154832206Y-101652737D01*
X154895758Y-101623712D01*
X154896460Y-101623611D01*
X154956326Y-101629775D01*
X154962611Y-101632053D01*
X154985442Y-101643088D01*
X155020666Y-101664814D01*
X155187203Y-101719999D01*
X155289991Y-101730500D01*
X156890008Y-101730499D01*
X156992797Y-101719999D01*
X157159334Y-101664814D01*
X157308656Y-101572712D01*
X157432712Y-101448656D01*
X157524814Y-101299334D01*
X157579999Y-101132797D01*
X157590500Y-101030009D01*
X157590499Y-100868633D01*
X157595522Y-100833699D01*
X157602932Y-100808462D01*
X157634226Y-100755717D01*
X158285521Y-100104423D01*
X158313771Y-100083275D01*
X158336863Y-100070667D01*
X158396288Y-100055500D01*
X158884802Y-100055500D01*
X158908779Y-100058947D01*
X158919734Y-100060521D01*
X158944978Y-100067934D01*
X158997724Y-100099230D01*
X159345573Y-100447079D01*
X159366723Y-100475331D01*
X159379331Y-100498420D01*
X159394500Y-100557849D01*
X159394500Y-101357451D01*
X159394499Y-101357453D01*
X159394500Y-101357454D01*
X159389476Y-101392388D01*
X159382064Y-101417629D01*
X159350769Y-101470373D01*
X158484954Y-102336189D01*
X157624170Y-103196973D01*
X157474373Y-103346769D01*
X157429230Y-103391912D01*
X157400974Y-103413063D01*
X157387253Y-103420555D01*
X157369833Y-103424344D01*
X157354188Y-103432888D01*
X157318984Y-103435406D01*
X157305405Y-103434435D01*
X157266798Y-103425313D01*
X157237223Y-103413063D01*
X157216596Y-103404519D01*
X157216594Y-103404517D01*
X157158312Y-103380377D01*
X157158310Y-103380376D01*
X157158302Y-103380374D01*
X157158297Y-103380373D01*
X157158284Y-103380370D01*
X156989362Y-103346769D01*
X156989360Y-103346769D01*
X156989358Y-103346769D01*
X156817096Y-103346769D01*
X156817094Y-103346769D01*
X156817092Y-103346769D01*
X156648168Y-103380370D01*
X156648141Y-103380376D01*
X156489008Y-103446289D01*
X156488998Y-103446294D01*
X156488990Y-103446299D01*
X156345768Y-103541997D01*
X156345764Y-103542000D01*
X156345758Y-103542006D01*
X156308332Y-103579431D01*
X156308333Y-103579432D01*
X156301185Y-103586581D01*
X156299657Y-103588109D01*
X156257494Y-103630270D01*
X156250425Y-103637339D01*
X156239557Y-103648207D01*
X156239557Y-103648208D01*
X156160366Y-103727398D01*
X156144764Y-103743001D01*
X156144762Y-103743002D01*
X156144761Y-103743003D01*
X156144759Y-103743005D01*
X156049066Y-103886219D01*
X156049052Y-103886245D01*
X155983139Y-104045377D01*
X155983133Y-104045404D01*
X155949532Y-104214326D01*
X155949532Y-104342227D01*
X155944269Y-104360147D01*
X155983132Y-104555516D01*
X155983139Y-104555547D01*
X156027337Y-104662252D01*
X156027339Y-104662255D01*
X156036067Y-104696453D01*
X156037738Y-104711994D01*
X156025334Y-104780753D01*
X156025332Y-104780755D01*
X156019237Y-104792931D01*
X155996035Y-104825107D01*
X155495868Y-105325274D01*
X155495864Y-105325277D01*
X155430996Y-105422358D01*
X155430964Y-105422409D01*
X155424679Y-105431815D01*
X155424673Y-105431826D01*
X155375643Y-105550194D01*
X155375636Y-105550214D01*
X155375634Y-105550222D01*
X155350641Y-105675872D01*
X155350641Y-105875866D01*
X155330956Y-105942905D01*
X155278152Y-105988660D01*
X155239803Y-105999165D01*
X154868819Y-106038767D01*
X154868818Y-106038768D01*
X154830573Y-106046632D01*
X154824997Y-106047646D01*
X154655363Y-106074513D01*
X154655361Y-106074513D01*
X154655358Y-106074514D01*
X154430730Y-106147501D01*
X154365099Y-106180942D01*
X154220293Y-106254724D01*
X154170733Y-106290733D01*
X154041088Y-106384926D01*
X154033707Y-106389059D01*
X153857718Y-106565048D01*
X153853585Y-106572429D01*
X153802589Y-106642618D01*
X153802588Y-106642617D01*
X153723386Y-106751630D01*
X153723384Y-106751634D01*
X153616160Y-106962071D01*
X153543173Y-107186699D01*
X153543173Y-107186701D01*
X153543172Y-107186704D01*
X153506227Y-107419964D01*
X153506227Y-107656170D01*
X153522908Y-107761487D01*
X153543173Y-107889436D01*
X153616160Y-108114064D01*
X153723384Y-108324501D01*
X153862210Y-108515578D01*
X154029217Y-108682585D01*
X154081243Y-108720384D01*
X154220296Y-108821413D01*
X154228431Y-108825557D01*
X154237748Y-108830304D01*
X154424287Y-108925351D01*
X154425879Y-108926283D01*
X154429592Y-108928082D01*
X154431589Y-108929075D01*
X154435357Y-108930138D01*
X154442744Y-108932538D01*
X154551137Y-108967756D01*
X154551138Y-108967757D01*
X154551139Y-108967757D01*
X154655358Y-109001621D01*
X154888630Y-109038568D01*
X154888635Y-109038568D01*
X155124823Y-109038568D01*
X155124824Y-109038568D01*
X155358095Y-109001621D01*
X155582719Y-108928636D01*
X155793160Y-108821411D01*
X155984237Y-108682585D01*
X156151244Y-108515578D01*
X156165931Y-108495361D01*
X156190525Y-108470054D01*
X156201519Y-108461577D01*
X156266626Y-108436229D01*
X156335099Y-108450102D01*
X156339653Y-108452505D01*
X156341278Y-108453362D01*
X156383734Y-108490149D01*
X156402205Y-108515572D01*
X156402209Y-108515577D01*
X156402210Y-108515578D01*
X156569217Y-108682585D01*
X156621243Y-108720384D01*
X156760296Y-108821413D01*
X156768431Y-108825557D01*
X156777748Y-108830304D01*
X156964287Y-108925351D01*
X156965879Y-108926283D01*
X156969592Y-108928082D01*
X156971589Y-108929075D01*
X156975357Y-108930138D01*
X156982744Y-108932538D01*
X157091137Y-108967756D01*
X157091138Y-108967757D01*
X157091139Y-108967757D01*
X157195358Y-109001621D01*
X157428630Y-109038568D01*
X157428635Y-109038568D01*
X157664823Y-109038568D01*
X157664824Y-109038568D01*
X157898095Y-109001621D01*
X158122719Y-108928636D01*
X158333160Y-108821411D01*
X158524237Y-108682585D01*
X158691244Y-108515578D01*
X158830070Y-108324501D01*
X158937295Y-108114060D01*
X159010280Y-107889436D01*
X159017246Y-107845454D01*
X159047227Y-107656165D01*
X159047227Y-107419970D01*
X159010280Y-107186699D01*
X158964322Y-107045256D01*
X158938796Y-106966695D01*
X158937735Y-106962933D01*
X158936743Y-106960937D01*
X158934944Y-106957223D01*
X158934010Y-106955627D01*
X158880729Y-106851059D01*
X158830070Y-106751635D01*
X158691244Y-106560558D01*
X158524237Y-106393551D01*
X158382721Y-106290733D01*
X158333158Y-106254723D01*
X158318150Y-106247076D01*
X158318150Y-106247077D01*
X158122723Y-106147501D01*
X157898095Y-106074514D01*
X157898089Y-106074513D01*
X157714718Y-106045469D01*
X157705314Y-106043605D01*
X157704307Y-106043364D01*
X157687454Y-106039058D01*
X157685301Y-106038825D01*
X157679247Y-106037380D01*
X157676252Y-106035665D01*
X157654938Y-106028821D01*
X157649881Y-106026424D01*
X157631524Y-106010054D01*
X157618613Y-106002662D01*
X157614616Y-105994977D01*
X157597733Y-105979922D01*
X157587317Y-105942485D01*
X157586375Y-105940674D01*
X157586483Y-105939490D01*
X157579005Y-105912610D01*
X157596804Y-105850343D01*
X157601590Y-105842406D01*
X157620093Y-105818760D01*
X161100276Y-102338580D01*
X161171465Y-102232037D01*
X161220501Y-102113654D01*
X161225608Y-102087979D01*
X161245500Y-101987979D01*
X161245500Y-99934671D01*
X161245500Y-99934668D01*
X161245500Y-99934665D01*
X161232758Y-99870612D01*
X161220502Y-99809002D01*
X161220501Y-99808996D01*
X161192841Y-99742218D01*
X161171466Y-99690614D01*
X161159148Y-99672179D01*
X161100278Y-99584072D01*
X161100272Y-99584065D01*
X160484589Y-98968382D01*
X159865937Y-98349729D01*
X159865925Y-98349720D01*
X159813378Y-98314610D01*
X159759387Y-98278535D01*
X159748000Y-98273818D01*
X159641002Y-98229498D01*
X159635188Y-98228342D01*
X159633212Y-98227949D01*
X159624697Y-98226255D01*
X159624694Y-98226254D01*
X159515332Y-98204500D01*
X159515331Y-98204500D01*
X159515329Y-98204500D01*
X158403637Y-98204500D01*
X158403636Y-98204499D01*
X158403636Y-98204500D01*
X158368701Y-98199477D01*
X158343459Y-98192065D01*
X158290714Y-98160769D01*
X157512369Y-97382422D01*
X157499732Y-97367627D01*
X157495342Y-97361585D01*
X157488398Y-97352027D01*
X157478233Y-97335439D01*
X157473770Y-97326679D01*
X157395051Y-97172184D01*
X157395049Y-97172181D01*
X157395048Y-97172179D01*
X157394702Y-97171703D01*
X157394700Y-97171699D01*
X157270112Y-97000216D01*
X157119788Y-96849892D01*
X157119786Y-96849890D01*
X156947820Y-96724951D01*
X156873902Y-96687288D01*
X156780245Y-96639567D01*
X156780240Y-96639565D01*
X156758414Y-96628444D01*
X156758413Y-96628443D01*
X156758412Y-96628443D01*
X156656055Y-96595185D01*
X156565074Y-96565623D01*
X156560552Y-96563770D01*
X156551362Y-96561600D01*
X156546599Y-96561226D01*
X156430307Y-96542807D01*
X156394957Y-96537208D01*
X156375489Y-96534124D01*
X156346290Y-96529500D01*
X156346287Y-96529500D01*
X155833713Y-96529500D01*
X155833709Y-96529500D01*
X155794776Y-96535666D01*
X155785042Y-96537208D01*
X155767061Y-96540056D01*
X155623763Y-96562752D01*
X155421582Y-96628445D01*
X155232182Y-96724949D01*
X155232179Y-96724950D01*
X155232179Y-96724951D01*
X155227078Y-96728657D01*
X155060210Y-96849892D01*
X154909892Y-97000210D01*
X154880682Y-97040415D01*
X154787687Y-97168414D01*
X154784949Y-97172182D01*
X154688445Y-97361582D01*
X154622752Y-97563762D01*
X154600377Y-97705037D01*
X154600377Y-97705038D01*
X154589500Y-97773708D01*
X154589500Y-97986286D01*
X154622754Y-98196244D01*
X154622754Y-98196247D01*
X154672624Y-98349728D01*
X154688441Y-98398407D01*
X154688443Y-98398413D01*
X154688444Y-98398414D01*
X154784951Y-98587820D01*
X154909890Y-98759786D01*
X155036099Y-98885995D01*
X155057248Y-98914246D01*
X155063900Y-98926428D01*
X155078752Y-98994701D01*
X155054336Y-99060166D01*
X155054331Y-99060173D01*
X155048629Y-99067789D01*
X155014463Y-99099010D01*
X154871345Y-99187286D01*
X154747289Y-99311341D01*
X154747274Y-99311363D01*
X154740891Y-99321711D01*
X154719547Y-99347283D01*
X154718282Y-99348799D01*
X154707965Y-99358079D01*
X154644959Y-99388277D01*
X154575628Y-99379617D01*
X154575624Y-99379615D01*
X154566897Y-99375823D01*
X154528632Y-99349776D01*
X153528584Y-98349727D01*
X153528583Y-98349726D01*
X153528575Y-98349720D01*
X153476028Y-98314610D01*
X153422037Y-98278535D01*
X153410650Y-98273818D01*
X153303652Y-98229498D01*
X153297838Y-98228342D01*
X153295862Y-98227949D01*
X153287347Y-98226255D01*
X153287344Y-98226254D01*
X153177982Y-98204500D01*
X153177981Y-98204500D01*
X153177979Y-98204500D01*
X152403637Y-98204500D01*
X152403636Y-98204499D01*
X152403636Y-98204500D01*
X152368701Y-98199477D01*
X152343459Y-98192065D01*
X152290714Y-98160769D01*
X151639425Y-97509479D01*
X151618273Y-97481223D01*
X151605666Y-97458134D01*
X151590499Y-97398709D01*
X151590499Y-97230008D01*
X151590499Y-97229998D01*
X151590498Y-97229981D01*
X151579999Y-97127203D01*
X151579998Y-97127200D01*
X151570889Y-97099711D01*
X151524814Y-96960666D01*
X151432712Y-96811344D01*
X151308656Y-96687288D01*
X151159334Y-96595186D01*
X151001265Y-96542807D01*
X150998445Y-96541641D01*
X150992792Y-96539999D01*
X150890019Y-96529500D01*
X150890010Y-96529500D01*
X149289998Y-96529500D01*
X149289981Y-96529501D01*
X149275959Y-96530933D01*
X149187198Y-96540000D01*
X149187193Y-96540001D01*
X149187032Y-96540056D01*
X149020667Y-96595185D01*
X149020665Y-96595186D01*
X149020663Y-96595187D01*
X148948712Y-96639567D01*
X148871340Y-96687290D01*
X148747290Y-96811340D01*
X148747289Y-96811342D01*
X148680735Y-96919244D01*
X148655185Y-96960667D01*
X148655178Y-96960685D01*
X148634428Y-97023308D01*
X148634427Y-97023311D01*
X148610298Y-97096124D01*
X148601852Y-97109067D01*
X148600365Y-97123630D01*
X148599542Y-97129881D01*
X148599359Y-97133476D01*
X148589500Y-97229973D01*
X148589500Y-97229981D01*
X148589500Y-97229983D01*
X148589500Y-98530001D01*
X148589501Y-98530018D01*
X148600000Y-98632796D01*
X148600001Y-98632799D01*
X148655185Y-98799331D01*
X148655187Y-98799336D01*
X148747289Y-98948657D01*
X148871344Y-99072712D01*
X149010946Y-99158819D01*
X149038040Y-99181431D01*
X149047322Y-99191750D01*
X149077521Y-99254756D01*
X149068861Y-99324087D01*
X149068857Y-99324097D01*
X149065065Y-99332823D01*
X149039021Y-99371083D01*
X148909886Y-99500218D01*
X148784949Y-99672182D01*
X148688445Y-99861580D01*
X148622752Y-100063759D01*
X148622752Y-100063760D01*
X148597991Y-100220103D01*
X148597991Y-100220104D01*
X148589500Y-100273713D01*
X148589500Y-100486286D01*
X148622753Y-100696243D01*
X148659216Y-100808462D01*
X148684175Y-100885277D01*
X148688444Y-100898414D01*
X148784951Y-101087820D01*
X148909890Y-101259786D01*
X148909891Y-101259787D01*
X148909892Y-101259788D01*
X149060216Y-101410112D01*
X149232169Y-101535042D01*
X149232200Y-101535060D01*
X149232442Y-101535182D01*
X149421588Y-101631557D01*
X149623757Y-101697246D01*
X149833713Y-101730500D01*
X149833714Y-101730500D01*
X150346286Y-101730500D01*
X150346287Y-101730500D01*
X150556243Y-101697246D01*
X150758412Y-101631557D01*
X150947816Y-101535051D01*
X151047039Y-101462962D01*
X151119786Y-101410109D01*
X151119787Y-101410106D01*
X151119790Y-101410105D01*
X151119792Y-101410104D01*
X151119793Y-101410102D01*
X151119847Y-101410063D01*
X151120605Y-101409290D01*
X151270104Y-101259792D01*
X151270106Y-101259788D01*
X151270109Y-101259786D01*
X151362372Y-101132795D01*
X151389582Y-101095344D01*
X151389583Y-101095341D01*
X151395050Y-101087817D01*
X151395051Y-101087816D01*
X151478535Y-100923967D01*
X151478664Y-100923720D01*
X151478893Y-100923480D01*
X151488396Y-100907972D01*
X151499736Y-100892364D01*
X151512360Y-100877584D01*
X152285521Y-100104422D01*
X152313777Y-100083272D01*
X152325037Y-100077124D01*
X152325039Y-100077122D01*
X152325053Y-100077115D01*
X152328064Y-100075179D01*
X152395096Y-100055500D01*
X152547452Y-100055500D01*
X152571429Y-100058947D01*
X152582384Y-100060521D01*
X152607628Y-100067934D01*
X152660374Y-100099230D01*
X152885573Y-100324429D01*
X152906723Y-100352681D01*
X152919331Y-100375770D01*
X152934500Y-100435199D01*
X152934500Y-101457452D01*
X152934499Y-101457454D01*
X152934500Y-101457455D01*
X152929476Y-101492389D01*
X152922064Y-101517630D01*
X152890769Y-101570374D01*
X151570672Y-102890470D01*
X151542416Y-102911622D01*
X151528695Y-102919114D01*
X151460427Y-102933965D01*
X151446846Y-102932994D01*
X151408239Y-102923872D01*
X151391732Y-102917035D01*
X151391731Y-102917035D01*
X151391729Y-102917034D01*
X151307116Y-102881987D01*
X151307112Y-102881986D01*
X151307107Y-102881984D01*
X151142806Y-102849303D01*
X151142802Y-102849303D01*
X150975262Y-102849303D01*
X150975260Y-102849303D01*
X150825962Y-102879001D01*
X150825950Y-102879003D01*
X150810954Y-102881987D01*
X150810952Y-102881988D01*
X150810950Y-102881988D01*
X150810949Y-102881989D01*
X150806141Y-102883980D01*
X150806131Y-102883983D01*
X150656165Y-102946103D01*
X150525686Y-103033288D01*
X150525683Y-103033289D01*
X150516866Y-103039182D01*
X150516863Y-103039184D01*
X150475150Y-103080899D01*
X150475146Y-103080904D01*
X150471531Y-103084518D01*
X150471515Y-103084534D01*
X150438757Y-103117292D01*
X150438756Y-103117291D01*
X150438752Y-103117297D01*
X150417749Y-103138297D01*
X150417750Y-103138298D01*
X150321187Y-103234859D01*
X150319513Y-103240563D01*
X150318300Y-103242415D01*
X150234625Y-103367642D01*
X150234617Y-103367656D01*
X150170512Y-103522420D01*
X150170505Y-103522440D01*
X150170504Y-103522445D01*
X150137824Y-103686739D01*
X150137824Y-103686742D01*
X150137824Y-103854282D01*
X150144182Y-103886245D01*
X150170506Y-104018592D01*
X150170510Y-104018604D01*
X150170511Y-104018606D01*
X150211653Y-104117935D01*
X150211655Y-104117937D01*
X150220384Y-104152134D01*
X150222055Y-104167672D01*
X150209652Y-104236432D01*
X150209651Y-104236433D01*
X150203556Y-104248610D01*
X150180352Y-104280789D01*
X149539924Y-104921219D01*
X149539921Y-104921222D01*
X149533926Y-104930195D01*
X149519168Y-104952283D01*
X149494740Y-104988843D01*
X149485491Y-105002686D01*
X149485490Y-105002687D01*
X149468734Y-105027763D01*
X149468732Y-105027768D01*
X149419699Y-105146141D01*
X149419694Y-105146156D01*
X149419692Y-105146164D01*
X149394699Y-105271814D01*
X149394699Y-105881564D01*
X149375014Y-105948603D01*
X149322210Y-105994358D01*
X149283044Y-106004948D01*
X148921352Y-106041136D01*
X148869342Y-106049092D01*
X148863483Y-106050584D01*
X148863465Y-106050514D01*
X148847491Y-106054623D01*
X148706762Y-106076913D01*
X148706759Y-106076913D01*
X148706758Y-106076914D01*
X148482130Y-106149901D01*
X148351569Y-106216426D01*
X148271689Y-106257127D01*
X148162676Y-106336329D01*
X148162677Y-106336330D01*
X148092488Y-106387326D01*
X148085107Y-106391459D01*
X147909118Y-106567448D01*
X147904985Y-106574829D01*
X147853989Y-106645018D01*
X147853988Y-106645017D01*
X147774786Y-106754030D01*
X147774784Y-106754034D01*
X147667560Y-106964471D01*
X147594573Y-107189099D01*
X147594572Y-107189102D01*
X147594572Y-107189104D01*
X147557627Y-107422364D01*
X141550500Y-107422364D01*
X141550500Y-92915928D01*
X141550500Y-92915925D01*
X141525262Y-92789053D01*
X141523177Y-92784645D01*
X141490301Y-92705277D01*
X141490300Y-92705273D01*
X141476468Y-92671878D01*
X141476466Y-92671875D01*
X141476466Y-92671874D01*
X141405277Y-92565331D01*
X141405272Y-92565325D01*
X141405259Y-92565311D01*
X140819426Y-91979479D01*
X140819421Y-91979474D01*
X140798274Y-91951223D01*
X140785667Y-91928134D01*
X140770500Y-91868709D01*
X140770500Y-64220009D01*
X140775522Y-64185076D01*
X140776265Y-64182546D01*
X140781798Y-64163700D01*
X140810623Y-64113498D01*
X140813689Y-64110251D01*
X140830951Y-64095078D01*
X140837570Y-64090269D01*
X140954792Y-64005104D01*
X141105104Y-63854792D01*
X141105106Y-63854788D01*
X141105109Y-63854786D01*
X141230048Y-63682820D01*
X141230049Y-63682817D01*
X141230051Y-63682816D01*
X141230052Y-63682813D01*
X141238070Y-63671778D01*
X141238071Y-63671776D01*
X141248229Y-63659531D01*
X141255647Y-63651678D01*
X141290579Y-63631287D01*
X141293400Y-63629112D01*
X141294461Y-63629020D01*
X141315985Y-63616457D01*
X141385791Y-63619447D01*
X141439503Y-63655612D01*
X141445707Y-63662771D01*
X141457729Y-63679193D01*
X141459949Y-63682817D01*
X141459951Y-63682820D01*
X141584890Y-63854786D01*
X141584892Y-63854788D01*
X141735216Y-64005112D01*
X141907169Y-64130042D01*
X141907177Y-64130047D01*
X141907179Y-64130048D01*
X141907181Y-64130049D01*
X141907182Y-64130050D01*
X141907200Y-64130060D01*
X141907442Y-64130182D01*
X142096588Y-64226557D01*
X142298757Y-64292246D01*
X142508713Y-64325500D01*
X142508714Y-64325500D01*
X142721286Y-64325500D01*
X142721287Y-64325500D01*
X142931243Y-64292246D01*
X143133412Y-64226557D01*
X143322816Y-64130051D01*
X143344789Y-64114086D01*
X143494786Y-64005109D01*
X143494786Y-64005108D01*
X143494844Y-64005066D01*
X143495605Y-64004290D01*
X143645104Y-63854792D01*
X143645106Y-63854788D01*
X143645109Y-63854786D01*
X143730890Y-63736717D01*
X143770051Y-63682816D01*
X143771342Y-63680281D01*
X143775750Y-63674133D01*
X143777638Y-63672657D01*
X143786370Y-63661249D01*
X143791693Y-63655612D01*
X143795918Y-63651137D01*
X143856253Y-63615909D01*
X143926059Y-63618892D01*
X143979789Y-63655067D01*
X143985890Y-63662108D01*
X143997900Y-63678514D01*
X144000367Y-63682540D01*
X144039727Y-63736715D01*
X144039728Y-63736716D01*
X144545297Y-63231147D01*
X144606619Y-63197663D01*
X144676311Y-63202647D01*
X144732244Y-63244519D01*
X144740363Y-63256828D01*
X144754896Y-63282000D01*
X144754899Y-63282004D01*
X144754901Y-63282007D01*
X144847993Y-63375099D01*
X144873169Y-63389634D01*
X144921384Y-63440202D01*
X144934606Y-63508809D01*
X144908638Y-63573673D01*
X144898849Y-63584702D01*
X144393282Y-64090268D01*
X144393282Y-64090269D01*
X144393282Y-64090270D01*
X144447449Y-64129624D01*
X144556279Y-64185076D01*
X144636784Y-64226096D01*
X144838866Y-64291756D01*
X144838867Y-64291756D01*
X144838870Y-64291757D01*
X145048754Y-64325000D01*
X145261245Y-64325000D01*
X145261246Y-64325000D01*
X145376683Y-64306716D01*
X145461487Y-64293284D01*
X145461493Y-64293283D01*
X145471127Y-64291757D01*
X145471130Y-64291757D01*
X145673217Y-64226095D01*
X145862554Y-64129622D01*
X145874863Y-64120679D01*
X145884121Y-64113953D01*
X145910858Y-64104412D01*
X145916717Y-64090269D01*
X145411149Y-63584702D01*
X145377664Y-63523379D01*
X145382648Y-63453688D01*
X145424519Y-63397754D01*
X145436822Y-63389639D01*
X145462007Y-63375099D01*
X145555099Y-63282007D01*
X145569634Y-63256830D01*
X145620199Y-63208616D01*
X145688805Y-63195391D01*
X145753671Y-63221358D01*
X145764702Y-63231149D01*
X146270269Y-63736717D01*
X146270269Y-63736716D01*
X146270270Y-63736717D01*
X146270270Y-63736716D01*
X146281155Y-63732207D01*
X146283150Y-63727828D01*
X146286191Y-63716221D01*
X146289719Y-63709946D01*
X146309626Y-63682549D01*
X146350491Y-63602348D01*
X146350493Y-63602343D01*
X146406095Y-63493217D01*
X146471757Y-63291130D01*
X146471757Y-63291127D01*
X146505000Y-63081246D01*
X146505000Y-62868753D01*
X146487979Y-62761289D01*
X146473284Y-62668511D01*
X146473283Y-62668506D01*
X146473283Y-62668507D01*
X146471756Y-62658865D01*
X146444475Y-62574903D01*
X146435464Y-62547169D01*
X146406095Y-62456782D01*
X146309624Y-62267449D01*
X146270270Y-62213282D01*
X146270269Y-62213282D01*
X146270268Y-62213282D01*
X145764702Y-62718849D01*
X145703379Y-62752334D01*
X145633687Y-62747350D01*
X145577754Y-62705478D01*
X145569634Y-62693169D01*
X145567516Y-62689500D01*
X145555099Y-62667993D01*
X145462007Y-62574901D01*
X145462004Y-62574899D01*
X145462000Y-62574896D01*
X145436828Y-62560363D01*
X145388613Y-62509796D01*
X145375391Y-62441189D01*
X145401359Y-62376324D01*
X145411135Y-62365310D01*
X145916716Y-61859728D01*
X145862550Y-61820375D01*
X145758680Y-61767450D01*
X145673214Y-61723902D01*
X145471130Y-61658242D01*
X145261251Y-61625000D01*
X145261246Y-61625000D01*
X145048754Y-61625000D01*
X145048749Y-61625000D01*
X144848513Y-61656715D01*
X144848505Y-61656715D01*
X144848506Y-61656716D01*
X144838865Y-61658242D01*
X144636784Y-61723903D01*
X144447438Y-61820380D01*
X144393282Y-61859727D01*
X144393282Y-61859728D01*
X144898850Y-62365296D01*
X144932335Y-62426619D01*
X144927351Y-62496311D01*
X144885479Y-62552244D01*
X144873173Y-62560362D01*
X144847996Y-62574898D01*
X144847990Y-62574903D01*
X144754903Y-62667990D01*
X144754898Y-62667996D01*
X144740362Y-62693173D01*
X144689793Y-62741387D01*
X144621185Y-62754607D01*
X144556322Y-62728637D01*
X144545296Y-62718850D01*
X144039728Y-62213282D01*
X144039727Y-62213282D01*
X144000379Y-62267440D01*
X143998368Y-62270458D01*
X143998066Y-62270256D01*
X143984233Y-62288707D01*
X143974622Y-62298881D01*
X143914276Y-62334096D01*
X143844471Y-62331096D01*
X143790760Y-62294921D01*
X143784682Y-62287905D01*
X143772425Y-62271091D01*
X143770568Y-62268034D01*
X143770100Y-62267249D01*
X143645112Y-62095216D01*
X143494788Y-61944892D01*
X143494786Y-61944890D01*
X143322820Y-61819951D01*
X143219781Y-61767450D01*
X143155245Y-61734567D01*
X143155240Y-61734565D01*
X143133414Y-61723444D01*
X143133413Y-61723443D01*
X143133412Y-61723443D01*
X143036550Y-61691970D01*
X142940074Y-61660623D01*
X142935552Y-61658770D01*
X142926362Y-61656600D01*
X142921599Y-61656226D01*
X142769957Y-61632208D01*
X142750489Y-61629124D01*
X142721290Y-61624500D01*
X142721287Y-61624500D01*
X142508713Y-61624500D01*
X142508709Y-61624500D01*
X142469776Y-61630666D01*
X142460042Y-61632208D01*
X142422654Y-61638129D01*
X142298763Y-61657752D01*
X142096582Y-61723445D01*
X141907182Y-61819949D01*
X141907179Y-61819950D01*
X141907179Y-61819951D01*
X141906589Y-61820380D01*
X141735210Y-61944892D01*
X141584892Y-62095210D01*
X141584890Y-62095213D01*
X141459952Y-62267179D01*
X141459945Y-62267188D01*
X141459634Y-62267696D01*
X141458499Y-62269177D01*
X141457085Y-62271125D01*
X141457036Y-62271089D01*
X141444060Y-62288041D01*
X141434353Y-62298319D01*
X141374011Y-62333542D01*
X141304205Y-62330550D01*
X141250488Y-62294378D01*
X141244285Y-62287219D01*
X141232274Y-62270811D01*
X141230053Y-62267187D01*
X141230051Y-62267184D01*
X141230050Y-62267182D01*
X141105109Y-62095213D01*
X140954786Y-61944890D01*
X140782820Y-61819951D01*
X140679781Y-61767450D01*
X140615245Y-61734567D01*
X140615240Y-61734565D01*
X140593414Y-61723444D01*
X140593413Y-61723443D01*
X140593412Y-61723443D01*
X140496550Y-61691970D01*
X140400074Y-61660623D01*
X140395552Y-61658770D01*
X140386362Y-61656600D01*
X140381599Y-61656226D01*
X140229957Y-61632208D01*
X140210489Y-61629124D01*
X140181290Y-61624500D01*
X140181287Y-61624500D01*
X139968713Y-61624500D01*
X139968709Y-61624500D01*
X139929776Y-61630666D01*
X139920042Y-61632208D01*
X139882654Y-61638129D01*
X139758763Y-61657752D01*
X139556582Y-61723445D01*
X139367182Y-61819949D01*
X139367179Y-61819950D01*
X139367179Y-61819951D01*
X139366589Y-61820380D01*
X139195210Y-61944892D01*
X139044892Y-62095210D01*
X139044890Y-62095213D01*
X138919952Y-62267179D01*
X138919945Y-62267188D01*
X138919634Y-62267696D01*
X138918499Y-62269177D01*
X138917085Y-62271125D01*
X138917036Y-62271089D01*
X138904060Y-62288041D01*
X138894353Y-62298319D01*
X138834011Y-62333542D01*
X138764205Y-62330550D01*
X138710488Y-62294378D01*
X138704285Y-62287219D01*
X138692274Y-62270811D01*
X138690053Y-62267187D01*
X138690051Y-62267184D01*
X138690050Y-62267182D01*
X138565109Y-62095213D01*
X138414786Y-61944890D01*
X138242820Y-61819951D01*
X138139781Y-61767450D01*
X138075245Y-61734567D01*
X138075240Y-61734565D01*
X138053414Y-61723444D01*
X138053413Y-61723443D01*
X138053412Y-61723443D01*
X137956550Y-61691970D01*
X137860074Y-61660623D01*
X137855552Y-61658770D01*
X137846362Y-61656600D01*
X137841599Y-61656226D01*
X137689957Y-61632208D01*
X137670489Y-61629124D01*
X137641290Y-61624500D01*
X137641287Y-61624500D01*
X137428713Y-61624500D01*
X137428709Y-61624500D01*
X137389776Y-61630666D01*
X137380042Y-61632208D01*
X137342654Y-61638129D01*
X137218763Y-61657752D01*
X137016582Y-61723445D01*
X136827182Y-61819949D01*
X136827179Y-61819950D01*
X136827179Y-61819951D01*
X136826589Y-61820380D01*
X136655218Y-61944886D01*
X136554281Y-62045823D01*
X136554279Y-62045824D01*
X136554279Y-62045825D01*
X136526024Y-62066975D01*
X136513841Y-62073627D01*
X136445568Y-62088477D01*
X136380104Y-62064058D01*
X136380105Y-62064058D01*
X136378412Y-62062791D01*
X136376414Y-62061295D01*
X136334563Y-62005376D01*
X136329109Y-61990755D01*
X136288797Y-61882671D01*
X136288793Y-61882664D01*
X136202547Y-61767455D01*
X136202544Y-61767452D01*
X136202542Y-61767450D01*
X136133641Y-61715871D01*
X136087335Y-61681206D01*
X136087332Y-61681204D01*
X136087330Y-61681203D01*
X136087328Y-61681202D01*
X135952482Y-61630908D01*
X135952483Y-61630908D01*
X135892883Y-61624501D01*
X135892881Y-61624500D01*
X135892873Y-61624500D01*
X135892864Y-61624500D01*
X135891841Y-61624500D01*
X134097123Y-61624500D01*
X134095192Y-61624659D01*
X134093545Y-61624885D01*
X134037516Y-61630908D01*
X133915608Y-61676377D01*
X133902666Y-61681204D01*
X133902665Y-61681205D01*
X133787456Y-61767450D01*
X133787450Y-61767456D01*
X133701205Y-61882665D01*
X133701203Y-61882668D01*
X133650907Y-62017516D01*
X133644501Y-62077116D01*
X133644500Y-62077139D01*
X133644500Y-63872876D01*
X133644659Y-63874806D01*
X133644885Y-63876454D01*
X133650907Y-63932482D01*
X133670034Y-63983762D01*
X133701202Y-64067328D01*
X133701206Y-64067335D01*
X133760310Y-64146286D01*
X133787454Y-64182546D01*
X133889929Y-64259259D01*
X133894000Y-64262909D01*
X133896478Y-64266913D01*
X133910495Y-64280930D01*
X133924123Y-64299136D01*
X133946879Y-64351399D01*
X133947525Y-64354975D01*
X133949500Y-64377019D01*
X133949500Y-81617932D01*
X133946993Y-81626469D01*
X133974493Y-81764718D01*
X133974499Y-81764745D01*
X134023533Y-81883123D01*
X134023535Y-81883127D01*
X134038784Y-81905949D01*
X134046308Y-81917210D01*
X134094727Y-81989674D01*
X134622874Y-82517820D01*
X134622875Y-82517821D01*
X134644026Y-82546075D01*
X134659913Y-82575169D01*
X134672699Y-82610405D01*
X134682757Y-82660971D01*
X134682764Y-82661002D01*
X134743098Y-82806665D01*
X134743103Y-82806674D01*
X134743113Y-82806691D01*
X134830711Y-82937790D01*
X134830712Y-82937791D01*
X134830717Y-82937797D01*
X134942201Y-83049281D01*
X134942207Y-83049286D01*
X134942211Y-83049289D01*
X135073314Y-83136890D01*
X135073327Y-83136897D01*
X135218998Y-83197235D01*
X135219003Y-83197237D01*
X135373653Y-83227999D01*
X135373656Y-83228000D01*
X135373658Y-83228000D01*
X135531344Y-83228000D01*
X135531345Y-83227999D01*
X135685997Y-83197237D01*
X135831679Y-83136894D01*
X135962789Y-83049289D01*
X136074289Y-82937789D01*
X136161894Y-82806679D01*
X136222237Y-82660997D01*
X136253000Y-82506342D01*
X136253000Y-82348658D01*
X136253000Y-82348655D01*
X136253000Y-82348473D01*
X136252565Y-82346472D01*
X136222897Y-82197324D01*
X136222494Y-82194967D01*
X136222238Y-82194008D01*
X136222237Y-82194006D01*
X136222237Y-82194003D01*
X136222235Y-82193998D01*
X136161897Y-82048327D01*
X136161890Y-82048314D01*
X136074289Y-81917211D01*
X136074286Y-81917207D01*
X136074281Y-81917201D01*
X135962797Y-81805717D01*
X135962791Y-81805712D01*
X135962790Y-81805711D01*
X135831691Y-81718113D01*
X135831690Y-81718112D01*
X135831685Y-81718109D01*
X135831672Y-81718102D01*
X135831665Y-81718098D01*
X135686002Y-81657764D01*
X135685971Y-81657757D01*
X135636407Y-81647898D01*
X135603124Y-81636156D01*
X135573747Y-81620789D01*
X135543541Y-81598595D01*
X135299426Y-81354480D01*
X135278274Y-81326224D01*
X135265667Y-81303135D01*
X135250500Y-81243710D01*
X135250500Y-64467328D01*
X135255523Y-64432392D01*
X135259927Y-64417394D01*
X135260979Y-64415757D01*
X135297672Y-64358643D01*
X135297700Y-64358618D01*
X135297699Y-64358618D01*
X135299041Y-64357455D01*
X135353920Y-64329976D01*
X135361479Y-64328332D01*
X135387832Y-64325499D01*
X135892871Y-64325499D01*
X135892872Y-64325499D01*
X135952483Y-64319091D01*
X136087331Y-64268796D01*
X136202546Y-64182546D01*
X136288796Y-64067331D01*
X136331580Y-63952618D01*
X136348490Y-63921649D01*
X136356811Y-63910533D01*
X136412741Y-63868663D01*
X136482424Y-63863675D01*
X136486909Y-63864650D01*
X136548234Y-63898130D01*
X136655208Y-64005104D01*
X136814292Y-64120684D01*
X136833345Y-64137797D01*
X136850446Y-64156695D01*
X136879375Y-64212226D01*
X136881373Y-64220954D01*
X136884500Y-64248624D01*
X136884500Y-89116361D01*
X136879476Y-89151298D01*
X136872064Y-89176539D01*
X136840769Y-89229283D01*
X135164728Y-90905323D01*
X135093533Y-91011875D01*
X135044502Y-91130245D01*
X135044495Y-91130265D01*
X135044493Y-91130273D01*
X135019500Y-91255923D01*
X135019500Y-94845015D01*
X135019499Y-94845017D01*
X135019500Y-94845019D01*
X135014476Y-94879954D01*
X135007064Y-94905194D01*
X134975770Y-94957936D01*
X134902057Y-95031649D01*
X134824727Y-95108979D01*
X134824726Y-95108980D01*
X134753533Y-95215529D01*
X134704502Y-95333899D01*
X134704495Y-95333919D01*
X134704493Y-95333927D01*
X134679500Y-95459577D01*
X134679500Y-103640547D01*
X134679499Y-103640551D01*
X134679500Y-103640553D01*
X134675401Y-103669048D01*
X134674475Y-103675488D01*
X134670826Y-103687913D01*
X134633049Y-103746689D01*
X134569492Y-103775711D01*
X134505220Y-103767870D01*
X134496633Y-103764385D01*
X134475393Y-103752589D01*
X134475230Y-103752856D01*
X134471073Y-103750309D01*
X134471067Y-103750306D01*
X134471066Y-103750305D01*
X134348615Y-103687913D01*
X134303493Y-103664922D01*
X134303488Y-103664920D01*
X134281662Y-103653799D01*
X134281661Y-103653798D01*
X134281660Y-103653798D01*
X134184798Y-103622325D01*
X134088322Y-103590978D01*
X134083800Y-103589125D01*
X134074610Y-103586955D01*
X134069847Y-103586581D01*
X134024704Y-103579431D01*
X133918205Y-103562563D01*
X133898737Y-103559479D01*
X133869538Y-103554855D01*
X133869535Y-103554855D01*
X133656961Y-103554855D01*
X133656957Y-103554855D01*
X133618024Y-103561021D01*
X133608290Y-103562563D01*
X133570902Y-103568484D01*
X133447011Y-103588107D01*
X133244830Y-103653800D01*
X133055430Y-103750304D01*
X133055427Y-103750305D01*
X133055427Y-103750306D01*
X133020460Y-103775711D01*
X132883458Y-103875247D01*
X132733140Y-104025565D01*
X132608197Y-104197537D01*
X132511693Y-104386935D01*
X132446001Y-104589114D01*
X132420805Y-104748198D01*
X132420805Y-104748200D01*
X132412748Y-104799065D01*
X132412748Y-105011642D01*
X132412747Y-105011642D01*
X132415302Y-105027767D01*
X132434051Y-105146147D01*
X132434054Y-105146164D01*
X132446001Y-105221597D01*
X132482846Y-105334995D01*
X132511691Y-105423769D01*
X132576119Y-105550214D01*
X132608199Y-105613175D01*
X132733138Y-105785141D01*
X132733140Y-105785143D01*
X132883464Y-105935467D01*
X133055426Y-106060403D01*
X133056279Y-106060922D01*
X133056551Y-106061220D01*
X133057150Y-106061655D01*
X133057635Y-106061875D01*
X133058473Y-106062434D01*
X133058390Y-106062557D01*
X133059559Y-106063406D01*
X133059443Y-106063564D01*
X133076993Y-106076720D01*
X133087115Y-106086279D01*
X133100912Y-106109913D01*
X133103333Y-106112571D01*
X133103688Y-106114669D01*
X133122340Y-106146620D01*
X133119350Y-106216426D01*
X133083188Y-106270137D01*
X133076153Y-106276234D01*
X133059733Y-106288256D01*
X133055685Y-106290736D01*
X132883805Y-106415614D01*
X132883776Y-106415636D01*
X132733529Y-106565883D01*
X132733507Y-106565912D01*
X132608629Y-106737793D01*
X132512151Y-106927139D01*
X132446490Y-107129221D01*
X132444964Y-107138862D01*
X132436017Y-107195355D01*
X133150998Y-107195355D01*
X133218037Y-107215040D01*
X133263792Y-107267844D01*
X133273736Y-107337002D01*
X133270772Y-107351450D01*
X133263248Y-107379526D01*
X133263248Y-107511183D01*
X133270772Y-107539260D01*
X133269111Y-107609110D01*
X133229949Y-107666973D01*
X133165721Y-107694478D01*
X133150998Y-107695355D01*
X132436017Y-107695355D01*
X132444963Y-107751838D01*
X132444964Y-107751847D01*
X132446490Y-107761487D01*
X132512151Y-107963569D01*
X132512152Y-107963572D01*
X132608627Y-108152912D01*
X132733520Y-108324814D01*
X132733524Y-108324819D01*
X132733529Y-108324825D01*
X132883774Y-108475070D01*
X132883784Y-108475079D01*
X132883786Y-108475081D01*
X132883793Y-108475086D01*
X132942832Y-108517980D01*
X133055692Y-108599977D01*
X133055700Y-108599981D01*
X133056577Y-108600518D01*
X133059190Y-108602518D01*
X133059633Y-108602840D01*
X133059624Y-108602851D01*
X133076921Y-108616090D01*
X133087121Y-108625724D01*
X133122342Y-108686063D01*
X133119350Y-108755868D01*
X133083180Y-108809584D01*
X133076177Y-108815652D01*
X133059192Y-108827131D01*
X133059579Y-108827762D01*
X133055420Y-108830310D01*
X132883464Y-108955241D01*
X132733140Y-109105565D01*
X132608198Y-109277535D01*
X132514279Y-109461865D01*
X132514275Y-109461872D01*
X132511693Y-109466938D01*
X132511693Y-109466939D01*
X132511691Y-109466943D01*
X132502877Y-109494070D01*
X132474874Y-109580254D01*
X132446000Y-109669117D01*
X132446000Y-109669118D01*
X132412748Y-109879062D01*
X132412748Y-110091646D01*
X132446000Y-110301594D01*
X132511693Y-110503773D01*
X132604780Y-110686466D01*
X132608199Y-110693175D01*
X132733138Y-110865141D01*
X132883461Y-111015464D01*
X133055430Y-111140405D01*
X133055438Y-111140409D01*
X133055941Y-111140718D01*
X133057422Y-111141851D01*
X133059370Y-111143267D01*
X133059334Y-111143315D01*
X133076282Y-111156289D01*
X133086563Y-111165998D01*
X133121789Y-111226338D01*
X133118800Y-111296144D01*
X133082631Y-111349862D01*
X133075475Y-111356063D01*
X133059062Y-111368078D01*
X133055438Y-111370298D01*
X132883458Y-111495247D01*
X132733140Y-111645565D01*
X132608195Y-111817540D01*
X132511691Y-112006941D01*
X132511689Y-112006946D01*
X132487930Y-112080067D01*
X132479143Y-112100601D01*
X132471525Y-112114727D01*
X132027135Y-113325292D01*
X131998411Y-113370242D01*
X126764726Y-118603929D01*
X126764723Y-118603932D01*
X126715802Y-118677145D01*
X126715658Y-118677366D01*
X126693533Y-118710478D01*
X126644502Y-118828848D01*
X126644495Y-118828868D01*
X126644493Y-118828876D01*
X126619500Y-118954526D01*
X126619500Y-121392071D01*
X126619499Y-121392075D01*
X126619500Y-121392078D01*
X126614475Y-121427012D01*
X126610564Y-121440329D01*
X126572787Y-121499105D01*
X126509230Y-121528127D01*
X126502314Y-121529121D01*
X126446356Y-121524313D01*
X126305534Y-121478558D01*
X126305514Y-121478554D01*
X126188700Y-121460052D01*
X126144241Y-121453011D01*
X126124773Y-121449927D01*
X126095574Y-121445303D01*
X126095571Y-121445303D01*
X125882997Y-121445303D01*
X125882993Y-121445303D01*
X125844060Y-121451469D01*
X125834326Y-121453011D01*
X125816831Y-121455782D01*
X125673047Y-121478555D01*
X125673044Y-121478556D01*
X125540037Y-121521773D01*
X125470866Y-121544248D01*
X125281466Y-121640752D01*
X125109494Y-121765695D01*
X124959176Y-121916013D01*
X124959174Y-121916016D01*
X124835412Y-122086363D01*
X124834229Y-122087991D01*
X124833918Y-122088499D01*
X124832783Y-122089980D01*
X124831369Y-122091928D01*
X124831320Y-122091892D01*
X124818344Y-122108844D01*
X124808637Y-122119122D01*
X124748295Y-122154345D01*
X124678489Y-122151353D01*
X124624772Y-122115181D01*
X124618569Y-122108022D01*
X124606558Y-122091614D01*
X124604337Y-122087990D01*
X124604335Y-122087987D01*
X124604334Y-122087985D01*
X124479393Y-121916016D01*
X124329070Y-121765693D01*
X124157104Y-121640754D01*
X124143451Y-121633797D01*
X123989529Y-121555370D01*
X123989524Y-121555368D01*
X123967698Y-121544247D01*
X123967697Y-121544246D01*
X123967696Y-121544246D01*
X123870834Y-121512773D01*
X123774358Y-121481426D01*
X123769836Y-121479573D01*
X123760646Y-121477403D01*
X123755883Y-121477029D01*
X123679664Y-121464957D01*
X123604241Y-121453011D01*
X123584773Y-121449927D01*
X123555574Y-121445303D01*
X123555571Y-121445303D01*
X123342997Y-121445303D01*
X123342993Y-121445303D01*
X123304060Y-121451469D01*
X123294326Y-121453011D01*
X123276831Y-121455782D01*
X123133047Y-121478555D01*
X123133044Y-121478556D01*
X123000037Y-121521773D01*
X122930866Y-121544248D01*
X122741466Y-121640752D01*
X122569502Y-121765689D01*
X122468177Y-121867014D01*
X122468175Y-121867015D01*
X122468175Y-121867016D01*
X122439920Y-121888166D01*
X122427737Y-121894818D01*
X122359464Y-121909668D01*
X122294000Y-121885249D01*
X122294001Y-121885249D01*
X122292308Y-121883982D01*
X122290310Y-121882486D01*
X122248459Y-121826568D01*
X122235466Y-121791733D01*
X122202638Y-121703716D01*
X122202634Y-121703709D01*
X122116474Y-121588615D01*
X122116471Y-121588612D01*
X122116469Y-121588610D01*
X122041701Y-121532639D01*
X122001377Y-121502452D01*
X122001372Y-121502449D01*
X122001373Y-121502449D01*
X121866661Y-121452205D01*
X121866654Y-121452203D01*
X121807136Y-121445803D01*
X121807128Y-121445803D01*
X121159284Y-121445803D01*
X121159284Y-122183552D01*
X121139599Y-122250591D01*
X121086795Y-122296346D01*
X121017637Y-122306290D01*
X121003192Y-122303327D01*
X120975112Y-122295803D01*
X120975110Y-122295803D01*
X120843458Y-122295803D01*
X120843455Y-122295803D01*
X120815376Y-122303327D01*
X120745526Y-122301664D01*
X120687664Y-122262501D01*
X120660161Y-122198272D01*
X120659284Y-122183552D01*
X120659284Y-121445803D01*
X120011456Y-121445803D01*
X120011443Y-121445803D01*
X120011435Y-121445804D01*
X119980108Y-121449172D01*
X119944843Y-121447913D01*
X119930462Y-121445319D01*
X119867982Y-121414046D01*
X119832890Y-121356085D01*
X119829544Y-121343885D01*
X119825128Y-121311088D01*
X119825128Y-104110120D01*
X119830150Y-104075187D01*
X119837562Y-104049942D01*
X119868856Y-103997200D01*
X123312795Y-100553260D01*
X123341044Y-100532113D01*
X123358326Y-100522676D01*
X123419069Y-100507516D01*
X123434119Y-100507677D01*
X123452173Y-100509194D01*
X123526771Y-100521010D01*
X123649825Y-100540500D01*
X123649826Y-100540500D01*
X123862398Y-100540500D01*
X123862399Y-100540500D01*
X124072355Y-100507246D01*
X124274524Y-100441557D01*
X124463928Y-100345051D01*
X124550590Y-100282088D01*
X124635896Y-100220110D01*
X124635896Y-100220109D01*
X124635904Y-100220104D01*
X124635908Y-100220099D01*
X124638091Y-100218514D01*
X124638091Y-100218513D01*
X124638095Y-100218511D01*
X124643940Y-100214263D01*
X124649776Y-100206231D01*
X124737225Y-100118781D01*
X124765473Y-100097635D01*
X124777656Y-100090983D01*
X124845927Y-100076133D01*
X124911385Y-100100546D01*
X124915059Y-100103296D01*
X124956933Y-100159227D01*
X124956935Y-100159231D01*
X125002758Y-100282088D01*
X125002761Y-100282093D01*
X125088921Y-100397187D01*
X125088924Y-100397190D01*
X125204018Y-100483350D01*
X125204025Y-100483354D01*
X125338732Y-100533596D01*
X125338739Y-100533598D01*
X125345580Y-100534333D01*
X125398250Y-100539998D01*
X125398267Y-100539999D01*
X125398284Y-100540000D01*
X126046112Y-100540000D01*
X126046112Y-99802250D01*
X126065797Y-99735211D01*
X126118601Y-99689456D01*
X126187759Y-99679512D01*
X126202205Y-99682475D01*
X126230286Y-99690000D01*
X126361937Y-99690000D01*
X126361938Y-99690000D01*
X126390017Y-99682476D01*
X126459867Y-99684137D01*
X126517730Y-99723299D01*
X126545235Y-99787527D01*
X126546112Y-99802250D01*
X126546112Y-100540000D01*
X127193940Y-100540000D01*
X127193948Y-100540000D01*
X127193959Y-100539999D01*
X127229672Y-100536158D01*
X127253484Y-100533598D01*
X127253491Y-100533596D01*
X127388198Y-100483354D01*
X127388205Y-100483350D01*
X127503299Y-100397190D01*
X127503302Y-100397187D01*
X127589462Y-100282093D01*
X127589466Y-100282086D01*
X127639708Y-100147379D01*
X127639710Y-100147372D01*
X127644328Y-100104426D01*
X127646110Y-100087860D01*
X127646112Y-100087827D01*
X127646112Y-99440000D01*
X126908362Y-99440000D01*
X126841323Y-99420315D01*
X126795568Y-99367511D01*
X126785624Y-99298353D01*
X126788588Y-99283905D01*
X126796111Y-99255828D01*
X126796112Y-99255825D01*
X126796112Y-99124175D01*
X126796111Y-99124171D01*
X126788588Y-99096095D01*
X126790249Y-99026245D01*
X126829411Y-98968382D01*
X126893639Y-98940877D01*
X126908362Y-98940000D01*
X127646112Y-98940000D01*
X127646112Y-98292172D01*
X127646110Y-98292138D01*
X127639710Y-98232628D01*
X127639708Y-98232621D01*
X127639398Y-98231789D01*
X127589466Y-98097913D01*
X127589462Y-98097906D01*
X127523174Y-98009357D01*
X127503303Y-97982813D01*
X127503297Y-97982807D01*
X127412307Y-97914692D01*
X127388205Y-97896649D01*
X127388200Y-97896646D01*
X127316719Y-97869985D01*
X127273344Y-97853807D01*
X127242367Y-97836891D01*
X127231257Y-97828574D01*
X127189386Y-97772640D01*
X127184402Y-97702949D01*
X127185377Y-97698467D01*
X127218862Y-97637145D01*
X127326216Y-97529792D01*
X127451163Y-97357816D01*
X127547669Y-97168412D01*
X127613358Y-96966243D01*
X127646612Y-96756287D01*
X127646612Y-96543713D01*
X127613358Y-96333757D01*
X127547669Y-96131588D01*
X127451163Y-95942184D01*
X127451161Y-95942181D01*
X127451160Y-95942179D01*
X127450814Y-95941703D01*
X127450812Y-95941699D01*
X127326224Y-95770216D01*
X127175900Y-95619892D01*
X127175898Y-95619890D01*
X127003932Y-95494951D01*
X126990279Y-95487994D01*
X126836357Y-95409567D01*
X126836352Y-95409565D01*
X126814526Y-95398444D01*
X126814525Y-95398443D01*
X126814524Y-95398443D01*
X126717662Y-95366970D01*
X126621186Y-95335623D01*
X126616664Y-95333770D01*
X126607474Y-95331600D01*
X126602711Y-95331226D01*
X126451069Y-95307208D01*
X126431601Y-95304124D01*
X126402402Y-95299500D01*
X126402399Y-95299500D01*
X126189825Y-95299500D01*
X126189821Y-95299500D01*
X126150888Y-95305666D01*
X126141154Y-95307208D01*
X126103766Y-95313129D01*
X125979875Y-95332752D01*
X125777694Y-95398445D01*
X125588294Y-95494949D01*
X125416322Y-95619892D01*
X125266004Y-95770210D01*
X125266002Y-95770213D01*
X125141064Y-95942179D01*
X125141057Y-95942188D01*
X125140746Y-95942696D01*
X125139611Y-95944177D01*
X125138197Y-95946125D01*
X125138148Y-95946089D01*
X125125172Y-95963041D01*
X125115465Y-95973319D01*
X125055123Y-96008542D01*
X124985317Y-96005550D01*
X124931600Y-95969378D01*
X124925397Y-95962219D01*
X124913386Y-95945811D01*
X124911165Y-95942187D01*
X124911163Y-95942184D01*
X124911162Y-95942182D01*
X124786221Y-95770213D01*
X124635898Y-95619890D01*
X124463932Y-95494951D01*
X124450279Y-95487994D01*
X124296357Y-95409567D01*
X124296352Y-95409565D01*
X124274526Y-95398444D01*
X124274525Y-95398443D01*
X124274524Y-95398443D01*
X124177662Y-95366970D01*
X124081186Y-95335623D01*
X124076664Y-95333770D01*
X124067474Y-95331600D01*
X124062711Y-95331226D01*
X123911069Y-95307208D01*
X123891601Y-95304124D01*
X123862402Y-95299500D01*
X123862399Y-95299500D01*
X123649825Y-95299500D01*
X123649821Y-95299500D01*
X123610888Y-95305666D01*
X123601154Y-95307208D01*
X123563766Y-95313129D01*
X123439875Y-95332752D01*
X123237694Y-95398445D01*
X123048294Y-95494949D01*
X122876322Y-95619892D01*
X122726004Y-95770210D01*
X122726002Y-95770213D01*
X122601064Y-95942179D01*
X122601057Y-95942188D01*
X122600746Y-95942696D01*
X122599611Y-95944177D01*
X122598197Y-95946125D01*
X122598148Y-95946089D01*
X122585172Y-95963041D01*
X122575465Y-95973319D01*
X122515123Y-96008542D01*
X122445317Y-96005550D01*
X122391600Y-95969378D01*
X122385397Y-95962219D01*
X122373386Y-95945811D01*
X122371165Y-95942187D01*
X122371163Y-95942184D01*
X122371162Y-95942182D01*
X122246221Y-95770213D01*
X122095898Y-95619890D01*
X121923932Y-95494951D01*
X121910279Y-95487994D01*
X121756357Y-95409567D01*
X121756352Y-95409565D01*
X121734526Y-95398444D01*
X121734525Y-95398443D01*
X121734524Y-95398443D01*
X121637662Y-95366970D01*
X121541186Y-95335623D01*
X121536664Y-95333770D01*
X121527474Y-95331600D01*
X121522711Y-95331226D01*
X121371069Y-95307208D01*
X121351601Y-95304124D01*
X121322402Y-95299500D01*
X121322399Y-95299500D01*
X121109825Y-95299500D01*
X121109821Y-95299500D01*
X121070888Y-95305666D01*
X121061154Y-95307208D01*
X121023766Y-95313129D01*
X120899875Y-95332752D01*
X120697694Y-95398445D01*
X120508294Y-95494949D01*
X120336322Y-95619892D01*
X120186004Y-95770210D01*
X120186002Y-95770213D01*
X120061064Y-95942179D01*
X120061057Y-95942188D01*
X120060746Y-95942696D01*
X120059611Y-95944177D01*
X120058197Y-95946125D01*
X120058148Y-95946089D01*
X120045172Y-95963041D01*
X120035465Y-95973319D01*
X119975123Y-96008542D01*
X119905317Y-96005550D01*
X119851600Y-95969378D01*
X119845397Y-95962219D01*
X119833386Y-95945811D01*
X119831165Y-95942187D01*
X119831163Y-95942184D01*
X119831162Y-95942182D01*
X119706221Y-95770213D01*
X119555898Y-95619890D01*
X119383932Y-95494951D01*
X119370279Y-95487994D01*
X119216357Y-95409567D01*
X119216352Y-95409565D01*
X119194526Y-95398444D01*
X119194525Y-95398443D01*
X119194524Y-95398443D01*
X119097662Y-95366970D01*
X119001186Y-95335623D01*
X118996664Y-95333770D01*
X118987474Y-95331600D01*
X118982711Y-95331226D01*
X118831069Y-95307208D01*
X118811601Y-95304124D01*
X118782402Y-95299500D01*
X118782399Y-95299500D01*
X118569825Y-95299500D01*
X118569821Y-95299500D01*
X118530888Y-95305666D01*
X118521154Y-95307208D01*
X118483766Y-95313129D01*
X118359875Y-95332752D01*
X118157694Y-95398445D01*
X117968294Y-95494949D01*
X117796322Y-95619892D01*
X117646004Y-95770210D01*
X117521061Y-95942182D01*
X117423717Y-96133229D01*
X117423701Y-96133338D01*
X117423334Y-96133980D01*
X117422342Y-96135929D01*
X117422250Y-96135882D01*
X117413673Y-96150933D01*
X117408444Y-96158580D01*
X117388195Y-96175136D01*
X117381994Y-96182826D01*
X117374389Y-96186425D01*
X117354354Y-96202808D01*
X117284940Y-96210772D01*
X117222239Y-96179943D01*
X117213352Y-96165439D01*
X117210152Y-96163347D01*
X117204966Y-96151753D01*
X117186620Y-96121809D01*
X117185031Y-96116097D01*
X117183280Y-96103262D01*
X117181627Y-96099566D01*
X117182232Y-96095579D01*
X117180500Y-96082884D01*
X117180500Y-95109973D01*
X131669500Y-95109973D01*
X131669500Y-95109981D01*
X131669500Y-95109983D01*
X131669500Y-96310001D01*
X131669501Y-96310018D01*
X131680000Y-96412796D01*
X131680001Y-96412799D01*
X131735185Y-96579331D01*
X131735187Y-96579336D01*
X131744964Y-96595187D01*
X131827288Y-96728656D01*
X131951344Y-96852712D01*
X132100666Y-96944814D01*
X132267203Y-96999999D01*
X132369991Y-97010500D01*
X133570008Y-97010499D01*
X133672797Y-96999999D01*
X133839334Y-96944814D01*
X133988656Y-96852712D01*
X134112712Y-96728656D01*
X134204814Y-96579334D01*
X134259999Y-96412797D01*
X134270500Y-96310009D01*
X134270499Y-95109992D01*
X134259999Y-95007203D01*
X134204814Y-94840666D01*
X134112712Y-94691344D01*
X133988656Y-94567288D01*
X133839334Y-94475186D01*
X133681265Y-94422807D01*
X133678445Y-94421641D01*
X133672792Y-94419999D01*
X133570019Y-94409500D01*
X133570010Y-94409500D01*
X132369998Y-94409500D01*
X132369981Y-94409501D01*
X132364147Y-94410097D01*
X132267198Y-94420000D01*
X132267193Y-94420001D01*
X132267032Y-94420056D01*
X132100667Y-94475185D01*
X132100665Y-94475186D01*
X132100663Y-94475187D01*
X132001115Y-94536588D01*
X131951340Y-94567290D01*
X131827290Y-94691340D01*
X131827289Y-94691342D01*
X131741457Y-94830499D01*
X131735185Y-94840667D01*
X131735182Y-94840675D01*
X131715529Y-94899986D01*
X131715528Y-94899987D01*
X131690298Y-94976123D01*
X131681852Y-94989066D01*
X131680365Y-95003630D01*
X131679542Y-95009881D01*
X131679359Y-95013476D01*
X131669500Y-95109973D01*
X117180500Y-95109973D01*
X117180500Y-71607279D01*
X117185523Y-71572343D01*
X117189927Y-71557345D01*
X117193551Y-71551706D01*
X117227690Y-71498578D01*
X117227701Y-71498568D01*
X117232674Y-71494259D01*
X117294487Y-71465490D01*
X117403822Y-71448173D01*
X117441238Y-71442248D01*
X117441238Y-71442247D01*
X117441243Y-71442247D01*
X117643412Y-71376558D01*
X117728332Y-71333288D01*
X117761728Y-71321909D01*
X117775374Y-71319347D01*
X117844894Y-71326324D01*
X117899607Y-71369778D01*
X117899617Y-71369792D01*
X117901540Y-71372521D01*
X117922498Y-71423613D01*
X117922821Y-71425556D01*
X117924500Y-71445890D01*
X117924500Y-71486458D01*
X117924503Y-71486483D01*
X117938680Y-71594174D01*
X117953594Y-71707453D01*
X117953595Y-71707458D01*
X117953596Y-71707464D01*
X118007865Y-71910000D01*
X118011290Y-71922781D01*
X118011293Y-71922791D01*
X118068168Y-72060099D01*
X118096595Y-72128727D01*
X118096597Y-72128731D01*
X118096600Y-72128737D01*
X118206206Y-72318580D01*
X118208048Y-72321770D01*
X118209569Y-72323752D01*
X118209571Y-72323755D01*
X118315390Y-72461663D01*
X118343751Y-72498623D01*
X118343757Y-72498630D01*
X118501370Y-72656243D01*
X118501376Y-72656248D01*
X118678226Y-72791949D01*
X118871274Y-72903406D01*
X119077219Y-72988711D01*
X119292537Y-73046405D01*
X119513543Y-73075501D01*
X119513550Y-73075501D01*
X119736450Y-73075501D01*
X119736457Y-73075501D01*
X119957463Y-73046405D01*
X120172781Y-72988711D01*
X120378726Y-72903406D01*
X120571774Y-72791949D01*
X120748624Y-72656248D01*
X120906247Y-72498625D01*
X121041948Y-72321775D01*
X121153405Y-72128727D01*
X121238710Y-71922782D01*
X121296404Y-71707464D01*
X121325500Y-71486458D01*
X121325500Y-71263544D01*
X121296404Y-71042538D01*
X121238710Y-70827220D01*
X121153405Y-70621275D01*
X121041948Y-70428227D01*
X120906247Y-70251377D01*
X120906242Y-70251371D01*
X120748629Y-70093758D01*
X120748622Y-70093752D01*
X120748612Y-70093744D01*
X120748603Y-70093737D01*
X120573754Y-69959572D01*
X120573751Y-69959570D01*
X120571505Y-69957846D01*
X120570486Y-69957234D01*
X120568589Y-69956213D01*
X120378726Y-69846596D01*
X120378724Y-69846595D01*
X120378722Y-69846594D01*
X120176829Y-69762967D01*
X120172787Y-69761292D01*
X119958476Y-69703868D01*
X119958472Y-69703867D01*
X119957463Y-69703597D01*
X119957457Y-69703596D01*
X119957452Y-69703595D01*
X119738259Y-69674738D01*
X119738255Y-69674736D01*
X119736654Y-69674501D01*
X119736463Y-69674501D01*
X119736457Y-69674501D01*
X119513543Y-69674501D01*
X119513537Y-69674501D01*
X119513535Y-69674501D01*
X119508039Y-69675177D01*
X119507316Y-69675317D01*
X119506796Y-69675388D01*
X119292547Y-69703595D01*
X119292540Y-69703596D01*
X119292537Y-69703597D01*
X119281495Y-69706555D01*
X119281492Y-69706556D01*
X119077222Y-69761289D01*
X119077199Y-69761298D01*
X118871272Y-69846595D01*
X118678241Y-69958043D01*
X118678229Y-69958051D01*
X118678201Y-69958069D01*
X118668397Y-69965591D01*
X118668396Y-69965593D01*
X118668393Y-69965594D01*
X118668390Y-69965597D01*
X118640104Y-69981481D01*
X118637622Y-69982875D01*
X118624681Y-69987878D01*
X118555054Y-69993691D01*
X118493339Y-69960940D01*
X118491537Y-69959181D01*
X118461062Y-69911187D01*
X118459909Y-69907867D01*
X118454573Y-69886593D01*
X118448239Y-69846596D01*
X118442246Y-69808758D01*
X118376557Y-69606589D01*
X118280051Y-69417185D01*
X118280049Y-69417182D01*
X118280048Y-69417180D01*
X118279702Y-69416704D01*
X118279700Y-69416700D01*
X118155112Y-69245217D01*
X118004788Y-69094893D01*
X118004786Y-69094891D01*
X117832820Y-68969952D01*
X117819167Y-68962995D01*
X117665245Y-68884568D01*
X117665240Y-68884566D01*
X117643414Y-68873445D01*
X117643413Y-68873444D01*
X117643412Y-68873444D01*
X117546550Y-68841971D01*
X117450074Y-68810624D01*
X117445552Y-68808771D01*
X117436362Y-68806601D01*
X117431599Y-68806227D01*
X117416004Y-68803757D01*
X117279957Y-68782209D01*
X117260489Y-68779125D01*
X117231290Y-68774501D01*
X117231287Y-68774501D01*
X117018713Y-68774501D01*
X117018709Y-68774501D01*
X116979776Y-68780667D01*
X116970042Y-68782209D01*
X116932654Y-68788130D01*
X116808763Y-68807753D01*
X116606582Y-68873446D01*
X116417182Y-68969950D01*
X116245210Y-69094893D01*
X116094892Y-69245211D01*
X115969949Y-69417183D01*
X115873445Y-69606581D01*
X115807752Y-69808760D01*
X115774500Y-70018708D01*
X115774500Y-70231292D01*
X115807753Y-70441241D01*
X115807753Y-70441244D01*
X115870415Y-70634095D01*
X115874956Y-70653009D01*
X115877972Y-70672045D01*
X115879500Y-70691449D01*
X115879500Y-97005479D01*
X115874477Y-97040415D01*
X115865430Y-97071225D01*
X115849555Y-97105180D01*
X115765613Y-97230807D01*
X115765603Y-97230824D01*
X115765598Y-97230833D01*
X115705264Y-97376496D01*
X115705257Y-97376527D01*
X115674500Y-97531150D01*
X115674500Y-97531153D01*
X115674500Y-97688846D01*
X115674500Y-97688848D01*
X115674499Y-97688848D01*
X115705257Y-97843471D01*
X115705264Y-97843502D01*
X115765598Y-97989165D01*
X115765603Y-97989174D01*
X115765613Y-97989191D01*
X115853211Y-98120290D01*
X115853212Y-98120291D01*
X115853217Y-98120297D01*
X115964700Y-98231780D01*
X115964703Y-98231782D01*
X115964708Y-98231787D01*
X115964711Y-98231789D01*
X116034672Y-98278535D01*
X116043312Y-98284308D01*
X116043315Y-98284311D01*
X116069567Y-98307893D01*
X116078465Y-98318540D01*
X116085580Y-98334887D01*
X116088116Y-98337921D01*
X116088608Y-98341843D01*
X116106351Y-98382603D01*
X116095176Y-98451571D01*
X116090424Y-98461504D01*
X116066247Y-98495671D01*
X115224788Y-99337131D01*
X115202067Y-99354141D01*
X115196538Y-99358280D01*
X115186611Y-99363701D01*
X115118338Y-99378555D01*
X115052873Y-99354141D01*
X115011000Y-99298209D01*
X115008313Y-99291003D01*
X115000500Y-99247683D01*
X115000500Y-65518754D01*
X115775000Y-65518754D01*
X115775000Y-65731247D01*
X115802268Y-65903407D01*
X115806715Y-65931486D01*
X115806716Y-65931494D01*
X115808242Y-65941134D01*
X115861060Y-66103689D01*
X115873904Y-66143218D01*
X115935324Y-66263760D01*
X115970374Y-66332549D01*
X115970375Y-66332551D01*
X116005674Y-66381138D01*
X116009728Y-66386717D01*
X116515297Y-65881148D01*
X116576619Y-65847664D01*
X116646311Y-65852648D01*
X116702244Y-65894520D01*
X116710363Y-65906829D01*
X116724896Y-65932001D01*
X116724899Y-65932005D01*
X116724901Y-65932008D01*
X116817993Y-66025100D01*
X116843169Y-66039635D01*
X116891384Y-66090203D01*
X116904606Y-66158810D01*
X116878638Y-66223674D01*
X116868849Y-66234703D01*
X116363282Y-66740269D01*
X116363282Y-66740270D01*
X116363282Y-66740271D01*
X116417449Y-66779625D01*
X116606782Y-66876096D01*
X116606784Y-66876097D01*
X116808866Y-66941757D01*
X116808867Y-66941757D01*
X116808870Y-66941758D01*
X117018754Y-66975001D01*
X117231245Y-66975001D01*
X117231246Y-66975001D01*
X117344050Y-66957133D01*
X117431487Y-66943285D01*
X117431493Y-66943284D01*
X117441127Y-66941758D01*
X117441130Y-66941758D01*
X117643217Y-66876096D01*
X117832554Y-66779623D01*
X117834976Y-66777863D01*
X117854121Y-66763954D01*
X117880858Y-66754413D01*
X117886717Y-66740270D01*
X117381149Y-66234703D01*
X117347664Y-66173380D01*
X117352648Y-66103689D01*
X117394519Y-66047755D01*
X117406822Y-66039640D01*
X117432007Y-66025100D01*
X117525099Y-65932008D01*
X117539634Y-65906831D01*
X117590199Y-65858617D01*
X117658805Y-65845392D01*
X117723671Y-65871359D01*
X117734702Y-65881150D01*
X118240269Y-66386718D01*
X118240269Y-66386717D01*
X118240270Y-66386718D01*
X118240270Y-66386717D01*
X118253738Y-66381138D01*
X118259955Y-66359968D01*
X118263954Y-66354119D01*
X118279622Y-66332555D01*
X118376095Y-66143218D01*
X118441755Y-65941135D01*
X118453055Y-65869788D01*
X118463476Y-65836085D01*
X118469426Y-65823534D01*
X118515928Y-65771391D01*
X118583218Y-65752665D01*
X118585707Y-65752701D01*
X118640904Y-65766540D01*
X118644014Y-65768148D01*
X118662550Y-65779921D01*
X118676261Y-65790442D01*
X118676271Y-65790450D01*
X118678488Y-65792152D01*
X118679504Y-65792762D01*
X118681410Y-65793788D01*
X118871266Y-65903402D01*
X118871271Y-65903404D01*
X118871274Y-65903406D01*
X119077219Y-65988711D01*
X119292537Y-66046405D01*
X119513543Y-66075501D01*
X119513550Y-66075501D01*
X119736450Y-66075501D01*
X119736457Y-66075501D01*
X119957463Y-66046405D01*
X120172781Y-65988711D01*
X120378726Y-65903406D01*
X120571774Y-65791949D01*
X120748624Y-65656248D01*
X120906247Y-65498625D01*
X121041948Y-65321775D01*
X121153405Y-65128727D01*
X121238710Y-64922782D01*
X121296404Y-64707464D01*
X121325500Y-64486458D01*
X121325500Y-64263544D01*
X121310063Y-64146288D01*
X122249499Y-64146288D01*
X122251554Y-64159257D01*
X122277884Y-64325500D01*
X122282752Y-64356234D01*
X122282755Y-64356246D01*
X122338638Y-64528241D01*
X122338639Y-64528241D01*
X122348442Y-64558411D01*
X122413153Y-64685413D01*
X122444951Y-64747820D01*
X122569890Y-64919786D01*
X122720213Y-65070109D01*
X122892182Y-65195050D01*
X122892190Y-65195054D01*
X122892693Y-65195363D01*
X122894174Y-65196496D01*
X122896122Y-65197912D01*
X122896086Y-65197960D01*
X122913034Y-65210934D01*
X122923315Y-65220643D01*
X122958541Y-65280983D01*
X122955552Y-65350789D01*
X122919383Y-65404507D01*
X122912227Y-65410708D01*
X122895814Y-65422723D01*
X122892190Y-65424943D01*
X122720210Y-65549892D01*
X122569892Y-65700210D01*
X122444949Y-65872182D01*
X122348445Y-66061580D01*
X122282752Y-66263759D01*
X122249500Y-66473707D01*
X122249500Y-66686291D01*
X122279891Y-66878173D01*
X122282753Y-66896240D01*
X122282755Y-66896246D01*
X122345868Y-67090490D01*
X122345869Y-67090490D01*
X122345872Y-67090500D01*
X122348444Y-67098414D01*
X122444951Y-67287820D01*
X122569890Y-67459786D01*
X122720213Y-67610109D01*
X122892182Y-67735050D01*
X122892190Y-67735054D01*
X122892693Y-67735363D01*
X122894174Y-67736496D01*
X122896122Y-67737912D01*
X122896086Y-67737960D01*
X122913034Y-67750934D01*
X122923315Y-67760643D01*
X122958541Y-67820983D01*
X122955552Y-67890789D01*
X122919383Y-67944507D01*
X122912227Y-67950708D01*
X122895814Y-67962723D01*
X122892190Y-67964943D01*
X122720210Y-68089892D01*
X122569892Y-68240210D01*
X122444949Y-68412182D01*
X122348445Y-68601580D01*
X122282752Y-68803759D01*
X122249500Y-69013707D01*
X122249500Y-69226291D01*
X122282752Y-69436239D01*
X122348445Y-69638418D01*
X122411908Y-69762970D01*
X122444951Y-69827820D01*
X122569890Y-69999786D01*
X122707707Y-70137603D01*
X122728856Y-70165854D01*
X122735508Y-70178036D01*
X122750360Y-70246309D01*
X122725947Y-70311770D01*
X122724182Y-70314128D01*
X122681311Y-70350253D01*
X122678934Y-70351467D01*
X122659428Y-70359420D01*
X122643032Y-70364529D01*
X122642999Y-70364540D01*
X122503775Y-70448703D01*
X122503762Y-70448712D01*
X122503756Y-70448717D01*
X122388717Y-70563756D01*
X122388712Y-70563762D01*
X122388703Y-70563775D01*
X122304541Y-70702997D01*
X122304532Y-70703024D01*
X122256135Y-70858337D01*
X122256132Y-70858356D01*
X122251021Y-70914610D01*
X122250000Y-70925848D01*
X122250000Y-71410000D01*
X122987750Y-71410000D01*
X123054789Y-71429685D01*
X123100544Y-71482489D01*
X123110488Y-71551647D01*
X123107524Y-71566095D01*
X123100000Y-71594171D01*
X123100000Y-71725828D01*
X123107524Y-71753905D01*
X123105863Y-71823755D01*
X123066701Y-71881618D01*
X123002473Y-71909123D01*
X122987750Y-71910000D01*
X122250001Y-71910000D01*
X122250001Y-72394171D01*
X122256130Y-72461648D01*
X122256132Y-72461655D01*
X122304531Y-72616971D01*
X122304541Y-72617001D01*
X122388703Y-72756223D01*
X122388712Y-72756236D01*
X122388717Y-72756242D01*
X122503756Y-72871281D01*
X122503762Y-72871286D01*
X122503761Y-72871286D01*
X122503775Y-72871295D01*
X122642997Y-72955457D01*
X122642998Y-72955457D01*
X122643001Y-72955459D01*
X122643007Y-72955461D01*
X122798337Y-73003864D01*
X122798344Y-73003865D01*
X122865848Y-73009999D01*
X123349999Y-73009999D01*
X123350000Y-73009998D01*
X123350000Y-72272250D01*
X123369685Y-72205211D01*
X123422489Y-72159456D01*
X123491647Y-72149512D01*
X123506093Y-72152475D01*
X123534174Y-72160000D01*
X123665825Y-72160000D01*
X123665826Y-72160000D01*
X123693905Y-72152476D01*
X123763755Y-72154137D01*
X123821618Y-72193299D01*
X123849123Y-72257527D01*
X123850000Y-72272250D01*
X123850000Y-73009999D01*
X124334161Y-73009999D01*
X124334167Y-73009999D01*
X124361150Y-73007546D01*
X124401651Y-73003867D01*
X124401658Y-73003865D01*
X124556989Y-72955462D01*
X124556998Y-72955459D01*
X124696233Y-72871289D01*
X124696237Y-72871286D01*
X124811286Y-72756237D01*
X124811289Y-72756233D01*
X124895459Y-72616998D01*
X124895461Y-72616992D01*
X124943864Y-72461662D01*
X124943865Y-72461655D01*
X124950000Y-72394151D01*
X124950000Y-71910000D01*
X124212250Y-71910000D01*
X124145211Y-71890315D01*
X124099456Y-71837511D01*
X124089512Y-71768353D01*
X124092476Y-71753905D01*
X124099999Y-71725828D01*
X124100000Y-71725825D01*
X124100000Y-71594175D01*
X124099999Y-71594171D01*
X124092476Y-71566095D01*
X124094137Y-71496245D01*
X124133299Y-71438382D01*
X124197527Y-71410877D01*
X124212250Y-71410000D01*
X124949999Y-71410000D01*
X124949999Y-70925830D01*
X124947138Y-70894349D01*
X124943867Y-70858348D01*
X124943865Y-70858341D01*
X124934167Y-70827220D01*
X124895467Y-70703027D01*
X124895466Y-70703024D01*
X124895462Y-70703010D01*
X124895459Y-70703001D01*
X124865238Y-70653009D01*
X124811295Y-70563775D01*
X124811286Y-70563762D01*
X124811281Y-70563756D01*
X124696242Y-70448717D01*
X124696236Y-70448712D01*
X124696237Y-70448712D01*
X124696223Y-70448703D01*
X124557003Y-70364542D01*
X124556996Y-70364539D01*
X124556993Y-70364538D01*
X124556988Y-70364536D01*
X124556977Y-70364533D01*
X124547492Y-70361577D01*
X124515636Y-70346389D01*
X124504086Y-70338694D01*
X124459209Y-70285144D01*
X124450407Y-70215834D01*
X124450875Y-70212920D01*
X124472038Y-70161030D01*
X124473588Y-70158836D01*
X124487152Y-70142743D01*
X124630104Y-69999792D01*
X124660423Y-69958062D01*
X124755048Y-69827820D01*
X124755047Y-69827820D01*
X124755051Y-69827816D01*
X124755053Y-69827810D01*
X124760784Y-69819923D01*
X124760786Y-69819920D01*
X124760787Y-69819920D01*
X124775446Y-69799743D01*
X124783730Y-69771529D01*
X124851557Y-69638412D01*
X124917246Y-69436243D01*
X124950500Y-69226287D01*
X124950500Y-69013713D01*
X124917246Y-68803757D01*
X124851557Y-68601588D01*
X124755051Y-68412184D01*
X124755049Y-68412181D01*
X124755048Y-68412179D01*
X124754702Y-68411703D01*
X124754700Y-68411699D01*
X124630112Y-68240216D01*
X124479782Y-68089886D01*
X124307824Y-67964953D01*
X124307258Y-67964606D01*
X124305627Y-67963357D01*
X124303901Y-67962103D01*
X124303932Y-67962059D01*
X124286960Y-67949062D01*
X124276683Y-67939357D01*
X124241457Y-67879017D01*
X124244445Y-67809212D01*
X124280613Y-67755493D01*
X124287783Y-67749281D01*
X124304187Y-67737275D01*
X124307816Y-67735051D01*
X124307817Y-67735050D01*
X124329789Y-67719086D01*
X124479786Y-67610109D01*
X124479787Y-67610106D01*
X124479790Y-67610105D01*
X124479792Y-67610104D01*
X124479793Y-67610102D01*
X124479847Y-67610063D01*
X124480605Y-67609290D01*
X124630104Y-67459792D01*
X124630106Y-67459788D01*
X124630109Y-67459786D01*
X124755048Y-67287820D01*
X124755047Y-67287820D01*
X124755051Y-67287816D01*
X124755053Y-67287810D01*
X124775445Y-67259744D01*
X124783730Y-67231529D01*
X124851557Y-67098412D01*
X124917246Y-66896243D01*
X124950500Y-66686287D01*
X124950500Y-66473713D01*
X124917246Y-66263757D01*
X124851557Y-66061588D01*
X124755051Y-65872184D01*
X124755049Y-65872181D01*
X124755048Y-65872179D01*
X124754702Y-65871703D01*
X124754700Y-65871699D01*
X124630112Y-65700216D01*
X124479782Y-65549886D01*
X124307824Y-65424953D01*
X124307258Y-65424606D01*
X124305627Y-65423357D01*
X124303901Y-65422103D01*
X124303932Y-65422059D01*
X124286960Y-65409062D01*
X124276683Y-65399357D01*
X124241457Y-65339017D01*
X124244445Y-65269212D01*
X124280612Y-65215495D01*
X124287783Y-65209281D01*
X124304194Y-65197269D01*
X124307797Y-65195060D01*
X124307816Y-65195051D01*
X124399104Y-65128727D01*
X124479786Y-65070109D01*
X124479787Y-65070106D01*
X124479790Y-65070105D01*
X124479792Y-65070104D01*
X124479793Y-65070102D01*
X124479844Y-65070066D01*
X124480605Y-65069290D01*
X124630104Y-64919792D01*
X124630106Y-64919788D01*
X124630109Y-64919786D01*
X124739762Y-64768860D01*
X124755051Y-64747816D01*
X124851557Y-64558412D01*
X124917246Y-64356243D01*
X124950500Y-64146287D01*
X124950500Y-63933713D01*
X124917246Y-63723757D01*
X124851557Y-63521588D01*
X124755051Y-63332184D01*
X124755049Y-63332181D01*
X124755048Y-63332179D01*
X124754702Y-63331703D01*
X124754700Y-63331699D01*
X124630112Y-63160216D01*
X124479788Y-63009892D01*
X124479786Y-63009890D01*
X124307820Y-62884951D01*
X124230570Y-62845590D01*
X124140245Y-62799567D01*
X124140240Y-62799565D01*
X124118414Y-62788444D01*
X124118413Y-62788443D01*
X124118412Y-62788443D01*
X124014276Y-62754607D01*
X123925074Y-62725623D01*
X123920552Y-62723770D01*
X123911362Y-62721600D01*
X123906599Y-62721226D01*
X123874102Y-62716079D01*
X123754957Y-62697208D01*
X123735489Y-62694124D01*
X123706290Y-62689500D01*
X123706287Y-62689500D01*
X123493713Y-62689500D01*
X123493709Y-62689500D01*
X123454776Y-62695666D01*
X123445042Y-62697208D01*
X123407654Y-62703129D01*
X123283763Y-62722752D01*
X123081582Y-62788445D01*
X122892182Y-62884949D01*
X122720210Y-63009892D01*
X122569892Y-63160210D01*
X122544332Y-63195391D01*
X122474775Y-63291130D01*
X122444949Y-63332182D01*
X122348445Y-63521580D01*
X122282752Y-63723759D01*
X122266438Y-63826768D01*
X122266424Y-63826859D01*
X122266367Y-63827220D01*
X122249500Y-63933713D01*
X122249500Y-63938210D01*
X122249500Y-64146284D01*
X122249499Y-64146288D01*
X121310063Y-64146288D01*
X121296404Y-64042538D01*
X121238710Y-63827220D01*
X121153405Y-63621275D01*
X121041948Y-63428227D01*
X120936837Y-63291243D01*
X120906248Y-63251378D01*
X120906242Y-63251371D01*
X120748629Y-63093758D01*
X120748622Y-63093752D01*
X120748612Y-63093744D01*
X120748603Y-63093737D01*
X120573754Y-62959572D01*
X120573751Y-62959570D01*
X120571505Y-62957846D01*
X120570486Y-62957234D01*
X120568589Y-62956213D01*
X120378726Y-62846596D01*
X120378722Y-62846594D01*
X120176829Y-62762967D01*
X120172787Y-62761292D01*
X119958476Y-62703868D01*
X119958472Y-62703867D01*
X119957463Y-62703597D01*
X119957457Y-62703596D01*
X119957452Y-62703595D01*
X119738259Y-62674738D01*
X119738255Y-62674736D01*
X119736654Y-62674501D01*
X119736463Y-62674501D01*
X119736457Y-62674501D01*
X119513543Y-62674501D01*
X119513537Y-62674501D01*
X119513535Y-62674501D01*
X119508039Y-62675177D01*
X119507316Y-62675317D01*
X119506796Y-62675388D01*
X119292547Y-62703595D01*
X119292540Y-62703596D01*
X119292537Y-62703597D01*
X119281500Y-62706554D01*
X119281495Y-62706555D01*
X119208991Y-62725983D01*
X119178317Y-62734202D01*
X119077222Y-62761289D01*
X119077199Y-62761298D01*
X118871272Y-62846596D01*
X118678237Y-62958045D01*
X118678211Y-62958063D01*
X118501395Y-63093737D01*
X118501379Y-63093750D01*
X118501369Y-63093759D01*
X118501361Y-63093766D01*
X118343765Y-63251362D01*
X118343758Y-63251370D01*
X118343749Y-63251380D01*
X118343736Y-63251396D01*
X118208062Y-63428211D01*
X118208061Y-63428213D01*
X118208044Y-63428238D01*
X118096595Y-63621273D01*
X118048777Y-63736717D01*
X118011293Y-63827210D01*
X118011290Y-63827220D01*
X117963638Y-64005066D01*
X117963628Y-64005102D01*
X117963627Y-64005104D01*
X117953601Y-64042517D01*
X117953593Y-64042551D01*
X117953592Y-64042557D01*
X117924503Y-64263517D01*
X117924500Y-64263542D01*
X117924500Y-64297046D01*
X117924499Y-64297050D01*
X117924500Y-64297053D01*
X117919475Y-64331987D01*
X117915564Y-64345304D01*
X117877787Y-64404080D01*
X117814234Y-64433101D01*
X117814229Y-64433101D01*
X117814229Y-64433102D01*
X117814228Y-64433101D01*
X117810930Y-64433576D01*
X117755794Y-64429035D01*
X117753915Y-64428439D01*
X117735111Y-64420727D01*
X117643217Y-64373905D01*
X117643214Y-64373903D01*
X117441130Y-64308243D01*
X117231251Y-64275001D01*
X117231246Y-64275001D01*
X117018754Y-64275001D01*
X117018749Y-64275001D01*
X116818513Y-64306716D01*
X116818505Y-64306716D01*
X116818506Y-64306717D01*
X116808865Y-64308243D01*
X116606784Y-64373904D01*
X116417438Y-64470381D01*
X116363282Y-64509728D01*
X116363282Y-64509729D01*
X116868850Y-65015297D01*
X116902335Y-65076620D01*
X116897351Y-65146312D01*
X116855479Y-65202245D01*
X116843173Y-65210363D01*
X116817996Y-65224899D01*
X116817990Y-65224904D01*
X116724903Y-65317991D01*
X116724898Y-65317997D01*
X116710362Y-65343174D01*
X116659793Y-65391388D01*
X116591185Y-65404608D01*
X116526322Y-65378638D01*
X116515296Y-65368851D01*
X116009728Y-64863283D01*
X116009727Y-64863283D01*
X115970380Y-64917439D01*
X115873903Y-65106785D01*
X115808242Y-65308866D01*
X115807222Y-65315312D01*
X115775000Y-65518754D01*
X115000500Y-65518754D01*
X115000500Y-63330635D01*
X115000556Y-63326914D01*
X115000669Y-63323150D01*
X115000836Y-63319436D01*
X115002549Y-63291127D01*
X115018045Y-63034924D01*
X115018719Y-63027505D01*
X115019627Y-63020033D01*
X115020746Y-63012681D01*
X115030480Y-62959572D01*
X115030758Y-62958056D01*
X115066814Y-62761298D01*
X115071105Y-62737881D01*
X115072675Y-62730570D01*
X115073808Y-62725975D01*
X115074472Y-62723280D01*
X115076470Y-62716113D01*
X115159593Y-62449358D01*
X115162014Y-62442344D01*
X115164686Y-62435297D01*
X115167515Y-62428467D01*
X115282210Y-62173627D01*
X115285463Y-62166951D01*
X115288944Y-62160318D01*
X115292601Y-62153833D01*
X115375007Y-62017517D01*
X115437163Y-61914695D01*
X115441181Y-61908482D01*
X115445453Y-61902291D01*
X115449874Y-61896285D01*
X115460540Y-61882671D01*
X115622185Y-61676347D01*
X115626938Y-61670643D01*
X115631946Y-61664990D01*
X115637032Y-61659589D01*
X115834589Y-61462032D01*
X115839990Y-61456946D01*
X115845643Y-61451938D01*
X115851347Y-61447185D01*
X116071290Y-61274869D01*
X116077311Y-61270440D01*
X116083463Y-61266194D01*
X116089719Y-61262149D01*
X116328846Y-61117593D01*
X116335282Y-61113963D01*
X116341984Y-61110445D01*
X116348627Y-61107210D01*
X116603467Y-60992515D01*
X116610297Y-60989686D01*
X116617354Y-60987010D01*
X116624358Y-60984593D01*
X116891106Y-60901471D01*
X116898267Y-60899474D01*
X116905582Y-60897671D01*
X116912856Y-60896109D01*
X117187673Y-60845747D01*
X117195042Y-60844625D01*
X117202500Y-60843720D01*
X117209909Y-60843046D01*
X117494427Y-60825837D01*
X117498152Y-60825669D01*
X117501917Y-60825556D01*
X117505637Y-60825500D01*
X162644363Y-60825500D01*
X162648084Y-60825556D01*
G37*
%TD.AperFunction*%
%TD*%
%TA.AperFunction,Conductor*%
%TO.N,/BAT*%
G36*
X164362193Y-122734544D02*
G01*
X165146079Y-123519352D01*
X165149500Y-123527617D01*
X165149500Y-123639158D01*
X165146832Y-123646596D01*
X164507437Y-124423006D01*
X164499532Y-124427214D01*
X164498405Y-124427268D01*
X164209449Y-124427268D01*
X164201176Y-124423841D01*
X164200417Y-124423006D01*
X163510675Y-123585462D01*
X163508061Y-123576897D01*
X163511427Y-123569758D01*
X164345650Y-122734554D01*
X164353920Y-122731123D01*
X164362193Y-122734544D01*
G37*
%TD.AperFunction*%
%TD*%
%TA.AperFunction,Conductor*%
%TO.N,/NAU_MCLK*%
G36*
X151659496Y-122725189D02*
G01*
X152392892Y-123122180D01*
X152398536Y-123129132D01*
X152397611Y-123138039D01*
X152397403Y-123138407D01*
X151803926Y-124146072D01*
X151760883Y-124249988D01*
X151758347Y-124253784D01*
X151572326Y-124439806D01*
X151564053Y-124443233D01*
X151555780Y-124439806D01*
X151362587Y-124246613D01*
X151359160Y-124238340D01*
X151362587Y-124230067D01*
X151364898Y-124228273D01*
X151503927Y-124146073D01*
X150910450Y-123138407D01*
X150909204Y-123129539D01*
X150914593Y-123122388D01*
X150914923Y-123122201D01*
X151648357Y-122725189D01*
X151657264Y-122724265D01*
X151659496Y-122725189D01*
G37*
%TD.AperFunction*%
%TD*%
%TA.AperFunction,Conductor*%
%TO.N,/BCLK*%
G36*
X149119497Y-122725190D02*
G01*
X149852468Y-123121951D01*
X149858112Y-123128903D01*
X149857187Y-123137810D01*
X149856741Y-123138565D01*
X149263928Y-124061070D01*
X149263925Y-124061077D01*
X149220883Y-124164988D01*
X149218347Y-124168784D01*
X148972222Y-124414910D01*
X148963949Y-124418337D01*
X148955676Y-124414910D01*
X148761630Y-124220864D01*
X148758203Y-124212591D01*
X148761630Y-124204318D01*
X148763139Y-124203044D01*
X148963927Y-124061073D01*
X148371111Y-123138564D01*
X148369522Y-123129753D01*
X148374630Y-123122397D01*
X148375377Y-123121955D01*
X149108357Y-122725189D01*
X149117264Y-122724265D01*
X149119497Y-122725190D01*
G37*
%TD.AperFunction*%
%TD*%
%TA.AperFunction,Conductor*%
%TO.N,/NAU_DAT*%
G36*
X146579496Y-122725189D02*
G01*
X147313895Y-123122723D01*
X147319539Y-123129675D01*
X147318942Y-123137927D01*
X146727068Y-124416390D01*
X146720483Y-124422458D01*
X146716451Y-124423175D01*
X146431403Y-124423175D01*
X146423130Y-124419748D01*
X146420786Y-124416390D01*
X145828911Y-123137927D01*
X145828545Y-123128980D01*
X145833956Y-123122724D01*
X146568357Y-122725189D01*
X146577264Y-122724265D01*
X146579496Y-122725189D01*
G37*
%TD.AperFunction*%
%TD*%
%TA.AperFunction,Conductor*%
%TO.N,/LRCK*%
G36*
X144039496Y-122725189D02*
G01*
X144773895Y-123122723D01*
X144779539Y-123129675D01*
X144778942Y-123137927D01*
X144187068Y-124416390D01*
X144180483Y-124422458D01*
X144176451Y-124423175D01*
X143891403Y-124423175D01*
X143883130Y-124419748D01*
X143880786Y-124416390D01*
X143288911Y-123137927D01*
X143288545Y-123128980D01*
X143293956Y-123122724D01*
X144028357Y-122725189D01*
X144037264Y-122724265D01*
X144039496Y-122725189D01*
G37*
%TD.AperFunction*%
%TD*%
%TA.AperFunction,Conductor*%
%TO.N,/_LP*%
G36*
X156696566Y-105971196D02*
G01*
X156699993Y-105979469D01*
X156699942Y-105980556D01*
X156657207Y-106436416D01*
X157633270Y-106541646D01*
X157641127Y-106545939D01*
X157643664Y-106554373D01*
X157551745Y-107532532D01*
X157547559Y-107540448D01*
X157541191Y-107543086D01*
X156563032Y-107635005D01*
X156554474Y-107632367D01*
X156550305Y-107624612D01*
X156445075Y-106648548D01*
X156402032Y-106544633D01*
X156401141Y-106540156D01*
X156401141Y-105979469D01*
X156404568Y-105971196D01*
X156412841Y-105967769D01*
X156688293Y-105967769D01*
X156696566Y-105971196D01*
G37*
%TD.AperFunction*%
%TD*%
%TA.AperFunction,Conductor*%
%TO.N,/_LN*%
G36*
X156141589Y-105955673D02*
G01*
X156142422Y-105956017D01*
X156143236Y-105956355D01*
X156146400Y-105959518D01*
X156149566Y-105962682D01*
X156149568Y-105962685D01*
X156150250Y-105964331D01*
X156151141Y-105968810D01*
X156151141Y-106540174D01*
X156150916Y-106542459D01*
X156150474Y-106544679D01*
X156149808Y-106546871D01*
X156107208Y-106649713D01*
X156107206Y-106649720D01*
X156003385Y-107622282D01*
X156002022Y-107626643D01*
X156001148Y-107628245D01*
X155994252Y-107633845D01*
X155992599Y-107634343D01*
X155988129Y-107634789D01*
X155014577Y-107543303D01*
X155010203Y-107541997D01*
X155008070Y-107540869D01*
X155002731Y-107535002D01*
X155002382Y-107534159D01*
X155001543Y-107530779D01*
X154918749Y-106649723D01*
X154910007Y-106556695D01*
X154910475Y-106552158D01*
X154911014Y-106550410D01*
X154916660Y-106543554D01*
X154918183Y-106542736D01*
X154922471Y-106541413D01*
X155895075Y-106437588D01*
X155852512Y-105969854D01*
X155852993Y-105965322D01*
X155853524Y-105963618D01*
X155859254Y-105956742D01*
X155860439Y-105956119D01*
X155865870Y-105954783D01*
X156137114Y-105954783D01*
X156141589Y-105955673D01*
G37*
%TD.AperFunction*%
%TD*%
%TA.AperFunction,Conductor*%
%TO.N,/_RN*%
G36*
X150734505Y-105961599D02*
G01*
X150735338Y-105961943D01*
X150736150Y-105962280D01*
X150736151Y-105962281D01*
X150736152Y-105962281D01*
X150736157Y-105962283D01*
X150739319Y-105965446D01*
X150742482Y-105968608D01*
X150742486Y-105968616D01*
X150742990Y-105969834D01*
X150743828Y-105975395D01*
X150701263Y-106431471D01*
X150701264Y-106431472D01*
X150701264Y-106431473D01*
X150701265Y-106431473D01*
X150701265Y-106431474D01*
X150701300Y-106431513D01*
X150701919Y-106431548D01*
X151682440Y-106543715D01*
X151686784Y-106545107D01*
X151688403Y-106546005D01*
X151693942Y-106552900D01*
X151694424Y-106554520D01*
X151694859Y-106558952D01*
X151603362Y-107532616D01*
X151602056Y-107536991D01*
X151600929Y-107539122D01*
X151595061Y-107544462D01*
X151594218Y-107544811D01*
X151590838Y-107545650D01*
X150616673Y-107637194D01*
X150612130Y-107636725D01*
X150610363Y-107636180D01*
X150603522Y-107630570D01*
X150602716Y-107629081D01*
X150601381Y-107624841D01*
X150592186Y-107544462D01*
X150489133Y-106643606D01*
X150446528Y-106540749D01*
X150445866Y-106538568D01*
X150445422Y-106536339D01*
X150445199Y-106534060D01*
X150445199Y-105974736D01*
X150446088Y-105970263D01*
X150446122Y-105970178D01*
X150446770Y-105968615D01*
X150453095Y-105962284D01*
X150454668Y-105961632D01*
X150454753Y-105961598D01*
X150459226Y-105960709D01*
X150730030Y-105960709D01*
X150734505Y-105961599D01*
G37*
%TD.AperFunction*%
%TD*%
%TA.AperFunction,Conductor*%
%TO.N,/_RP*%
G36*
X150191772Y-105957569D02*
G01*
X150195199Y-105965842D01*
X150195199Y-106551070D01*
X150194308Y-106555547D01*
X150151266Y-106659456D01*
X150151265Y-106659460D01*
X150054469Y-107626912D01*
X150050235Y-107634803D01*
X150041732Y-107637396D01*
X149063662Y-107545486D01*
X149055746Y-107541300D01*
X149053108Y-107534932D01*
X148970839Y-106659462D01*
X148961198Y-106556861D01*
X148963836Y-106548304D01*
X148971681Y-106544125D01*
X149939133Y-106447330D01*
X149896334Y-105966880D01*
X149899013Y-105958336D01*
X149906950Y-105954188D01*
X149907988Y-105954142D01*
X150183499Y-105954142D01*
X150191772Y-105957569D01*
G37*
%TD.AperFunction*%
%TD*%
%TA.AperFunction,Conductor*%
%TO.N,/MIC_SD*%
G36*
X125994853Y-122793724D02*
G01*
X126729252Y-123191258D01*
X126734896Y-123198210D01*
X126734299Y-123206462D01*
X126142425Y-124484925D01*
X126135840Y-124490993D01*
X126131808Y-124491710D01*
X125846760Y-124491710D01*
X125838487Y-124488283D01*
X125836143Y-124484925D01*
X125244268Y-123206462D01*
X125243902Y-123197515D01*
X125249313Y-123191259D01*
X125983714Y-122793724D01*
X125992621Y-122792800D01*
X125994853Y-122793724D01*
G37*
%TD.AperFunction*%
%TD*%
M02*
