%TF.GenerationSoftware,KiCad,Pcbnew,10.0.3-2.fc44*%
%TF.CreationDate,2026-07-02T16:12:44+05:30*%
%TF.ProjectId,walkietalkie,77616c6b-6965-4746-916c-6b69652e6b69,rev?*%
%TF.SameCoordinates,Original*%
%TF.FileFunction,Soldermask,Top*%
%TF.FilePolarity,Negative*%
%FSLAX46Y46*%
G04 Gerber Fmt 4.6, Leading zero omitted, Abs format (unit mm)*
G04 Created by KiCad (PCBNEW 10.0.3-2.fc44) date 2026-07-02 16:12:44*
%MOMM*%
%LPD*%
G01*
G04 APERTURE LIST*
G04 Aperture macros list*
%AMRoundRect*
0 Rectangle with rounded corners*
0 $1 Rounding radius*
0 $2 $3 $4 $5 $6 $7 $8 $9 X,Y pos of 4 corners*
0 Add a 4 corners polygon primitive as box body*
4,1,4,$2,$3,$4,$5,$6,$7,$8,$9,$2,$3,0*
0 Add four circle primitives for the rounded corners*
1,1,$1+$1,$2,$3*
1,1,$1+$1,$4,$5*
1,1,$1+$1,$6,$7*
1,1,$1+$1,$8,$9*
0 Add four rect primitives between the rounded corners*
20,1,$1+$1,$2,$3,$4,$5,0*
20,1,$1+$1,$4,$5,$6,$7,0*
20,1,$1+$1,$6,$7,$8,$9,0*
20,1,$1+$1,$8,$9,$2,$3,0*%
G04 Aperture macros list end*
%ADD10O,2.000000X1.700000*%
%ADD11RoundRect,0.250000X0.750000X-0.600000X0.750000X0.600000X-0.750000X0.600000X-0.750000X-0.600000X0*%
%ADD12RoundRect,0.250000X-0.750000X0.600000X-0.750000X-0.600000X0.750000X-0.600000X0.750000X0.600000X0*%
%ADD13C,2.400000*%
%ADD14C,1.700000*%
%ADD15R,1.800000X1.800000*%
%ADD16C,1.800000*%
%ADD17O,1.700000X1.700000*%
%ADD18R,1.700000X1.700000*%
%ADD19C,2.000000*%
%ADD20C,1.600000*%
%ADD21RoundRect,0.250000X-0.550000X-0.550000X0.550000X-0.550000X0.550000X0.550000X-0.550000X0.550000X0*%
%ADD22C,1.512000*%
%ADD23C,2.304000*%
%ADD24RoundRect,0.170000X0.680000X-0.680000X0.680000X0.680000X-0.680000X0.680000X-0.680000X-0.680000X0*%
G04 APERTURE END LIST*
D10*
%TO.C,J3*%
X156090000Y-97880000D03*
D11*
X156090000Y-100380000D03*
%TD*%
D12*
%TO.C,J2*%
X150090000Y-97880000D03*
D10*
X150090000Y-100380000D03*
%TD*%
D13*
%TO.C,SW1*%
X119625000Y-71375001D03*
X119625000Y-64375001D03*
D14*
X117125000Y-70125001D03*
X117125000Y-65625001D03*
%TD*%
D15*
%TO.C,D1*%
X159270000Y-63460000D03*
D16*
X161810000Y-63460000D03*
%TD*%
D17*
%TO.C,U1*%
X121206640Y-148352017D03*
X123606640Y-148352017D03*
X126206640Y-148352017D03*
X128706640Y-148352017D03*
X131106640Y-148352017D03*
X133806640Y-148452017D03*
X136306640Y-148452017D03*
X138906640Y-148452017D03*
X141406640Y-148452017D03*
X143906640Y-148452017D03*
X146506640Y-148452017D03*
D18*
X149006640Y-148452017D03*
X159106640Y-128152017D03*
D17*
X156606640Y-128152017D03*
X154006640Y-128052017D03*
X151506640Y-128052017D03*
X149006640Y-128052017D03*
X146406640Y-128052017D03*
X143906640Y-128052017D03*
X141306640Y-128052017D03*
X138806640Y-128052017D03*
X136306640Y-128052017D03*
X133706640Y-128052017D03*
X131206640Y-128052017D03*
X128606640Y-128052017D03*
X126106640Y-128052017D03*
X123606640Y-128052017D03*
X121006640Y-128152017D03*
%TD*%
D18*
%TO.C,U3*%
X164353927Y-122727268D03*
D17*
X161813927Y-122727268D03*
X159273927Y-122727268D03*
X156733927Y-122727268D03*
X154193927Y-122727268D03*
X151653927Y-122727268D03*
X149113927Y-122727268D03*
X146573927Y-122727268D03*
X144033927Y-122727268D03*
D19*
X157546727Y-107538068D03*
X155006727Y-107538068D03*
X151598127Y-107540468D03*
X149058127Y-107540468D03*
%TD*%
D20*
%TO.C,R1*%
X164100000Y-75950000D03*
X164100000Y-65790000D03*
%TD*%
D21*
%TO.C,C1*%
X132970000Y-95710000D03*
D20*
X136770000Y-95710000D03*
%TD*%
D22*
%TO.C,U6*%
X161220000Y-147240000D03*
X157220000Y-147240000D03*
X159220000Y-147240000D03*
D23*
X163370000Y-147240000D03*
X155070000Y-147240000D03*
%TD*%
D18*
%TO.C,U5*%
X133763248Y-125225355D03*
D17*
X133763248Y-122685355D03*
X133763248Y-120145355D03*
X133763248Y-117605355D03*
X133763248Y-115065355D03*
X133763248Y-112525355D03*
X133763248Y-109985355D03*
X133763248Y-107445355D03*
D14*
X133763248Y-104905355D03*
%TD*%
D18*
%TO.C,J1*%
X134995000Y-62975000D03*
D14*
X137535000Y-62975000D03*
X140075000Y-62975000D03*
X142615000Y-62975000D03*
X145155000Y-62975000D03*
%TD*%
D18*
%TO.C,U2*%
X126296112Y-99190000D03*
D14*
X126296112Y-96650000D03*
X123756112Y-99190000D03*
X123756112Y-96650000D03*
X121216112Y-99190000D03*
X121216112Y-96650000D03*
X118676112Y-99190000D03*
X118676112Y-96650000D03*
%TD*%
D18*
%TO.C,U4*%
X120909284Y-122795803D03*
D17*
X123449284Y-122795803D03*
X125989284Y-122795803D03*
X128529284Y-122795803D03*
X131069284Y-122795803D03*
%TD*%
D24*
%TO.C,U7*%
X123600000Y-71660000D03*
D14*
X123600000Y-69120000D03*
X123600000Y-66580000D03*
X123600000Y-64040000D03*
%TD*%
M02*
